<?xml version="1.0" encoding="UTF-8"?><svg id="Layer_1" xmlns="http://www.w3.org/2000/svg" viewBox="0 0 2000 1500"><rect width="2000" height="1500" fill="#fff" stroke-width="0"/><rect x="750.188" y="391.215" width="499.631" height="499.631" rx="65.297" ry="65.297" fill="#f9f2e8" stroke-width="0"/><path d="m961.197,676.275c-16.392,9.281-34.255,13.768-48.544,9.225-22.24-7.071-31.508-24.431-26.912-40.075,6.869-23.383,29.684-31.582,50.513-25.376,47.79,14.239,32.135,102.552-1.705,106.835-17.493,2.214-24.212-10.536-25.114-22.419-1.155-15.21,8.258-31.983,14.667-42.032" fill="none" stroke="#ff724c" stroke-miterlimit="10" stroke-width="18.281"/><path d="m961.299,676.307c8.802-4.809,18.529-11.309,26.245-21.648,5.651-7.571,12.937-13.734,21.208-18.3,20.919-11.548,43.533-36.877,51.383-53.766,15.386-33.104.25-51.936-20.06-49.035-17.31,2.472-50.991,25.828-44.525,120.249,1.736,25.344,5.412,46.485,12.73,79.095-3.955-17.624,32.359-99.873,61.201-82.783,20.728,12.282.467,53.679-20.385,82.753" fill="none" stroke="#ff86e6" stroke-miterlimit="10" stroke-width="18.281"/><line x1="1112.43" y1="636.925" x2="1129.067" y2="628.817" fill="none" stroke="#9654f7" stroke-linecap="square" stroke-miterlimit="10" stroke-width="18.281"/><line x1="1094.718" y1="613.193" x2="1108.447" y2="594.915" fill="none" stroke="#9654f7" stroke-linecap="square" stroke-miterlimit="10" stroke-width="18.281"/><g isolation="isolate"><g isolation="isolate"><path d="m751.094,1047.458c-7.462,0-14.112-1.807-19.951-5.42-5.841-3.612-10.44-8.769-13.799-15.469-3.36-6.699-5.039-14.657-5.039-23.877s1.679-17.235,5.039-23.936c3.358-6.699,7.958-11.865,13.799-15.498,5.839-3.633,12.489-5.449,19.951-5.449s14.101,1.816,19.922,5.449c5.819,3.633,10.4,8.799,13.74,15.498,3.34,6.7,5.01,14.678,5.01,23.936s-1.67,17.178-5.01,23.877c-3.34,6.7-7.921,11.856-13.74,15.469-5.821,3.613-12.462,5.42-19.922,5.42Zm0-10.312c5.194,0,9.892-1.318,14.092-3.955,4.198-2.637,7.538-6.523,10.02-11.66,2.479-5.136,3.721-11.416,3.721-18.838,0-7.5-1.241-13.818-3.721-18.955-2.481-5.136-5.821-9.023-10.02-11.66-4.2-2.637-8.897-3.955-14.092-3.955-5.235,0-9.961,1.328-14.18,3.984-4.219,2.657-7.569,6.554-10.049,11.689-2.481,5.137-3.721,11.436-3.721,18.896,0,7.422,1.239,13.691,3.721,18.809,2.479,5.118,5.83,9.004,10.049,11.66,4.219,2.657,8.944,3.984,14.18,3.984Z" stroke-width="0"/><path d="m816.719,1007.028v39.258h-10.547v-87.305h10.547v37.676h-1.816c1.992-6.055,4.834-10.351,8.525-12.891,3.691-2.539,8.017-3.809,12.979-3.809,4.413,0,8.291.908,11.631,2.725s5.937,4.551,7.793,8.203c1.854,3.653,2.783,8.253,2.783,13.799v41.602h-10.605v-40.723c0-5.039-1.318-8.984-3.955-11.836-2.637-2.851-6.24-4.277-10.811-4.277-3.126,0-5.938.684-8.438,2.051-2.501,1.368-4.474,3.36-5.918,5.977-1.446,2.617-2.168,5.801-2.168,9.551Z" stroke-width="0"/><path d="m940.117,1047.81c-6.29,0-11.748-1.017-16.377-3.047s-8.253-4.872-10.869-8.525c-2.618-3.652-4.102-7.919-4.453-12.803h11.426c.312,3.281,1.425,5.986,3.34,8.115,1.913,2.13,4.365,3.712,7.354,4.746,2.988,1.035,6.182,1.553,9.58,1.553,3.944,0,7.489-.645,10.635-1.934,3.144-1.289,5.634-3.105,7.471-5.449,1.835-2.344,2.754-5.059,2.754-8.145,0-2.812-.791-5.098-2.373-6.855s-3.683-3.202-6.299-4.336c-2.618-1.133-5.489-2.129-8.613-2.988l-10.547-2.988c-7.031-1.992-12.501-4.843-16.406-8.555-3.907-3.711-5.859-8.457-5.859-14.238,0-4.922,1.327-9.229,3.984-12.92,2.655-3.691,6.249-6.553,10.781-8.584,4.53-2.03,9.609-3.047,15.234-3.047,5.742,0,10.819,1.017,15.234,3.047,4.413,2.031,7.899,4.796,10.459,8.291,2.558,3.496,3.915,7.451,4.072,11.865h-10.898c-.509-4.257-2.54-7.549-6.094-9.873-3.556-2.323-7.931-3.486-13.125-3.486-3.75,0-7.042.615-9.873,1.846-2.833,1.23-5.03,2.91-6.592,5.039-1.563,2.13-2.344,4.562-2.344,7.295,0,3.047.946,5.499,2.842,7.354,1.894,1.855,4.14,3.302,6.738,4.336,2.597,1.035,4.951,1.846,7.061,2.432l8.73,2.402c2.344.625,4.931,1.485,7.764,2.578,2.831,1.094,5.537,2.549,8.115,4.365s4.696,4.122,6.357,6.914c1.659,2.793,2.49,6.221,2.49,10.283,0,4.767-1.241,9.062-3.721,12.891-2.481,3.829-6.085,6.855-10.811,9.082-4.728,2.227-10.45,3.34-17.168,3.34Z" stroke-width="0"/></g><g isolation="isolate"><path d="m988.105,1046.286v-87.305h10.547v87.305h-10.547Zm9.902-23.555v-13.066h1.934l28.007-28.887h13.066l-30.293,31.113h-1.172l-11.542,10.84Zm31.523,23.555l-25.078-32.051,7.5-7.441,31.113,39.492h-13.535Z" stroke-width="0"/></g><g isolation="isolate"><path d="m1080.039,1047.692c-6.328,0-11.788-1.406-16.377-4.219-4.591-2.812-8.126-6.738-10.605-11.777-2.481-5.039-3.721-10.918-3.721-17.637s1.21-12.636,3.633-17.754c2.421-5.117,5.849-9.12,10.283-12.012,4.433-2.891,9.618-4.336,15.557-4.336,3.476,0,6.903.577,10.283,1.729,3.378,1.152,6.445,3.009,9.199,5.566,2.754,2.559,4.951,5.928,6.592,10.107,1.641,4.181,2.461,9.297,2.461,15.352v4.395h-50.859v-8.906h45.176l-4.922,3.281c0-4.297-.674-8.115-2.021-11.455s-3.351-5.956-6.006-7.852c-2.657-1.895-5.958-2.842-9.902-2.842s-7.324.967-10.137,2.9-4.962,4.453-6.445,7.559c-1.485,3.105-2.227,6.437-2.227,9.99v5.918c0,4.844.839,8.956,2.52,12.334,1.679,3.379,4.032,5.938,7.061,7.676,3.026,1.738,6.533,2.607,10.518,2.607,2.578,0,4.922-.371,7.031-1.113,2.109-.741,3.926-1.865,5.449-3.369,1.523-1.503,2.695-3.369,3.516-5.596l10.195,2.812c-1.017,3.281-2.735,6.173-5.156,8.672-2.423,2.5-5.42,4.453-8.994,5.859s-7.608,2.109-12.1,2.109Z" stroke-width="0"/></g><g isolation="isolate"><path d="m1148.77,980.778v9.023h-33.867v-9.023h33.867Zm-24.023-15.586h10.547v64.102c0,2.93.595,5.068,1.787,6.416,1.19,1.348,3.173,2.021,5.947,2.021.663,0,1.513-.078,2.549-.234,1.034-.155,1.981-.312,2.842-.469l2.168,8.906c-1.095.39-2.335.683-3.721.879-1.388.195-2.765.293-4.131.293-5.665,0-10.078-1.494-13.242-4.482s-4.746-7.157-4.746-12.51v-64.922Z" stroke-width="0"/></g><g isolation="isolate"><path d="m1189.316,1047.692c-5.938,0-11.144-1.406-15.615-4.219-4.474-2.812-7.96-6.758-10.459-11.836-2.501-5.077-3.75-10.977-3.75-17.695,0-6.835,1.249-12.803,3.75-17.9,2.499-5.098,5.985-9.053,10.459-11.865,4.472-2.812,9.677-4.219,15.615-4.219,3.164,0,6.152.41,8.965,1.23s5.38,2.002,7.705,3.545c2.323,1.544,4.325,3.438,6.006,5.684,1.679,2.247,2.968,4.796,3.867,7.646l-10.137,2.871c-.469-1.679-1.192-3.223-2.168-4.629-.978-1.406-2.159-2.627-3.545-3.662-1.388-1.034-2.979-1.836-4.775-2.402-1.798-.565-3.771-.85-5.918-.85-4.376,0-7.969,1.143-10.781,3.428s-4.903,5.283-6.27,8.994c-1.368,3.712-2.051,7.755-2.051,12.129,0,4.298.683,8.291,2.051,11.982,1.366,3.691,3.457,6.671,6.27,8.936,2.812,2.266,6.405,3.398,10.781,3.398,2.187,0,4.198-.293,6.035-.879,1.835-.586,3.466-1.415,4.893-2.49,1.425-1.074,2.626-2.353,3.604-3.838.976-1.484,1.699-3.105,2.168-4.863l10.078,2.871c-.86,2.93-2.139,5.537-3.838,7.822s-3.721,4.239-6.064,5.859c-2.344,1.621-4.942,2.852-7.793,3.691-2.853.84-5.88,1.26-9.082,1.26Z" stroke-width="0"/><path d="m1241.758,1007.028v39.258h-10.547v-87.305h10.547v37.676h-1.816c1.992-6.055,4.834-10.351,8.525-12.891,3.691-2.539,8.017-3.809,12.979-3.809,4.413,0,8.291.908,11.631,2.725s5.937,4.551,7.793,8.203c1.854,3.653,2.783,8.253,2.783,13.799v41.602h-10.605v-40.723c0-5.039-1.318-8.984-3.955-11.836-2.637-2.851-6.24-4.277-10.811-4.277-3.126,0-5.938.684-8.438,2.051-2.501,1.368-4.474,3.36-5.918,5.977-1.446,2.617-2.168,5.801-2.168,9.551Z" stroke-width="0"/></g></g></svg>