<?xml version="1.0" encoding="UTF-8"?><svg id="Layer_1" xmlns="http://www.w3.org/2000/svg" xmlns:xlink="http://www.w3.org/1999/xlink" viewBox="0 0 2000 1500"><defs><clipPath id="clippath"><rect x="750" y="391.036" width="500" height="500" rx="71.347" ry="71.347" fill="none" stroke-width="0"/></clipPath></defs><rect width="2000" height="1500" fill="#fff" stroke-width="0"/><g clip-path="url(#clippath)"><rect x="750.081" y="391.246" width="500" height="500" fill="#fffed4" stroke-width="0"/><g opacity=".7"><polygon points="1000.08 856.246 867.007 391.246 750.081 391.246 750.081 508.279 1000.08 856.246" fill="#fcefbb" stroke-width="0"/></g><g opacity=".7"><polygon points="1000.08 856.246 1133.154 391.246 1250.081 391.246 1250.081 513.28 1000.08 856.246" fill="#fcefbb" stroke-width="0"/></g><g opacity=".7"><polygon points="1000.08 856.246 907.702 391.246 1093.063 391.246 1000.08 856.246" fill="#fcefbb" stroke-width="0"/></g><g opacity=".7"><polygon points="1000.08 856.246 1250.08 580.862 1250.08 756.757 1000.08 856.246" fill="#fcefbb" stroke-width="0"/></g><g opacity=".7"><polygon points="1000.586 856.06 750.586 579.664 750.586 756.57 1000.586 856.06" fill="#fcefbb" stroke-width="0"/></g><g opacity=".7"><polygon points="999.575 856.06 1250.08 798.039 1250.08 891.246 999.575 856.06" fill="#fcefbb" stroke-width="0"/></g><g opacity=".7"><polygon points="1000.586 856.06 750.081 798.038 750.081 891.245 1000.586 856.06" fill="#fcefbb" stroke-width="0"/></g><rect x="959.352" y="730.58" width="81.457" height="58.986" rx="8.753" ry="8.753" fill="#fcaf5b" stroke-width="0"/><path d="m885.291,778.892h229.58c24.39,0,44.191,19.801,44.191,44.191v68.163h-317.962v-68.163c0-24.39,19.801-44.191,44.191-44.191h0Z" fill="#fcaf5b" stroke-width="0"/><path d="m1040.65,778.892l-148.869,70.714v41.64h267.402v-66.914c0-25.096-20.344-45.44-45.44-45.44h-73.093Z" fill="#e84e25" stroke-width="0"/><path d="m1110.709,589.253v65.833c0,25.424-10.924,49.74-30.231,67.287h0c-45.004,40.905-115.791,40.905-160.795,0h0c-19.306-17.548-30.23-41.863-30.23-67.287v-65.833c.125-58.122,49.609-105.201,110.628-105.201s110.503,47.08,110.628,105.201h0Z" fill="#fcaf5b" stroke-width="0"/><path d="m941.765,627.275c2.76-7.111,9.667-12.162,17.752-12.162s14.992,5.051,17.751,12.162" fill="none" stroke="#66281c" stroke-linecap="round" stroke-miterlimit="10" stroke-width="8.86"/><path d="m1022.902,627.275c2.755-7.111,9.662-12.162,17.747-12.162s14.992,5.051,17.747,12.162" fill="none" stroke="#66281c" stroke-linecap="round" stroke-miterlimit="10" stroke-width="8.86"/><path d="m894.518,623.897v49.247h-6.424v-.004c-.068.004-.141.004-.214.004-13.601,0-24.623-11.023-24.623-24.623s11.023-24.623,24.623-24.623c.073,0,.146,0,.214.004v-.004h6.424Z" fill="#fcaf5b" stroke-width="0"/><path d="m1105.643,623.898v49.247h6.423v-.004c.068.004.141.004.214.004,13.601,0,24.623-11.023,24.623-24.623s-11.023-24.623-24.623-24.623c-.073,0-.146,0-.214.004v-.004h-6.423Z" fill="#fcaf5b" stroke-width="0"/><path d="m940.811,574.74c4.939-2.666,10.36-4.638,16.161-5.764,5.52-1.072,11.008-1.304,16.332-.786" fill="none" stroke="#66281c" stroke-linecap="round" stroke-miterlimit="10" stroke-width="8.86"/><path d="m1059.35,574.741c-4.939-2.666-10.36-4.638-16.161-5.764-5.52-1.072-11.008-1.304-16.332-.786" fill="none" stroke="#66281c" stroke-linecap="round" stroke-miterlimit="10" stroke-width="8.86"/><ellipse cx="925.331" cy="656.427" rx="16.25" ry="14.625" fill="#ff7950" stroke-width="0"/><ellipse cx="1074.831" cy="656.427" rx="16.25" ry="14.625" fill="#ff7950" stroke-width="0"/><path d="m1047.048,668.056c.207,3.173-.589,6.144-2.103,8.641l-.009.013c-1.212,1.463-2.499,2.87-3.851,4.207-10.53,10.435-25.015,16.88-41.005,16.88s-30.48-6.445-41.01-16.885c-1.352-1.337-2.634-2.739-3.845-4.201l-.01-.014c-1.511-2.493-2.307-5.459-2.104-8.627.468-7.266,6.322-13.19,13.583-13.731,1.122-.084,2.22-.042,3.282.112,3.34.485,6.322,2.285,8.588,4.786.46.507.937.998,1.431,1.469,5.21,5.015,12.29,8.09,20.085,8.09s14.875-3.075,20.085-8.09c.492-.467.966-.953,1.422-1.455,2.408-2.655,5.625-4.502,9.19-4.874.865-.09,1.753-.106,2.657-.04,7.269.527,13.139,6.447,13.614,13.719h0Z" fill="#fff" stroke-width="0"/></g><g isolation="isolate"><g isolation="isolate"><path d="m687.051,1046.286v-87.305h15.82l21.504,55.078c.507,1.289,1.084,2.9,1.729,4.834s1.328,4.034,2.051,6.299c.722,2.266,1.416,4.521,2.08,6.768.664,2.247,1.25,4.327,1.758,6.24h-2.461c.546-1.796,1.152-3.799,1.816-6.006.664-2.206,1.357-4.453,2.08-6.738.722-2.285,1.416-4.424,2.08-6.416.664-1.992,1.25-3.652,1.758-4.98l21.211-55.078h15.879v87.305h-10.957v-49.863c0-1.796.009-3.847.029-6.152.019-2.305.059-4.726.117-7.266.059-2.539.117-5.117.176-7.734.059-2.616.107-5.156.146-7.617h.938c-.82,2.695-1.69,5.44-2.607,8.232-.918,2.793-1.816,5.488-2.695,8.086-.879,2.599-1.709,4.972-2.49,7.119-.782,2.148-1.446,3.926-1.992,5.332l-19.512,49.863h-9.668l-19.805-49.863c-.547-1.367-1.192-3.096-1.934-5.186-.743-2.089-1.553-4.414-2.432-6.973-.879-2.558-1.787-5.253-2.725-8.086-.938-2.832-1.895-5.674-2.871-8.525h1.055c.078,2.188.146,4.551.205,7.09.059,2.54.107,5.107.146,7.705.039,2.599.078,5.098.117,7.5.039,2.402.059,4.562.059,6.475v49.863h-10.605Z" stroke-width="0"/><path d="m820.82,1047.692c-5.938,0-11.143-1.406-15.615-4.219-4.473-2.812-7.959-6.758-10.459-11.836-2.5-5.077-3.75-10.977-3.75-17.695,0-6.835,1.25-12.803,3.75-17.9,2.5-5.098,5.986-9.053,10.459-11.865,4.472-2.812,9.677-4.219,15.615-4.219,5.977,0,11.21,1.406,15.703,4.219,4.492,2.812,7.988,6.768,10.488,11.865,2.5,5.098,3.75,11.065,3.75,17.9,0,6.719-1.25,12.618-3.75,17.695-2.5,5.078-5.997,9.023-10.488,11.836-4.493,2.812-9.727,4.219-15.703,4.219Zm0-9.434c4.414,0,8.046-1.133,10.898-3.398,2.851-2.265,4.96-5.244,6.328-8.936,1.367-3.691,2.051-7.685,2.051-11.982,0-4.336-.684-8.369-2.051-12.1-1.368-3.729-3.477-6.738-6.328-9.023-2.852-2.285-6.485-3.428-10.898-3.428-4.375,0-7.969,1.143-10.781,3.428s-4.903,5.283-6.27,8.994c-1.368,3.712-2.051,7.755-2.051,12.129,0,4.298.683,8.291,2.051,11.982,1.367,3.691,3.457,6.671,6.27,8.936,2.812,2.266,6.406,3.398,10.781,3.398Z" stroke-width="0"/><path d="m892.773,1047.692c-5.938,0-11.143-1.406-15.615-4.219-4.473-2.812-7.959-6.758-10.459-11.836-2.5-5.077-3.75-10.977-3.75-17.695,0-6.835,1.25-12.803,3.75-17.9,2.5-5.098,5.986-9.053,10.459-11.865,4.472-2.812,9.677-4.219,15.615-4.219,5.977,0,11.21,1.406,15.703,4.219,4.492,2.812,7.988,6.768,10.488,11.865,2.5,5.098,3.75,11.065,3.75,17.9,0,6.719-1.25,12.618-3.75,17.695-2.5,5.078-5.997,9.023-10.488,11.836-4.493,2.812-9.727,4.219-15.703,4.219Zm0-9.434c4.414,0,8.046-1.133,10.898-3.398,2.851-2.265,4.96-5.244,6.328-8.936,1.367-3.691,2.051-7.685,2.051-11.982,0-4.336-.684-8.369-2.051-12.1-1.368-3.729-3.477-6.738-6.328-9.023-2.852-2.285-6.485-3.428-10.898-3.428-4.375,0-7.969,1.143-10.781,3.428s-4.903,5.283-6.27,8.994c-1.368,3.712-2.051,7.755-2.051,12.129,0,4.298.683,8.291,2.051,11.982,1.367,3.691,3.457,6.671,6.27,8.936,2.812,2.266,6.406,3.398,10.781,3.398Z" stroke-width="0"/><path d="m962.617,1047.692c-5.43,0-10.235-1.387-14.414-4.16-4.18-2.773-7.441-6.699-9.785-11.777-2.344-5.077-3.516-11.094-3.516-18.047,0-6.914,1.181-12.899,3.545-17.959,2.363-5.059,5.634-8.955,9.814-11.689,4.179-2.733,8.984-4.102,14.414-4.102,4.257,0,7.636.703,10.137,2.109,2.5,1.406,4.424,2.998,5.771,4.775,1.348,1.778,2.373,3.252,3.076,4.424h.82v-32.285h10.547v87.305h-10.195v-10.137h-1.172c-.703,1.211-1.749,2.725-3.135,4.541-1.387,1.816-3.34,3.438-5.859,4.863s-5.87,2.139-10.049,2.139Zm1.582-9.434c3.984,0,7.343-1.045,10.078-3.135,2.734-2.089,4.805-4.989,6.211-8.701,1.406-3.711,2.109-7.988,2.109-12.832s-.694-9.072-2.08-12.686c-1.387-3.612-3.448-6.436-6.182-8.467-2.735-2.03-6.114-3.047-10.137-3.047-4.141,0-7.588,1.075-10.342,3.223-2.754,2.148-4.815,5.049-6.182,8.701-1.368,3.653-2.051,7.744-2.051,12.275,0,4.57.693,8.722,2.08,12.451,1.386,3.73,3.466,6.7,6.24,8.906,2.773,2.207,6.191,3.311,10.254,3.311Z" stroke-width="0"/><path d="m1011.543,1046.286v-65.508h10.254l.059,14.648h-.82c.898-3.554,2.314-6.494,4.248-8.818,1.934-2.323,4.199-4.072,6.797-5.244s5.303-1.758,8.115-1.758c4.766,0,8.623,1.465,11.572,4.395s4.854,6.777,5.713,11.543h-1.406c.781-3.281,2.207-6.113,4.277-8.496,2.07-2.382,4.58-4.219,7.529-5.508s6.162-1.934,9.639-1.934c3.789,0,7.246.82,10.371,2.461s5.615,4.122,7.471,7.441c1.855,3.32,2.783,7.521,2.783,12.598v44.18h-10.547v-43.887c0-4.726-1.328-8.105-3.984-10.137-2.656-2.03-5.742-3.047-9.258-3.047-2.93,0-5.459.615-7.588,1.846s-3.77,2.921-4.922,5.068c-1.152,2.148-1.729,4.609-1.729,7.383v42.773h-10.547v-44.941c0-3.633-1.211-6.562-3.633-8.789s-5.488-3.34-9.199-3.34c-2.539,0-4.932.596-7.178,1.787-2.246,1.192-4.053,2.959-5.42,5.303s-2.051,5.254-2.051,8.73v41.25h-10.547Z" stroke-width="0"/><path d="m1143.32,1047.692c-5.938,0-11.143-1.406-15.615-4.219s-7.959-6.758-10.459-11.836c-2.5-5.077-3.75-10.977-3.75-17.695,0-6.835,1.25-12.803,3.75-17.9s5.986-9.053,10.459-11.865,9.678-4.219,15.615-4.219c5.977,0,11.211,1.406,15.703,4.219s7.988,6.768,10.488,11.865,3.75,11.065,3.75,17.9c0,6.719-1.25,12.618-3.75,17.695-2.5,5.078-5.996,9.023-10.488,11.836s-9.727,4.219-15.703,4.219Zm0-9.434c4.414,0,8.047-1.133,10.898-3.398,2.852-2.265,4.961-5.244,6.328-8.936s2.051-7.685,2.051-11.982c0-4.336-.684-8.369-2.051-12.1-1.367-3.729-3.477-6.738-6.328-9.023s-6.484-3.428-10.898-3.428c-4.375,0-7.969,1.143-10.781,3.428s-4.902,5.283-6.27,8.994c-1.367,3.712-2.051,7.755-2.051,12.129,0,4.298.684,8.291,2.051,11.982s3.457,6.671,6.27,8.936c2.812,2.266,6.406,3.398,10.781,3.398Z" stroke-width="0"/><path d="m1199.16,1007.028v39.258h-10.547v-65.508h10.137l.059,15.879h-1.465c1.992-6.055,4.834-10.351,8.525-12.891,3.691-2.539,8.018-3.809,12.979-3.809,4.414,0,8.281.908,11.602,2.725,3.319,1.816,5.908,4.551,7.764,8.203,1.854,3.653,2.783,8.253,2.783,13.799v41.602h-10.547v-40.723c0-5.039-1.318-8.984-3.955-11.836-2.637-2.851-6.24-4.277-10.811-4.277-3.125,0-5.938.684-8.438,2.051-2.5,1.368-4.473,3.36-5.918,5.977-1.445,2.617-2.168,5.801-2.168,9.551Z" stroke-width="0"/><path d="m1259.512,1046.286v-87.305h10.547v87.305h-10.547Zm9.902-23.555v-13.066h1.934l28.008-28.887h13.066l-30.293,31.113h-1.172l-11.543,10.84Zm31.523,23.555l-25.078-32.051,7.5-7.441,31.113,39.492h-13.535Z" stroke-width="0"/></g></g></svg>