<?xml version="1.0" encoding="UTF-8"?><svg id="Layer_1" xmlns="http://www.w3.org/2000/svg" xmlns:xlink="http://www.w3.org/1999/xlink" viewBox="0 0 2000 1500"><defs><clipPath id="clippath"><rect x="750" y="391.036" width="500" height="500" rx="77.197" ry="77.197" fill="none" stroke-width="0"/></clipPath></defs><rect width="2000" height="1500" fill="#fff" stroke-width="0"/><g clip-path="url(#clippath)"><rect x="749.517" y="390.485" width="500.949" height="500.949" fill="#139382" stroke-width="0"/><rect x="1000.003" y="390.485" width="250.486" height="500.949" fill="#00bfa6" stroke-width="0"/><path d="m1146.816,682.086c0,107.792-78.296,156.016-147.94,156.016s-145.225-49.352-145.225-157.121c0-89.938,61.155-233.184,145.225-233.184s147.94,143.247,147.94,234.312v-.023h0Z" fill="#fff4ce" stroke-width="0"/><path d="m1124.775,676.357c0,91.985-66.815,133.169-126.267,133.169s-123.966-42.104-123.966-134.113c0-76.777,52.182-199.041,123.966-199.041s126.267,122.264,126.267,199.984h0Z" fill="#e36e07" stroke-width="0"/><path d="m1125.051,676.357c0,91.985-65.94,133.169-125.117,133.169,0-83.472.575-253.155,0-333.153,71.439,0,125.117,122.264,125.117,199.961v.023Z" fill="#ffa446" stroke-width="0"/><g id="b"><path d="m999.589,763.971c-40.678,0-73.763-34.006-73.763-75.811s33.085-75.811,73.763-75.811,73.763,34.006,73.763,75.811-33.085,75.811-73.763,75.811h0Z" fill="#d54417" stroke-width="0"/><path d="m999.589,622.174c35.317,0,63.962,29.542,63.962,66.009s-28.645,66.009-63.962,66.009-63.962-29.542-63.962-66.009,28.645-66.009,63.962-66.009m0-19.58c-46.062,0-83.564,38.4-83.564,85.589s37.48,85.589,83.564,85.589,83.564-38.4,83.564-85.589-37.48-85.589-83.564-85.589h0Z" fill="#fff4ce" stroke-width="0"/></g></g><g isolation="isolate"><g isolation="isolate"><path d="m717.871,1046.286l31.699-87.305h12.891l32.109,87.305h-11.719l-18.516-51.797c-1.134-3.202-2.452-7.197-3.955-11.982-1.505-4.784-3.331-10.889-5.479-18.311h2.109c-2.109,7.5-3.937,13.682-5.479,18.545-1.544,4.863-2.823,8.78-3.838,11.748l-17.988,51.797h-11.836Zm15.938-24.375v-9.727h44.824v9.727h-44.824Z" stroke-width="0"/></g><g isolation="isolate"><path d="m819.941,1046.286l-25.02-65.508h11.543l13.945,38.848c1.484,4.023,2.744,8.037,3.779,12.041,1.035,4.005,2.119,7.881,3.252,11.631h-3.867c1.132-3.75,2.216-7.626,3.252-11.631,1.035-4.004,2.275-8.018,3.721-12.041l13.945-38.848h11.543l-25.02,65.508h-11.074Z" stroke-width="0"/></g><g isolation="isolate"><path d="m894.297,1047.692c-5.938,0-11.143-1.406-15.615-4.219-4.473-2.812-7.959-6.758-10.459-11.836-2.5-5.077-3.75-10.977-3.75-17.695,0-6.835,1.25-12.803,3.75-17.9,2.5-5.098,5.986-9.053,10.459-11.865,4.472-2.812,9.677-4.219,15.615-4.219,5.977,0,11.21,1.406,15.703,4.219,4.492,2.812,7.988,6.768,10.488,11.865,2.5,5.098,3.75,11.065,3.75,17.9,0,6.719-1.25,12.618-3.75,17.695-2.5,5.078-5.997,9.023-10.488,11.836-4.493,2.812-9.727,4.219-15.703,4.219Zm0-9.434c4.414,0,8.046-1.133,10.898-3.398,2.851-2.265,4.96-5.244,6.328-8.936,1.367-3.691,2.051-7.685,2.051-11.982,0-4.336-.684-8.369-2.051-12.1-1.368-3.729-3.477-6.738-6.328-9.023-2.852-2.285-6.485-3.428-10.898-3.428-4.375,0-7.969,1.143-10.781,3.428s-4.903,5.283-6.27,8.994c-1.368,3.712-2.051,7.755-2.051,12.129,0,4.298.683,8.291,2.051,11.982,1.367,3.691,3.457,6.671,6.27,8.936,2.812,2.266,6.406,3.398,10.781,3.398Z" stroke-width="0"/></g><g isolation="isolate"><path d="m966.777,1047.692c-5.938,0-11.143-1.406-15.615-4.219-4.473-2.812-7.959-6.758-10.459-11.836-2.5-5.077-3.75-10.977-3.75-17.695,0-6.835,1.25-12.803,3.75-17.9,2.5-5.098,5.986-9.053,10.459-11.865,4.472-2.812,9.677-4.219,15.615-4.219,3.164,0,6.152.41,8.965,1.23s5.38,2.002,7.705,3.545c2.324,1.544,4.326,3.438,6.006,5.684,1.679,2.247,2.968,4.796,3.867,7.646l-10.137,2.871c-.469-1.679-1.192-3.223-2.168-4.629-.977-1.406-2.159-2.627-3.545-3.662-1.387-1.034-2.979-1.836-4.775-2.402-1.797-.565-3.77-.85-5.918-.85-4.375,0-7.969,1.143-10.781,3.428s-4.903,5.283-6.27,8.994c-1.368,3.712-2.051,7.755-2.051,12.129,0,4.298.683,8.291,2.051,11.982,1.367,3.691,3.457,6.671,6.27,8.936,2.812,2.266,6.406,3.398,10.781,3.398,2.187,0,4.199-.293,6.035-.879,1.835-.586,3.466-1.415,4.893-2.49,1.425-1.074,2.626-2.353,3.604-3.838.976-1.484,1.699-3.105,2.168-4.863l10.078,2.871c-.86,2.93-2.139,5.537-3.838,7.822s-3.721,4.239-6.064,5.859c-2.344,1.621-4.942,2.852-7.793,3.691-2.852.84-5.879,1.26-9.082,1.26Z" stroke-width="0"/></g><g isolation="isolate"><path d="m1028.887,1047.81c-4.142,0-7.901-.782-11.279-2.344-3.38-1.562-6.064-3.847-8.057-6.855-1.992-3.008-2.988-6.659-2.988-10.957,0-3.75.741-6.797,2.227-9.141,1.483-2.344,3.466-4.189,5.947-5.537,2.479-1.348,5.224-2.353,8.232-3.018,3.007-.664,6.035-1.191,9.082-1.582,3.905-.507,7.09-.898,9.551-1.172,2.461-.272,4.286-.741,5.479-1.406,1.19-.664,1.787-1.796,1.787-3.398v-.352c0-2.733-.509-5.048-1.523-6.943-1.017-1.895-2.54-3.349-4.57-4.365-2.032-1.016-4.57-1.523-7.617-1.523-3.126,0-5.801.489-8.027,1.465-2.227.977-4.034,2.197-5.42,3.662-1.388,1.465-2.432,2.959-3.135,4.482l-10.137-3.34c1.679-3.984,3.944-7.099,6.797-9.346,2.851-2.246,5.995-3.838,9.434-4.775,3.437-.938,6.835-1.406,10.195-1.406,2.187,0,4.677.264,7.471.791,2.792.527,5.487,1.573,8.086,3.135,2.597,1.562,4.746,3.877,6.445,6.943,1.699,3.067,2.549,7.158,2.549,12.275v43.184h-10.371v-8.906h-.703c-.743,1.523-1.934,3.097-3.574,4.717-1.641,1.621-3.771,2.979-6.387,4.072-2.618,1.093-5.782,1.641-9.492,1.641Zm1.816-9.316c3.905,0,7.207-.762,9.902-2.285s4.746-3.506,6.152-5.947c1.406-2.44,2.109-4.989,2.109-7.646v-9.082c-.431.508-1.368.967-2.812,1.377-1.446.41-3.097.771-4.951,1.084-1.856.313-3.653.577-5.391.791-1.739.215-3.116.381-4.131.498-2.54.313-4.913.85-7.119,1.611-2.208.762-3.976,1.875-5.303,3.34-1.329,1.465-1.992,3.448-1.992,5.947,0,2.266.586,4.16,1.758,5.684s2.772,2.676,4.805,3.457c2.03.782,4.354,1.172,6.973,1.172Z" stroke-width="0"/><path d="m1103.711,980.778v9.023h-33.867v-9.023h33.867Zm-24.023-15.586h10.547v64.102c0,2.93.595,5.068,1.787,6.416,1.19,1.348,3.173,2.021,5.947,2.021.663,0,1.513-.078,2.549-.234,1.034-.155,1.981-.312,2.842-.469l2.168,8.906c-1.095.39-2.335.683-3.721.879-1.388.195-2.765.293-4.131.293-5.665,0-10.078-1.494-13.242-4.482s-4.746-7.157-4.746-12.51v-64.922Z" stroke-width="0"/><path d="m1122.52,970.056c-1.992,0-3.712-.683-5.156-2.051-1.446-1.367-2.168-3.008-2.168-4.922,0-1.953.722-3.604,2.168-4.951,1.444-1.348,3.164-2.021,5.156-2.021,2.03,0,3.769.674,5.215,2.021,1.444,1.348,2.168,2.998,2.168,4.951,0,1.914-.724,3.555-2.168,4.922-1.446,1.368-3.185,2.051-5.215,2.051Zm-5.332,76.23v-65.508h10.547v65.508h-10.547Z" stroke-width="0"/><path d="m1172.91,1047.692c-5.938,0-11.144-1.406-15.615-4.219-4.474-2.812-7.96-6.758-10.459-11.836-2.501-5.077-3.75-10.977-3.75-17.695,0-6.835,1.249-12.803,3.75-17.9,2.499-5.098,5.985-9.053,10.459-11.865,4.472-2.812,9.677-4.219,15.615-4.219,5.977,0,11.21,1.406,15.703,4.219,4.491,2.812,7.987,6.768,10.488,11.865,2.499,5.098,3.75,11.065,3.75,17.9,0,6.719-1.251,12.618-3.75,17.695-2.501,5.078-5.997,9.023-10.488,11.836-4.493,2.812-9.727,4.219-15.703,4.219Zm0-9.434c4.413,0,8.046-1.133,10.898-3.398,2.851-2.265,4.96-5.244,6.328-8.936,1.366-3.691,2.051-7.685,2.051-11.982,0-4.336-.685-8.369-2.051-12.1-1.368-3.729-3.478-6.738-6.328-9.023-2.853-2.285-6.485-3.428-10.898-3.428-4.376,0-7.969,1.143-10.781,3.428s-4.903,5.283-6.27,8.994c-1.368,3.712-2.051,7.755-2.051,12.129,0,4.298.683,8.291,2.051,11.982,1.366,3.691,3.457,6.671,6.27,8.936,2.812,2.266,6.405,3.398,10.781,3.398Z" stroke-width="0"/><path d="m1228.75,1007.028v39.258h-10.547v-65.508h10.137l.059,15.879h-1.465c1.992-6.055,4.834-10.351,8.525-12.891,3.691-2.539,8.017-3.809,12.979-3.809,4.413,0,8.28.908,11.602,2.725,3.319,1.816,5.907,4.551,7.764,8.203,1.854,3.653,2.783,8.253,2.783,13.799v41.602h-10.547v-40.723c0-5.039-1.318-8.984-3.955-11.836-2.637-2.851-6.24-4.277-10.811-4.277-3.126,0-5.938.684-8.438,2.051-2.501,1.368-4.474,3.36-5.918,5.977-1.446,2.617-2.168,5.801-2.168,9.551Z" stroke-width="0"/></g></g></svg>