<svg width="290" height="290" viewBox="0 0 290 290" fill="none" xmlns="http://www.w3.org/2000/svg">
<g clip-path="url(#clip0_403_173)">
<mask id="mask0_403_173" style="mask-type:alpha" maskUnits="userSpaceOnUse" x="0" y="0" width="290" height="290">
<path d="M290 0H0V290H290V0Z" fill="#A1CCC9"/>
</mask>
<g mask="url(#mask0_403_173)">
<path opacity="0.0344828" d="M-103.262 251.013C-104.844 249.631 -105.874 247.59 -106.3 244.84C-106.728 242.08 -106.535 238.671 -105.72 234.671C-104.091 226.672 -100.016 216.512 -93.8176 204.862C-81.4281 181.578 -60.6564 152.536 -34.4313 123.278C-8.20629 94.0186 18.4669 70.1265 40.373 55.1466C51.3334 47.6524 61.0552 42.4203 68.9026 39.8463C72.8257 38.5593 76.2322 37.9538 79.0595 38.0356C81.8788 38.1156 84.0589 38.8757 85.641 40.2556C87.2217 41.6367 88.2525 43.6779 88.6789 46.4286C89.1067 49.1884 88.9138 52.5967 88.0988 56.5975C86.4688 64.5963 82.3951 74.7558 76.1957 86.406C63.8062 109.69 43.0346 138.732 16.8093 167.99C-9.41527 197.249 -36.0878 221.142 -57.9948 236.122C-68.9549 243.616 -78.6773 248.848 -86.5239 251.422C-90.4478 252.709 -93.8533 253.314 -96.6808 253.233C-99.4998 253.153 -101.68 252.392 -103.262 251.013Z" stroke="#EBF1F5" stroke-width="1.5"/>
<path opacity="0.0689655" d="M-113.74 241.781C-115.198 240.28 -116.046 238.171 -116.228 235.414C-116.409 232.647 -115.914 229.291 -114.744 225.403C-112.404 217.628 -107.428 207.923 -100.197 196.926C-85.7447 174.946 -62.4031 147.986 -33.592 121.276C-4.78104 94.566 23.9996 73.2051 47.2253 60.254C58.8454 53.7755 69.0281 49.4285 77.0985 47.5527C81.1337 46.6141 84.592 46.3057 87.4095 46.6279C90.2203 46.9484 92.3317 47.886 93.7902 49.3871C95.2474 50.8869 96.0956 52.9955 96.2778 55.7543C96.4587 58.5207 95.9628 61.8769 94.7938 65.7642C92.4533 73.5401 87.4774 83.2449 80.2474 94.2418C65.794 116.222 42.4529 143.182 13.6417 169.892C-15.1693 196.601 -43.9503 217.963 -67.1761 230.913C-78.7959 237.393 -88.9777 241.74 -97.0485 243.616C-101.085 244.554 -104.542 244.862 -107.36 244.54C-110.17 244.22 -112.282 243.282 -113.74 241.781Z" stroke="#EBF1F5" stroke-width="1.5"/>
<path opacity="0.103448" d="M-123.419 231.844C-124.743 230.234 -125.404 228.076 -125.339 225.332C-125.275 222.58 -124.48 219.302 -122.965 215.555C-119.934 208.064 -114.097 198.887 -105.891 188.625C-89.4879 168.115 -63.7571 143.437 -32.5815 119.472C-1.40586 95.5068 29.2633 76.8306 53.6321 66.0011C65.8231 60.5835 76.3874 57.1517 84.6216 55.9836C88.7388 55.3996 92.2226 55.3908 95.0108 55.9486C97.791 56.506 99.8183 57.614 101.142 59.2233C102.467 60.8327 103.126 62.9909 103.062 65.7337C102.997 68.4855 102.202 71.7646 100.687 75.5102C97.6571 83.0028 91.8189 92.1787 83.6129 102.441C67.2101 122.952 41.4791 147.63 10.3044 171.595C-20.8715 195.559 -51.5411 214.235 -75.9092 225.066C-88.1005 230.484 -98.6647 233.915 -106.899 235.082C-111.016 235.666 -114.5 235.676 -117.288 235.117C-120.069 234.56 -122.095 233.453 -123.419 231.844Z" stroke="#EBF1F5" stroke-width="1.5"/>
<path opacity="0.137931" d="M-132.239 221.281C-133.419 219.577 -133.886 217.386 -133.578 214.677C-133.268 211.961 -132.182 208.786 -130.333 205.21C-126.635 198.059 -119.982 189.48 -110.864 180.03C-92.6393 161.141 -64.7178 138.924 -31.417 117.879C1.8839 96.8328 34.2071 80.9738 59.532 72.3398C72.2024 68.0194 83.0689 65.5259 91.4039 65.0733C95.5727 64.847 99.056 65.1337 101.794 65.9235C104.523 66.7115 106.45 67.9803 107.631 69.6848C108.811 71.3892 109.278 73.5805 108.97 76.2888C108.66 79.0049 107.575 82.1797 105.725 85.7557C102.028 92.9076 95.3741 101.486 86.257 110.936C68.032 129.824 40.1097 152.041 6.80923 173.087C-26.4916 194.132 -58.8152 209.991 -84.1403 218.625C-96.8103 222.945 -107.677 225.439 -116.012 225.892C-120.181 226.119 -123.664 225.831 -126.401 225.041C-129.131 224.253 -131.059 222.986 -132.239 221.281Z" stroke="#EBF1F5" stroke-width="1.5"/>
<path opacity="0.172414" d="M-140.137 210.18C-141.165 208.395 -141.436 206.188 -140.886 203.537C-140.334 200.878 -138.965 197.83 -136.797 194.451C-132.462 187.694 -125.045 179.777 -115.086 171.208C-95.1797 154.081 -65.2825 134.487 -30.1117 116.51C5.05891 98.5324 38.7903 85.6007 64.8792 79.2173C77.931 76.0228 89.0177 74.4822 97.3915 74.743C101.579 74.8735 105.035 75.4538 107.701 76.4678C110.36 77.4801 112.174 78.8974 113.202 80.684C114.23 82.4693 114.501 84.6759 113.95 87.3274C113.398 89.9866 112.03 93.0342 109.862 96.4129C105.526 103.17 98.1104 111.087 88.1508 119.656C68.2449 136.783 38.347 156.377 3.17673 174.354C-31.9939 192.332 -65.7247 205.264 -91.8138 211.647C-104.866 214.842 -115.952 216.382 -124.326 216.121C-128.514 215.991 -131.97 215.41 -134.637 214.396C-137.295 213.384 -139.109 211.967 -140.137 210.18Z" stroke="#EBF1F5" stroke-width="1.5"/>
<path opacity="0.206897" d="M-147.065 198.638C-147.932 196.785 -148.007 194.581 -147.219 192.007C-146.43 189.424 -144.788 186.528 -142.319 183.371C-137.381 177.059 -129.257 169.862 -118.534 162.237C-97.0998 146.995 -65.4565 130.164 -28.6856 115.377C8.08552 100.591 42.965 90.6695 69.6205 86.5738C82.9555 84.525 94.1765 83.9415 102.526 84.9108C106.701 85.3954 110.104 86.2622 112.68 87.4913C115.247 88.7174 116.934 90.2734 117.801 92.1252C118.669 93.9782 118.744 96.1826 117.956 98.7578C117.167 101.339 115.525 104.236 113.055 107.392C108.118 113.704 99.9935 120.901 89.2705 128.526C67.8364 143.768 36.1938 160.599 -0.577594 175.386C-37.3487 190.173 -72.2288 200.094 -98.8833 204.19C-112.219 206.238 -123.44 206.822 -131.789 205.853C-135.964 205.368 -139.367 204.501 -141.943 203.272C-144.51 202.046 -146.197 200.49 -147.065 198.638Z" stroke="#EBF1F5" stroke-width="1.5"/>
<path opacity="0.241379" d="M-152.979 186.753C-153.681 184.848 -153.558 182.663 -152.539 180.186C-151.518 177.7 -149.617 174.978 -146.866 172.067C-141.362 166.247 -132.595 159.823 -121.19 153.194C-98.3935 139.946 -65.2473 125.99 -27.1573 114.49C10.9328 102.988 46.6961 96.1376 73.7117 94.3456C87.2294 93.4494 98.5001 93.8238 106.76 95.4877C110.892 96.321 114.217 97.4655 116.681 98.8978C119.139 100.327 120.685 102.007 121.387 103.911C122.089 105.816 121.965 108 120.947 110.478C119.926 112.964 118.025 115.686 115.273 118.597C109.77 124.417 101.002 130.841 89.5973 137.469C66.8006 150.718 33.6544 164.674 -4.43521 176.174C-42.5251 187.674 -78.2881 194.526 -105.305 196.318C-118.821 197.215 -130.093 196.84 -138.353 195.176C-142.484 194.343 -145.809 193.199 -148.274 191.766C-150.731 190.337 -152.278 188.657 -152.979 186.753Z" stroke="#EBF1F5" stroke-width="1.5"/>
<path opacity="0.275862" d="M-157.845 174.629C-158.375 172.688 -158.056 170.541 -156.815 168.178C-155.57 165.809 -153.425 163.279 -150.412 160.636C-144.386 155.349 -135.042 149.742 -123.043 144.155C-99.059 132.989 -64.6633 121.998 -25.5453 113.849C13.5731 105.701 49.9455 101.949 77.1192 102.459C90.714 102.714 101.95 104.035 110.06 106.377C114.115 107.546 117.337 108.958 119.671 110.582C122 112.201 123.396 113.991 123.926 115.932C124.456 117.873 124.137 120.021 122.896 122.384C121.651 124.753 119.505 127.282 116.493 129.926C110.467 135.211 101.123 140.82 89.124 146.406C65.1403 157.573 30.7439 168.563 -8.37408 176.712C-47.4919 184.861 -83.8652 188.611 -111.039 188.103C-124.633 187.848 -135.87 186.527 -143.979 184.185C-148.034 183.014 -151.256 181.603 -153.591 179.98C-155.92 178.36 -157.315 176.569 -157.845 174.629Z" stroke="#EBF1F5" stroke-width="1.5"/>
<path opacity="0.310345" d="M-161.643 162.375C-161.999 160.413 -161.485 158.318 -160.031 156.089C-158.573 153.852 -156.2 151.534 -152.948 149.175C-146.447 144.459 -136.598 139.706 -124.096 135.195C-99.107 126.181 -63.7231 118.216 -23.8739 113.456C15.9751 108.696 52.6838 108.049 79.8088 110.839C93.3785 112.234 104.495 114.484 112.392 117.48C116.342 118.977 119.436 120.643 121.625 122.444C123.806 124.24 125.041 126.126 125.395 128.088C125.75 130.05 125.237 132.144 123.782 134.375C122.325 136.61 119.952 138.93 116.7 141.287C110.198 146.003 100.35 150.758 87.8481 155.268C62.8583 164.282 27.4751 172.248 -12.3743 177.007C-52.2235 181.767 -88.9317 182.413 -116.057 179.624C-129.627 178.229 -140.743 175.978 -148.64 172.983C-152.589 171.485 -155.684 169.819 -157.872 168.019C-160.055 166.224 -161.288 164.337 -161.643 162.375Z" stroke="#EBF1F5" stroke-width="1.5"/>
<path opacity="0.344828" d="M-164.371 150.071C-164.548 148.101 -163.846 146.072 -162.19 143.991C-160.53 141.903 -157.947 139.81 -154.482 137.751C-147.553 133.636 -137.274 129.763 -124.363 126.355C-98.557 119.542 -62.4498 114.64 -22.1665 113.283C18.1167 111.925 54.8875 114.369 81.7623 119.405C95.2082 121.925 106.122 125.083 113.749 128.708C117.563 130.521 120.508 132.428 122.533 134.391C124.554 136.35 125.617 138.319 125.795 140.289C125.972 142.258 125.269 144.286 123.614 146.368C121.954 148.457 119.371 150.55 115.906 152.607C108.977 156.723 98.6984 160.595 85.7869 164.004C59.9809 170.817 23.8739 175.719 -16.4094 177.077C-56.6927 178.435 -93.4628 175.989 -120.338 170.953C-133.784 168.434 -144.698 165.275 -152.325 161.65C-156.139 159.837 -159.083 157.932 -161.109 155.967C-163.129 154.009 -164.193 152.041 -164.371 150.071Z" stroke="#EBF1F5" stroke-width="1.5"/>
<path opacity="0.37931" d="M-166.05 137.756C-166.05 135.79 -165.163 133.84 -163.319 131.918C-161.469 129.99 -158.696 128.135 -155.043 126.388C-147.739 122.895 -137.105 119.925 -123.88 117.636C-97.4458 113.063 -60.878 111.249 -20.452 113.297C19.9745 115.344 56.542 120.862 82.9749 128.113C96.2006 131.741 106.834 135.789 114.138 140.021C117.79 142.138 120.564 144.274 122.413 146.39C124.258 148.499 125.144 150.538 125.144 152.504C125.144 154.469 124.257 156.42 122.413 158.342C120.563 160.271 117.789 162.126 114.137 163.872C106.833 167.365 96.1992 170.334 82.9733 172.622C56.5399 177.196 19.9721 179.011 -20.4543 176.963C-60.8803 174.916 -97.4479 169.397 -123.882 162.146C-137.107 158.518 -147.74 154.472 -155.044 150.239C-158.696 148.122 -161.47 145.986 -163.319 143.871C-165.164 141.761 -166.05 139.721 -166.05 137.756Z" stroke="#EBF1F5" stroke-width="1.5"/>
<path opacity="0.413793" d="M-166.705 125.423C-166.528 123.471 -165.465 121.61 -163.445 119.857C-161.42 118.1 -158.476 116.493 -154.663 115.068C-147.037 112.219 -136.124 110.172 -122.679 109.02C-95.8049 106.719 -59.035 108.017 -18.7505 113.474C21.5338 118.931 57.6432 127.507 83.4521 136.947C96.3651 141.669 106.646 146.588 113.576 151.408C117.041 153.82 119.625 156.176 121.286 158.432C122.943 160.683 123.647 162.783 123.47 164.735C123.292 166.687 122.23 168.546 120.21 170.299C118.185 172.058 115.242 173.664 111.429 175.088C103.802 177.937 92.8889 179.986 79.4436 181.137C52.5702 183.438 15.7996 182.141 -24.4845 176.684C-64.769 171.226 -100.879 162.649 -126.688 153.21C-139.6 148.488 -149.881 143.569 -156.811 138.748C-160.277 136.338 -162.861 133.982 -164.522 131.724C-166.178 129.474 -166.882 127.374 -166.705 125.423Z" stroke="#EBF1F5" stroke-width="1.5"/>
<path opacity="0.448276" d="M-166.335 113.118C-165.983 111.193 -164.752 109.434 -162.572 107.863C-160.386 106.287 -157.293 104.94 -153.346 103.848C-145.452 101.664 -134.339 100.558 -120.769 100.558C-93.646 100.559 -56.9343 104.982 -17.0757 113.842C22.7824 122.701 58.1805 134.307 83.1831 145.893C95.6923 151.69 105.549 157.457 112.057 162.843C115.312 165.535 117.688 168.098 119.15 170.485C120.607 172.863 121.123 175.013 120.772 176.938C120.418 178.864 119.187 180.623 117.007 182.194C114.821 183.77 111.729 185.117 107.781 186.209C99.8874 188.392 88.7745 189.499 75.2045 189.498C48.0814 189.498 11.3705 185.074 -28.4886 176.215C-68.3472 167.355 -103.745 155.749 -128.748 144.163C-141.257 138.367 -151.113 132.599 -157.622 127.214C-160.876 124.521 -163.253 121.959 -164.714 119.572C-166.171 117.193 -166.688 115.045 -166.335 113.118Z" stroke="#EBF1F5" stroke-width="1.5"/>
<path opacity="0.482759" d="M-164.924 100.956C-164.398 99.0701 -163.007 97.4252 -160.683 96.048C-158.351 94.6674 -155.132 93.5906 -151.08 92.843C-142.975 91.3451 -131.741 91.1943 -118.145 92.3545C-90.9692 94.674 -54.5817 102.214 -15.4382 114.436C23.7056 126.66 58.1329 141.233 82.1491 154.898C94.1639 161.735 103.523 168.316 109.563 174.231C112.582 177.188 114.735 179.941 115.986 182.44C117.233 184.933 117.558 187.114 117.032 189C116.507 190.885 115.116 192.531 112.791 193.908C110.46 195.289 107.241 196.364 103.188 197.113C95.0836 198.611 83.8494 198.762 70.2535 197.602C43.0775 195.281 6.69019 187.743 -32.4533 175.519C-71.597 163.297 -106.025 148.723 -130.04 135.057C-142.055 128.221 -151.414 121.639 -157.454 115.725C-160.474 112.768 -162.626 110.015 -163.877 107.516C-165.124 105.024 -165.449 102.842 -164.924 100.956Z" stroke="#EBF1F5" stroke-width="1.5"/>
<path opacity="0.517241" d="M-162.465 89.0626C-161.77 87.2321 -160.229 85.7135 -157.777 84.5438C-155.317 83.3707 -151.995 82.5746 -147.866 82.1771C-139.61 81.3822 -128.338 82.1939 -114.816 84.5127C-87.7877 89.1482 -51.9938 99.764 -13.8562 115.275C24.282 130.787 57.4837 148.232 80.3301 163.883C91.7605 171.713 100.553 179.062 106.078 185.462C108.84 188.662 110.751 191.586 111.781 194.179C112.809 196.764 112.939 198.962 112.244 200.793C111.55 202.624 110.009 204.142 107.555 205.311C105.096 206.486 101.774 207.281 97.6459 207.678C89.3899 208.474 78.1172 207.663 64.5951 205.343C37.5669 200.708 1.77284 190.091 -36.3648 174.58C-74.5024 159.069 -107.704 141.623 -130.551 125.973C-141.982 118.143 -150.774 110.795 -156.298 104.395C-159.061 101.194 -160.972 98.2698 -162.002 95.6772C-163.029 93.0913 -163.16 90.8932 -162.465 89.0626Z" stroke="#EBF1F5" stroke-width="1.5"/>
<path opacity="0.551724" d="M-158.969 77.5542C-158.109 75.7929 -156.429 74.4155 -153.866 73.4629C-151.296 72.5055 -147.895 71.9998 -143.721 71.9581C-135.375 71.876 -124.148 73.6493 -110.801 77.1138C-84.1224 84.0407 -49.1912 97.6649 -12.3474 116.358C24.4962 135.05 56.2192 155.243 77.7244 172.764C88.483 181.53 96.6401 189.591 101.608 196.428C104.091 199.847 105.745 202.918 106.547 205.585C107.345 208.243 107.281 210.44 106.421 212.201C105.56 213.963 103.881 215.339 101.317 216.293C98.7473 217.249 95.3458 217.754 91.1722 217.796C82.8265 217.88 71.599 216.106 58.252 212.64C31.5739 205.715 -3.35757 192.091 -40.2013 173.397C-77.0451 154.704 -108.769 134.511 -130.274 116.991C-141.032 108.226 -149.189 100.165 -154.156 93.3272C-156.64 89.9078 -158.294 86.8367 -159.095 84.1707C-159.894 81.5113 -159.829 79.3143 -158.969 77.5542Z" stroke="#EBF1F5" stroke-width="1.5"/>
<path opacity="0.586207" d="M-154.462 66.5321C-153.443 64.8549 -151.636 63.6309 -148.981 62.9023C-146.319 62.1728 -142.865 61.9615 -138.677 62.2782C-130.302 62.9116 -119.205 65.6367 -106.134 70.2261C-80.0061 79.3977 -46.2025 95.9355 -10.9334 117.674C24.3357 139.413 54.3372 162.205 74.3345 181.463C84.3378 191.097 91.7963 199.809 96.1656 207.031C98.3503 210.642 99.7354 213.837 100.301 216.555C100.864 219.266 100.603 221.445 99.5849 223.121C98.5654 224.798 96.7582 226.022 94.1036 226.75C91.441 227.48 87.9866 227.691 83.7986 227.375C75.4238 226.741 64.3279 224.016 51.2556 219.427C25.1281 210.255 -8.67548 193.717 -43.9445 171.978C-79.2134 150.24 -109.216 127.448 -129.212 108.19C-139.216 98.5553 -146.674 89.8439 -151.044 82.6218C-153.228 79.0107 -154.613 75.8161 -155.179 73.0973C-155.742 70.3862 -155.481 68.2081 -154.462 66.5321Z" stroke="#EBF1F5" stroke-width="1.5"/>
<path opacity="0.62069" d="M-148.979 56.0902C-147.808 54.5119 -145.886 53.4508 -143.16 52.9554C-140.426 52.4577 -136.943 52.5447 -132.773 53.2182C-124.432 54.5664 -113.549 58.2263 -100.852 63.906C-75.4737 75.2605 -43.0555 94.5904 -9.63197 119.215C23.7917 143.84 51.84 169.057 70.1718 189.907C79.3436 200.338 86.0445 209.633 89.782 217.183C91.6501 220.959 92.7543 224.251 93.0786 227.001C93.4016 229.743 92.9459 231.885 91.7752 233.463C90.6031 235.042 88.6817 236.104 85.9551 236.598C83.2219 237.096 79.7392 237.009 75.568 236.335C67.2281 234.988 56.3451 231.327 43.6479 225.648C18.2692 214.293 -14.1489 194.963 -47.5724 170.338C-80.9959 145.715 -109.045 120.496 -127.377 99.6468C-136.548 89.2159 -143.249 79.9209 -146.986 72.3702C-148.855 68.5949 -149.958 65.3026 -150.283 62.5525C-150.606 59.8103 -150.15 57.6686 -148.979 56.0902Z" stroke="#EBF1F5" stroke-width="1.5"/>
<path opacity="0.655172" d="M-142.568 46.3123C-141.253 44.845 -139.232 43.9547 -136.454 43.6975C-133.667 43.4381 -130.183 43.8229 -126.061 44.85C-117.818 46.9029 -107.231 51.4721 -95.0054 58.2027C-70.5689 71.6568 -39.7849 93.6377 -8.46472 120.963C22.8554 148.289 48.7333 175.743 65.2566 198.025C73.5229 209.172 79.4133 218.979 82.4875 226.799C84.0247 230.71 84.8377 234.074 84.9172 236.833C84.998 239.585 84.3491 241.673 83.0343 243.141C81.7182 244.608 79.6978 245.498 76.9199 245.755C74.1328 246.015 70.6491 245.63 66.5261 244.603C58.2827 242.55 47.696 237.981 35.4707 231.25C11.0349 217.796 -19.7495 195.815 -51.0695 168.49C-82.3897 141.164 -108.267 113.71 -124.791 91.4282C-133.057 80.2818 -138.948 70.4739 -142.022 62.6544C-143.559 58.7433 -144.372 55.3791 -144.452 52.6195C-144.532 49.8676 -143.884 47.7797 -142.568 46.3123Z" stroke="#EBF1F5" stroke-width="1.5"/>
<path opacity="0.689655" d="M-135.281 37.2737C-133.831 35.9304 -131.724 35.2199 -128.915 35.2006C-126.098 35.1831 -122.638 35.864 -118.595 37.2361C-110.511 39.9829 -100.301 45.4279 -88.6404 53.1596C-65.3331 68.6159 -36.4204 93.0828 -7.44702 122.904C21.5263 152.725 45.0294 182.207 59.6134 205.75C66.9088 217.529 71.9421 227.773 74.328 235.802C75.5209 239.817 76.035 243.228 75.8699 245.976C75.7035 248.714 74.8684 250.732 73.4181 252.077C71.9678 253.422 69.8611 254.132 67.0526 254.15C64.2347 254.169 60.7736 253.488 56.7318 252.115C48.6481 249.368 38.4373 243.924 26.7777 236.191C3.46974 220.736 -25.443 196.268 -54.4164 166.447C-83.3897 136.626 -106.893 107.145 -121.477 83.6019C-128.773 71.823 -133.806 61.578 -136.191 53.5491C-137.384 49.5346 -137.899 46.1227 -137.733 43.3762C-137.567 40.6362 -136.731 38.6182 -135.281 37.2737Z" stroke="#EBF1F5" stroke-width="1.5"/>
<path opacity="0.724138" d="M-127.177 29.0482C-125.602 27.8369 -123.425 27.3125 -120.606 27.5346C-117.778 27.7572 -114.368 28.7295 -110.436 30.4393C-102.572 33.8588 -92.8168 40.139 -81.8106 48.8166C-59.8115 66.1592 -32.9944 92.9286 -6.59444 125.02C19.806 157.112 40.7497 188.397 53.2759 213.023C59.5423 225.343 63.6765 235.945 65.3513 244.122C66.1893 248.21 66.4017 251.642 65.9896 254.355C65.5801 257.061 64.5606 258.993 62.9859 260.203C61.4112 261.414 59.2348 261.939 56.4151 261.716C53.5874 261.493 50.1777 260.52 46.2448 258.81C38.3816 255.392 28.6256 249.111 17.6205 240.435C-4.37913 223.092 -31.1962 196.321 -57.5962 164.231C-83.9962 132.14 -104.94 100.854 -117.466 76.2282C-123.733 63.9084 -127.867 53.3059 -129.542 45.1292C-130.38 41.0408 -130.592 37.6093 -130.181 34.896C-129.77 32.1904 -128.751 30.2582 -127.177 29.0482Z" stroke="#EBF1F5" stroke-width="1.5"/>
<path opacity="0.758621" d="M-118.322 21.6943C-116.634 20.6279 -114.403 20.2932 -111.595 20.7548C-108.777 21.2183 -105.443 22.4761 -101.651 24.5095C-94.0667 28.5775 -84.8411 35.6474 -74.5745 45.2035C-54.0535 64.3035 -29.5416 93.175 -5.92367 127.293C17.6942 161.412 35.9105 194.265 46.2759 219.784C51.4626 232.552 54.662 243.431 55.6117 251.692C56.0865 255.823 55.9931 259.247 55.338 261.906C54.6842 264.557 53.4885 266.388 51.8005 267.454C50.1126 268.522 47.8817 268.857 45.0729 268.395C42.2561 267.931 38.9216 266.674 35.1295 264.64C27.5453 260.572 18.3193 253.502 8.05327 243.946C-12.4677 224.846 -36.9796 195.975 -60.5975 161.855C-84.2154 127.737 -102.431 94.8852 -112.797 69.3658C-117.983 56.5981 -121.183 45.7184 -122.133 37.458C-122.608 33.3264 -122.514 29.9019 -121.859 27.2442C-121.205 24.5929 -120.01 22.7621 -118.322 21.6943Z" stroke="#EBF1F5" stroke-width="1.5"/>
<path opacity="0.793103" d="M-108.783 15.2733C-106.993 14.3579 -104.725 14.2164 -101.948 14.9144C-99.1621 15.6154 -95.9286 17.1487 -92.305 19.4916C-85.0585 24.1774 -76.4335 31.9846 -66.9862 42.3484C-48.1032 63.0623 -26.0903 93.8178 -5.44417 129.706C15.2014 165.594 30.5401 199.763 38.6573 225.982C42.7193 239.098 44.9554 250.172 45.1695 258.454C45.2766 262.596 44.8757 265.987 43.98 268.571C43.0871 271.147 41.7233 272.862 39.9345 273.776C38.1443 274.691 35.8769 274.833 33.0986 274.135C30.3136 273.434 27.0794 271.9 23.4561 269.557C16.2097 264.871 7.58473 257.064 -1.86235 246.701C-20.7454 225.987 -42.7583 195.231 -63.4046 159.343C-84.0507 123.455 -99.3889 89.286 -107.507 63.0673C-111.568 49.9506 -113.805 38.8766 -114.018 30.5947C-114.125 26.4532 -113.725 23.0621 -112.829 20.4783C-111.935 17.9036 -110.572 16.1873 -108.783 15.2733Z" stroke="#EBF1F5" stroke-width="1.5"/>
<path opacity="0.827586" d="M-98.6319 9.83071C-96.7534 9.07531 -94.4639 9.12774 -91.7388 10.0587C-89.0056 10.9913 -85.8974 12.7888 -82.4703 15.4246C-75.6168 20.6934 -67.6593 29.1791 -59.1062 40.2718C-42.0101 62.4447 -22.6731 94.8517 -5.16854 132.237C12.3362 169.622 24.6666 204.847 30.4622 231.567C33.3627 244.934 34.614 256.116 34.0854 264.356C33.821 268.476 33.1147 271.807 31.9835 274.296C30.8564 276.776 29.334 278.362 27.4553 279.117C25.5766 279.873 23.2879 279.82 20.5624 278.89C17.8288 277.957 14.7215 276.159 11.2941 273.524C4.44047 268.255 -3.51702 259.769 -12.0702 248.676C-29.1662 226.504 -48.5032 194.097 -66.0078 156.711C-83.5124 119.326 -95.8432 84.101 -101.639 57.3816C-104.539 44.0146 -105.79 32.8324 -105.262 24.5926C-104.998 20.4726 -104.291 17.1413 -103.16 14.6524C-102.032 12.1726 -100.51 10.5861 -98.6319 9.83071Z" stroke="#EBF1F5" stroke-width="1.5"/>
<path opacity="0.862069" d="M-87.9424 5.409C-85.9884 4.81831 -83.694 5.06669 -81.0416 6.22197C-78.3811 7.38029 -75.4219 9.42927 -72.2177 12.3372C-65.8101 18.1504 -58.5834 27.2506 -50.9931 38.9893C-35.8214 62.4533 -19.3204 96.2669 -5.10715 134.865C9.10609 173.462 18.3186 209.478 21.7351 236.492C23.444 250.007 23.6946 261.214 22.4233 269.348C21.7863 273.414 20.7775 276.662 19.4184 279.036C18.0619 281.401 16.3913 282.846 14.4377 283.437C12.4828 284.026 10.1883 283.779 7.53644 282.624C4.87605 281.464 1.91669 279.415 -1.28746 276.509C-7.69495 270.694 -14.9218 261.595 -22.5121 249.856C-37.6837 226.393 -54.1848 192.579 -68.3979 153.981C-82.6111 115.382 -91.8236 79.3667 -95.2397 52.3537C-96.9488 38.8386 -97.1997 27.6317 -95.9279 19.4983C-95.292 15.4316 -94.2828 12.1834 -92.9231 9.81029C-91.5675 7.4448 -89.8964 5.9997 -87.9424 5.409Z" stroke="#EBF1F5" stroke-width="1.5"/>
<path opacity="0.896552" d="M-76.7868 2.04717C-74.771 1.62722 -72.489 2.0683 -69.9291 3.43926C-67.3615 4.81588 -64.5741 7.10097 -61.6182 10.2577C-55.7072 16.5725 -49.2698 26.2179 -42.7055 38.5135C-29.5847 63.0913 -16.0626 98.0535 -5.27018 137.572C5.52239 177.089 11.5252 213.619 12.5183 240.721C13.0162 254.281 12.2558 265.427 10.2453 273.391C9.23927 277.374 7.93268 280.512 6.35287 282.752C4.77765 284.985 2.96887 286.278 0.952958 286.698C-1.06282 287.118 -3.34486 286.678 -5.90476 285.306C-8.47222 283.929 -11.2597 281.645 -14.2155 278.487C-20.1267 272.172 -26.5639 262.527 -33.1283 250.231C-46.2491 225.655 -59.7711 190.691 -70.5637 151.174C-81.3562 111.657 -87.359 75.1271 -88.3524 48.0234C-88.8494 34.4637 -88.09 23.3191 -86.0789 15.3539C-85.0731 11.3707 -83.7664 8.23315 -82.1866 5.99379C-80.6115 3.75943 -78.8027 2.46712 -76.7868 2.04717Z" stroke="#EBF1F5" stroke-width="1.5"/>
<path opacity="0.931035" d="M-65.2432 -0.223283C-63.1804 -0.470363 -60.9281 0.16008 -58.481 1.73803C-56.0266 3.32163 -53.4337 5.82481 -50.7503 9.20832C-45.3846 15.9753 -39.7917 26.0935 -34.311 38.8525C-23.3561 64.3545 -12.9383 100.2 -5.67445 140.334C1.58952 180.468 4.31292 217.231 2.85769 244.215C2.1296 257.714 0.358256 268.712 -2.38289 276.447C-3.75353 280.315 -5.34995 283.318 -7.13955 285.408C-8.92387 287.491 -10.8576 288.621 -12.9205 288.867C-14.9833 289.113 -17.2357 288.484 -19.6827 286.904C-22.1371 285.322 -24.7302 282.819 -27.4134 279.434C-32.7791 272.667 -38.3721 262.55 -43.8527 249.791C-54.8076 224.288 -65.2254 188.444 -72.4893 148.31C-79.7532 108.176 -82.4766 71.4127 -81.0214 44.4287C-80.2933 30.9281 -78.522 19.9322 -75.7808 12.1971C-74.4102 8.32889 -72.8138 5.32563 -71.0242 3.2356C-69.24 1.15185 -67.3061 0.0224751 -65.2432 -0.223283Z" stroke="#EBF1F5" stroke-width="1.5"/>
</g>
</g>
<defs>
<clipPath id="clip0_403_173">
<rect width="290" height="290" fill="white"/>
</clipPath>
</defs>
</svg>
