<svg width="290" height="290" viewBox="0 0 290 290" fill="none" xmlns="http://www.w3.org/2000/svg">
<g clip-path="url(#clip0_403_173)">
<mask id="mask0_403_173" style="mask-type:alpha" maskUnits="userSpaceOnUse" x="0" y="0" width="290" height="290">
<path d="M290 0H0V290H290V0Z" fill="#A1CCC9"/>
</mask>
<g mask="url(#mask0_403_173)">
<path opacity="0.0344828" d="M388.29 45.0724C389.753 46.4266 390.67 48.3854 390.988 50.9934C391.307 53.6102 391.015 56.8183 390.112 60.5648C388.304 68.0554 384.099 77.5037 377.822 88.2886C365.276 109.843 344.56 136.554 318.642 163.291C292.723 190.029 266.549 211.69 245.2 225.103C234.519 231.812 225.09 236.429 217.531 238.6C213.752 239.686 210.487 240.146 207.796 239.976C205.113 239.809 203.06 239.021 201.596 237.668C200.134 236.313 199.217 234.355 198.898 231.746C198.579 229.13 198.871 225.922 199.775 222.175C201.583 214.685 205.788 205.236 212.065 194.451C224.611 172.897 245.327 146.186 271.245 119.449C297.163 92.7109 323.337 71.0494 344.687 57.6374C355.368 50.9277 364.798 46.3109 372.356 44.1397C376.135 43.0541 379.399 42.5942 382.09 42.7637C384.774 42.9312 386.827 43.7193 388.29 45.0724Z" stroke="#EBF1F5" stroke-width="1.5"/>
<path opacity="0.0689655" d="M397.979 54.121C399.321 55.5843 400.062 57.6007 400.146 60.2071C400.231 62.8222 399.652 65.9712 398.414 69.6003C395.937 76.8561 390.887 85.8462 383.647 95.9813C369.177 116.239 346.079 140.902 317.778 165.152C289.477 189.401 261.376 208.606 238.835 220.062C227.557 225.792 217.717 229.559 209.968 231.065C206.093 231.818 202.788 231.996 200.114 231.6C197.446 231.206 195.465 230.253 194.123 228.789C192.782 227.327 192.041 225.311 191.956 222.703C191.871 220.088 192.451 216.939 193.688 213.311C196.166 206.054 201.216 197.064 208.455 186.929C222.926 166.672 246.023 142.008 274.324 117.759C302.625 93.5106 330.727 74.304 353.268 62.8497C364.546 57.1182 374.385 53.3511 382.134 51.8456C386.01 51.0923 389.314 50.9144 391.989 51.3103C394.656 51.7044 396.637 52.6576 397.979 54.121Z" stroke="#EBF1F5" stroke-width="1.5"/>
<path opacity="0.103448" d="M406.885 63.8092C408.095 65.3702 408.655 67.4272 408.507 70.013C408.357 72.6062 407.496 75.6716 405.933 79.1558C402.807 86.1218 396.953 94.5862 388.807 103.996C372.526 122.803 347.225 145.237 316.758 166.82C286.292 188.403 256.476 205.015 232.913 214.432C221.126 219.144 210.951 222.035 203.069 222.868C199.127 223.284 195.808 223.178 193.169 222.561C190.538 221.945 188.642 220.834 187.432 219.273C186.221 217.712 185.661 215.655 185.81 213.07C185.959 210.477 186.821 207.41 188.384 203.927C191.509 196.96 197.364 188.497 205.509 179.087C221.791 160.278 247.092 137.844 277.558 116.261C308.025 94.6796 337.841 78.0679 361.403 68.6493C373.191 63.9381 383.365 61.0467 391.248 60.2153C395.189 59.799 398.509 59.9033 401.148 60.5217C403.779 61.1382 405.675 62.2482 406.885 63.8092Z" stroke="#EBF1F5" stroke-width="1.5"/>
<path opacity="0.137931" d="M414.951 74.0585C416.021 75.7045 416.397 77.7864 416.016 80.3306C415.635 82.882 414.499 85.8407 412.623 89.1528C408.873 95.777 402.261 103.65 393.272 112.265C375.307 129.484 347.996 149.524 315.598 168.284C283.199 187.045 251.898 200.946 227.494 208.262C215.284 211.922 204.852 213.919 196.896 214.073C192.917 214.151 189.607 213.767 187.024 212.932C184.449 212.1 182.653 210.84 181.582 209.194C180.513 207.548 180.137 205.466 180.517 202.922C180.899 200.371 182.034 197.412 183.91 194.1C187.66 187.476 194.273 179.602 203.261 170.988C221.227 153.77 248.538 133.73 280.936 114.969C313.334 96.2087 344.636 82.3079 369.04 74.9925C381.249 71.3317 391.682 69.3351 399.638 69.1806C403.617 69.1021 406.926 69.4874 409.509 70.3217C412.085 71.1541 413.881 72.4125 414.951 74.0585Z" stroke="#EBF1F5" stroke-width="1.5"/>
<path opacity="0.172414" d="M422.123 84.786C423.045 86.5033 423.234 88.5932 422.625 91.0759C422.014 93.5658 420.612 96.3953 418.44 99.5109C414.094 105.742 406.775 112.966 397.014 120.723C377.502 136.225 348.393 153.727 314.311 169.533C280.229 185.339 247.679 196.433 222.619 201.601C210.081 204.187 199.469 205.278 191.499 204.758C187.514 204.498 184.239 203.838 181.732 202.795C179.231 201.753 177.548 200.357 176.625 198.639C175.702 196.922 175.514 194.832 176.123 192.349C176.734 189.859 178.135 187.03 180.308 183.914C184.654 177.683 191.972 170.458 201.734 162.702C221.245 147.2 250.355 129.698 284.437 113.892C318.519 98.0863 351.069 86.9921 376.129 81.8242C388.666 79.2378 399.278 78.147 407.248 78.6666C411.234 78.9264 414.508 79.5866 417.017 80.6301C419.517 81.6717 421.2 83.0675 422.123 84.786Z" stroke="#EBF1F5" stroke-width="1.5"/>
<path opacity="0.206897" d="M428.356 95.8978C429.123 97.6738 429.124 99.7552 428.292 102.157C427.457 104.567 425.801 107.245 423.348 110.141C418.442 115.933 410.472 122.455 400.013 129.296C379.106 142.97 348.421 157.81 312.916 170.554C277.41 183.299 243.862 191.516 218.335 194.508C205.565 196.005 194.855 196.188 186.931 195.001C182.969 194.408 179.754 193.479 177.339 192.236C174.932 190.996 173.375 189.473 172.607 187.698C171.84 185.923 171.839 183.841 172.671 181.438C173.505 179.029 175.162 176.351 177.616 173.455C182.521 167.663 190.49 161.141 200.95 154.3C221.857 140.626 252.541 125.786 288.047 113.042C323.552 100.298 357.101 92.0803 382.627 89.0883C395.397 87.5918 406.108 87.4081 414.031 88.5949C417.993 89.1883 421.209 90.117 423.623 91.3603C426.031 92.6005 427.588 94.1231 428.356 95.8978Z" stroke="#EBF1F5" stroke-width="1.5"/>
<path opacity="0.241379" d="M433.612 107.3C434.22 109.12 434.033 111.176 432.984 113.479C431.932 115.79 430.034 118.296 427.319 120.951C421.891 126.259 413.333 132.032 402.255 137.912C380.114 149.661 348.089 161.74 311.431 171.341C274.774 180.944 240.482 186.237 214.685 187.045C201.777 187.448 191.051 186.727 183.234 184.888C179.324 183.967 176.192 182.779 173.89 181.348C171.594 179.919 170.175 178.285 169.566 176.466C168.958 174.646 169.146 172.591 170.195 170.287C171.246 167.976 173.144 165.47 175.86 162.815C181.288 157.507 189.846 151.734 200.923 145.856C223.065 134.105 255.09 122.026 291.747 112.425C328.404 102.823 362.697 97.5289 388.494 96.7214C401.401 96.3177 412.128 97.039 419.945 98.8781C423.854 99.7989 426.986 100.987 429.289 102.418C431.584 103.847 433.005 105.481 433.612 107.3Z" stroke="#EBF1F5" stroke-width="1.5"/>
<path opacity="0.275862" d="M437.862 118.893C438.305 120.741 437.933 122.756 436.675 124.944C435.414 127.137 433.289 129.453 430.334 131.847C424.425 136.636 415.344 141.62 403.733 146.497C380.526 156.244 347.405 165.486 309.875 171.893C272.345 178.3 237.571 180.65 211.697 179.282C198.752 178.597 188.089 176.984 180.437 174.511C176.611 173.275 173.586 171.838 171.413 170.231C169.246 168.627 167.973 166.894 167.53 165.046C167.087 163.198 167.459 161.183 168.717 158.995C169.979 156.801 172.104 154.486 175.058 152.091C180.968 147.303 190.049 142.319 201.659 137.443C224.865 127.695 257.987 118.453 295.517 112.046C333.047 105.638 367.822 103.29 393.696 104.657C406.64 105.342 417.304 106.954 424.955 109.428C428.781 110.665 431.806 112.1 433.98 113.708C436.146 115.311 437.419 117.046 437.862 118.893Z" stroke="#EBF1F5" stroke-width="1.5"/>
<path opacity="0.310345" d="M441.091 130.574C441.366 132.436 440.811 134.395 439.354 136.45C437.894 138.512 435.559 140.621 432.386 142.739C426.041 146.974 416.506 151.136 404.451 154.981C380.355 162.666 346.389 169.022 308.27 172.209C270.152 175.397 235.156 174.808 209.401 171.29C196.517 169.531 185.997 167.046 178.568 163.963C174.853 162.422 171.958 160.749 169.93 158.98C167.909 157.215 166.793 155.396 166.517 153.534C166.242 151.672 166.797 149.713 168.254 147.657C169.714 145.597 172.049 143.486 175.223 141.369C181.567 137.135 191.101 132.972 203.157 129.127C227.253 121.441 261.219 115.085 299.338 111.898C337.457 108.711 372.452 109.301 398.206 112.817C411.092 114.576 421.611 117.062 429.04 120.145C432.755 121.687 435.65 123.359 437.678 125.128C439.699 126.892 440.815 128.713 441.091 130.574Z" stroke="#EBF1F5" stroke-width="1.5"/>
<path opacity="0.344828" d="M443.297 142.267C443.404 144.131 442.67 146.021 441.026 147.93C439.377 149.845 436.85 151.735 433.483 153.563C426.75 157.218 416.833 160.535 404.424 163.327C379.62 168.909 345.062 172.352 306.638 172.317C268.214 172.282 233.258 168.775 207.813 163.148C195.082 160.332 184.785 156.997 177.634 153.329C174.057 151.495 171.312 149.6 169.445 147.682C167.582 145.77 166.632 143.878 166.525 142.014C166.419 140.151 167.153 138.261 168.797 136.352C170.445 134.436 172.973 132.547 176.339 130.72C183.072 127.064 192.989 123.748 205.399 120.955C230.203 115.373 264.761 111.929 303.185 111.964C341.608 112 376.564 115.507 402.01 121.134C414.74 123.949 425.038 127.286 432.189 130.953C435.766 132.787 438.51 134.681 440.378 136.6C442.24 138.513 443.191 140.404 443.297 142.267Z" stroke="#EBF1F5" stroke-width="1.5"/>
<path opacity="0.37931" d="M444.505 153.936C444.442 155.791 443.535 157.6 441.717 159.353C439.893 161.111 437.191 162.77 433.656 164.298C426.586 167.353 416.359 169.807 403.686 171.534C378.355 174.984 343.456 175.499 305.005 172.248C266.553 168.996 231.888 162.598 206.935 154.896C194.449 151.042 184.447 146.877 177.623 142.647C174.211 140.532 171.636 138.427 169.941 136.371C168.251 134.321 167.472 132.369 167.535 130.515C167.598 128.662 168.504 126.851 170.323 125.098C172.146 123.34 174.848 121.681 178.384 120.153C185.454 117.098 195.68 114.645 208.354 112.919C233.685 109.469 268.583 108.952 307.035 112.203C345.486 115.455 380.151 121.854 405.105 129.557C417.59 133.41 427.593 137.574 434.417 141.804C437.829 143.92 440.403 146.024 442.098 148.08C443.788 150.13 444.567 152.083 444.505 153.936Z" stroke="#EBF1F5" stroke-width="1.5"/>
<path opacity="0.413793" d="M444.736 165.589C444.505 167.424 443.433 169.145 441.453 170.731C439.468 172.323 436.612 173.742 432.933 174.961C425.576 177.399 415.114 178.973 402.267 179.621C376.589 180.913 341.597 178.488 303.389 172.025C265.182 165.562 231.051 156.294 206.762 146.549C194.609 141.674 184.971 136.699 178.521 131.926C175.296 129.539 172.909 127.233 171.399 125.05C169.891 122.873 169.288 120.87 169.519 119.035C169.75 117.2 170.822 115.48 172.802 113.894C174.788 112.301 177.643 110.883 181.321 109.664C188.679 107.226 199.141 105.65 211.988 105.004C237.666 103.712 272.658 106.136 310.866 112.599C349.074 119.062 383.205 128.331 407.494 138.075C419.646 142.951 429.285 147.926 435.734 152.699C438.959 155.085 441.346 157.391 442.857 159.575C444.363 161.752 444.967 163.755 444.736 165.589Z" stroke="#EBF1F5" stroke-width="1.5"/>
<path opacity="0.448276" d="M443.992 177.182C443.595 178.986 442.366 180.605 440.239 182.015C438.106 183.43 435.117 184.599 431.321 185.5C423.731 187.302 413.106 187.982 400.178 187.539C374.336 186.652 339.499 181.281 301.805 171.623C264.112 161.966 230.755 149.864 207.303 138.12C195.569 132.245 186.362 126.484 180.332 121.192C177.317 118.546 175.135 116.052 173.818 113.753C172.506 111.462 172.082 109.418 172.479 107.614C172.876 105.809 174.105 104.19 176.232 102.78C178.366 101.365 181.355 100.196 185.151 99.2953C192.741 97.4935 203.364 96.8129 216.294 97.2569C242.135 98.1433 276.972 103.514 314.666 113.172C352.36 122.83 385.715 134.932 409.169 146.675C420.902 152.55 430.109 158.312 436.139 163.604C439.154 166.249 441.337 168.744 442.653 171.042C443.966 173.333 444.389 175.376 443.992 177.182Z" stroke="#EBF1F5" stroke-width="1.5"/>
<path opacity="0.482759" d="M442.26 188.606C441.699 190.367 440.321 191.873 438.063 193.096C435.797 194.322 432.696 195.232 428.811 195.805C421.042 196.953 410.333 196.728 397.416 195.19C371.598 192.115 337.169 183.815 300.264 171.01C263.358 158.203 231.021 143.334 208.575 129.662C197.345 122.821 188.638 116.309 183.072 110.533C180.289 107.646 178.326 104.979 177.214 102.581C176.105 100.19 175.865 98.122 176.425 96.3604C176.986 94.6001 178.364 93.093 180.623 91.8702C182.888 90.6442 185.989 89.735 189.874 89.1611C197.644 88.0132 208.352 88.238 221.269 89.7763C247.087 92.8529 281.516 101.151 318.421 113.958C355.327 126.763 387.664 141.632 410.11 155.305C421.34 162.145 430.047 168.658 435.613 174.433C438.397 177.321 440.359 179.988 441.471 182.385C442.58 184.776 442.82 186.844 442.26 188.606Z" stroke="#EBF1F5" stroke-width="1.5"/>
<path opacity="0.517241" d="M439.539 199.742C438.818 201.446 437.302 202.828 434.927 203.851C432.546 204.877 429.356 205.519 425.41 205.759C417.519 206.239 406.804 205.105 393.995 202.477C368.391 197.222 334.626 186.041 298.784 170.167C262.941 154.291 231.863 136.754 210.594 121.248C199.953 113.489 191.81 106.272 186.75 100.055C184.22 96.9464 182.492 94.1272 181.594 91.6474C180.697 89.1761 180.642 87.0989 181.363 85.3952C182.083 83.6902 183.6 82.3096 185.974 81.2866C188.355 80.2593 191.545 79.6183 195.491 79.3783C203.383 78.897 214.097 80.0308 226.907 82.6606C252.511 87.9141 286.276 99.0964 322.118 114.971C357.96 130.845 389.038 148.383 410.308 163.89C420.949 171.647 429.091 178.865 434.151 185.081C436.682 188.19 438.409 191.01 439.308 193.489C440.204 195.961 440.259 198.039 439.539 199.742Z" stroke="#EBF1F5" stroke-width="1.5"/>
<path opacity="0.551724" d="M435.841 210.482C434.966 212.115 433.321 213.359 430.849 214.173C428.369 214.992 425.113 215.358 421.135 215.261C413.18 215.066 402.54 213.027 389.934 209.323C364.736 201.919 331.889 187.929 297.381 169.096C262.872 150.264 233.291 130.183 213.36 112.957C203.388 104.338 195.873 96.4695 191.358 89.8586C189.101 86.5538 187.623 83.6034 186.944 81.0617C186.268 78.5288 186.399 76.4588 187.275 74.8257C188.151 73.1928 189.795 71.9498 192.267 71.1339C194.747 70.3162 198.004 69.9504 201.981 70.0474C209.936 70.2414 220.576 72.2806 233.182 75.9852C258.38 83.3882 291.228 97.3784 325.736 116.212C360.244 135.045 389.826 155.126 409.757 172.352C419.728 180.969 427.243 188.838 431.758 195.449C434.015 198.755 435.493 201.705 436.172 204.246C436.848 206.78 436.717 208.85 435.841 210.482Z" stroke="#EBF1F5" stroke-width="1.5"/>
<path opacity="0.586207" d="M431.196 220.729C430.171 222.278 428.41 223.373 425.858 223.974C423.299 224.575 420 224.661 416.02 224.226C408.062 223.355 397.576 220.422 385.268 215.667C360.666 206.164 328.986 189.462 296.075 167.808C263.164 146.154 235.306 123.679 216.866 104.864C207.642 95.4503 200.814 86.9909 196.881 80.037C194.914 76.56 193.696 73.5019 193.244 70.9192C192.794 68.3441 193.112 66.2983 194.136 64.7509C195.16 63.2024 196.921 62.1072 199.474 61.5067C202.034 60.9057 205.332 60.8193 209.312 61.2548C217.271 62.1257 227.756 65.0582 240.064 69.8136C264.666 79.3168 296.346 96.018 329.257 117.672C362.167 139.326 390.027 161.802 408.465 180.617C417.69 190.03 424.518 198.489 428.451 205.443C430.418 208.92 431.635 211.978 432.088 214.561C432.538 217.136 432.22 219.182 431.196 220.729Z" stroke="#EBF1F5" stroke-width="1.5"/>
<path opacity="0.62069" d="M425.639 230.398C424.473 231.848 422.608 232.786 419.995 233.165C417.374 233.545 414.059 233.349 410.107 232.577C402.203 231.033 391.951 227.226 380.035 221.455C356.216 209.917 325.945 190.628 294.884 166.312C263.824 141.997 237.903 117.298 221.102 97.0361C212.695 86.8991 206.607 77.914 203.286 70.6708C201.627 67.0493 200.68 63.9082 200.458 61.304C200.238 58.7073 200.74 56.7023 201.906 55.252C203.073 53.8017 204.937 52.8626 207.551 52.4856C210.171 52.1055 213.486 52.3013 217.439 53.0728C225.342 54.6155 235.594 58.4239 247.511 64.1952C271.329 75.7327 301.601 95.0219 332.661 119.338C363.722 143.652 389.643 168.352 406.444 188.614C414.85 198.751 420.939 207.736 424.259 214.979C425.919 218.601 426.866 221.742 427.087 224.346C427.308 226.943 426.805 228.948 425.639 230.398Z" stroke="#EBF1F5" stroke-width="1.5"/>
<path opacity="0.655172" d="M419.22 239.41C417.92 240.751 415.966 241.525 413.311 241.677C410.648 241.83 407.34 241.353 403.445 240.25C395.657 238.045 385.716 233.39 374.282 226.643C351.428 213.156 322.798 191.42 293.828 164.626C264.858 137.832 241.076 111.094 226.043 89.5405C218.522 78.757 213.223 69.316 210.543 61.8409C209.203 58.1021 208.535 54.9028 208.547 52.2976C208.558 49.6996 209.243 47.7518 210.542 46.4108C211.843 45.0699 213.796 44.2962 216.451 44.1444C219.115 43.9909 222.422 44.4676 226.317 45.571C234.106 47.7763 244.047 52.4314 255.481 59.1784C278.334 72.6652 306.964 94.4012 335.934 121.195C364.905 147.989 388.686 174.727 403.719 196.28C411.24 207.063 416.54 216.505 419.22 223.98C420.56 227.719 421.227 230.918 421.215 233.523C421.204 236.121 420.52 238.069 419.22 239.41Z" stroke="#EBF1F5" stroke-width="1.5"/>
<path opacity="0.689655" d="M411.989 247.697C410.564 248.916 408.535 249.517 405.858 249.444C403.173 249.368 399.898 248.613 396.09 247.187C388.475 244.332 378.921 238.864 368.057 231.191C346.343 215.853 319.575 191.833 292.92 162.763C266.265 133.692 244.811 105.119 231.666 82.4391C225.09 71.092 220.621 61.2667 218.604 53.6166C217.595 49.7903 217.214 46.557 217.458 43.9709C217.704 41.3935 218.564 39.5176 219.989 38.2969C221.413 37.0762 223.443 36.475 226.12 36.5497C228.805 36.6241 232.081 37.3793 235.888 38.8066C243.503 41.6612 253.058 47.1287 263.92 54.8026C285.635 70.1397 312.403 94.1603 339.058 123.231C365.713 152.302 387.168 180.873 400.312 203.553C406.888 214.9 411.357 224.727 413.374 232.377C414.383 236.202 414.765 239.437 414.519 242.021C414.274 244.6 413.413 246.476 411.989 247.697Z" stroke="#EBF1F5" stroke-width="1.5"/>
<path opacity="0.724138" d="M404.005 255.189C402.466 256.28 400.376 256.704 397.697 256.402C395.01 256.1 391.791 255.071 388.099 253.331C380.716 249.849 371.621 243.607 361.411 235.064C341.004 217.989 316.306 191.867 292.175 160.739C268.044 129.611 249.086 99.4211 237.936 75.7869C232.358 63.9634 228.756 53.8291 227.421 46.0629C226.753 42.1798 226.66 38.9366 227.139 36.3911C227.615 33.8528 228.648 32.0638 230.187 30.9741C231.726 29.8831 233.816 29.4597 236.496 29.7613C239.183 30.0648 242.4 31.0932 246.093 32.8342C253.476 36.3147 262.571 42.5576 272.78 51.0996C293.188 68.1743 317.886 94.2978 342.017 125.425C366.148 156.553 385.106 186.742 396.256 210.376C401.834 222.2 405.435 232.334 406.771 240.101C407.439 243.984 407.532 247.227 407.053 249.772C406.576 252.311 405.544 254.1 404.005 255.189Z" stroke="#EBF1F5" stroke-width="1.5"/>
<path opacity="0.758621" d="M395.334 261.836C393.692 262.786 391.556 263.029 388.895 262.502C386.226 261.973 383.089 260.678 379.54 258.636C372.444 254.552 363.879 247.583 354.402 238.235C335.459 219.551 313.024 191.522 291.608 158.573C270.193 125.624 253.883 94.0453 244.82 69.6392C240.285 57.4285 237.584 47.0633 236.942 39.2418C236.621 35.3298 236.819 32.1044 237.528 29.618C238.235 27.1389 239.433 25.4514 241.075 24.5008C242.717 23.5489 244.854 23.3062 247.515 23.8333C250.184 24.3624 253.321 25.6576 256.869 27.6991C263.966 31.7835 272.531 38.7524 282.007 48.1003C300.951 66.7839 323.385 94.8135 344.801 127.763C366.217 160.712 382.525 192.29 391.589 216.696C396.123 228.907 398.825 239.272 399.468 247.093C399.789 251.005 399.59 254.232 398.881 256.717C398.173 259.196 396.977 260.884 395.334 261.836Z" stroke="#EBF1F5" stroke-width="1.5"/>
<path opacity="0.793103" d="M386.041 267.58C384.307 268.384 382.141 268.444 379.518 267.695C376.886 266.943 373.854 265.391 370.476 263.063C363.721 258.407 355.752 250.762 347.081 240.68C329.75 220.527 309.756 190.803 291.229 156.282C272.701 121.761 259.175 89.0353 252.277 64.0431C248.824 51.54 247.047 41.023 247.106 33.2054C247.136 29.2959 247.626 26.1109 248.562 23.7034C249.495 21.3031 250.849 19.7302 252.582 18.9266C254.317 18.1218 256.482 18.0624 259.107 18.8115C261.738 19.5635 264.77 21.1153 268.148 23.4433C274.903 28.0992 282.872 35.7439 291.542 45.8267C308.874 65.979 328.867 95.7036 347.395 130.224C365.923 164.745 379.449 197.471 386.348 222.463C389.799 234.966 391.578 245.483 391.518 253.301C391.488 257.21 390.998 260.395 390.062 262.803C389.129 265.202 387.775 266.776 386.041 267.58Z" stroke="#EBF1F5" stroke-width="1.5"/>
<path opacity="0.827586" d="M376.197 272.381C374.383 273.032 372.203 272.908 369.636 271.941C367.062 270.972 364.158 269.175 360.976 266.577C354.615 261.384 347.303 253.122 339.507 242.381C323.925 220.911 306.534 189.716 291.047 153.886C275.559 118.056 264.933 84.4322 260.263 59.0436C257.925 46.3424 257.089 35.7555 257.855 28.0018C258.238 24.1249 259.017 21.0061 260.174 18.6958C261.327 16.3939 262.828 14.9474 264.642 14.2964C266.456 13.6454 268.635 13.7695 271.202 14.7365C273.777 15.7055 276.68 17.5021 279.862 20.0999C286.224 25.2929 293.535 33.5557 301.331 44.2967C316.913 65.7665 334.305 96.9614 349.792 132.791C365.279 168.622 375.905 202.245 380.576 227.634C382.913 240.335 383.75 250.922 382.984 258.676C382.601 262.553 381.822 265.671 380.665 267.982C379.511 270.283 378.01 271.73 376.197 272.381Z" stroke="#EBF1F5" stroke-width="1.5"/>
<path opacity="0.862069" d="M365.871 276.202C363.991 276.695 361.812 276.386 359.322 275.21C356.824 274.03 354.07 272.001 351.11 269.154C345.19 263.462 338.594 254.644 331.737 243.325C318.029 220.701 303.384 188.272 291.072 151.405C278.759 114.54 271.129 80.2723 268.734 54.6833C267.537 41.8814 267.655 31.3039 269.125 23.6747C269.862 19.8603 270.926 16.8299 272.297 14.6361C273.664 12.4496 275.302 11.1413 277.182 10.648C279.064 10.156 281.242 10.464 283.732 11.6401C286.23 12.8207 288.984 14.8498 291.944 17.6957C297.864 23.3887 304.459 32.2059 311.317 43.5248C325.025 66.1494 339.67 98.5782 351.982 135.445C364.294 172.312 371.925 206.579 374.319 232.166C375.517 244.968 375.399 255.546 373.928 263.175C373.193 266.99 372.128 270.02 370.757 272.214C369.39 274.4 367.752 275.709 365.871 276.202Z" stroke="#EBF1F5" stroke-width="1.5"/>
<path opacity="0.896552" d="M355.135 279.008C353.201 279.338 351.041 278.848 348.646 277.471C346.243 276.089 343.66 273.843 340.945 270.769C335.514 264.62 329.688 255.314 323.825 243.503C312.107 219.895 300.337 186.48 291.313 148.858C282.289 111.236 277.734 76.5886 277.651 50.9958C277.608 38.1912 278.688 27.7044 280.857 20.2593C281.942 16.5355 283.287 13.6192 284.864 11.5576C286.436 9.50306 288.2 8.34337 290.134 8.01317C292.068 7.68296 294.228 8.17223 296.624 9.55006C299.026 10.9322 301.609 13.1771 304.325 16.2521C309.755 22.4007 315.581 31.7075 321.444 43.5181C333.162 67.1249 344.932 100.541 353.956 138.162C362.98 175.784 367.536 210.431 367.619 236.025C367.661 248.83 366.582 259.316 364.412 266.762C363.327 270.486 361.982 273.402 360.406 275.462C358.834 277.518 357.069 278.678 355.135 279.008Z" stroke="#EBF1F5" stroke-width="1.5"/>
<path opacity="0.931035" d="M344.065 280.772C342.091 280.938 339.965 280.27 337.684 278.702C335.396 277.128 333.005 274.682 330.557 271.404C325.66 264.847 320.653 255.121 315.838 242.909C306.213 218.5 297.429 184.354 291.786 146.266C286.144 108.179 284.72 73.4176 286.966 48.0164C288.09 35.309 290.128 24.9953 292.986 17.7898C294.415 14.1865 296.032 11.4062 297.803 9.49355C299.57 7.5879 301.448 6.5847 303.421 6.42031C305.394 6.25591 307.52 6.92283 309.802 8.49219C312.09 10.0646 314.481 12.5101 316.929 15.79C321.826 22.3473 326.832 32.0713 331.648 44.2834C341.273 68.6936 350.057 102.838 355.699 140.926C361.342 179.014 362.766 213.775 360.52 239.176C359.396 251.885 357.358 262.197 354.5 269.403C353.071 273.006 351.454 275.786 349.683 277.699C347.916 279.606 346.038 280.608 344.065 280.772Z" stroke="#EBF1F5" stroke-width="1.5"/>
<path opacity="0.965517" d="M332.753 281.466C330.757 281.463 328.683 280.622 326.535 278.875C324.381 277.122 322.203 274.495 320.043 271.037C315.724 264.121 311.583 254.054 307.861 241.535C300.421 216.513 294.713 181.904 292.518 143.647C290.324 105.39 292.063 70.7896 296.633 45.78C298.92 33.2678 301.906 23.2084 305.433 16.3013C307.196 12.8471 309.073 10.2252 311.026 8.47597C312.974 6.73373 314.951 5.89635 316.948 5.89938C318.944 5.90116 321.018 6.7421 323.165 8.48913C325.319 10.2417 327.497 12.8687 329.657 16.328C333.977 23.244 338.117 33.311 341.84 45.8289C349.28 70.8507 354.988 105.46 357.182 143.717C359.376 181.973 357.638 216.574 353.068 241.584C350.781 254.096 347.795 264.155 344.268 271.062C342.505 274.517 340.628 277.14 338.675 278.888C336.727 280.631 334.749 281.467 332.753 281.466Z" stroke="#EBF1F5" stroke-width="1.5"/>
<path d="M321.348 281.053C319.347 280.884 317.345 279.875 315.351 277.961C313.351 276.043 311.407 273.256 309.557 269.646C305.856 262.425 302.621 252.095 300.029 239.37C294.847 213.934 292.273 179.137 293.553 141.019C294.832 102.901 299.722 68.737 306.577 44.322C310.007 32.1079 313.915 22.3843 318.078 15.8307C320.16 12.5539 322.28 10.1106 324.396 8.5411C326.507 6.976 328.565 6.31275 330.566 6.48246C332.567 6.65217 334.569 7.65982 336.563 9.57304C338.563 11.4917 340.507 14.2796 342.357 17.8899C346.058 25.1105 349.293 35.44 351.885 48.1649C357.067 73.6009 359.642 108.398 358.362 146.516C357.082 184.634 352.193 218.798 345.337 243.212C341.907 255.427 337.999 265.151 333.836 271.705C331.754 274.982 329.635 277.424 327.518 278.993C325.407 280.559 323.349 281.223 321.348 281.053Z" stroke="#EBF1F5" stroke-width="1.5"/>
</g>
</g>
<defs>
<clipPath id="clip0_403_173">
<rect width="290" height="290" fill="white"/>
</clipPath>
</defs>
</svg>
