<svg width="290" height="290" viewBox="0 0 290 290" fill="none" xmlns="http://www.w3.org/2000/svg">
<g clip-path="url(#clip0_403_173)">
<mask id="mask0_403_173" style="mask-type:alpha" maskUnits="userSpaceOnUse" x="0" y="0" width="290" height="290">
<path d="M290 0H0V290H290V0Z" fill="#A1CCC9"/>
</mask>
<g mask="url(#mask0_403_173)">
<path opacity="0.0344828" d="M227.928 384.793C226.612 386.176 224.679 387.065 222.08 387.41C219.473 387.757 216.258 387.548 212.489 386.782C204.955 385.251 195.4 381.533 184.454 375.92C162.579 364.702 135.335 346.006 107.929 322.486C80.5213 298.966 58.1814 275.111 44.2143 255.571C37.2269 245.795 32.3644 237.139 29.9956 230.171C28.8112 226.688 28.2659 223.669 28.3646 221.17C28.4616 218.678 29.1955 216.759 30.5096 215.375C31.8248 213.993 33.7587 213.105 36.3573 212.759C38.9646 212.412 42.1791 212.621 45.9478 213.387C53.4827 214.919 63.0376 218.636 73.9829 224.249C95.8579 235.468 123.102 254.163 150.508 277.683C177.916 301.203 200.256 325.058 214.223 344.598C221.21 354.374 226.073 363.03 228.442 369.998C229.626 373.482 230.171 376.5 230.073 378.999C229.976 381.491 229.242 383.41 227.928 384.793Z" stroke="#EBF1F5" stroke-width="1.5"/>
<path opacity="0.0689655" d="M219.137 393.954C217.71 395.226 215.714 395.952 213.11 396.081C210.499 396.211 207.336 395.735 203.676 394.656C196.358 392.499 187.239 387.99 176.918 381.472C156.289 368.444 131.029 347.499 106.046 321.722C81.0638 295.944 61.1284 270.253 49.0856 249.57C43.0616 239.222 39.0377 230.169 37.3294 223.012C36.4746 219.433 36.21 216.371 36.5355 213.884C36.8594 211.402 37.7602 209.546 39.1878 208.273C40.614 207.001 42.6101 206.275 45.2145 206.145C47.8262 206.017 50.9891 206.493 54.6481 207.571C61.9672 209.728 71.0862 214.238 81.4072 220.755C102.036 233.784 127.296 254.728 152.279 280.506C177.26 306.283 197.197 331.974 209.238 352.658C215.263 363.006 219.287 372.058 220.996 379.216C221.85 382.795 222.115 385.856 221.789 388.344C221.465 390.825 220.565 392.681 219.137 393.954Z" stroke="#EBF1F5" stroke-width="1.5"/>
<path opacity="0.103448" d="M209.687 402.401C208.158 403.553 206.117 404.112 203.528 404.024C200.932 403.936 197.845 403.197 194.321 401.814C187.276 399.05 178.662 393.784 169.042 386.412C149.815 371.676 126.726 348.645 104.351 320.808C81.9773 292.97 64.5895 265.64 54.5574 243.97C49.5386 233.129 46.3812 223.749 45.3419 216.455C44.8223 212.808 44.8406 209.727 45.3882 207.268C45.9354 204.816 46.9964 203.036 48.5249 201.884C50.0536 200.731 52.095 200.172 54.6825 200.259C57.2785 200.348 60.3664 201.088 63.889 202.47C70.9355 205.234 79.5489 210.5 89.1689 217.872C108.397 232.608 131.486 255.639 153.86 283.476C176.233 311.314 193.621 338.644 203.654 360.314C208.673 371.155 211.831 380.535 212.869 387.829C213.388 391.477 213.371 394.557 212.822 397.016C212.275 399.468 211.215 401.248 209.687 402.401Z" stroke="#EBF1F5" stroke-width="1.5"/>
<path opacity="0.137931" d="M199.653 410.079C198.036 411.104 195.965 411.492 193.412 411.188C190.852 410.884 187.864 409.888 184.504 408.212C177.784 404.862 169.74 398.882 160.894 390.713C143.21 374.384 122.461 349.444 102.858 319.76C83.2537 290.076 68.5366 261.316 60.5834 238.825C56.6036 227.572 54.3339 217.936 53.9704 210.56C53.7888 206.872 54.0859 203.795 54.852 201.383C55.6164 198.979 56.8282 197.289 58.4455 196.264C60.0628 195.24 62.1339 194.852 64.687 195.155C67.2474 195.459 70.2348 196.455 73.5948 198.131C80.3148 201.481 88.3585 207.462 97.2056 215.63C114.888 231.959 135.637 256.9 155.241 286.583C174.844 316.267 189.561 345.028 197.514 367.519C201.494 378.771 203.764 388.408 204.127 395.784C204.31 399.472 204.012 402.548 203.246 404.96C202.481 407.365 201.271 409.055 199.653 410.079Z" stroke="#EBF1F5" stroke-width="1.5"/>
<path opacity="0.172414" d="M189.119 416.938C187.426 417.826 185.342 418.042 182.845 417.525C180.34 417.006 177.475 415.761 174.303 413.806C167.96 409.897 160.547 403.249 152.538 394.346C136.529 376.551 118.27 349.893 101.576 318.59C84.8816 287.288 72.9373 257.315 67.1135 234.174C64.199 222.597 62.83 212.777 63.1401 205.375C63.2952 201.674 63.8691 198.624 64.8462 196.279C65.8217 193.939 67.1729 192.351 68.8665 191.463C70.5588 190.574 72.6429 190.359 75.1406 190.876C77.6455 191.394 80.5106 192.639 83.682 194.593C90.0247 198.504 97.4384 205.151 105.448 214.054C121.456 231.849 139.715 258.508 156.409 289.81C173.104 321.112 185.048 351.084 190.872 374.225C193.786 385.803 195.155 395.623 194.845 403.025C194.69 406.726 194.116 409.775 193.139 412.122C192.163 414.461 190.812 416.049 189.119 416.938Z" stroke="#EBF1F5" stroke-width="1.5"/>
<path opacity="0.206897" d="M178.175 422.933C176.42 423.679 174.339 423.72 171.917 422.995C169.486 422.267 166.766 420.783 163.806 418.564C157.888 414.126 151.159 406.861 144.046 397.293C129.829 378.168 114.189 349.998 100.518 317.316C86.8467 284.635 77.7518 253.681 74.0908 230.065C72.2595 218.251 71.7947 208.322 72.773 200.95C73.2621 197.264 74.1059 194.265 75.2854 192.001C76.4619 189.745 77.9429 188.271 79.6968 187.525C81.4518 186.779 83.5324 186.738 85.9562 187.463C88.386 188.19 91.1062 189.675 94.0658 191.894C99.984 196.332 106.713 203.597 113.825 213.165C128.043 232.29 143.683 260.459 157.354 293.141C171.025 325.823 180.12 356.777 183.781 380.392C185.612 392.207 186.077 402.136 185.099 409.507C184.61 413.193 183.766 416.193 182.586 418.456C181.41 420.713 179.929 422.187 178.175 422.933Z" stroke="#EBF1F5" stroke-width="1.5"/>
<path opacity="0.241379" d="M166.916 428.028C165.113 428.627 163.052 428.494 160.723 427.565C158.385 426.634 155.831 424.923 153.105 422.456C147.656 417.524 141.661 409.699 135.493 399.54C123.167 379.232 110.253 349.766 99.6924 315.955C89.1309 282.144 82.9398 250.444 81.4552 226.536C80.7129 214.573 81.1522 204.611 82.7852 197.326C83.6031 193.682 84.7084 190.755 86.0786 188.592C87.4461 186.435 89.0427 185.087 90.8447 184.488C92.6478 183.889 94.707 184.023 97.0377 184.951C99.3755 185.882 101.93 187.594 104.655 190.06C110.104 194.992 116.099 202.817 122.266 212.977C134.593 233.284 147.508 262.751 158.068 296.561C168.628 330.372 174.821 362.072 176.305 385.981C177.048 397.943 176.608 407.906 174.975 415.191C174.157 418.834 173.052 421.761 171.682 423.924C170.314 426.081 168.718 427.43 166.916 428.028Z" stroke="#EBF1F5" stroke-width="1.5"/>
<path opacity="0.275862" d="M155.439 432.194C153.604 432.641 151.579 432.334 149.36 431.21C147.134 430.082 144.763 428.157 142.292 425.463C137.35 420.075 132.13 411.749 126.95 401.076C116.598 379.742 106.49 349.204 99.0996 314.522C91.7101 279.841 88.4479 247.636 89.1364 223.614C89.4812 211.596 90.813 201.676 93.0847 194.532C94.2193 190.959 95.5763 188.126 97.126 186.08C98.6718 184.039 100.371 182.825 102.207 182.379C104.042 181.932 106.067 182.238 108.286 183.362C110.512 184.49 112.883 186.416 115.354 189.11C120.295 194.498 125.516 202.823 130.694 213.496C141.048 234.83 151.156 265.368 158.545 300.05C165.936 334.732 169.197 366.936 168.51 390.958C168.165 402.976 166.833 412.897 164.561 420.041C163.425 423.613 162.07 426.446 160.52 428.493C158.974 430.533 157.273 431.747 155.439 432.194Z" stroke="#EBF1F5" stroke-width="1.5"/>
<path opacity="0.310345" d="M143.847 435.414C141.993 435.706 140.02 435.228 137.928 433.917C135.829 432.603 133.66 430.478 131.459 427.576C127.059 421.774 122.649 413.011 118.489 401.906C110.174 379.708 102.929 348.33 98.7418 313.04C94.5549 277.75 94.2248 245.284 97.0642 221.331C98.4844 209.348 100.692 199.544 103.58 192.594C105.022 189.119 106.618 186.402 108.334 184.487C110.044 182.579 111.833 181.508 113.687 181.217C115.541 180.926 117.514 181.402 119.607 182.714C121.705 184.028 123.876 186.153 126.076 189.055C130.475 194.857 134.887 203.619 139.047 214.725C147.362 236.923 154.607 268.301 158.794 303.591C162.981 338.88 163.31 371.346 160.471 395.299C159.051 407.283 156.842 417.087 153.956 424.036C152.512 427.511 150.917 430.228 149.202 432.143C147.491 434.052 145.701 435.122 143.847 435.414Z" stroke="#EBF1F5" stroke-width="1.5"/>
<path opacity="0.344828" d="M132.217 437.686C130.357 437.821 128.448 437.177 126.497 435.689C124.539 434.197 122.584 431.89 120.668 428.803C116.838 422.63 113.262 413.496 110.146 402.042C103.914 379.146 99.5647 347.164 98.5912 311.528C97.6177 275.893 100.205 243.407 105.162 219.7C107.642 207.839 110.705 198.225 114.184 191.522C115.923 188.17 117.745 185.588 119.613 183.819C121.476 182.054 123.343 181.136 125.203 181.001C127.062 180.867 128.97 181.512 130.922 182.998C132.88 184.49 134.836 186.798 136.75 189.885C140.581 196.058 144.156 205.191 147.274 216.646C153.505 239.542 157.855 271.524 158.829 307.159C159.802 342.794 157.214 375.28 152.257 398.987C149.777 410.848 146.713 420.463 143.234 427.166C141.495 430.518 139.674 433.1 137.805 434.869C135.942 436.633 134.077 437.551 132.217 437.686Z" stroke="#EBF1F5" stroke-width="1.5"/>
<path opacity="0.37931" d="M120.585 439.031C118.729 439.009 116.897 438.203 115.097 436.551C113.291 434.893 111.562 432.42 109.942 429.171C106.702 422.673 103.981 413.236 101.923 401.516C97.8088 378.09 96.3771 345.735 98.6177 310.013C100.858 274.289 106.343 242.017 113.387 218.727C116.912 207.073 120.812 197.716 124.861 191.306C126.886 188.101 128.923 185.672 130.934 184.061C132.938 182.454 134.869 181.693 136.724 181.716C138.578 181.738 140.412 182.543 142.211 184.196C144.017 185.854 145.746 188.327 147.366 191.576C150.606 198.075 153.326 207.511 155.384 219.231C159.498 242.656 160.931 275.011 158.691 310.735C156.45 346.458 150.964 378.729 143.92 402.021C140.395 413.674 136.496 423.031 132.447 429.441C130.422 432.647 128.385 435.075 126.375 436.686C124.37 438.293 122.439 439.054 120.585 439.031Z" stroke="#EBF1F5" stroke-width="1.5"/>
<path opacity="0.413793" d="M108.943 439.471C107.102 439.292 105.354 438.332 103.716 436.526C102.074 434.716 100.579 432.095 99.2644 428.706C96.6346 421.931 94.786 412.258 93.8016 400.357C91.8356 376.568 93.3411 344.069 98.798 308.51C104.255 272.951 112.623 241.119 121.727 218.405C126.28 207.04 131 198.005 135.602 191.932C137.903 188.895 140.146 186.636 142.288 185.193C144.424 183.753 146.411 183.155 148.251 183.334C150.092 183.513 151.838 184.473 153.477 186.279C155.12 188.09 156.613 190.71 157.928 194.098C160.558 200.874 162.408 210.547 163.391 222.449C165.357 246.237 163.853 278.736 158.396 314.295C152.939 349.854 144.57 381.687 135.467 404.401C130.912 415.765 126.193 424.8 121.591 430.874C119.291 433.911 117.048 436.169 114.905 437.612C112.769 439.051 110.782 439.65 108.943 439.471Z" stroke="#EBF1F5" stroke-width="1.5"/>
<path opacity="0.448276" d="M97.3354 439.005C95.5211 438.672 93.8707 437.563 92.4049 435.618C90.9347 433.667 89.6877 430.918 88.6875 427.415C86.6871 420.41 85.7279 410.571 85.8322 398.572C86.0398 374.589 90.4938 342.177 99.1577 307.033C107.822 271.889 119.043 240.721 130.166 218.743C135.73 207.748 141.248 199.098 146.379 193.404C148.944 190.556 151.38 188.484 153.644 187.218C155.899 185.957 157.931 185.525 159.745 185.858C161.559 186.192 163.21 187.3 164.676 189.245C166.146 191.197 167.393 193.946 168.393 197.449C170.393 204.454 171.353 214.292 171.248 226.292C171.041 250.275 166.587 282.686 157.923 317.83C149.259 352.974 138.038 384.143 126.915 406.12C121.35 417.116 115.833 425.765 110.702 431.46C108.136 434.307 105.7 436.38 103.437 437.645C101.181 438.906 99.1508 439.339 97.3354 439.005Z" stroke="#EBF1F5" stroke-width="1.5"/>
<path opacity="0.482759" d="M85.8704 437.62C84.0948 437.134 82.5534 435.885 81.2717 433.814C79.9869 431.737 78.9954 428.879 78.3209 425.287C76.9695 418.104 76.913 408.168 78.1115 396.159C80.5076 372.156 87.8994 340.066 99.7308 305.592C111.563 271.118 125.577 240.841 138.654 219.76C145.197 209.213 151.478 201.012 157.105 195.738C159.919 193.102 162.533 191.23 164.9 190.152C167.261 189.077 169.322 188.815 171.098 189.3C172.872 189.786 174.415 191.035 175.696 193.107C176.981 195.183 177.971 198.041 178.647 201.634C179.999 208.817 180.055 218.752 178.857 230.761C176.459 254.765 169.069 286.854 157.236 321.328C145.405 355.802 131.391 386.08 118.313 407.16C111.771 417.707 105.489 425.908 99.8631 431.182C97.0495 433.819 94.4351 435.691 92.0678 436.768C89.7068 437.843 87.6459 438.106 85.8704 437.62Z" stroke="#EBF1F5" stroke-width="1.5"/>
<path opacity="0.517241" d="M74.667 435.311C72.9451 434.676 71.524 433.296 70.4391 431.114C69.3509 428.926 68.6251 425.979 68.2817 422.325C67.5946 415.015 68.4466 405.057 70.7378 393.127C75.318 369.28 85.6079 337.75 100.535 304.203C115.463 270.655 132.176 241.494 147.118 221.47C154.594 211.451 161.595 203.76 167.676 198.947C170.717 196.541 173.489 194.884 175.945 194.003C178.391 193.123 180.466 193.032 182.188 193.668C183.911 194.302 185.331 195.682 186.416 197.865C187.505 200.053 188.23 202.999 188.573 206.654C189.262 213.963 188.41 223.922 186.117 235.852C181.538 259.699 171.247 291.229 156.321 324.776C141.394 358.323 124.679 387.484 109.737 407.51C102.263 417.528 95.2617 425.219 89.1808 430.032C86.1397 432.439 83.3658 434.095 80.9118 434.977C78.4639 435.856 76.3889 435.947 74.667 435.311Z" stroke="#EBF1F5" stroke-width="1.5"/>
<path opacity="0.551724" d="M63.8349 432.09C62.1795 431.31 60.8928 429.808 60.0135 427.531C59.1298 425.248 58.6786 422.235 58.6711 418.544C58.6574 411.163 60.4163 401.256 63.7872 389.493C70.5268 365.981 83.6487 335.248 101.568 302.881C119.487 270.514 138.782 242.692 155.478 223.874C163.831 214.46 171.499 207.339 177.989 203.024C181.233 200.867 184.143 199.439 186.666 198.76C189.18 198.084 191.253 198.166 192.908 198.946C194.564 199.727 195.849 201.227 196.73 203.505C197.612 205.788 198.063 208.802 198.071 212.493C198.086 219.873 196.327 229.781 192.955 241.543C186.216 265.055 173.095 295.788 155.174 328.155C137.256 360.522 117.96 388.345 101.264 407.162C92.912 416.576 85.244 423.698 78.7544 428.012C75.5089 430.17 72.5986 431.598 70.0769 432.276C67.5616 432.952 65.4891 432.87 63.8349 432.09Z" stroke="#EBF1F5" stroke-width="1.5"/>
<path opacity="0.586207" d="M53.4695 427.98C51.8947 427.06 50.7536 425.448 50.0864 423.092C49.4184 420.73 49.2454 417.673 49.5762 413.974C50.2378 406.576 52.8939 396.794 57.324 385.288C66.1774 362.289 82.0399 332.586 102.821 301.645C123.602 270.705 145.337 244.435 163.66 226.97C172.827 218.234 181.104 211.737 187.952 207.955C191.375 206.064 194.4 204.876 196.97 204.407C199.532 203.939 201.586 204.195 203.159 205.114C204.734 206.034 205.875 207.646 206.542 210.002C207.21 212.364 207.383 215.421 207.052 219.121C206.391 226.519 203.735 236.299 199.305 247.807C190.451 270.806 174.589 300.509 153.808 331.449C133.027 362.389 111.292 388.66 92.9689 406.124C83.8015 414.861 75.5249 421.357 68.6771 425.139C65.2532 427.03 62.2283 428.218 59.6586 428.688C57.0963 429.155 55.0431 428.9 53.4695 427.98Z" stroke="#EBF1F5" stroke-width="1.5"/>
<path opacity="0.62069" d="M43.6588 423.013C42.1785 421.96 41.192 420.249 40.7453 417.833C40.2966 415.409 40.4052 412.331 41.0726 408.651C42.4084 401.291 45.9448 391.709 51.4008 380.547C62.3082 358.234 80.7946 329.788 104.285 300.512C127.775 271.236 151.783 246.72 171.595 230.746C181.507 222.754 190.329 216.934 197.482 213.715C201.058 212.106 204.173 211.167 206.771 210.911C209.361 210.656 211.378 211.084 212.858 212.137C214.339 213.191 215.326 214.902 215.772 217.318C216.22 219.741 216.112 222.819 215.444 226.5C214.11 233.859 210.572 243.441 205.116 254.604C194.209 276.916 175.722 305.363 152.232 334.638C128.743 363.914 104.734 388.431 84.9217 404.405C75.0096 412.396 66.188 418.216 59.035 421.435C55.4585 423.045 52.3437 423.983 49.7463 424.239C47.1564 424.494 45.1391 424.067 43.6588 423.013Z" stroke="#EBF1F5" stroke-width="1.5"/>
<path opacity="0.655172" d="M34.4818 417.234C33.1073 416.055 32.2826 414.257 32.0612 411.798C31.8377 409.331 32.2274 406.255 33.228 402.621C35.228 395.356 39.6201 386.046 46.0642 375.312C58.9454 353.857 79.9207 326.885 105.943 299.5C131.965 272.114 158.067 249.543 179.218 235.184C189.799 228.001 199.097 222.904 206.499 220.274C210.201 218.959 213.381 218.278 215.986 218.239C218.583 218.198 220.548 218.796 221.923 219.975C223.297 221.155 224.122 222.952 224.343 225.411C224.567 227.879 224.177 230.955 223.176 234.589C221.176 241.855 216.784 251.164 210.34 261.898C197.459 283.353 176.484 310.325 150.461 337.71C124.439 365.095 98.3371 387.667 77.1868 402.025C66.6064 409.208 57.3071 414.306 49.9055 416.936C46.2035 418.251 43.023 418.932 40.4185 418.971C37.8213 419.011 35.8563 418.414 34.4818 417.234Z" stroke="#EBF1F5" stroke-width="1.5"/>
<path opacity="0.689655" d="M26.0089 410.688C24.7525 409.391 24.0982 407.52 24.1014 405.036C24.1064 402.545 24.7753 399.493 26.1008 395.934C28.7543 388.817 33.9699 379.85 41.3543 369.627C56.1161 349.193 79.4227 323.904 107.782 298.622C136.141 273.34 164.138 252.891 186.464 240.262C197.633 233.944 207.337 229.609 214.931 227.59C218.73 226.581 221.952 226.165 224.543 226.342C227.126 226.52 229.024 227.281 230.281 228.579C231.539 229.877 232.193 231.747 232.189 234.231C232.185 236.723 231.516 239.776 230.189 243.334C227.536 250.451 222.321 259.418 214.936 269.64C200.175 290.075 176.867 315.364 148.508 340.646C120.149 365.928 92.1531 386.377 69.8275 399.006C58.6577 405.324 48.9526 409.659 41.3586 411.677C37.5616 412.686 34.3384 413.103 31.7482 412.925C29.1641 412.748 27.2664 411.986 26.0089 410.688Z" stroke="#EBF1F5" stroke-width="1.5"/>
<path opacity="0.724138" d="M18.3095 403.429C17.1786 402.023 16.7005 400.093 16.9316 397.602C17.1632 395.104 18.1067 392.1 19.75 388.642C23.0365 381.727 29.0367 373.172 37.3085 363.539C53.8402 344.282 79.3033 320.873 109.785 297.892C140.267 274.911 169.946 256.745 193.278 245.948C204.95 240.546 214.986 237.01 222.713 235.622C226.577 234.927 229.817 234.778 232.374 235.173C234.924 235.566 236.739 236.489 237.869 237.895C239 239.301 239.478 241.232 239.247 243.723C239.014 246.22 238.07 249.224 236.427 252.683C233.142 259.597 227.14 268.152 218.87 277.785C202.338 297.042 176.874 320.452 146.393 343.433C115.912 366.413 86.2323 384.579 62.9006 395.376C51.2284 400.778 41.1928 404.314 33.4648 405.703C29.6008 406.398 26.3614 406.546 23.8043 406.152C21.2546 405.758 19.4392 404.835 18.3095 403.429Z" stroke="#EBF1F5" stroke-width="1.5"/>
<path opacity="0.758621" d="M11.4384 395.516C10.4451 394.012 10.1463 392.036 10.6034 389.557C11.0622 387.072 12.2745 384.137 14.222 380.807C18.1183 374.147 24.8596 366.069 33.9548 357.099C52.1333 339.17 79.5623 317.822 111.935 297.324C144.309 276.827 175.446 261.091 199.604 252.214C211.69 247.772 221.98 245.066 229.782 244.32C233.684 243.947 236.913 244.068 239.417 244.677C241.914 245.285 243.632 246.363 244.625 247.868C245.62 249.373 245.919 251.349 245.462 253.827C245.003 256.313 243.791 259.247 241.843 262.577C237.947 269.237 231.205 277.315 222.11 286.285C203.932 304.214 176.503 325.562 144.129 346.06C111.756 366.558 80.6194 382.293 56.4613 391.17C44.3747 395.612 34.0847 398.318 26.2832 399.065C22.3813 399.438 19.1508 399.316 16.6481 398.706C14.1514 398.098 12.433 397.021 11.4384 395.516Z" stroke="#EBF1F5" stroke-width="1.5"/>
<path opacity="0.793103" d="M5.45266 387.009C4.60267 385.416 4.48644 383.409 5.16621 380.961C5.84894 378.506 7.32042 375.664 9.55876 372.486C14.0354 366.132 21.4678 358.594 31.3187 350.357C51.0076 333.895 80.1951 314.778 114.215 296.928C148.235 279.078 180.593 265.902 205.393 259.021C217.801 255.577 228.267 253.725 236.083 253.629C239.991 253.582 243.188 253.975 245.619 254.796C248.043 255.614 249.651 256.84 250.499 258.432C251.349 260.025 251.466 262.032 250.786 264.48C250.103 266.935 248.632 269.777 246.393 272.955C241.917 279.309 234.484 286.847 224.633 295.084C204.944 311.546 175.757 330.663 141.737 348.513C107.717 366.363 75.3594 379.54 50.5587 386.421C38.1514 389.864 27.6853 391.716 19.8693 391.812C15.9607 391.859 12.7641 391.467 10.333 390.645C7.91049 389.826 6.30142 388.601 5.45266 387.009Z" stroke="#EBF1F5" stroke-width="1.5"/>
<path opacity="0.827586" d="M0.394787 377.972C-0.303624 376.302 -0.236676 374.278 0.662518 371.879C1.56341 369.473 3.28318 366.745 5.79634 363.744C10.8201 357.744 18.8876 350.803 29.4194 343.366C50.4713 328.5 81.1967 311.768 116.605 296.713C152.014 281.657 185.345 271.153 210.6 266.33C223.235 263.916 233.796 262.937 241.566 263.497C245.452 263.777 248.59 264.44 250.929 265.468C253.261 266.493 254.746 267.857 255.444 269.527C256.143 271.196 256.076 273.219 255.177 275.619C254.276 278.026 252.556 280.753 250.043 283.754C245.019 289.754 236.952 296.695 226.42 304.132C205.368 318.998 174.642 335.73 139.234 350.785C103.825 365.841 70.4941 376.346 45.2387 381.168C32.604 383.581 22.0434 384.562 14.2728 384.001C10.3874 383.721 7.24948 383.059 4.90978 382.03C2.57853 381.005 1.09321 379.641 0.394787 377.972Z" stroke="#EBF1F5" stroke-width="1.5"/>
<path opacity="0.862069" d="M-3.69557 368.47C-4.23801 366.735 -3.98612 364.709 -2.8758 362.377C-1.76255 360.037 0.193376 357.444 2.96163 354.644C8.49562 349.044 17.1373 342.756 28.2714 336.178C50.5268 323.028 82.5578 308.819 119.086 296.688C155.613 284.557 189.666 276.818 215.181 274.103C227.947 272.744 238.523 272.65 246.188 273.866C250.02 274.475 253.077 275.404 255.306 276.632C257.527 277.858 258.878 279.352 259.421 281.086C259.962 282.821 259.711 284.847 258.601 287.179C257.486 289.519 255.53 292.112 252.763 294.912C247.228 300.512 238.588 306.8 227.454 313.379C205.198 326.528 173.167 340.737 136.639 352.868C100.111 364.999 66.0579 372.738 40.5436 375.453C27.7783 376.811 17.202 376.907 9.53746 375.69C5.70519 375.082 2.64805 374.153 0.419243 372.924C-1.80237 371.698 -3.15314 370.204 -3.69557 368.47Z" stroke="#EBF1F5" stroke-width="1.5"/>
<path opacity="0.896552" d="M-6.78251 358.567C-7.16336 356.78 -6.72976 354.767 -5.41663 352.519C-4.09811 350.265 -1.92071 347.826 1.08044 345.248C7.08394 340.092 16.234 334.509 27.8857 328.844C51.1764 317.52 84.2684 305.959 121.639 296.863C159.008 287.767 193.521 282.872 219.102 282.3C231.9 282.013 242.411 282.812 249.91 284.68C253.66 285.614 256.611 286.805 258.713 288.227C260.808 289.645 262.014 291.259 262.394 293.047C262.775 294.834 262.343 296.847 261.029 299.095C259.71 301.349 257.534 303.788 254.531 306.366C248.528 311.522 239.378 317.105 227.726 322.77C204.437 334.094 171.344 345.655 133.974 354.751C96.6054 363.848 62.0916 368.742 36.5103 369.314C23.7121 369.6 13.2024 368.803 5.70218 366.934C1.95145 366 -0.998995 364.809 -3.09989 363.387C-5.1961 361.969 -6.40166 360.355 -6.78251 358.567Z" stroke="#EBF1F5" stroke-width="1.5"/>
<path opacity="0.931035" d="M-8.8366 348.335C-9.05398 346.508 -8.44192 344.523 -6.93435 342.377C-5.4214 340.225 -3.03971 337.961 0.173304 335.626C6.59928 330.958 16.1891 326.127 28.2698 321.425C52.4159 312.027 86.3173 303.221 124.241 297.252C162.165 291.282 196.875 289.29 222.324 290.882C235.056 291.678 245.419 293.369 252.697 295.88C256.336 297.136 259.158 298.582 261.116 300.188C263.067 301.789 264.119 303.512 264.335 305.339C264.552 307.165 263.941 309.15 262.432 311.296C260.92 313.448 258.539 315.713 255.324 318.047C248.898 322.715 239.31 327.546 227.229 332.248C203.082 341.646 169.182 350.453 131.258 356.422C93.3335 362.391 58.6243 364.383 33.1745 362.791C20.4415 361.995 10.0798 360.304 2.80224 357.793C-0.837162 356.537 -3.6587 355.091 -5.6171 353.485C-7.5696 351.884 -8.62047 350.161 -8.8366 348.335Z" stroke="#EBF1F5" stroke-width="1.5"/>
</g>
</g>
<defs>
<clipPath id="clip0_403_173">
<rect width="290" height="290" fill="white"/>
</clipPath>
</defs>
</svg>
