<svg width="290" height="290" viewBox="0 0 290 290" fill="none" xmlns="http://www.w3.org/2000/svg">
<g clip-path="url(#clip0_403_173)">
<mask id="mask0_403_173" style="mask-type:alpha" maskUnits="userSpaceOnUse" x="0" y="0" width="290" height="290">
<path d="M290 0H0V290H290V0Z" fill="#A1CCC9"/>
</mask>
<g mask="url(#mask0_403_173)">
<path opacity="0.0344828" d="M264.831 71.5464C262.959 72.4696 260.736 72.6232 258.141 71.9388C255.538 71.2522 252.623 69.7368 249.447 67.4131C243.096 62.7665 235.865 55.0084 228.208 44.6984C212.905 24.092 196.032 -6.53522 181.238 -42.2976C166.444 -78.0604 156.553 -112.133 152.509 -138.295C150.486 -151.385 149.936 -162.44 150.941 -170.717C151.443 -174.855 152.329 -178.247 153.578 -180.833C154.822 -183.413 156.398 -185.133 158.269 -186.057C160.14 -186.979 162.363 -187.133 164.958 -186.449C167.561 -185.763 170.476 -184.247 173.652 -181.923C180.003 -177.277 187.235 -169.519 194.891 -159.208C210.194 -138.602 227.068 -107.975 241.861 -72.2123C256.655 -36.4498 266.546 -2.37783 270.59 23.7852C272.613 36.8745 273.163 47.9303 272.158 56.2064C271.656 60.345 270.77 63.7363 269.521 66.3226C268.277 68.9018 266.702 70.6226 264.831 71.5464Z" stroke="#EBF1F5" stroke-width="1.5"/>
<path opacity="0.0689655" d="M252.357 77.6289C250.43 78.3906 248.224 78.3489 245.726 77.4351C243.219 76.5183 240.476 74.7429 237.546 72.1341C231.688 66.9178 225.232 58.5034 218.578 47.4939C205.28 25.4884 191.306 -6.70235 179.828 -43.8601C168.351 -81.0177 161.562 -116.049 159.85 -142.637C158.994 -155.94 159.413 -167.075 161.125 -175.284C161.98 -179.389 163.148 -182.713 164.604 -185.195C166.056 -187.673 167.759 -189.26 169.685 -190.022C171.61 -190.783 173.816 -190.742 176.316 -189.828C178.823 -188.911 181.565 -187.135 184.495 -184.528C190.353 -179.31 196.81 -170.896 203.464 -159.887C216.762 -137.881 230.736 -105.691 242.213 -68.5327C253.69 -31.3756 260.48 3.65668 262.191 30.2447C263.047 43.5471 262.629 54.6812 260.917 62.8911C260.062 66.9968 258.893 70.3195 257.437 72.8032C255.986 75.2797 254.283 76.8672 252.357 77.6289Z" stroke="#EBF1F5" stroke-width="1.5"/>
<path opacity="0.103448" d="M239.594 82.695C237.629 83.2899 235.458 83.0546 233.073 81.9187C230.682 80.7795 228.132 78.7584 225.47 75.8852C220.149 70.1401 214.515 61.1347 208.913 49.5101C197.719 26.2754 186.744 -7.23292 178.664 -45.5036C170.583 -83.7743 166.939 -119.502 167.567 -146.316C167.882 -159.731 169.264 -170.86 171.665 -178.944C172.866 -182.986 174.309 -186.216 175.96 -188.579C177.607 -190.935 179.424 -192.378 181.39 -192.972C183.355 -193.568 185.526 -193.332 187.91 -192.197C190.301 -191.057 192.852 -189.035 195.512 -186.163C200.835 -180.418 206.468 -171.412 212.069 -159.788C223.265 -136.552 234.24 -103.044 242.321 -64.7741C250.4 -26.5037 254.044 9.22398 253.417 36.0387C253.103 49.4537 251.72 60.583 249.318 68.666C248.117 72.7083 246.676 75.938 245.023 78.301C243.376 80.6571 241.56 82.1001 239.594 82.695Z" stroke="#EBF1F5" stroke-width="1.5"/>
<path opacity="0.137931" d="M226.641 86.7193C224.652 87.1437 222.532 86.7171 220.281 85.3688C218.023 84.0166 215.685 81.7655 213.312 78.6506C208.567 72.4213 203.798 62.8952 199.29 50.7447C190.278 26.4582 182.379 -8.11314 177.749 -47.2066C173.118 -86.3007 172.638 -122.455 175.593 -149.294C177.072 -162.722 179.404 -173.763 182.476 -181.66C184.013 -185.609 185.715 -188.722 187.549 -190.948C189.377 -193.166 191.295 -194.453 193.284 -194.878C195.273 -195.302 197.393 -194.876 199.645 -193.528C201.903 -192.176 204.241 -189.925 206.613 -186.809C211.359 -180.581 216.127 -171.054 220.636 -158.904C229.646 -134.618 237.545 -100.046 242.176 -60.9522C246.807 -21.8587 247.286 14.2957 244.331 41.135C242.853 54.5629 240.52 65.604 237.448 73.5008C235.912 77.4502 234.209 80.5627 232.376 82.7883C230.547 85.007 228.63 86.2949 226.641 86.7193Z" stroke="#EBF1F5" stroke-width="1.5"/>
<path opacity="0.172414" d="M213.598 89.6793C211.601 89.9308 209.549 89.317 207.448 87.7671C205.341 86.2128 203.233 83.7495 201.167 80.4169C197.033 73.7521 193.164 63.778 189.78 51.1941C183.017 26.0418 178.245 -9.33045 177.089 -48.9524C175.933 -88.5743 178.612 -124.884 183.863 -151.548C186.489 -164.888 189.751 -175.759 193.466 -183.412C195.324 -187.238 197.273 -190.212 199.274 -192.282C201.27 -194.348 203.271 -195.471 205.269 -195.723C207.266 -195.974 209.318 -195.361 211.418 -193.81C213.525 -192.256 215.634 -189.793 217.7 -186.461C221.833 -179.795 225.703 -169.822 229.087 -157.238C235.85 -132.085 240.622 -96.7126 241.778 -57.0911C242.934 -17.4692 240.256 18.8401 235.004 45.5042C232.377 58.8446 229.116 69.7155 225.401 77.3679C223.543 81.1945 221.594 84.1678 219.593 86.2395C217.596 88.3045 215.596 89.4282 213.598 89.6793Z" stroke="#EBF1F5" stroke-width="1.5"/>
<path opacity="0.206897" d="M200.571 91.5678C198.582 91.6445 196.614 90.8489 194.68 89.11C192.739 87.3654 190.877 84.7094 189.131 81.1843C185.64 74.1354 182.698 63.7895 180.461 50.8681C175.991 25.0405 174.374 -10.865 176.688 -50.7173C179.002 -90.5698 184.804 -126.762 192.301 -153.053C196.053 -166.206 200.211 -176.826 204.539 -184.178C206.702 -187.854 208.881 -190.666 211.033 -192.569C213.179 -194.466 215.249 -195.417 217.237 -195.495C219.227 -195.571 221.195 -194.776 223.13 -193.036C225.07 -191.293 226.932 -188.637 228.678 -185.111C232.169 -178.063 235.111 -167.716 237.348 -154.795C241.818 -128.967 243.436 -93.0624 241.122 -53.2097C238.807 -13.3573 233.005 22.8356 225.508 49.1259C221.757 62.2789 217.598 72.8997 213.271 80.251C211.107 83.9271 208.928 86.7393 206.776 88.642C204.629 90.5389 202.56 91.4905 200.571 91.5678Z" stroke="#EBF1F5" stroke-width="1.5"/>
<path opacity="0.241379" d="M187.665 92.3834C185.699 92.2857 183.83 91.3147 182.078 89.4001C180.318 87.4793 178.717 84.6513 177.305 80.9612C174.482 73.5821 172.486 62.9429 171.409 49.7809C169.258 23.4736 170.793 -12.6959 176.544 -52.4806C182.294 -92.2661 191.162 -128.072 200.834 -153.794C205.674 -166.663 210.695 -176.954 215.596 -183.951C218.048 -187.45 220.438 -190.081 222.723 -191.801C225.002 -193.516 227.121 -194.289 229.087 -194.192C231.053 -194.095 232.92 -193.124 234.674 -191.209C236.434 -189.289 238.035 -186.46 239.447 -182.77C242.27 -175.391 244.266 -164.752 245.342 -151.59C247.494 -125.282 245.959 -89.1127 240.208 -49.3282C234.457 -9.54345 225.59 26.2632 215.918 51.9854C211.078 64.8541 206.057 75.1456 201.156 82.1425C198.704 85.6408 196.314 88.2715 194.029 89.992C191.75 91.707 189.63 92.4806 187.665 92.3834Z" stroke="#EBF1F5" stroke-width="1.5"/>
<path opacity="0.275862" d="M174.986 92.134C173.059 91.8636 171.305 90.7252 169.745 88.6493C168.182 86.5675 166.852 83.5887 165.784 79.7614C163.646 72.1074 162.609 61.2552 162.694 47.9516C162.867 21.3611 167.528 -14.8026 176.652 -54.2251C185.776 -93.6474 197.622 -128.802 209.382 -153.767C215.266 -166.257 221.104 -176.144 226.538 -182.735C229.254 -186.032 231.836 -188.462 234.235 -189.987C236.628 -191.509 238.781 -192.099 240.708 -191.828C242.634 -191.558 244.389 -190.42 245.948 -188.344C247.512 -186.262 248.841 -183.282 249.91 -179.456C252.046 -171.802 253.085 -160.95 252.998 -147.647C252.827 -121.056 248.165 -84.8917 239.041 -45.4697C229.917 -6.04739 218.071 29.1078 206.311 54.0728C200.427 66.5624 194.589 76.45 189.155 83.041C186.438 86.3369 183.857 88.7673 181.458 90.2932C179.066 91.8142 176.911 92.4039 174.986 92.134Z" stroke="#EBF1F5" stroke-width="1.5"/>
<path opacity="0.310345" d="M162.636 90.8446C160.764 90.4038 159.137 89.1068 157.783 86.886C156.425 84.6584 155.375 81.5512 154.656 77.6149C153.219 69.7443 153.142 58.7592 154.383 45.4125C156.865 18.7351 164.596 -17.157 177.002 -55.927C189.409 -94.6969 204.122 -128.945 217.866 -152.971C224.741 -164.99 231.346 -174.402 237.267 -180.54C240.226 -183.611 242.978 -185.823 245.472 -187.143C247.958 -188.459 250.129 -188.863 252.001 -188.421C253.873 -187.98 255.5 -186.684 256.854 -184.462C258.212 -182.235 259.263 -179.128 259.98 -175.191C261.417 -167.321 261.496 -156.336 260.255 -142.989C257.773 -116.311 250.042 -80.4195 237.635 -41.6492C225.229 -2.87919 210.515 31.3684 196.772 55.3941C189.896 67.4141 183.291 76.8253 177.371 82.9639C174.411 86.0335 171.658 88.2455 169.166 89.5664C166.68 90.883 164.508 91.2854 162.636 90.8446Z" stroke="#EBF1F5" stroke-width="1.5"/>
<path opacity="0.344828" d="M150.688 88.5442C148.883 87.9361 147.393 86.4898 146.253 84.1401C145.11 81.7835 144.346 78.5703 143.979 74.5543C143.247 66.5235 144.123 55.4852 146.504 42.1924C151.259 15.6217 161.984 -19.7385 177.561 -57.5761C193.138 -95.4138 210.593 -128.507 226.207 -151.42C234.019 -162.883 241.338 -171.751 247.698 -177.392C250.879 -180.213 253.78 -182.193 256.349 -183.299C258.911 -184.402 261.084 -184.614 262.889 -184.006C264.693 -183.397 266.183 -181.951 267.323 -179.602C268.468 -177.245 269.232 -174.032 269.597 -170.016C270.329 -161.986 269.453 -150.948 267.074 -137.653C262.317 -111.083 251.594 -75.7228 236.017 -37.8852C220.44 -0.0475199 202.984 33.045 187.37 55.9582C179.559 67.4218 172.239 76.2895 165.878 81.9309C162.698 84.7522 159.797 86.731 157.227 87.8367C154.666 88.9394 152.494 89.1524 150.688 88.5442Z" stroke="#EBF1F5" stroke-width="1.5"/>
<path opacity="0.37931" d="M139.168 85.2688C137.44 84.4975 136.096 82.9122 135.174 80.4501C134.25 77.9806 133.774 74.6846 133.76 70.617C133.731 62.4832 135.548 51.4702 139.043 38.3253C146.028 12.0513 159.658 -22.5242 178.287 -59.1584C196.916 -95.7929 216.987 -127.493 234.363 -149.127C243.058 -159.952 251.041 -168.212 257.801 -173.316C261.181 -175.867 264.213 -177.598 266.842 -178.481C269.464 -179.362 271.624 -179.382 273.352 -178.611C275.079 -177.84 276.424 -176.255 277.345 -173.793C278.27 -171.323 278.745 -168.027 278.76 -163.959C278.788 -155.825 276.971 -144.813 273.475 -131.667C266.491 -105.394 252.862 -70.8183 234.233 -34.1838C215.604 2.45038 195.532 34.1498 178.155 55.785C169.461 66.6091 161.479 74.8697 154.719 79.9733C151.338 82.5252 148.307 84.2556 145.677 85.1387C143.056 86.0193 140.894 86.0396 139.168 85.2688Z" stroke="#EBF1F5" stroke-width="1.5"/>
<path opacity="0.413793" d="M128.057 81.0379C126.416 80.1083 125.223 78.3942 124.523 75.8367C123.822 73.2717 123.635 69.9153 123.971 65.8251C124.642 57.6453 127.386 46.7362 131.971 33.8333C141.137 8.04345 157.585 -25.4989 179.151 -60.6645C200.717 -95.8299 223.286 -125.906 242.325 -146.104C251.85 -156.21 260.452 -163.802 267.574 -168.329C271.135 -170.592 274.281 -172.061 276.956 -172.714C279.623 -173.366 281.761 -173.194 283.403 -172.264C285.044 -171.334 286.236 -169.62 286.936 -167.063C287.638 -164.497 287.824 -161.142 287.488 -157.052C286.817 -148.871 284.074 -137.962 279.488 -125.059C270.323 -99.27 253.875 -65.7266 232.309 -30.5613C210.743 4.60437 188.173 34.68 169.135 54.8788C159.609 64.984 151.007 72.5754 143.885 77.1025C140.325 79.3666 137.179 80.8352 134.503 81.488C131.836 82.1391 129.698 81.9669 128.057 81.0379Z" stroke="#EBF1F5" stroke-width="1.5"/>
<path opacity="0.448276" d="M117.398 75.8696C115.853 74.788 114.82 72.9577 114.347 70.3228C113.872 67.68 113.976 64.2882 114.66 60.2044C116.027 52.0377 119.681 41.3116 125.331 28.7455C136.622 3.62792 155.793 -28.6346 180.171 -62.0713C204.55 -95.5075 229.485 -123.736 250.075 -142.346C260.376 -151.657 269.547 -158.522 276.99 -162.437C280.71 -164.395 283.952 -165.591 286.658 -166.008C289.354 -166.424 291.458 -166.06 293.004 -164.979C294.549 -163.896 295.582 -162.066 296.055 -159.431C296.53 -156.788 296.426 -153.396 295.742 -149.312C294.375 -141.146 290.721 -130.42 285.071 -117.854C273.779 -92.7362 254.609 -60.4743 230.23 -27.0372C205.852 6.39955 180.917 34.6277 160.327 53.2379C150.026 62.5486 140.855 69.4136 133.412 73.3287C129.691 75.2869 126.45 76.4826 123.744 76.8998C121.047 77.316 118.945 76.9516 117.398 75.8696Z" stroke="#EBF1F5" stroke-width="1.5"/>
<path opacity="0.482759" d="M107.298 69.7919C105.86 68.5657 104.993 66.6322 104.751 63.9392C104.508 61.2386 104.902 57.8354 105.932 53.789C107.99 45.6964 112.534 35.2334 119.214 23.0977C132.566 -1.15916 154.339 -31.8991 181.375 -63.3547C208.412 -94.8099 235.551 -120.976 257.557 -137.857C268.567 -146.301 278.246 -152.387 285.958 -155.66C289.814 -157.297 293.13 -158.21 295.846 -158.388C298.555 -158.566 300.608 -158.011 302.046 -156.785C303.484 -155.559 304.351 -153.625 304.593 -150.931C304.836 -148.232 304.441 -144.829 303.412 -140.782C301.355 -132.689 296.81 -122.226 290.131 -110.09C276.778 -85.8338 255.005 -55.0935 227.968 -23.6385C200.932 7.81717 173.794 33.9836 151.787 50.8632C140.778 59.3084 131.098 65.3937 123.387 68.6675C119.53 70.3044 116.215 71.2172 113.499 71.3954C110.789 71.5728 108.737 71.0181 107.298 69.7919Z" stroke="#EBF1F5" stroke-width="1.5"/>
<path opacity="0.517241" d="M97.8706 62.8502C96.5513 61.4886 95.8585 59.4658 95.8517 56.7356C95.8448 53.9974 96.5282 50.6087 97.8976 46.6297C100.636 38.6724 106.042 28.5516 113.709 16.9387C129.034 -6.27285 153.264 -35.2565 182.771 -64.4905C212.28 -93.7247 241.431 -117.629 264.695 -132.648C276.335 -140.162 286.453 -145.421 294.377 -148.028C298.339 -149.33 301.703 -149.954 304.411 -149.89C307.111 -149.828 309.097 -149.087 310.416 -147.725C311.736 -146.363 312.428 -144.341 312.435 -141.61C312.443 -138.872 311.758 -135.484 310.389 -131.505C307.652 -123.547 302.246 -113.426 294.578 -101.814C279.253 -78.6017 255.022 -49.6184 225.515 -20.3843C196.008 8.84968 166.855 32.7536 143.591 47.7732C131.952 55.2877 121.835 60.547 113.911 63.1531C109.948 64.4561 106.583 65.0786 103.876 65.0157C101.176 64.9527 99.1899 64.2118 97.8706 62.8502Z" stroke="#EBF1F5" stroke-width="1.5"/>
<path opacity="0.551724" d="M89.2129 55.0986C88.0231 53.6113 87.5123 51.5151 87.7421 48.768C87.9709 46.012 88.9422 42.6643 90.6432 38.7827C94.0457 31.0213 100.278 21.3201 108.879 10.3186C126.072 -11.6705 152.586 -38.6753 184.35 -65.4631C216.115 -92.2509 247.066 -113.708 271.415 -126.751C283.597 -133.276 294.076 -137.668 302.152 -139.586C306.19 -140.545 309.577 -140.873 312.255 -140.569C314.923 -140.265 316.827 -139.344 318.017 -137.857C319.206 -136.369 319.716 -134.274 319.487 -131.526C319.258 -128.771 318.286 -125.423 316.585 -121.541C313.184 -113.78 306.952 -104.078 298.35 -93.0773C281.158 -71.088 254.643 -44.083 222.878 -17.2957C191.114 9.49222 160.162 30.9498 135.814 43.9928C123.633 50.5183 113.154 54.9103 105.077 56.8278C101.038 57.7866 97.651 58.114 94.9747 57.8105C92.3052 57.5071 90.4016 56.5854 89.2129 55.0986Z" stroke="#EBF1F5" stroke-width="1.5"/>
<path opacity="0.586207" d="M81.4037 46.6013C80.3541 44.9996 80.0309 42.8458 80.4957 40.1019C80.9629 37.3504 82.2154 34.0684 84.2371 30.3144C88.2801 22.8073 95.2944 13.5999 104.769 3.29481C123.706 -17.3038 152.311 -42.1215 186.096 -66.2563C219.882 -90.3912 252.4 -109.235 277.648 -120.2C290.279 -125.685 301.039 -129.175 309.204 -130.388C313.287 -130.995 316.671 -131.025 319.295 -130.482C321.912 -129.94 323.718 -128.844 324.767 -127.244C325.816 -125.642 326.139 -123.488 325.674 -120.744C325.207 -117.992 323.955 -114.71 321.933 -110.956C317.89 -103.449 310.876 -94.2423 301.401 -83.9365C282.464 -63.3382 253.859 -38.5204 220.074 -14.3856C186.288 9.74904 153.77 28.5931 128.523 39.5576C115.891 45.0428 105.131 48.5329 96.9657 49.7464C92.8829 50.3534 89.4992 50.3827 86.8746 49.8399C84.2576 49.2985 82.4522 48.2025 81.4037 46.6013Z" stroke="#EBF1F5" stroke-width="1.5"/>
<path opacity="0.62069" d="M74.5104 37.4279C73.6111 35.7241 73.4785 33.5287 74.178 30.8097C74.8791 28.0823 76.4052 24.8914 78.7334 21.2932C83.3903 14.0983 91.137 5.45552 101.414 -4.07499C121.957 -23.1237 152.439 -45.5633 187.992 -66.8569C223.546 -88.1506 257.382 -104.234 283.335 -113.033C296.319 -117.435 307.277 -119.995 315.468 -120.494C319.563 -120.743 322.916 -120.475 325.468 -119.696C328.012 -118.92 329.704 -117.658 330.604 -115.955C331.503 -114.25 331.636 -112.054 330.936 -109.335C330.235 -106.609 328.709 -103.418 326.38 -99.8191C321.725 -92.6241 313.977 -83.9818 303.7 -74.451C283.157 -55.4023 252.675 -32.9628 217.122 -11.6692C181.569 9.62492 147.732 25.7087 121.779 34.5072C108.795 38.9092 97.8369 41.4691 89.6461 41.968C85.5506 42.2177 82.1982 41.9483 79.6464 41.1701C77.1021 40.3939 75.4097 39.1318 74.5104 37.4279Z" stroke="#EBF1F5" stroke-width="1.5"/>
<path opacity="0.655172" d="M68.5868 27.656C67.845 25.8622 67.904 23.6413 68.8345 20.9678C69.7665 18.2858 71.5552 15.21 74.1738 11.7955C79.4095 4.96681 87.832 -3.04504 98.8361 -11.7267C120.832 -29.0794 152.963 -48.9657 190.014 -67.2522C227.065 -85.5386 261.963 -98.7349 288.422 -105.297C301.66 -108.579 312.729 -110.188 320.881 -109.968C324.957 -109.857 328.252 -109.29 330.71 -108.282C333.162 -107.277 334.727 -105.857 335.469 -104.064C336.21 -102.27 336.152 -100.05 335.221 -97.3761C334.289 -94.6933 332.5 -91.6181 329.881 -88.2028C324.646 -81.3741 316.223 -73.3622 305.219 -64.6808C283.224 -47.3287 251.092 -27.442 214.041 -9.15569C176.99 9.13077 142.092 22.3269 115.633 28.8887C102.397 32.172 91.326 33.7802 83.1749 33.5598C79.0981 33.4493 75.8034 32.8825 73.3451 31.8742C70.8936 30.8688 69.3287 29.4496 68.5868 27.656Z" stroke="#EBF1F5" stroke-width="1.5"/>
<path opacity="0.689655" d="M63.6778 17.3622C63.1011 15.4925 63.3537 13.263 64.5062 10.654C65.6638 8.03794 67.7026 5.10064 70.5912 1.89517C76.3705 -4.5139 85.4056 -11.8333 97.0543 -19.5991C120.339 -35.1208 153.876 -52.2991 192.143 -67.4336C230.41 -82.5679 266.102 -92.7694 292.862 -97.0407C306.25 -99.1766 317.347 -99.8198 325.395 -98.88C329.421 -98.4097 332.632 -97.548 334.978 -96.3173C337.315 -95.089 338.741 -93.5241 339.319 -91.6536C339.896 -89.7832 339.644 -87.5535 338.49 -84.9456C337.334 -82.3287 335.294 -79.3906 332.405 -76.1863C326.626 -69.7776 317.592 -62.4569 305.942 -54.6925C282.658 -39.1697 249.12 -21.992 210.853 -6.85747C172.586 8.27689 136.895 18.4795 110.136 22.7502C96.7474 24.8867 85.6495 25.5291 77.6011 24.5886C73.5768 24.1186 70.3642 23.2573 68.0198 22.0264C65.6808 20.7985 64.2557 19.2325 63.6778 17.3622Z" stroke="#EBF1F5" stroke-width="1.5"/>
<path opacity="0.724138" d="M59.8236 6.63046C59.4147 4.69714 59.8599 2.47591 61.2288 -0.0479089C62.6016 -2.57931 64.8757 -5.3559 68.0152 -8.32688C74.2938 -14.2681 83.8737 -20.8388 96.081 -27.6276C120.479 -41.1978 155.167 -55.5324 194.358 -67.3931C233.549 -79.2542 269.76 -86.3782 296.614 -88.3191C310.049 -89.2899 321.087 -88.9598 328.97 -87.3036C332.911 -86.476 336.015 -85.3268 338.228 -83.8809C340.435 -82.4404 341.708 -80.7384 342.116 -78.8055C342.525 -76.8721 342.08 -74.6509 340.711 -72.1268C339.337 -69.5959 337.063 -66.8198 333.923 -63.8482C327.646 -57.9071 318.065 -51.3362 305.859 -44.5478C281.461 -30.9772 246.772 -16.6432 207.582 -4.78189C168.391 7.0788 132.18 14.2028 105.325 16.1437C91.8906 17.115 80.8527 16.7844 72.9699 15.1289C69.0284 14.3013 65.9247 13.1518 63.7117 11.7062C61.5051 10.2648 60.2314 8.56327 59.8236 6.63046Z" stroke="#EBF1F5" stroke-width="1.5"/>
<path opacity="0.758621" d="M57.0476 -4.45414C56.8132 -6.43562 57.4477 -8.6325 59.0227 -11.0525C60.6027 -13.4796 63.0961 -16.074 66.4617 -18.7885C73.1937 -24.2162 83.247 -29.9867 95.9186 -35.746C121.246 -47.2581 156.821 -58.6333 196.634 -67.1228C236.449 -75.6117 272.901 -79.5954 299.642 -79.1847C313.021 -78.98 323.913 -77.6755 331.567 -75.3149C335.395 -74.1341 338.365 -72.7049 340.429 -71.0552C342.486 -69.4098 343.597 -67.5844 343.832 -65.6029C344.067 -63.6209 343.433 -61.4237 341.858 -59.0037C340.278 -56.5769 337.784 -53.9823 334.419 -51.2681C327.687 -45.8402 317.633 -40.0694 304.962 -34.3106C279.635 -22.7985 244.06 -11.4233 204.245 -2.93439C164.432 5.55504 127.98 9.53812 101.239 9.12808C87.8604 8.9228 76.9679 7.61843 69.3134 5.25829C65.485 4.07776 62.5148 2.64766 60.4523 0.997996C58.3946 -0.647349 57.2832 -2.47214 57.0476 -4.45414Z" stroke="#EBF1F5" stroke-width="1.5"/>
<path opacity="0.793103" d="M55.3763 -15.8065C55.3169 -17.8227 56.1369 -19.9789 57.9064 -22.277C59.682 -24.5816 62.3755 -26.9746 65.9429 -29.4114C73.0773 -34.2841 83.5285 -39.2093 96.5686 -43.893C122.632 -53.2552 158.822 -61.5773 198.954 -66.6204C239.086 -71.663 275.497 -72.4652 301.916 -69.6984C315.133 -68.3152 325.796 -66.0423 333.162 -62.9922C336.846 -61.4669 339.659 -59.7655 341.557 -57.9226C343.449 -56.0853 344.388 -54.1496 344.447 -52.1345C344.506 -50.1177 343.686 -47.9624 341.916 -45.6633C340.141 -43.3592 337.447 -40.9655 333.88 -38.5291C326.746 -33.6563 316.294 -28.7313 303.254 -24.0477C277.191 -14.6855 241.001 -6.36344 200.869 -1.32022C160.737 3.72288 124.326 4.52476 97.9066 1.75831C84.6896 0.374406 74.0271 -1.89787 66.6604 -4.94824C62.9765 -6.47367 60.1634 -8.17489 58.266 -10.0181C56.3753 -11.8553 55.4346 -13.7909 55.3763 -15.8065Z" stroke="#EBF1F5" stroke-width="1.5"/>
<path opacity="0.827586" d="M54.8195 -27.3417C54.9377 -29.3775 55.9369 -31.4772 57.8894 -33.6357C59.8468 -35.801 62.7203 -37.9743 66.4632 -40.1143C73.9464 -44.3944 84.7159 -48.4352 98.0242 -52.005C124.626 -59.1401 161.154 -64.3363 201.293 -65.8828C241.433 -67.4295 277.52 -65.0317 303.412 -59.9185C316.366 -57.3616 326.713 -54.1342 333.734 -50.4128C337.244 -48.552 339.878 -46.5912 341.594 -44.5675C343.304 -42.551 344.064 -40.5188 343.946 -38.4827C343.828 -36.4466 342.829 -34.3477 340.876 -32.1889C338.918 -30.0232 336.045 -27.8506 332.302 -25.7105C324.819 -21.4302 314.05 -17.3894 300.741 -13.8196C274.14 -6.68448 237.612 -1.4883 197.472 0.0582312C157.333 1.60477 121.246 -0.79263 95.353 -5.90558C82.3995 -8.46328 72.0521 -11.6902 65.0313 -15.4115C61.5209 -17.2721 58.8876 -19.2331 57.1715 -21.2569C55.4618 -23.274 54.7013 -25.3059 54.8195 -27.3417Z" stroke="#EBF1F5" stroke-width="1.5"/>
<path opacity="0.862069" d="M55.3839 -38.9751C55.6783 -41.0164 56.8517 -43.0436 58.9711 -45.0468C61.0966 -47.0563 64.1291 -48.9931 68.0183 -50.8197C75.7941 -54.4735 86.7994 -57.5965 100.275 -60.0213C127.21 -64.8679 163.793 -66.8859 203.628 -64.9086C243.463 -62.9319 278.946 -57.3367 304.107 -49.9046C316.695 -46.1861 326.648 -42.0223 333.266 -37.6548C336.574 -35.4698 339.008 -33.2616 340.528 -31.0721C342.042 -28.8881 342.616 -26.7742 342.322 -24.7333C342.026 -22.6917 340.854 -20.6638 338.735 -18.6611C336.608 -16.6523 333.576 -14.7154 329.688 -12.8882C321.911 -9.23508 310.906 -6.11145 297.431 -3.68668C270.496 1.15981 233.913 3.17798 194.078 1.20057C154.242 -0.776724 118.759 -6.37187 93.5987 -13.8038C81.0108 -17.5222 71.0582 -21.6856 64.4405 -26.0536C61.1316 -28.2376 58.6974 -30.4462 57.178 -32.6362C55.6637 -34.8195 55.0895 -36.9339 55.3839 -38.9751Z" stroke="#EBF1F5" stroke-width="1.5"/>
<path opacity="0.896552" d="M57.0738 -50.6246C57.5439 -52.6561 58.8815 -54.5964 61.1519 -56.4293C63.4305 -58.2671 66.5989 -59.9521 70.6035 -61.4513C78.6134 -64.4484 89.7691 -66.6266 103.307 -67.8827C130.367 -70.3932 166.719 -69.2021 205.939 -63.696C245.158 -58.1906 279.757 -49.4212 303.987 -39.7104C316.11 -34.8528 325.588 -29.7768 331.749 -24.7912C334.83 -22.2972 337.044 -19.8565 338.355 -17.5147C339.661 -15.18 340.044 -12.9981 339.574 -10.9665C339.104 -8.93502 337.767 -6.99418 335.496 -5.1618C333.217 -3.32411 330.05 -1.63851 326.044 -0.139917C318.034 2.85728 306.879 5.03534 293.341 6.29161C266.282 8.80258 229.929 7.61089 190.71 2.10543C151.491 -3.40004 116.892 -12.1694 92.6606 -21.8805C80.5381 -26.7389 71.061 -31.8134 64.8988 -36.8001C61.8172 -39.2939 59.6041 -41.7347 58.2939 -44.0761C56.9862 -46.4111 56.6036 -48.5931 57.0738 -50.6246Z" stroke="#EBF1F5" stroke-width="1.5"/>
<path opacity="0.931035" d="M59.8843 -62.2054C60.5259 -64.2126 62.0176 -66.0512 64.4229 -67.6984C66.8363 -69.3502 70.1154 -70.7696 74.2058 -71.9274C82.386 -74.2421 93.6058 -75.4528 107.099 -75.5238C134.07 -75.6659 169.906 -71.2537 208.197 -62.2385C246.489 -53.2234 279.929 -41.3255 303.035 -29.3937C314.595 -23.4245 323.521 -17.4706 329.177 -11.8981C332.006 -9.11158 333.98 -6.4552 335.072 -3.97812C336.159 -1.50892 336.348 0.725365 335.705 2.73215C335.062 4.73881 333.571 6.5779 331.165 8.2246C328.753 9.87691 325.474 11.2964 321.382 12.4536C313.202 14.7684 301.983 15.9796 288.49 16.0505C261.518 16.1921 225.683 11.7805 187.392 2.76528C149.1 -6.2498 115.66 -18.1478 92.5538 -30.0796C80.9932 -36.0492 72.068 -42.0026 66.4119 -47.5751C63.5833 -50.3617 61.6088 -53.0181 60.5172 -55.4951C59.4288 -57.9647 59.2415 -60.1986 59.8843 -62.2054Z" stroke="#EBF1F5" stroke-width="1.5"/>
<path opacity="0.965517" d="M63.8045 -73.6135C64.6149 -75.5789 66.2489 -77.3002 68.7694 -78.7473C71.2977 -80.1987 74.6622 -81.3389 78.8053 -82.1435C87.0912 -83.7522 98.2839 -83.9795 111.626 -82.856C138.292 -80.6112 173.321 -72.9918 210.378 -60.5151C247.434 -48.0386 279.443 -33.0868 301.239 -19.0151C312.143 -11.975 320.446 -5.1841 325.549 0.932747C328.102 3.99161 329.821 6.84354 330.685 9.43709C331.544 12.0221 331.536 14.2906 330.726 16.2562C329.916 18.2221 328.282 19.9432 325.762 21.3905C323.234 22.8418 319.869 23.982 315.725 24.7862C307.439 26.3949 296.246 26.622 282.906 25.4992C256.24 23.2542 221.21 15.6348 184.154 3.15828C147.097 -9.31839 115.088 -24.2701 93.2921 -38.3419C82.3878 -45.3819 74.0854 -52.1729 68.9817 -58.2896C66.4294 -61.3485 64.7087 -64.201 63.8463 -66.7939C62.9857 -69.3795 62.9952 -71.6476 63.8045 -73.6135Z" stroke="#EBF1F5" stroke-width="1.5"/>
<path d="M68.8081 -84.6909C69.7779 -86.5971 71.5416 -88.1834 74.157 -89.4154C76.7799 -90.6512 80.2009 -91.5 84.3627 -91.9415C92.6863 -92.8241 103.762 -92.0581 116.841 -89.7429C142.985 -85.1152 176.924 -74.3366 212.444 -58.4911C247.964 -42.6451 278.286 -24.7567 298.595 -8.66137C308.755 -0.609279 316.367 6.96129 320.879 13.5699C323.135 16.8743 324.587 19.8972 325.215 22.5831C325.841 25.261 325.635 27.5425 324.665 29.4486C323.696 31.3547 321.933 32.9416 319.318 34.1736C316.695 35.4093 313.272 36.2576 309.111 36.6992C300.787 37.5817 289.713 36.8162 276.633 34.5012C250.489 29.8734 216.55 19.0949 181.03 3.24887C145.51 -12.5966 115.189 -30.4851 94.8795 -46.5804C84.7194 -54.6326 77.1063 -62.2037 72.5943 -68.8122C70.3385 -72.1167 68.8872 -75.1391 68.2596 -77.8249C67.6337 -80.5028 67.8382 -82.7848 68.8081 -84.6909Z" stroke="#EBF1F5" stroke-width="1.5"/>
</g>
</g>
<defs>
<clipPath id="clip0_403_173">
<rect width="290" height="290" fill="white"/>
</clipPath>
</defs>
</svg>
