<svg width="397" height="353" viewBox="0 0 397 353" fill="none" xmlns="http://www.w3.org/2000/svg">
<g clip-path="url(#clip0_402_92)">
<path opacity="0.0526316" d="M467.317 193.997C472.095 184.934 476.087 161.291 453.837 139.227C426.024 111.646 387.885 113.908 357.233 92.0436C334.609 75.9063 288.369 25.6743 292.721 -17.8187" stroke="#EBF1F5" stroke-width="1.45842"/>
<path opacity="0.105263" d="M454.384 206.818C460.083 198.304 466.525 175.208 446.702 150.939C421.925 120.602 383.758 118.865 355.559 93.9163C334.746 75.5026 294.011 20.7124 302.885 -22.0874" stroke="#EBF1F5" stroke-width="1.45842"/>
<path opacity="0.157895" d="M440.607 218.396C447.165 210.524 455.986 188.228 438.809 162.019C417.338 129.259 379.562 123.541 354.126 95.7822C335.351 75.2938 300.566 16.5457 313.866 -25.092" stroke="#EBF1F5" stroke-width="1.45842"/>
<path opacity="0.210526" d="M426.122 228.648C433.466 221.505 444.57 200.253 430.226 172.393C412.297 137.567 375.326 127.933 352.931 97.6665C336.401 75.3279 307.947 13.2656 325.526 -26.7538" stroke="#EBF1F5" stroke-width="1.45842"/>
<path opacity="0.263158" d="M411.07 237.509C419.121 231.172 432.385 211.197 421.033 181.99C406.842 145.482 371.081 132.035 351.971 99.5939C337.867 75.6499 316.056 10.9533 337.722 -27.0093" stroke="#EBF1F5" stroke-width="1.45842"/>
<path opacity="0.315789" d="M395.601 244.926C404.27 239.465 419.549 220.986 411.312 190.753C401.015 152.961 366.855 135.85 351.242 101.589C339.718 76.3017 324.789 9.67964 350.304 -25.8103" stroke="#EBF1F5" stroke-width="1.45842"/>
<path opacity="0.368421" d="M379.867 250.863C389.059 246.339 406.186 229.559 401.154 198.63C394.864 159.968 362.68 139.38 350.733 103.675C341.916 77.3218 334.033 9.50431 363.118 -23.1241" stroke="#EBF1F5" stroke-width="1.45842"/>
<path opacity="0.421053" d="M364.024 255.302C373.639 251.764 392.426 236.865 390.655 205.58C388.441 166.473 358.585 142.634 350.436 105.875C344.421 78.7444 343.67 10.4744 376.007 -18.935" stroke="#EBF1F5" stroke-width="1.45842"/>
<path opacity="0.473684" d="M348.23 258.239C358.162 255.725 378.404 242.872 379.912 211.573C381.798 172.449 354.598 145.619 350.336 108.21C347.19 80.5995 353.579 12.625 388.813 -13.2432" stroke="#EBF1F5" stroke-width="1.45842"/>
<path opacity="0.526316" d="M332.642 259.688C342.782 258.226 364.257 247.559 369.029 216.589C374.994 177.876 350.747 148.35 350.418 110.701C350.175 82.9124 363.635 15.978 401.38 -6.06553" stroke="#EBF1F5" stroke-width="1.45842"/>
<path opacity="0.578947" d="M317.413 259.677C327.651 259.283 350.122 250.919 358.106 220.618C368.085 182.74 347.057 150.842 350.665 113.364C353.329 85.7031 373.711 20.5423 413.553 2.5649" stroke="#EBF1F5" stroke-width="1.45842"/>
<path opacity="0.631579" d="M302.695 258.253C312.918 258.932 336.141 252.963 347.248 223.661C361.131 187.035 343.553 153.113 351.059 116.218C356.599 88.9864 383.681 26.3131 425.184 12.5988" stroke="#EBF1F5" stroke-width="1.45842"/>
<path opacity="0.684211" d="M288.633 255.477C298.729 257.22 322.448 253.711 336.557 225.732C354.193 190.757 340.256 155.184 351.578 119.275C359.935 92.7719 393.419 33.2728 436.128 23.9719" stroke="#EBF1F5" stroke-width="1.45842"/>
<path opacity="0.736842" d="M275.363 251.425C285.222 254.214 309.178 253.203 326.134 226.852C347.329 193.912 337.188 157.077 352.201 122.548C363.282 97.064 402.802 41.3909 446.25 36.6053" stroke="#EBF1F5" stroke-width="1.45842"/>
<path opacity="0.789474" d="M263.016 246.186C272.529 249.99 296.46 251.489 316.077 227.054C340.6 196.51 334.364 158.817 352.904 126.047C366.588 101.861 411.712 50.6235 455.421 50.4056" stroke="#EBF1F5" stroke-width="1.45842"/>
<path opacity="0.842105" d="M251.71 239.863C260.773 244.641 284.416 248.633 306.48 226.383C334.061 198.57 331.799 160.431 353.663 129.779C369.801 107.155 420.033 60.9153 463.526 65.2675" stroke="#EBF1F5" stroke-width="1.45842"/>
<path opacity="0.894737" d="M241.553 232.572C250.067 238.271 273.163 244.713 297.432 224.891C327.769 200.113 329.506 161.947 354.455 133.748C372.868 112.935 427.659 72.1989 470.458 81.0734" stroke="#EBF1F5" stroke-width="1.45842"/>
<path opacity="0.947368" d="M232.639 224.437C240.511 230.995 262.807 239.816 289.015 222.639C321.776 201.168 327.493 163.392 355.253 137.956C375.741 119.182 434.489 84.3962 476.127 97.6959" stroke="#EBF1F5" stroke-width="1.45842"/>
<path d="M225.051 215.594C232.194 222.939 253.446 234.042 281.306 219.698C316.132 201.769 325.766 164.799 356.032 142.403C378.371 125.873 440.433 97.4191 480.453 114.998" stroke="#EBF1F5" stroke-width="1.45842"/>
</g>
<defs>
<clipPath id="clip0_402_92">
<rect width="397" height="353" fill="white"/>
</clipPath>
</defs>
</svg>
