<svg width="397" height="353" viewBox="0 0 397 353" fill="none" xmlns="http://www.w3.org/2000/svg">
<g clip-path="url(#clip0_402_92)">
<path opacity="0.0526316" d="M475.517 141.735C479.757 151.062 482.364 174.897 458.864 195.626C429.489 221.537 391.547 217.054 359.671 237.092C336.144 251.882 287.053 299.331 288.86 343.004" stroke="#EBF1F5" stroke-width="1.45842"/>
<path opacity="0.105263" d="M463.353 128.181C468.545 137.013 473.629 160.446 452.424 183.517C425.919 212.357 387.716 211.864 358.11 235.125C336.258 252.293 292.395 304.613 298.757 347.858" stroke="#EBF1F5" stroke-width="1.45842"/>
<path opacity="0.157895" d="M450.276 115.82C456.363 124.061 463.868 146.833 445.191 171.995C421.845 203.447 383.8 206.951 356.788 233.179C336.85 252.537 298.696 309.155 309.544 351.498" stroke="#EBF1F5" stroke-width="1.45842"/>
<path opacity="0.210526" d="M436.413 104.74C443.328 112.299 453.173 134.163 437.228 161.139C417.298 194.859 379.828 202.32 355.705 231.228C337.9 252.564 305.873 312.861 321.088 353.837" stroke="#EBF1F5" stroke-width="1.45842"/>
<path opacity="0.263158" d="M421.904 95.016C429.571 101.811 441.647 122.526 428.61 151.021C412.314 186.64 375.829 197.977 354.859 229.248C339.382 252.328 313.834 315.642 333.248 354.804" stroke="#EBF1F5" stroke-width="1.45842"/>
<path opacity="0.315789" d="M406.894 86.7092C415.229 92.6659 429.404 112.005 419.417 141.706C406.933 178.833 371.833 193.922 354.247 227.214C341.267 251.785 322.477 317.423 345.879 354.341" stroke="#EBF1F5" stroke-width="1.45842"/>
<path opacity="0.368421" d="M391.533 79.8635C400.445 84.9163 416.564 102.668 409.736 133.25C401.201 171.479 367.871 190.154 353.861 225.101C343.521 250.895 331.695 318.137 358.827 352.407" stroke="#EBF1F5" stroke-width="1.45842"/>
<path opacity="0.421053" d="M375.976 74.5079C385.368 78.6013 403.254 94.5705 399.66 125.699C395.168 164.611 363.972 186.667 353.692 222.888C346.105 249.621 341.372 317.731 371.938 348.977" stroke="#EBF1F5" stroke-width="1.45842"/>
<path opacity="0.473684" d="M360.38 70.6544C370.149 73.7437 389.606 87.7558 389.286 119.09C388.886 158.257 360.166 183.454 353.729 220.551C348.977 247.931 351.39 316.162 385.054 344.042" stroke="#EBF1F5" stroke-width="1.45842"/>
<path opacity="0.526316" d="M344.903 68.299C354.941 70.3502 375.756 82.2517 378.713 113.448C382.409 152.442 356.481 180.503 353.956 218.069C352.093 245.796 361.625 313.402 398.019 337.61" stroke="#EBF1F5" stroke-width="1.45842"/>
<path opacity="0.578947" d="M329.7 67.4209C339.897 68.4117 361.842 78.0722 368.044 108.788C375.796 147.183 352.943 177.8 354.359 215.425C355.404 243.194 371.95 309.433 410.675 329.704" stroke="#EBF1F5" stroke-width="1.45842"/>
<path opacity="0.631579" d="M314.924 67.9837C325.169 67.9031 348.004 75.2168 357.382 105.116C369.105 142.49 349.577 175.329 354.918 212.599C358.861 240.107 382.24 304.254 422.872 320.366" stroke="#EBF1F5" stroke-width="1.45842"/>
<path opacity="0.684211" d="M300.723 69.9347C310.904 68.7837 334.378 73.6705 346.83 102.426C362.396 138.37 346.408 173.069 355.615 209.577C362.411 236.523 392.367 297.874 434.461 309.651" stroke="#EBF1F5" stroke-width="1.45842"/>
<path opacity="0.736842" d="M287.24 73.206C297.244 70.9971 321.101 73.4034 336.491 100.7C355.728 134.82 343.454 171 356.428 206.346C366.003 232.433 402.208 290.317 445.302 297.63" stroke="#EBF1F5" stroke-width="1.45842"/>
<path opacity="0.789474" d="M274.608 77.7157C284.327 74.4732 308.304 74.3726 326.463 99.9105C349.161 131.833 340.737 169.098 357.334 202.894C369.583 227.838 411.641 281.62 455.263 284.388" stroke="#EBF1F5" stroke-width="1.45842"/>
<path opacity="0.842105" d="M262.952 83.3677C272.279 79.127 296.114 76.5207 316.843 100.021C342.754 129.396 338.271 167.337 358.31 199.213C373.099 222.74 420.548 271.831 464.221 270.024" stroke="#EBF1F5" stroke-width="1.45842"/>
<path opacity="0.894737" d="M252.387 90.054C261.219 84.8616 284.652 79.7781 307.723 100.983C336.563 127.488 336.07 165.691 359.331 195.297C376.499 217.149 428.819 261.012 472.064 254.65" stroke="#EBF1F5" stroke-width="1.45842"/>
<path opacity="0.947368" d="M243.014 97.6547C251.255 91.5676 274.028 84.0626 299.189 102.739C330.641 126.085 334.145 164.13 360.373 191.143C379.731 211.08 436.35 249.234 478.692 238.386" stroke="#EBF1F5" stroke-width="1.45842"/>
<path d="M234.923 106.04C242.482 99.125 264.346 89.2807 291.322 105.225C325.042 125.155 332.503 162.625 361.411 186.749C382.747 204.554 443.044 236.58 484.02 221.366" stroke="#EBF1F5" stroke-width="1.45842"/>
</g>
<defs>
<clipPath id="clip0_402_92">
<rect width="397" height="353" fill="white"/>
</clipPath>
</defs>
</svg>
