<?xml version="1.0" encoding="UTF-8"?><svg id="Layer_1" xmlns="http://www.w3.org/2000/svg" xmlns:xlink="http://www.w3.org/1999/xlink" viewBox="0 0 1080 1080"><defs><linearGradient id="linear-gradient" x1="108.616" y1="672.518" x2="784.852" y2="516.795" gradientUnits="userSpaceOnUse"><stop offset="0" stop-color="#ffba5d"/><stop offset="1" stop-color="#ffa2cf"/></linearGradient></defs><rect width="1080" height="1080" fill="#f3e7de" stroke-width="0"/><path d="m55.24,666.632H0v1.15h54.665v19.08H0v1.15h55.24c.32,0,.575-.26.575-.575v-20.23c0-.32-.255-.575-.575-.575Z" fill="#fff" stroke-width="0"/><path d="m153.345,666.632H55.24c-.315,0-.575.255-.575.575v20.23c0,.315.26.575.575.575h98.105c.315,0,.575-.26.575-.575v-20.23c0-.32-.26-.575-.575-.575Zm-97.53,1.15h96.955v19.08H55.815v-19.08Z" fill="#fff" stroke-width="0"/><path d="m251.45,666.632h-98.105c-.32,0-.575.255-.575.575v20.23c0,.315.255.575.575.575h98.105c.315,0,.57-.26.57-.575v-20.23c0-.32-.255-.575-.57-.575Zm-97.53,1.15h96.955v19.08h-96.955v-19.08Z" fill="#fff" stroke-width="0"/><path d="m349.55,666.632h-98.1c-.32,0-.575.255-.575.575v20.23c0,.315.255.575.575.575h98.1c.32,0,.575-.26.575-.575v-20.23c0-.32-.255-.575-.575-.575Zm-97.53,1.15h96.955v19.08h-96.955v-19.08Z" fill="#fff" stroke-width="0"/><path d="m447.655,666.632h-98.105c-.315,0-.575.255-.575.575v20.23c0,.315.26.575.575.575h98.105c.315,0,.575-.26.575-.575v-20.23c0-.32-.26-.575-.575-.575Zm-97.53,1.15h96.955v19.08h-96.955v-19.08Z" fill="#fff" stroke-width="0"/><path d="m545.76,666.632h-98.105c-.32,0-.575.255-.575.575v20.23c0,.315.255.575.575.575h98.105c.315,0,.575-.26.575-.575v-20.23c0-.32-.26-.575-.575-.575Zm-97.53,1.15h96.955v19.08h-96.955v-19.08Z" fill="#fff" stroke-width="0"/><path d="m643.86,666.632h-98.1c-.32,0-.575.255-.575.575v20.23c0,.315.255.575.575.575h98.1c.32,0,.575-.26.575-.575v-20.23c0-.32-.255-.575-.575-.575Zm-97.525,1.15h96.95v19.08h-96.95v-19.08Z" fill="#fff" stroke-width="0"/><path d="m741.965,666.632h-98.105c-.315,0-.575.255-.575.575v20.23c0,.315.26.575.575.575h98.105c.315,0,.575-.26.575-.575v-20.23c0-.32-.26-.575-.575-.575Zm-97.53,1.15h96.955v19.08h-96.955v-19.08Z" fill="#fff" stroke-width="0"/><path d="m840.065,666.632h-98.1c-.32,0-.575.255-.575.575v20.23c0,.315.255.575.575.575h98.1c.32,0,.575-.26.575-.575v-20.23c0-.32-.255-.575-.575-.575Zm-97.525,1.15h96.95v19.08h-96.95v-19.08Z" fill="#fff" stroke-width="0"/><path d="m938.17,666.632h-98.105c-.315,0-.575.255-.575.575v20.23c0,.315.26.575.575.575h98.105c.32,0,.575-.26.575-.575v-20.23c0-.32-.255-.575-.575-.575Zm-97.53,1.15h96.955v19.08h-96.955v-19.08Z" fill="#fff" stroke-width="0"/><path d="m1036.465,666.667c-.06-.025-.125-.035-.19-.035h-98.105c-.315,0-.575.255-.575.575v20.23c0,.315.26.575.575.575h98.105c.065,0,.13-.01.19-.035.225-.075.385-.29.385-.54v-20.23c0-.255-.16-.465-.385-.54Zm-.765,20.195h-96.955v-19.08h96.955v19.08Z" fill="#fff" stroke-width="0"/><path d="m1080,667.782v-1.15h-43.345c-.065,0-.13.01-.19.035-.225.075-.385.285-.385.54v20.23c0,.25.16.465.385.54.06.025.125.035.19.035h43.345v-1.15h-42.77v-19.08h42.77Z" fill="#fff" stroke-width="0"/><path d="m802.382,423.665l-36.409,279.731-4.941,37.978-8.064,61.959h-54.556c-4.505-20.516-16.465-37.358-34.484-45.218-32.493-14.169-72.977,5.963-93.109,45.218h-261.189c-4.46-20.644-16.444-37.604-34.546-45.498-32.566-14.203-73.171,6.06-93.251,45.498h-94.144v-110.851c0-8.549,3.096-16.669,8.514-22.978,2.375-2.767,5.197-5.183,8.4-7.136l91.118-55.536-12.822-160.397c-.499-6.229-.27-12.337.606-18.244,1.814-12.237,6.423-23.618,13.175-33.442,14.384-20.935,38.493-34.799,66.063-34.799h483.68c23.739,0,43.708,14.546,52.139,34.799,3.667,8.802,5.152,18.684,3.819,28.916Z" fill="url(#linear-gradient)" stroke-width="0"/><path d="m213.204,172.842c-10.885-11.86-45.196-4.582-83.425,23.736,0,0,38.017-72.376,0-105.036-38.017-32.66-63.842,19.97-63.842,19.97,0,0,23.64-54.817-7.094-75.758C28.11,14.813,0,69.839,0,69.839v150.161h207.663c2.845-5.974,16.361-35.37,5.542-47.158Z" fill="#fff" opacity=".48" stroke-width="0"/><ellipse cx="240.886" cy="836.244" rx="37.113" ry="29.278" transform="translate(-621.928 722.742) rotate(-66.436)" fill="#893c2e" stroke-width="0"/><ellipse cx="240.886" cy="836.244" rx="13.881" ry="10.951" transform="translate(-621.928 722.742) rotate(-66.436)" fill="#f2d497" opacity=".3" stroke-width="0"/><ellipse cx="630.964" cy="835.773" rx="37.113" ry="29.278" transform="translate(-387.358 1080.011) rotate(-66.436)" fill="#893c2e" stroke-width="0"/><ellipse cx="631.118" cy="836.59" rx="13.881" ry="10.951" transform="translate(-388.015 1080.643) rotate(-66.436)" fill="#f2d497" opacity=".3" stroke-width="0"/><path d="m763.757,814.586h0c0,6.215-5.038,11.253-11.253,11.253h-52.15c.003-.059.003-.114.007-.173h-20.447c-.021-8.005-1.492-15.616-4.283-22.334-4.245-10.235-11.551-18.393-21.447-22.711-20.215-8.816-44.826,1.208-60.083,22.711-2.919,4.114-5.495,8.646-7.632,13.546-1.271,2.912-2.341,5.848-3.213,8.788h-292.539c-.062-8.016-1.582-15.63-4.425-22.334-4.262-10.073-11.513-18.099-21.298-22.365-20.107-8.767-44.56,1.101-59.833,22.365-3.023,4.204-5.682,8.854-7.881,13.892-1.219,2.798-2.254,5.616-3.109,8.442h-20.789c-.017.059-.031.114-.045.173h-87.378c-6.215,0-11.253-5.038-11.253-11.253h0c0-6.215,5.038-11.253,11.253-11.253h95.875c20.079-39.439,60.685-59.702,93.251-45.498,18.102,7.895,30.086,24.854,34.546,45.498h261.189c20.131-39.255,60.616-59.387,93.109-45.218,18.019,7.86,29.979,24.702,34.484,45.218h54.092c6.215,0,11.253,5.038,11.253,11.253Z" fill="#fff" stroke-width="0"/><path d="m127.855,681.88v61.267c0,5.606-4.546,10.152-10.152,10.152h-30.014v-60.817c0-8.549,3.096-16.669,8.514-22.978h19.276c6.835,0,12.375,5.54,12.375,12.375Z" fill="#f9e14e" stroke-width="0"/><path d="m279.515,460.105v139.22c0,4.145-3.362,7.507-7.507,7.507h-76.288l-6.6-82.565-.976-12.199-.627-7.843-2.403-30.059-2.216-27.732c-.499-6.229-.27-12.337.606-18.244,11.745-11.478,27.818-18.552,45.543-18.552,7.822,0,15.228,1.78,21.835,4.955,5.166,2.483,9.844,5.821,13.85,9.827,1.724,1.724,3.324,3.57,4.785,5.526,1.257,1.683,2.41,3.449,3.452,5.284,1.669,2.947,3.054,6.077,4.114,9.352,1.579,4.889,2.431,10.107,2.431,15.523Z" fill="#f7d69c" stroke-width="0"/><path d="m445.2,825.493v-255.192c0-37.482-30.385-67.866-67.866-67.866h0c-37.482,0-67.866,30.385-67.866,67.866v255.192" fill="none" stroke="#fff" stroke-miterlimit="10" stroke-width="2.078"/><path d="m425.117,574.079v65.505c0,6.485-5.256,11.742-11.742,11.742h-74.508c-2.884,0-5.519-1.039-7.562-2.76-1.617-1.361-2.857-3.151-3.556-5.19-.402-1.188-.623-2.465-.623-3.792v-65.505c0-6.485,5.256-11.742,11.742-11.742h74.508c1.15,0,2.261.166,3.31.474,2.136.623,4.024,1.842,5.46,3.466,1.849,2.074,2.971,4.806,2.971,7.801Z" fill="#f7d69c" stroke-width="0"/><rect x="394.992" y="671.755" width="38.435" height="10.734" rx="3.54" ry="3.54" fill="#fff" stroke-width="0"/><circle cx="222.98" cy="705.458" r="30.99" fill="#fbeece" stroke-width="0"/><circle cx="362.963" cy="454.132" r="32.029" fill="#fccdd9" stroke-width="0"/><circle cx="552.886" cy="728.541" r="28.739" fill="#beced0" stroke-width="0"/><path d="m733.286,361.855c0,13.577-11.008,24.584-24.584,24.584s-24.584-11.008-24.584-24.584c0-.641.024-1.278.073-1.904h49.023c.048.627.073,1.264.073,1.904Z" fill="#fff8e5" stroke-width="0"/><path d="m269.519,429.946l-82.001,74.279-2.403-30.059,65.768-59.574c5.166,2.483,9.844,5.821,13.85,9.827,1.724,1.724,3.324,3.57,4.785,5.526Z" fill="#fffbf4" opacity=".44" stroke-width="0"/><path d="m277.085,444.582l-87.963,79.684-.976-12.199,84.826-76.838c1.669,2.947,3.054,6.077,4.114,9.352Z" fill="#fffbf4" opacity=".44" stroke-width="0"/><path d="m416.685,562.812l-88.936,80.564c-.402-1.188-.623-2.465-.623-3.792v-27.881l54.497-49.366h31.752c1.15,0,2.261.166,3.31.474Z" fill="#fffbf4" opacity=".44" stroke-width="0"/><path d="m425.117,574.079v2.587l-82.42,74.66h-3.83c-2.884,0-5.519-1.039-7.562-2.76l90.841-82.288c1.849,2.074,2.971,4.806,2.971,7.801Z" fill="#fffbf4" opacity=".44" stroke-width="0"/><polygon points="733.286 651.326 472.554 651.326 472.554 422.103 759.948 422.103 733.286 651.326" fill="#6f8a8c" stroke-width="0"/><polygon points="753.023 666.561 491.598 666.561 472.554 651.326 733.286 651.326 753.023 666.561" fill="#ba6942" stroke-width="0"/><rect x="491.598" y="666.561" width="261.424" height="10.388" fill="#893c2e" stroke-width="0"/><polygon points="491.598 666.561 491.598 676.949 472.554 662.238 472.554 651.326 491.598 666.561" fill="#9a473b" stroke-width="0"/><polygon points="786.61 453.959 499.216 453.959 472.554 422.103 759.948 422.103 777.046 442.533 786.61 453.959" fill="#fff8e5" stroke-width="0"/><path d="m525.341,468.658h-.021c.014.242.021.485.021.727,0,3.608-1.461,6.873-3.823,9.238-2.365,2.361-5.634,3.826-9.238,3.826-7.216,0-13.064-5.852-13.064-13.064,0-.242.007-.485.021-.727h-.021v-14.699h26.125v14.699Z" fill="#fbeece" stroke-width="0"/><path d="m551.47,468.658h-.021c.014.242.021.485.021.727,0,3.608-1.461,6.873-3.826,9.238-2.365,2.361-5.63,3.826-9.238,3.826-7.213,0-13.064-5.852-13.064-13.064,0-.242.01-.485.024-.727h-.024v-14.699h26.129v14.699Z" fill="#f8b338" stroke-width="0"/><path d="m577.595,468.658h-.021c.014.242.021.485.021.727,0,3.608-1.461,6.873-3.823,9.238-2.365,2.361-5.634,3.826-9.238,3.826-7.216,0-13.064-5.852-13.064-13.064,0-.242.007-.485.021-.727h-.021v-14.699h26.125v14.699Z" fill="#fbeece" stroke-width="0"/><path d="m603.723,468.658h-.021c.014.242.021.485.021.727,0,3.608-1.465,6.873-3.826,9.238-2.365,2.361-5.63,3.826-9.238,3.826-7.213,0-13.064-5.852-13.064-13.064,0-.242.007-.485.024-.727h-.024v-14.699h26.129v14.699Z" fill="#f8b338" stroke-width="0"/><path d="m629.848,468.658h-.021c.014.242.021.485.021.727,0,3.608-1.461,6.873-3.823,9.238-2.368,2.361-5.634,3.826-9.238,3.826-7.216,0-13.064-5.852-13.064-13.064,0-.242.007-.485.021-.727h-.021v-14.699h26.125v14.699Z" fill="#fbeece" stroke-width="0"/><path d="m655.977,468.658h-.024c.017.242.024.485.024.727,0,3.608-1.465,6.873-3.826,9.238-2.365,2.361-5.63,3.826-9.238,3.826-7.213,0-13.064-5.852-13.064-13.064,0-.242.007-.485.024-.727h-.024v-14.699h26.129v14.699Z" fill="#f8b338" stroke-width="0"/><path d="m682.102,468.658h-.021c.014.242.021.485.021.727,0,3.608-1.461,6.873-3.823,9.238-2.368,2.361-5.634,3.826-9.242,3.826-7.212,0-13.061-5.852-13.061-13.064,0-.242.007-.485.021-.727h-.021v-14.699h26.125v14.699Z" fill="#fbeece" stroke-width="0"/><path d="m708.231,468.658h-.024c.017.242.024.485.024.727,0,3.608-1.465,6.873-3.826,9.238-2.365,2.361-5.63,3.826-9.238,3.826-7.212,0-13.064-5.852-13.064-13.064,0-.242.007-.485.021-.727h-.021v-14.699h26.129v14.699Z" fill="#f8b338" stroke-width="0"/><path d="m734.356,468.658h-.021c.014.242.021.485.021.727,0,3.608-1.461,6.873-3.823,9.238-2.368,2.361-5.634,3.826-9.242,3.826-7.212,0-13.061-5.852-13.061-13.064,0-.242.007-.485.021-.727h-.021v-14.699h26.125v14.699Z" fill="#fbeece" stroke-width="0"/><path d="m760.485,468.658h-.024c.014.242.024.485.024.727,0,3.608-1.465,6.873-3.826,9.238-2.365,2.361-5.63,3.826-9.238,3.826-7.216,0-13.064-5.852-13.064-13.064,0-.242.007-.485.021-.727h-.021v-14.699h26.129v14.699Z" fill="#f8b338" stroke-width="0"/><path d="m786.61,468.658h-.021c.014.242.021.485.021.727,0,3.608-1.461,6.873-3.826,9.238-2.365,2.361-5.63,3.826-9.238,3.826-7.213,0-13.061-5.852-13.061-13.064,0-.242.007-.485.021-.727h-.021v-14.699h26.125v14.699Z" fill="#fbeece" stroke-width="0"/><path d="m638.585,506.763c-.688-2.957-1.983-8.519-6.848-12.66-6.052-5.152-13.76-4.857-16.725-4.679-23.518,1.411-24.938,22.827-35.135,27.354-10.197,4.528-25.361,3.037-33.88,15.555-8.519,12.518-.209,18.404-16.483,26.368-16.274,7.964-35.318,16.967-24.584,38.435,10.734,21.468,28.739,24.238,52.285,27.701,23.546,3.463,104.037-12.694,98.763-26.776-5.273-14.082-8.736-15.121-6.312-26.548,2.424-11.427-5.194-15.582-10.388-21.468-2.338-2.649-3.786-3.987-4.383-5.79-1.396-4.216.222-7.837,1.557-11.922.793-2.425,4.722-14.444,2.133-25.57Z" fill="#893c2e" stroke-width="0"/><path d="m601.964,591.988c-.951-11.555-1.902-23.109-2.853-34.664,0,0,11.08-15,22.507-8.715,9.515,5.232,15.429,18.591,20.536,41.502-13.958.987-31.987,1.621-40.19,1.877Z" fill="#fbeece" stroke-width="0"/><polygon points="620.579 531.431 616.957 539.267 610.538 553.162 595.649 540.697 603.661 524.98 604.651 523.037 620.579 531.431" fill="#ff9878" stroke-width="0"/><path d="m660.859,651.326h-54.823l-4.072-59.338c8.203-.256,26.232-.89,40.19-1.877.488,2.185.969,4.46,1.444,6.821.526,2.614,1.046,5.336,1.565,8.168,3.878,21.219,11.174,37.555,15.696,46.225Z" fill="#ff9878" opacity=".72" stroke-width="0"/><path d="m620.579,531.431l-3.622,7.836c-10.201-2.469-13.296-14.287-13.296-14.287l.99-1.943,15.928,8.393Z" fill="#bb3149" stroke-width="0"/><path d="m632.006,501.223c5.31,8.886,5.978,18.727,1.385,24.931-2.528,3.414-5.992,4.839-6.925,5.194-6.64,2.526-13.77-.184-18.005-3.809-1.889-1.617-3.094-3.323-3.809-4.501,0,0-11.08-.693-11.08-7.271s7.271-5.886,11.427-3.809,24.238-1.731,27.008-10.734Z" fill="#ff9878" stroke-width="0"/><path d="m606.036,517.497s-3.116-2.078-6.925-2.77" fill="none" stroke="#bb3149" stroke-linecap="round" stroke-miterlimit="10" stroke-width="1.039"/><path d="m599.558,517.497c.332-.054.982-.205,1.631-.693.563-.423.876-.91,1.032-1.197" fill="none" stroke="#bb3149" stroke-linecap="round" stroke-miterlimit="10" stroke-width="1.039"/><rect x="620.579" y="512.303" width="2.078" height="2.77" rx="1.039" ry="1.039" fill="#3d2c56" stroke-width="0"/><rect x="631.313" y="508.841" width="2.078" height="2.77" rx="1.039" ry="1.039" fill="#3d2c56" stroke-width="0"/><path d="m627.158,511.265s3.116,3.744,4.155,4.123-1.536,2.11-1.536,2.11" fill="none" stroke="#bb3149" stroke-linecap="round" stroke-miterlimit="10" stroke-width="1.039"/><path d="m620.579,518.138l6.925,1.783s-2.424,4.155-5.194,3.463-1.731-5.245-1.731-5.245Z" fill="#3d2c56" stroke-width="0"/><path d="m623.946,500.421s-5.445,3.919-14.794,3.919" fill="none" opacity=".65" stroke="#541911" stroke-linecap="round" stroke-miterlimit="10" stroke-width="1.039"/><path d="m551.674,543.467s1.729,9.721-6.926,13.863" fill="none" opacity=".65" stroke="#541911" stroke-linecap="round" stroke-miterlimit="10" stroke-width="1.039"/><path d="m616.549,624.041s10.609,11.877,10.609,27.285h-94.767s-.454-18.871,17.206-42.417c-.696-7.264-2.618-34.366,11.427-54.362,3.899-5.554,11.371-16.191,23.199-17.659.599-.073,2.777-.319,5.54,0,16.052,1.859,21.419,19.29,41.551,35.682.274.222.547.447.824.672-5.066,1.195-13.518,4.228-19.349,11.776-5.935,7.68-6.939,17.237-6.963,22.676,3.691,2.683,7.902,5.433,12.676,8.141l-.305,1.278-1.648,6.929Z" fill="#fff8e5" stroke-width="0"/><path d="m731.382,597.829s-3.809-3.463-11.773-3.463" fill="none" stroke="#000" stroke-miterlimit="10" stroke-width=".332"/><path d="m730.343,604.754s-8.016.346-11.453,0" fill="none" stroke="#000" stroke-miterlimit="10" stroke-width=".332"/><path d="m727.573,612.026s-4.848,2.078-10.388,2.078" fill="none" stroke="#000" stroke-miterlimit="10" stroke-width=".332"/><path d="m616.549,624.041s10.609,11.877,10.609,27.285h-94.767s-.454-18.871,17.206-42.417c0,0,29.681,25.762,66.952,15.131Z" fill="#fcc14e" stroke-width="0"/><path d="m583.183,585.018s9.294,16.094,35.464,30.9" fill="none" stroke="#000" stroke-miterlimit="10" stroke-width=".332"/><path d="m919.259,574.874s-.723-5.989,6.201-6.666c1.542-.151,2.136-.378,2.224-.752.18-.763-2.172-2.127-4.303-2.695-.986-.263-1.838-.332-2.424-.346-1.371.454-11.714,4.026-12.499,10.459-1.005,8.239,10.801,0,10.801,0Z" fill="#d59329" stroke-width="0"/><path d="m583.183,585.018s6.177,10.696,22.642,22.676" fill="none" stroke="#fcc14e" stroke-linecap="round" stroke-miterlimit="10" stroke-width="1.039"/><path d="m618.647,615.918l-.145-.083" fill="none" stroke="#000" stroke-miterlimit="10" stroke-width=".332"/><path d="m881.533,542.769c-.314-2.236-.007-3.937.298-5.016,1.791-6.33,8.678-9.461,10.276-10.187h0c2.881-1.235,5.392-1.249,7.382-1.239,3.408.016,6.052.688,7.271,1.039,1.766.508,17.832,5.338,19.39,15.928.147,1,.461,4.277-1.286,6.962-2.787,4.283-8.755,4.464-8.755,4.464l-34.577-11.951Z" fill="#865bd3" stroke-width="0"/><path d="m912.301,577.573c-3.978,4.813-10.474,6.738-16.433,4.865l-2.528-.796-2.846-12.604-1.046-4.623,18.698-7.271,2.091,10.287,2.064,10.142Z" fill="#ff9878" stroke-width="0"/><path d="m910.237,567.431c-11.759,5.436-19.744,1.607-19.744,1.607l-1.046-4.623,18.698-7.271,2.091,10.287Z" fill="#bb3149" stroke-width="0"/><path d="m925.459,551.95c0,7.618-13.85,6.233-13.85,6.233-7.632,7.555-17.098,11.073-24.584,8.31-1.132-.419-4.12-1.565-6.233-4.501-4.079-5.668-2.787-15.062,3.463-23.546.499-.325,5.318-3.348,11.61-3.251,2.223.031,4.626.454,7.088,1.52,7.722,3.348,10.322,10.571,10.734,11.773,1.773-.693,3.494-1.08,5.045-1.177,2.687-.17,4.868.53,5.949,2.005.848,1.163.779,2.493.779,2.635Z" fill="#ff9878" stroke-width="0"/><path d="m913.686,548.487c-16.423,1.641-17.915-8.833-17.822-13.293,2.223.031,4.626.454,7.088,1.52,7.722,3.348,10.322,10.571,10.734,11.773Z" fill="#26232b" stroke-width="0"/><path d="m904.684,522.518c6.619-1.323,11.595-.246,15.928.693,6.204,1.343,7.566,2.917,8.084,3.763,1.631,2.662.475,6.055.511,8.219.056,3.299-2.011,10.193-6.171,11.564-4.843,1.595-7.78-6.25-20.775-12.119-6.761-3.053-10.944-3.178-11.08-5.194-.197-2.911,8.312-5.887,13.504-6.925Z" fill="#865bd3" stroke-width="0"/><rect x="883.908" y="545.717" width="2.078" height="2.77" rx="1.039" ry="1.039" transform="translate(135.402 -174.448) rotate(12.184)" fill="#3d2c56" stroke-width="0"/><rect x="897.066" y="546.756" width="2.078" height="2.77" rx="1.039" ry="1.039" transform="translate(135.918 -177.202) rotate(12.184)" fill="#3d2c56" stroke-width="0"/><path d="m889.448,546.138s-2.424,4.081-2.424,4.773.693,1.385.693,1.385" fill="none" stroke="#bb3149" stroke-linecap="round" stroke-linejoin="round" stroke-width="1.039"/><path d="m887.024,556.188s4.848-.775,6.579-3.545" fill="none" stroke="#3d2c56" stroke-linecap="round" stroke-linejoin="round" stroke-width="1.039"/><path d="m944.503,711.228v160.49h-49.463c-.886,0-1.354-1.053-.758-1.707l6.593-7.271v-151.512h43.628Z" fill="#61419d" stroke-width="0"/><rect x="897.758" y="711.228" width="49.861" height="141.966" fill="#beced0" stroke-width="0"/><path d="m944.503,861.857v6.572h-2.763c.087-3.591-.828-6.485,2.763-6.572Z" fill="#865bd3" stroke-width="0"/><path d="m914.032,711.228v160.49h-49.463c-.886,0-1.354-1.053-.758-1.707l6.593-7.271v-151.512h43.628Z" fill="#61419d" stroke-width="0"/><path d="m911.269,868.429h2.763v3.289h-49.463c-.886,0-1.354-1.053-.758-1.707l1.434-1.582,5.159-5.689v-9.546h43.628v8.663c-3.591.087-2.677,2.981-2.763,6.572Z" fill="#553d88" stroke-width="0"/><path d="m941.74,868.429h2.763v3.289h-49.463c-.886,0-1.354-1.053-.758-1.707l1.434-1.582,5.159-5.689v-9.546h43.628v8.663c-3.591.087-2.677,2.981-2.763,6.572Z" fill="#553d88" stroke-width="0"/><path d="m914.032,868.429v3.289h-49.463c-.886,0-1.354-1.053-.758-1.707l1.434-1.582h48.788Z" fill="#fff8e5" stroke-width="0"/><path d="m944.503,868.429v3.289h-49.463c-.886,0-1.354-1.053-.758-1.707l1.434-1.582h48.788Z" fill="#fff8e5" stroke-width="0"/><path d="m900.875,853.194v9.546l-7.305,7.785c-.424.452-.103,1.191.517,1.19" fill="none" stroke="#3d2c56" stroke-linecap="round" stroke-miterlimit="10" stroke-width="1.039"/><rect x="867.288" y="711.228" width="49.861" height="141.966" fill="#beced0" stroke-width="0"/><line x1="897.758" y1="853.194" x2="897.758" y2="728.844" fill="none" opacity=".49" stroke="#271c38" stroke-miterlimit="10" stroke-width="1.039"/><line x1="870.404" y1="862.74" x2="878.022" y2="862.74" fill="#3d2c56" stroke="#3d2c56" stroke-miterlimit="10" stroke-width=".693"/><line x1="870.404" y1="860.465" x2="878.022" y2="860.465" fill="#3d2c56" stroke="#3d2c56" stroke-miterlimit="10" stroke-width=".693"/><path d="m890.314,576.209l-19.217,62.306s-12.476,4.813-24.127,7.019c-2.098.398-4.169.71-6.132.893-2.341.225-4.529.263-6.444.052-12.465-1.385-42.59-24.584-46.745-25.623-3.255-.814-11.977,1.025-17.098,2.462-1.402.391-2.902-.073-3.837-1.191-1.621-1.939-.859-4.9,1.499-5.817l8.435-3.244-11.437.506c-1.624.204-3.144-.828-3.556-2.413-.069-.27-.104-.54-.104-.81,0-1.427.949-2.735,2.386-3.134l9.917-2.306-9.273-1.385c-1.548,0-2.812-1.236-2.843-2.784v-.066c0-1.499,1.167-2.742,2.673-2.836l16.658.166c-1.073-3.016-.623-4.38-.049-5.069,3.944-4.733,27.805,5.599,43.331,14.418,5.44,3.089,8.826,4.571,13.982,5.263,6.202.834,10.052-2.683,19.609-11.707,14.893-14.062,32.372-24.699,32.372-24.699Z" fill="#ff9878" stroke-width="0"/><path d="m926.954,574.637s-.803-10.568-5.997-10.222c9.003-2.77,17.428,12.054,17.428,12.054l-6.347,1.45-5.084-3.282Z" fill="#e9ab3d" stroke-width="0"/><path d="m892.218,597.798s-7.271,41.409-13.774,45.834c-6.499,4.422-22.237,8.733-32.971,8.733,1.253-1.181,1.648-3.657,1.496-6.832-.093-1.915-.384-4.082-.81-6.371-2.175-11.714-7.825-26.548-7.825-26.548,6.202.834,10.052-2.683,19.609-11.707,14.893-14.062,32.372-24.699,32.372-24.699l1.904,21.589Z" fill="#fff8e5" stroke-width="0"/><path d="m949.004,682.143s7.964,4.501,20.775-7.618c22.406-21.195-6.732-78.061-23.199-92.451-2.767-2.418-8.771-7.664-17.313-7.964-5.988-.21-10.544,2.105-11.773,2.77,0,0-7.85,4.248-19.39,33.263h0s3.809,74.769,50.9,71.999Z" fill="#fcc14e" stroke-width="0"/><path d="m857.234,722.385s10.815-101.526,17.359-119.533c6.545-18.007,15.72-26.643,15.72-26.643,0,0,20.322-2.302,28.945-1.334,8.624.967,22.474,5.692,28.36,22.547,5.886,16.855,7.36,124.963,7.36,124.963,0,0-66.594,15.312-97.745,0Z" fill="#fff8e5" stroke-width="0"/><line x1="900.875" y1="862.74" x2="908.492" y2="862.74" fill="none" stroke="#3d2c56" stroke-linejoin="round" stroke-width=".693"/><line x1="900.875" y1="860.465" x2="908.492" y2="860.465" fill="none" stroke="#3d2c56" stroke-linejoin="round" stroke-width=".693"/><path d="m964.24,644.747c-.003.287-.01.616-.021.987-.066,2.805-.336,7.95-1.773,14.242-.921,4.024-2.317,8.515-4.439,13.165-9.186,20.104-16.828,23.435-25.277,39.127-4.848,9.003-2.078,20.083-4.848,20.775s-5.886-.693-5.886-.693l-1.385,1.039c-1.385,1.039-6.579.125-6.579.125,0,0,0,1.26-5.194,1.26s-7.964-14.397-7.964-14.397c0,0-4.501-2.915-5.194-6.724s3.463-11.08,7.593-18.999c4.131-7.922,21.838-31.208,22.995-43.327,1.153-12.119-13.816-48.473-13.816-48.473-.059-2.095.184-5.215,1.87-8.31,3.514-6.454,11.43-9.345,16.329-9.352,16.104-.024,34.002,31.073,33.587,59.556Z" fill="#ff9878" stroke-width="0"/><path d="m912.452,554.72s2.045-2.078,7.872-2.078" fill="none" stroke="#bb3149" stroke-linecap="round" stroke-linejoin="round" stroke-width="1.039"/><path d="m930.316,577.919s-15.245-.693-17.323,12.119c-2.078,12.812-.541,12.813-.541,12.813l3.892,25.873s-4.214-2.933-8.254-7.984c-2.377-2.971-7.933-10.585-7.215-20.688.784-11.038,8.85-20.641,18.698-24.211,5.309-1.925,10.089-1.716,12.812-1.385-.689,1.154-1.378,2.308-2.068,3.463Z" fill="#fcc14e" stroke-width="0"/><path d="m921.996,732.35s-3.631-12.119-.777-21.122" fill="none" stroke="#bb3149" stroke-linecap="round" stroke-linejoin="round" stroke-width="1.039"/><path d="m914.032,733.512c-1.739-3.42-3.685-8.135-4.848-13.973-.81-4.064-1.049-7.715-1.039-10.734" fill="none" stroke="#bb3149" stroke-linecap="round" stroke-linejoin="round" stroke-width="1.039"/><path d="m900.875,720.377s-3.116-12.958,1.385-20.922" fill="none" stroke="#bb3149" stroke-linecap="round" stroke-linejoin="round" stroke-width="1.039"/><path d="m795.342,614.103c-1.208-1.796-2.528-4.164-3.539-7.098-.466-1.354-.799-2.635-1.039-3.809-3.232-1.731-6.464-3.463-9.695-5.194h0" fill="none" stroke="#bb3149" stroke-linecap="round" stroke-linejoin="round" stroke-width="1.039"/><circle cx="614.347" cy="521.306" r="3.636" fill="#bb3149" opacity=".52" stroke-width="0"/><polygon points="551.449 453.959 524.787 422.103 498.645 422.103 525.306 453.959 551.449 453.959" fill="#fcc14e" stroke-width="0"/><polygon points="603.734 453.959 577.072 422.103 550.929 422.103 577.591 453.959 603.734 453.959" fill="#fcc14e" stroke-width="0"/><polygon points="656.019 453.959 629.357 422.103 603.214 422.103 629.876 453.959 656.019 453.959" fill="#fcc14e" stroke-width="0"/><polygon points="708.304 453.959 681.642 422.103 655.499 422.103 682.161 453.959 708.304 453.959" fill="#fcc14e" stroke-width="0"/><polygon points="760.242 453.959 733.58 422.103 707.438 422.103 734.1 453.959 760.242 453.959" fill="#fcc14e" stroke-width="0"/><path d="m777.749,545.461c-.322-.658-.672-1.292-1.056-1.908-.253-2.583-.969-5.09-2.098-7.4-1.731-3.549-4.425-6.631-7.87-8.802-.45-.284-2.091-1.295-4.463-2.136-.544-.194-5-1.728-9.584-1.312-5.883.533-10.35,4.138-12.832,6.686-.27.28-.519.547-.744.796-.682.762-1.136,1.354-1.337,1.62-1.205,1.669-2.188,3.535-2.891,5.578l-13.539,39.352c-.145.429-.218.866-.218,1.292,0,1.655,1.039,3.199,2.687,3.767l41.402,14.242c.703.242,1.468-.132,1.711-.834l11.866-34.491c1.929-5.602,1.388-11.489-1.032-16.451Z" fill="#8e67e4" stroke-width="0"/><path d="m776.918,561.164l-11.745,34.141-40.903-14.075c-.017-.003-.031-.01-.048-.014-2.805-1.008-1.897-5.125.828-5.138.166,0,.339.014.516.045.062.01.125.024.187.042.135.028.27.066.405.111l35.883,12.344c.71.246,1.482-.132,1.728-.841l.222-.644,11.641-33.836c.668-1.939,1.042-3.916,1.136-5.879,1.575,4.287,1.745,9.117.152,13.746Z" fill="#fff8e5" stroke-width="0"/><path d="m765.173,595.305l-40.903-14.075c-.017-.003-.031-.01-.048-.014-2.805-1.008-1.897-5.125.828-5.138.166,0,.339.014.516.045.062.01.125.024.187.042.135.028.27.066.405.111l35.883,12.344c.71.246,1.482-.132,1.728-.841l.222-.644,1.184,8.172Z" fill="#f1dabc" opacity=".46" stroke-width="0"/><path d="m726.911,591.29h19.437c2.146,0,3.887,1.742,3.887,3.887h0c0,2.146-1.742,3.887-3.887,3.887h-19.437v-7.775h0Z" transform="translate(1541.654 90.412) rotate(108.986)" fill="#ba6942" stroke-width="0"/><path d="m739.844,530.589c-.118,2.424-.564,4.837-1.326,7.129l-12.766,38.445c-.062-.017-.125-.031-.187-.042-.177-.031-.35-.045-.516-.045l12.812-38.577c.654-1.974,1.07-4.034,1.24-6.115.225-.249.474-.516.744-.796Z" opacity=".26" stroke-width="0"/><line x1="733.286" y1="580.689" x2="751.291" y2="586.922" fill="none" stroke="#e7c9a5" stroke-miterlimit="10" stroke-width=".693"/><line x1="459.697" y1="359.95" x2="459.697" y2="300.854" fill="none" stroke="#ffb2bf" stroke-linejoin="round" stroke-width="3.463"/><line x1="572.923" y1="359.95" x2="572.923" y2="310.955" fill="none" stroke="#ffb2bf" stroke-linejoin="round" stroke-width="3.463"/><path d="m741.077,594.02c.121,2.116-2.015,4.384-4.155,4.848-.658.142-1.247.1-5.54-1.039,0,0,1.122,1.122,1.122,2.843,0,1.146-.499,2.559-2.161,4.082.346,4.501-2.77,7.271-2.77,7.271-.066.502-.187.963-.346,1.385-2.168,5.762-12.306,6.485-13.85,6.579-14.927,6.028-27.856,7.787-36.357,8.31-4.879.301-15.623.852-28.618-1.572-2.78-.519-5.665-1.174-8.615-1.998-3.03-.848-6.132-1.87-9.269-3.106-3.93-1.548-7.912-3.428-11.87-5.706-.048-.028-.097-.055-.145-.083-1.139-.644-2.244-1.292-3.317-1.943-3.435-2.071-6.548-4.155-9.359-6.198.024-5.44,1.028-14.996,6.963-22.676,5.831-7.548,14.283-10.582,19.349-11.776,6.686,5.422,14.948,11.742,27.223,14.893,13.584,3.487,26.918,1.766,32.548,1.039,12.77-1.648,15.658-4.411,25.277-4.155.786.021,10.073-.305,19.037,4.256,3.3,1.676,4.761,3.096,4.855,4.747Z" fill="#ff9878" stroke-width="0"/><path d="m594.987,255.508l-73.819-43.528c-11.991-7.074-25.796-8.598-38.355-5.357-1.665.429-3.289.938-4.889,1.534-6.063-.634-12.171-.163-18.019,1.35-8.982,2.316-17.344,7.071-23.961,13.982-.107.111-.249.26-.422.447.873,1.631,1.368,3.494,1.368,5.474,0,1.34-.228,2.625-.648,3.823,6.956,3.504,11.728,10.71,11.728,19.03,0,8.13-4.553,15.19-11.246,18.781,1.634,2.327,2.59,5.166,2.59,8.227,0,3.501-1.25,6.704-3.328,9.193-.384.461-.793.893-1.229,1.298-.367.346-.751.668-1.153.973.789.987,1.402,1.69,1.745,2.078,3.276,3.556,7.109,6.7,11.482,9.276l84.224,49.664c.918.537,1.887.907,2.87,1.108.942.194,1.901.235,2.839.135,2.853-.298,5.53-1.897,7.095-4.55l52.243-88.611c.89-1.503.388-3.442-1.115-4.328Z" fill="#9a7cdd" stroke-width="0"/><path d="m591.639,259.002l-51.627,87.541c-.014.038-.038.066-.052.104-2.825,4.647-8.916,3.258-10.911-.537-.003-.003-.003-.01-.007-.014-.059-.114-.118-.232-.17-.35-.443-1.011-.603-2.171-.353-3.421.076-.381.19-.772.346-1.163.052-.139.114-.277.183-.412.128-.298.277-.592.443-.879l45.284-76.8c.9-1.517.395-3.473-1.125-4.373l-1.378-.81-72.416-42.704c-4.152-2.448-8.525-4.238-13.002-5.377,10.609-1.614,21.807.267,31.717,6.111l73.067,43.085Z" fill="#fff8e5" stroke-width="0"/><path d="m591.639,259.002l-51.627,87.541c-.014.038-.038.066-.052.104-3.639,5.983-12.69,1.96-11.44-4.321.076-.381.191-.772.346-1.163.052-.139.114-.277.184-.412.128-.298.277-.592.443-.879l45.283-76.8c.9-1.517.395-3.473-1.125-4.373l-1.378-.81,19.366,1.115Z" fill="#f1dabc" opacity=".46" stroke-width="0"/><path d="m529.049,340.75c-.069.135-.132.274-.183.412-.156.391-.27.783-.346,1.163l-82.78-47.621c-3.476-2.001-7.168-3.656-10.983-4.941.436-.405.845-.838,1.229-1.298,3.667,1.281,7.216,2.898,10.564,4.827l82.499,47.458Z" fill="#694bbb" opacity=".55" stroke-width="0"/><path d="m596.102,259.837l-52.243,88.611c-1.565,2.652-4.242,4.252-7.095,4.55-3.369-1.513-6.378-3.712-7.715-6.887,1.994,3.795,8.085,5.183,10.911.537.014-.038.038-.066.052-.104l51.627-87.541-73.067-43.085c-9.91-5.845-21.108-7.725-31.717-6.111,0,0-3.906-1.264-8.93-1.648,1.6-.596,3.224-1.105,4.889-1.534,12.559-3.241,26.364-1.717,38.355,5.357l73.819,43.528c1.503.886,2.005,2.825,1.115,4.328Z" fill="#7d60cc" stroke-width="0"/><path d="m919.573,643.881s30.611,2.184,45.257-7.305c-1.644-14.476-5.591-25.628-8.877-33.059-5.789-13.092-11.68-26.417-23.569-29.061-5.671-1.261-13.253-.214-18.005,4.524-3.796,3.784-4.718,8.858-5.043,13.83-1.263,19.344,6.274,40.948,10.237,51.071Z" fill="#fff8e5" stroke-width="0"/><path d="m731.382,597.829s-6.779-2.943-15.595-1.731" fill="none" stroke="#bb3149" stroke-linecap="round" stroke-linejoin="round" stroke-width="1.039"/><path d="m730.343,604.754c-4.501-.115-9.003-.231-13.504-.346" fill="none" stroke="#bb3149" stroke-linecap="round" stroke-linejoin="round" stroke-width="1.039"/><path d="m727.573,612.026h-11.08" fill="none" stroke="#bb3149" stroke-linecap="round" stroke-linejoin="round" stroke-width="1.039"/><path d="m798.562,394.749H196.68c14.384-20.935,38.493-34.799,66.063-34.799h483.68c23.739,0,43.708,14.546,52.139,34.799Z" fill="#fcc14e" stroke-width="0"/><path d="m892.108,527.566c2.54-.92,8.535-2.695,15.865-1.066,5.279,1.173,9.03,3.618,11.08,5.194" fill="none" stroke="#3d2c56" stroke-linecap="round" stroke-linejoin="round" stroke-width="1.039"/><g opacity=".67"><g opacity=".46"><path d="m513.686,667.084v9.865h-1.039v-9.865c0-.156-.076-.298-.204-.384l-.204-.138-22.489-15.235h1.853l21.423,14.512c.263.18.461.433.568.724.062.163.093.339.093.523Z" fill="#7c281a" stroke-width="0"/></g><g opacity=".46"><path d="m535.853,667.084v9.865h-1.039v-9.865c0-.156-.076-.298-.204-.384l-.204-.138-22.489-15.235h1.853l21.423,14.512c.263.18.461.433.568.724.062.166.093.343.093.523Z" fill="#7c281a" stroke-width="0"/></g><g opacity=".46"><path d="m558.021,667.084v9.865h-1.039v-9.865c0-.156-.076-.298-.204-.384l-.204-.138-22.489-15.235h1.853l21.423,14.512c.263.18.461.433.568.724.062.163.093.339.093.523Z" fill="#7c281a" stroke-width="0"/></g><g opacity=".46"><path d="m580.188,667.084v9.865h-1.039v-9.865c0-.156-.076-.298-.204-.384l-.204-.138-22.489-15.235h1.853l21.426,14.512c.263.18.457.433.564.724.062.166.093.343.093.523Z" fill="#7c281a" stroke-width="0"/></g><g opacity=".46"><path d="m602.356,667.084v9.865h-1.039v-9.865c0-.156-.076-.298-.201-.384l-.204-.138-22.493-15.235h1.853l21.426,14.512c.263.18.457.433.564.724.062.166.093.343.093.523Z" fill="#7c281a" stroke-width="0"/></g><g opacity=".46"><path d="m624.523,667.084v9.865h-1.039v-9.865c0-.156-.076-.298-.201-.384l-.204-.138-22.493-15.235h1.856l21.423,14.512c.263.18.457.433.564.724.062.163.093.339.093.523Z" fill="#7c281a" stroke-width="0"/></g><g opacity=".46"><path d="m646.694,667.084v9.865h-1.039v-9.865c0-.156-.076-.298-.204-.384l-.204-.138-22.489-15.235h1.853l21.423,14.512c.263.18.461.433.568.724.062.166.093.343.093.523Z" fill="#7c281a" stroke-width="0"/></g><g opacity=".46"><path d="m668.861,667.084v9.865h-1.039v-9.865c0-.156-.076-.298-.204-.384l-.197-.138-21.883-15.235h1.814l20.855,14.515c.26.177.454.429.561.72.062.163.093.339.093.523Z" fill="#7c281a" stroke-width="0"/></g><g opacity=".46"><path d="m691.029,667.084v9.865h-1.039v-9.865c0-.156-.076-.298-.204-.384l-.194-.138-21.274-15.235h1.783l20.277,14.522c.26.173.45.426.557.713.062.166.093.343.093.523Z" fill="#7c281a" stroke-width="0"/></g><g opacity=".46"><path d="m713.196,667.084v9.865h-1.039v-9.865c0-.156-.076-.298-.204-.384l-.187-.138-20.672-15.235h1.756l19.702,14.525c.253.17.447.422.55.71.062.166.093.343.093.523Z" fill="#7c281a" stroke-width="0"/></g><g opacity=".46"><path d="m735.364,667.084v9.865h-1.039v-9.865c0-.156-.076-.298-.204-.384l-.184-.138-20.059-15.235h1.714l19.134,14.529c.249.166.44.415.547.706.059.163.09.339.09.523Z" fill="#7c281a" stroke-width="0"/></g></g><path d="m919.573,643.881c-4.433-10.578-6.797-19.738-8.137-26.316-3.053-14.991-5.304-26.89,1.385-35.665,2.837-3.722,6.443-5.78,9.003-6.925" fill="none" stroke="#da4969" stroke-linecap="round" stroke-linejoin="round" stroke-width="1.039"/><line x1="866.18" y1="648.905" x2="871.777" y2="614.103" fill="none" stroke="#da4969" stroke-linecap="round" stroke-linejoin="round" stroke-width="1.039"/><path d="m845.473,652.365s-3.141.315-4.636-5.938c1.963-.183,4.034-.495,6.132-.893.152,3.175-.242,5.651-1.496,6.832Z" fill="#fcc14e" stroke-width="0"/><line x1="346.862" y1="443.918" x2="379.942" y2="443.918" fill="none" stroke="#fff" stroke-linecap="round" stroke-miterlimit="10" stroke-width="3.463"/><line x1="346.862" y1="454.305" x2="379.942" y2="454.305" fill="none" stroke="#fff" stroke-linecap="round" stroke-miterlimit="10" stroke-width="3.463"/><line x1="346.862" y1="464.693" x2="379.942" y2="464.693" fill="none" stroke="#fff" stroke-linecap="round" stroke-miterlimit="10" stroke-width="3.463"/><line x1="207.07" y1="704.982" x2="238.891" y2="695.942" fill="none" stroke="#fff" stroke-linecap="round" stroke-miterlimit="10" stroke-width="3.463"/><line x1="209.909" y1="714.974" x2="228.658" y2="709.648" fill="none" stroke="#fff" stroke-linecap="round" stroke-miterlimit="10" stroke-width="3.463"/><path d="m926.151,543.294s-.414-2.84-2.631-5.748" fill="none" stroke="#3d2c56" stroke-linecap="round" stroke-linejoin="round" stroke-width="1.039"/><path d="m964.219,645.734c-.066,2.805-.336,7.95-1.773,14.242-.093.003-.187.007-.284.007-4.017,0-7.271-3.255-7.271-7.271s3.255-7.271,7.271-7.271c.713,0,1.406.104,2.057.294Z" fill="#bb3149" opacity=".2" stroke-width="0"/><line x1="563.361" y1="720.337" x2="571.406" y2="722.255" fill="none" stroke="#fff" stroke-linecap="round" stroke-miterlimit="10" stroke-width="3.463"/><line x1="539.228" y1="714.585" x2="555.317" y2="718.42" fill="none" stroke="#fff" stroke-linecap="round" stroke-miterlimit="10" stroke-width="3.463"/><line x1="536.819" y1="724.69" x2="568.997" y2="732.359" fill="none" stroke="#fff" stroke-linecap="round" stroke-miterlimit="10" stroke-width="3.463"/><line x1="549.108" y1="738.298" x2="566.589" y2="742.464" fill="none" stroke="#fff" stroke-linecap="round" stroke-miterlimit="10" stroke-width="3.463"/><line x1="534.411" y1="734.794" x2="543.494" y2="736.959" fill="none" stroke="#fff" stroke-linecap="round" stroke-miterlimit="10" stroke-width="3.463"/><circle cx="106.387" cy="773.382" r="13.331" fill="none" stroke="#f9e14e" stroke-miterlimit="10" stroke-width="2.078"/><rect y="873" width="1080" height="207" fill="#eadcd3" stroke-width="0"/><line x1="773.854" y1="604.907" x2="779.949" y2="605.444" fill="none" stroke="#bb3149" stroke-linecap="round" stroke-linejoin="round" stroke-width="1.039"/><line x1="777.34" y1="613.064" x2="780.641" y2="612.347" fill="none" stroke="#bb3149" stroke-linecap="round" stroke-linejoin="round" stroke-width="1.039"/><path d="m781.589,615.315s-2.078-9.375-.519-12.998" fill="none" stroke="#bb3149" stroke-linecap="round" stroke-linejoin="round" stroke-width="1.039"/><path d="m540.012,346.543c-.014.038-.038.066-.052.104-3.639,5.983-12.69,1.96-11.44-4.321.076-.381.191-.772.346-1.163.052-.139.114-.277.184-.412,0,0,8.303-1.901,10.962,5.793Z" fill="#694bbb" stroke-width="0"/><path d="m557.133,303.833h45.667c5.041,0,9.133,4.093,9.133,9.133h0c0,5.041-4.093,9.133-9.133,9.133h-45.667v-18.267h0Z" transform="translate(239.985 -253.526) rotate(30.526)" fill="#ba6942" stroke-width="0"/><g opacity=".35"><line x1="576.883" y1="315.224" x2="583.407" y2="319.02" fill="none" stroke="#994b2c" stroke-linecap="round" stroke-miterlimit="10" stroke-width="1.081"/><line x1="560.449" y1="305.665" x2="569.421" y2="310.884" fill="none" stroke="#994b2c" stroke-linecap="round" stroke-miterlimit="10" stroke-width="1.081"/><line x1="596.186" y1="321.593" x2="599.49" y2="323.515" fill="none" stroke="#994b2c" stroke-linecap="round" stroke-miterlimit="10" stroke-width="1.081"/><line x1="577.595" y1="307.536" x2="592.881" y2="316.428" fill="none" stroke="#994b2c" stroke-linecap="round" stroke-miterlimit="10" stroke-width="1.081"/><line x1="565.493" y1="303.503" x2="576.027" y2="309.631" fill="none" stroke="#994b2c" stroke-linecap="round" stroke-miterlimit="10" stroke-width="1.081"/><line x1="577.525" y1="303.389" x2="603.454" y2="318.471" fill="none" stroke="#994b2c" stroke-linecap="round" stroke-miterlimit="10" stroke-width="1.081"/><line x1="565.493" y1="296.658" x2="572.877" y2="300.953" fill="none" stroke="#994b2c" stroke-linecap="round" stroke-miterlimit="10" stroke-width="1.081"/></g><line x1="549.044" y1="319.02" x2="571.855" y2="280.502" fill="none" stroke="#e7c9a5" stroke-miterlimit="10" stroke-width="1.081"/><path d="m759.189,148h280.899c21.827,0,39.886-17.119,40.897-38.923.73-15.738-2.111-30.839-14.937-33.448-28.309-5.759-59.272,36.186-59.272,36.186,0,0-38.525-101.112-95.951-101.109-57.426.003-36.172,94.435-36.172,94.435,0,0-19.114-47.26-47.42-47.217s-43.032,51.644-43.032,51.644c0,0-28.155-39.983-61.187-39.84-6.193.027-11.761,2.795-16.719,7.277-27.634,24.975-9.436,70.997,27.811,70.997h25.083Z" fill="#fff" opacity=".48" stroke-width="0"/></svg>