<?xml version="1.0" encoding="UTF-8"?><svg id="Layer_1" xmlns="http://www.w3.org/2000/svg" viewBox="0 0 1080 1080"><rect width="1080" height="1080" fill="#ede5d9" stroke-width="0"/><path d="m886.92,317.587H286.398s-8.587-123.233,108.197-87.167c-89.305-118.501,19.172-225.49,173.599-65.516,3.295-107.942,114.926-3.18,114.926-3.18-.698-9.099-1.494-35.268,15.742-52.703,26.307-26.611,77.377-15.435,105.055,5.999,40.639,31.471,40.639,92.635,40.639,105.096h0c2.424-3.456,12.6-17.147,29.616-19.334,21.57-2.772,39.084,14.877,45.666,27.84,12.562,24.741.598,62.544-32.919,88.965Z" fill="#f19fd8" opacity=".56" stroke-width="0"/><path d="m777.105,827.789s-72.126,29.189-216.389,37.779c-15.255.916-29.838,1.252-43.748,1.148-8.451-.07-16.658-.29-24.587-.672-102.451-4.822-161.153-33.432-161.153-33.432v-46.925c-25.7-62.702-42.659-116.535-53.892-157.119-16.125-58.262-22.025-94.754-2.26-120.21,9.679-12.461,21.84-17.84,31.415-21.654,11.928-4.776,28.227-11.523,45.696-18.849-27.67,86.616-26.129,159.333,9.308,186.47,22.732,17.411,61.137,17.307,118.506,17.179,40.109-.104,73.1-4.521,95.391-8.451-2.226-5.854-4.289-12.519-5.935-19.927-2.04-9.1-3.767-20.622-3.57-33.061l54.935,94.07-24.656,7.349,146.593,11.534,34.347,104.769Z" fill="#efce70" stroke-width="0"/><path d="m275.073,508.363c5.326-4.285,16.448-12.014,26.311-8.604,2.62.906,9.008,3.931,13.739,17.174,12.499,34.989,50.596,245.331,53.433,261.046" fill="none" stroke="#d69c50" stroke-linecap="round" stroke-miterlimit="10" stroke-width="3.435"/><path d="m917.937,906.788l-101.326,20.611-45.209-80.797-12.38-22.118-23.138-41.349-27.473,27.473c-29.2-17.168-66.979-66.979-66.979-66.979,0,0-13.261,5.587-32.864,11.523-48.13-24.911-105.778-19.973-149.92-9.54-41.476-29.977-57.103-62.087-57.103-62.087l42.67-52.674,267.626-45.221,79.742-32.84c7.303-3.002,14.942-4.463,22.535-4.463,15.673,0,31.078,6.237,42.473,17.933,20.448,21.005,22.465,53.822,4.706,77.157l-34.382,45.256,91.021,218.116Z" fill="#c5b0ed" stroke-width="0"/><path d="m615.674,759.082c-2.342-1.391-4.706-2.701-7.106-3.93-48.13-24.911-105.778-19.973-149.92-9.54-40.526,9.575-69.68,23.775-69.68,23.775" fill="none" stroke="#d69c50" stroke-linecap="round" stroke-miterlimit="10" stroke-width="3.435"/><path d="m566.724,371.812c-.292.721-.979,2.404-2.164,4.654h-.017c-1.34,2.559-3.297,5.839-5.994,9.257-1.254,1.597-2.662,3.212-4.242,4.809-.67.687-4.259,4.105-9.463,7.333-3.109,1.906-6.784,3.727-10.751,4.86-17.088,4.843-39.054-3.521-51.041-18.685-.017-.017-.034-.034-.052-.069-.052-.069-.103-.137-.155-.206-3.212-4.105-5.702-8.707-7.144-13.671-.498-1.683-.859-3.332-1.082-4.946-1.099-7.248.069-13.55,1.082-17.38-.824-.532-6.063-4.105-8.759-10.15-.653-1.46-1.614-3.881-1.546-7.024.103-4.981,2.851-11.489,7.608-12.966,5.461-1.7,13.808,3.143,16.436,12.966,1.474.201,3.648.321,6.128-.256,4.596-1.07,6.855-3.751,7.611-3.179.616.466.072,2.964-5.152,12.022,11.283,5.461,22.721,10.888,34.348,16.315,11.455,5.444,22.91,10.888,34.348,16.315Z" fill="#aa4b4b" stroke-width="0"/><rect x="484.761" y="354.071" width="22.572" height="12.038" rx="6.019" ry="6.019" transform="translate(185.415 -168.337) rotate(23.575)" fill="#f36cc2" opacity=".63" stroke-width="0"/><line x1="482.571" y1="337.463" x2="473.984" y2="328.876" fill="none" stroke="#f99bdd" stroke-linecap="round" stroke-linejoin="round" stroke-width="3.435"/><rect x="517.778" y="355.496" width="3.435" height="5.152" rx="1.717" ry="1.717" transform="translate(166.713 -165.03) rotate(21.427)" fill="#1b1828" stroke-width="0"/><rect x="548.249" y="369.723" width="3.435" height="5.152" rx="1.717" ry="1.717" transform="translate(174.016 -175.178) rotate(21.427)" fill="#1b1828" stroke-width="0"/><path d="m529.8,362.366s1.717,10.304-6.87,12.022" fill="none" stroke="#1b1828" stroke-linecap="round" stroke-miterlimit="10" stroke-width="3.435"/><path d="m536.669,372.67c-.787.152-2.004.28-3.435,0-2.382-.466-3.935-1.787-4.585-2.414" fill="none" stroke="#1b1828" stroke-linecap="round" stroke-miterlimit="10" stroke-width="3.435"/><path d="m534.093,402.725l-4.156,58.856-20.111-45.511c-11.089-6.452-22.177-12.903-33.266-19.355,2.004-4.294,4.007-8.587,6.011-12.881.155.069.326.137.481.206,11.987,15.165,33.953,23.529,51.041,18.685Z" fill="#994141" stroke-width="0"/><path d="m579.347,368.377c-4.036,1.717-9.188,8.587-9.188,8.587,0,0-2.525-.721-5.599-.498,1.185-2.25,1.872-3.933,2.164-4.654-11.438-5.427-22.893-10.871-34.348-16.315-11.627-5.427-23.065-10.854-34.348-16.315,5.225-9.058,5.768-11.556,5.152-12.022-.756-.572-3.016,2.108-7.611,3.179-2.48.578-4.654.457-6.128.256-.17-1.003-1.616-6.824-7.155-10.805-3.098-2.226-6.55-3.012-9.28-2.162,4.895-9.411,12.4-17.741,21.588-23.099,24.834-14.478,57.19-4.465,73.66,14.993,17.861,21.09,12.657,48.414,11.094,58.856Z" fill="#3d3260" stroke-width="0"/><path d="m474.619,365.148c-2.147-2.748-4.294-6.251-5.788-10.511-1.872-5.358-2.439-11.146-1.889-17.02,2.696,6.045,7.934,9.618,8.759,10.15-1.013,3.83-2.181,10.133-1.082,17.38Z" fill="#004151" stroke-width="0"/><circle cx="510.049" cy="282.506" r="22.326" fill="#3d3260" stroke-width="0"/><path d="m589.634,449.009l39.037-33.18s51.067,67.13,76.566,107.302c25.499,40.172,30.652,64.216,25.499,79.672-5.152,15.457-95.316,43.738-95.316,43.738l-62.313-191.868,16.527-5.663Z" fill="#fff" stroke-width="0"/><path d="m635.42,605.38l-180.328-20.609c-26.906-58.392-53.812-116.784-80.718-175.176,22.12-13.619,22.326-13.739,22.326-13.739,10.734-6.526,33.352-13.19,85.871-12.022-1.717,4.58-3.435,9.16-5.152,13.739,10.803,6.165,21.605,12.331,32.408,18.496l20.111,45.511,4.156-58.856c10.665-3.023,19.149-11.112,20.214-12.194,1.58-1.597,2.988-3.212,4.242-4.809,3.504,1.975,6.767,4.379,9.721,7.299,2.365,2.333,4.496,4.605,6.429,7.483,6.382,9.503,7.913,20.657,8.118,22.194,1.741,13.091,21.771,81.499,52.604,182.681Z" fill="#95beba" stroke-width="0"/><path d="m482.571,383.834c.137.052.292.103.429.137.017.034.034.052.052.069,11.988,15.165,33.953,23.529,51.041,18.685-3.695,3.671-7.362,5.697-10.304,6.87-21.271,8.482-44.278-11.765-45.511-12.881" fill="#1b1828" stroke-width="0"/><path d="m544.844,397.865c-2.868,32.219-5.736,64.454-8.604,96.673-10.03-22.532-20.042-45.065-30.055-67.614l-13.31,8.433c-8.873-10.591-17.747-21.181-26.62-31.772,1.717-6.87,3.435-13.739,5.152-20.609,3.864.332,7.728.664,11.593.996-1.023,2.5-2.051,5-3.078,7.5-1.434,3.489-.052,7.501,3.225,9.371,8.893,5.076,17.786,10.151,26.679,15.227l20.111,45.511,4.156-58.856c3.967-1.134,7.642-2.954,10.751-4.86Z" fill="#fff" stroke-width="0"/><path d="m448.047,544.262c8.552-50.942-1.578-81.449-13.564-100.319,0,0-2.954-4.651-37.783-48.088h0" fill="none" stroke="#8477bc" stroke-miterlimit="10" stroke-width="3.435"/><line x1="378.985" y1="414.029" x2="400.828" y2="401.008" fill="none" stroke="#8477bc" stroke-miterlimit="10" stroke-width="3.435"/><line x1="415.051" y1="454.673" x2="434.483" y2="443.943" fill="none" stroke="#8477bc" stroke-miterlimit="10" stroke-width="3.435"/><line x1="434.483" y1="491.258" x2="449.712" y2="486.706" fill="none" stroke="#8477bc" stroke-miterlimit="10" stroke-width="3.435"/><line x1="396.7" y1="431.544" x2="416.031" y2="420.094" fill="none" stroke="#8477bc" stroke-miterlimit="10" stroke-width="3.435"/><path d="m422.461,467.987c6.87-2.862,13.739-5.725,20.609-8.587" fill="none" stroke="#8477bc" stroke-miterlimit="10" stroke-width="3.435"/><line x1="406.366" y1="442.818" x2="425.043" y2="431.544" fill="none" stroke="#8477bc" stroke-miterlimit="10" stroke-width="3.435"/><line x1="388.671" y1="423.342" x2="407.687" y2="409.595" fill="none" stroke="#8477bc" stroke-miterlimit="10" stroke-width="3.435"/><path d="m429.331,478.291c5.725-1.717,11.449-3.435,17.174-5.152" fill="none" stroke="#8477bc" stroke-miterlimit="10" stroke-width="3.435"/><line x1="438.34" y1="501.705" x2="450.993" y2="499.81" fill="none" stroke="#8477bc" stroke-miterlimit="10" stroke-width="3.435"/><line x1="442.098" y1="512.327" x2="450.993" y2="511.544" fill="none" stroke="#8477bc" stroke-miterlimit="10" stroke-width="3.435"/><line x1="444.222" y1="523.131" x2="449.712" y2="523.131" fill="none" stroke="#8477bc" stroke-miterlimit="10" stroke-width="3.435"/><path d="m456.767,383.927s78.185,151.897,86.772,150.18,10.768-143.576,10.768-143.576" fill="none" stroke="#8477bc" stroke-miterlimit="10" stroke-width="3.435"/><path d="m535.811,492.03c2.576,14.026,5.152,28.051,7.728,42.077" fill="none" stroke="#8477bc" stroke-miterlimit="10" stroke-width="3.435"/><path d="m506.185,426.928c9.875,21.701,19.75,43.402,29.625,65.102,2.862-30.341,5.725-60.682,8.587-91.023" fill="none" stroke="#8477bc" stroke-miterlimit="10" stroke-width="3.435"/><path d="m628.671,415.829c-1.477,17.191-39.037,33.18-39.037,33.18l-9.858-10.957s-21.262-4.07-29.436-4.173c-5.942-.086-11.747-5.29-10.511-14.804.429-3.538,1.82-7.677,4.568-12.382-1.872-1.803-3.349-3.692-4.482-5.547-5.255-8.587-3.212-16.985,2.422-18.462,1.786-.481,3.452-.601,4.946-.515h.034c3.95.223,6.681,1.82,7.024,2.044q.017.017.034.017c1.786-5.582,6.114-7.213,9.738-7.505h.017c3.074-.258,5.616.412,5.616.412,0,0,5.049-6.938,9.068-8.707,3.984-1.769,9.6-7.007,19.63-.275,10.03,6.732,30.226,47.675,30.226,47.675Z" fill="#aa4b4b" stroke-width="0"/><path d="m575.397,663.05c-8.965,1.58-19.664,3.246-31.858,4.671-18.136,2.112-39.569,3.71-63.544,3.778-57.362.137-95.763.24-118.501-17.174-35.43-27.135-36.976-99.85-9.308-186.476,6.028-18.857,13.43-38.384,22.189-58.255l14.289,13.739c6.835,6.578,13.173,13.619,18.943,21.073,1.717,2.198,3.366,4.448,4.981,6.715,7.076,9.978,13.207,20.609,18.308,31.772,6.938,15.182,11.902,31.205,14.77,47.658l9.291,53.446c7.866.584,32.871,3.366,102.924,12.383,2.868.378,5.822.756,8.845,1.151-.481,3.881-.756,7.746-.824,11.507-.017.343-.017.687-.017,1.03-.189,12.434,1.529,23.958,3.572,33.06,1.649,7.402,3.71,14.066,5.942,19.922Z" fill="#fff" stroke-width="0"/><path d="m535.811,593.996s-12.881,35.59,7.728,73.721" fill="none" stroke="#e8d3c8" stroke-linecap="round" stroke-miterlimit="10" stroke-width="3.435"/><path d="m533.243,609.127c10.883-.033,21.766-.065,32.65-.098" fill="none" stroke="#e8d3c8" stroke-linecap="round" stroke-miterlimit="10" stroke-width="3.435"/><path d="m161.209,414.96h317.484s18.062-17.355-6.947-34.027c-25.009-16.672-38.645,0-38.645,0,0,0,17.805-44.46-18.319-63.911-36.124-19.451-70.858,40.292-70.858,40.292,0,0-12.504-59.743-51.407-58.353-38.902,1.389-43.07,37.513-43.07,37.513,0,0-12.504-81.973-77.804-68.079-65.3,13.894-55.602,125.018-10.434,146.566Z" fill="#fff" opacity=".76" stroke-width="0"/><path d="m596.999,473.5c6.353.189,20.961-.259,35.935-9.274,9.895-5.957,16.078-13.324,19.493-18.14" fill="none" stroke="#e8d3c8" stroke-linecap="round" stroke-miterlimit="10" stroke-width="3.435"/><path d="m623.5,429.5c4.975,9.841,9.95,19.683,14.925,29.524" fill="none" stroke="#e8d3c8" stroke-linecap="round" stroke-miterlimit="10" stroke-width="3.435"/><path d="m544.39,406.697c1.604,2.131,9.081,11.849,16.323,14.061,1.139.348,3.222.953,5.152,0,2.349-1.16,3.109-3.956,3.435-5.152,2.279-8.376-12.598-27.729-13.739-29.196,1.599,2.427,18.328,27.316,32.631,24.044,1.004-.23,4.253-.973,5.618-3.543,3.807-7.168-10.846-21.363-12.545-22.983-3.846-3.668-7.54-6.187-10.248-7.822-1.495-.345-4.295-.777-7.635.021-4.309,1.03-7.022,3.513-8.114,4.637" fill="none" stroke="#f99bdd" stroke-linecap="round" stroke-linejoin="round" stroke-width="3.435"/><path d="m588.192,370.953c4.007,3.435,8.015,6.87,12.022,10.304" fill="none" stroke="#f99bdd" stroke-linecap="round" stroke-linejoin="round" stroke-width="3.435"/><path d="m594.525,401.008c6.676,1.751,13.487.77,16.805-3.258,6.493-7.882-2.562-24.79-9.399-25.079-1.418-.06-3.257.573-5.467,3.087" fill="none" stroke="#f99bdd" stroke-linejoin="round" stroke-width="3.435"/><path d="m537.717,396.415s-4.129-12.918,5.999-14.038" fill="none" stroke="#f99bdd" stroke-linecap="round" stroke-linejoin="round" stroke-width="3.435"/><line x1="569.3" y1="415.606" x2="577.521" y2="416.468" fill="none" stroke="#f99bdd" stroke-linecap="round" stroke-linejoin="round" stroke-width="3.435"/><path d="m816.607,927.394l27.479,51.522h110.974c2.164,0,3.183-2.674,1.568-4.114l-14.649-13.06-24.044-54.957-101.327,20.609Z" fill="#aa4b4b" stroke-width="0"/><path d="m734.85,639.33l-73.94,24.27-7.39-5.15-1.51-1.06-63.71-44.52,30.02-15.28,1.22-.62c3.99-2.04,7.98-4.08,11.97-6.11l5.49-2.79.79.41c.95.5,1.89.99,2.84,1.48,30.17,15.74,60.34,31.47,90.51,47.19l.07.04c.15.07.28.13.41.21l3.23,1.93Z" fill="#f19fd8" stroke-width="0"/><path d="m789.126,589.061l-44.653,42.937s0,13.737-13.737,6.874c-.116-.07-.255-.127-.394-.197-30.163-15.719-60.337-31.449-90.499-47.191l1.588-.707,3.895,3.211,6.41-3.211,1.716,1.727,7.732-6.26,45.51,28.586,12.021-5.158,58.389-21.144-1.716,3.976,13.737-3.443Z" fill="#fff" stroke-width="0"/><path d="m790.32,590.302l-44.015,42.323c.185,1.855.185,5.866-2.817,8.787-.846.823-1.831,1.461-2.898,1.901-.058.035-.104.058-.162.07-.452.197-.927.348-1.403.452-.835.209-1.692.313-2.562.313-2.284,0-4.625-.695-6.631-2.098l-3.941-2.121-89.711-48.42c-.835-.441-1.148-1.484-.696-2.318.441-.835,1.495-1.148,2.318-.695l93.931,50.692c3.002,2.145,7.025,2.04,9.355-.232,2.585-2.515,1.716-6.538,1.716-6.584l-.22-.939.695-.672,44.664-42.937c.684-.649,1.762-.626,2.423.058.661.672.637,1.762-.046,2.423Z" fill="#f19fd8" stroke-width="0"/><path d="m652.01,657.39c-5.86,1.75-42.67,12.09-76.62,5.66-2.22-5.85-4.29-12.52-5.93-19.92-2.04-9.1-3.77-20.63-3.57-33.06,0-.34,0-.69.01-1.04.07-3.75.35-7.62.82-11.49,5.72-2.44,17.18-6.39,31.77-5.04,8.17.76,14.9,2.95,19.83,5.09l-30.02,15.28,63.71,44.52Z" fill="#aa4b4b" stroke-width="0"/><path d="m654.51,657.04c-.56.04-1.13.08-1.69.1,0,0-.28.09-.81.25l-63.71-44.52,30.02-15.28c-10.107,5.137-20.213,10.273-30.32,15.41,22.17,14.68,44.34,29.36,66.51,44.04Z" fill="#aa4b4b" stroke-width="0"/><path d="m677.495,645.735c-.487,5.356-9.448,10.294-22.987,11.302-22.169-14.679-44.338-29.358-66.507-44.037,4.919,2.287,11.851,5.424,20.257,8.941,11.708,4.898,17.608,7.191,21.154,8.342,15.777,5.122,30.014,7.386,41.398,8.345,2.973.25,5.63,2.192,6.468,5.055.26.89.261,1.584.218,2.052Z" fill="#aa4b4b" stroke-width="0"/><path d="m654.5,657.5c-9.501-.816-20.718-2.544-33-6-7.934-2.233-15.045-4.83-21.286-7.479" fill="none" stroke="#f99bdd" stroke-linecap="round" stroke-linejoin="round" stroke-width="3.435"/><path d="m652.5,657.5c-5.634,3.049-19.392,9.451-36.83,7.13-7.526-1.002-13.634-3.348-18.044-5.527" fill="none" stroke="#f99bdd" stroke-linecap="round" stroke-linejoin="round" stroke-width="3.435"/><path d="m548.695,671.504c0,3.304-1.356,6.306-3.536,8.485-2.179,2.179-5.182,3.536-8.485,3.536h-226.706c-6.607,0-12.021-5.413-12.021-12.021,0-3.304,1.356-6.318,3.536-8.497s5.182-3.524,8.485-3.524h226.706c6.607,0,12.021,5.402,12.021,12.021Z" fill="#d18888" stroke-width="0"/><path d="m383.856,674.132c0,1.126-.151,2.276-.464,3.402l-1.866,6.72-1.426,5.151-77.922,281.093c-1.82,6.565-8.509,10.398-14.861,8.517-5.251-1.557-8.706-6.553-8.706-11.955,0-1.126.151-2.276.464-3.414l75.175-271.21,2.272-8.182,3.756-13.561c1.82-6.565,8.509-10.398,14.861-8.517,5.263,1.557,8.717,6.565,8.717,11.955Z" fill="#d18888" stroke-width="0"/><rect x="367.692" y="809.923" width="338.577" height="24.044" rx="12.022" ry="12.022" transform="translate(-8.627 1638.188) rotate(-113.083)" fill="#d18888" stroke-width="0"/><rect x="335.598" y="777.979" width="196.053" height="24.044" rx="10.63" ry="10.63" fill="#d18888" stroke-width="0"/><path d="m771.405,846.607l-195.63,36.959c-6.183,1.168-12.211-2.937-13.379-9.119l-.206-1.151c-1.168-6.183,2.937-12.194,9.119-13.362l187.713-35.447,12.383,22.12Z" fill="#d18888" stroke-width="0"/><path d="m516.968,866.715l-5.877,23.891-18.176,73.865c-1.345,5.46-6.921,8.845-12.392,7.489l-3.443-.835c-5.483-1.356-8.845-6.944-7.512-12.404l17.11-69.529,5.703-23.149c7.929.382,16.136.603,24.587.672Z" fill="#a86565" stroke-width="0"/><polygon points="735.889 783.132 826.912 688.674 744.516 798.553 735.889 783.132" fill="#3d3260" opacity=".75" stroke-width="0"/><polygon points="464.92 683.525 491.056 683.525 494.394 691.355 467.004 688.415 464.92 683.525" fill="#9b3b3b" stroke-width="0"/><polygon points="381.526 683.525 380.1 688.51 354.25 691.443 356.522 683.525 381.526 683.525" fill="#9b3b3b" stroke-width="0"/><line x1="355.629" y1="779.139" x2="349.102" y2="801.924" fill="none" opacity=".8" stroke="#3d3260" stroke-linecap="round" stroke-miterlimit="10" stroke-width="3.435"/><line x1="505.175" y1="777.979" x2="515.422" y2="802.023" fill="none" opacity=".8" stroke="#3d3260" stroke-linecap="round" stroke-miterlimit="10" stroke-width="3.435"/><path d="m739.002,631.732c12.751-14.297,25.503-28.594,38.254-42.891" fill="none" stroke="#f7ece6" stroke-linecap="round" stroke-linejoin="round" stroke-width="1.159"/><line x1="730.737" y1="635.07" x2="651.737" y2="590.777" fill="none" stroke="#f7ece6" stroke-linecap="round" stroke-linejoin="round" stroke-width="1.159"/><path d="m733.786,633.471c-24.2-15.742-48.401-31.484-72.601-47.226" fill="none" stroke="#f7ece6" stroke-linecap="round" stroke-linejoin="round" stroke-width="1.159"/><path d="m739.025,643.834c-22.697,7.268-44.734,14.536-67.454,21.793-1.959.278-5.112.417-8.497-.939-.869-.348-1.646-.754-2.318-1.159,10.757-4.034,21.631-8.045,32.632-12.021,10.908-3.953,21.747-7.813,32.504-11.58l3.941,2.121c2.005,1.403,4.347,2.098,6.631,2.098.869,0,1.727-.104,2.562-.313Z" fill="#a187e2" stroke-width="0"/><path d="m625.937,849.756l5.048,23.298c14.339-3.018,28.677-6.036,43.016-9.054,3.333-8,6.667-16,10-24-19.354,3.252-38.709,6.504-58.063,9.756Z" fill="#aa4b4b" opacity=".59" stroke-width="0"/><path d="m640.431,742.631l-34.348,39.5,61.687,99.079c1.167,1.823,3.968,1.239,4.31-.898l3.1-19.379,33.317-49.884-68.065-68.419Z" fill="#aa4b4b" stroke-width="0"/><line x1="641.431" y1="743.631" x2="706.579" y2="667.717" fill="none" stroke="#956296" stroke-linecap="round" stroke-miterlimit="10" stroke-width="3.435"/><line x1="567.002" y1="861.724" x2="575.775" y2="883.566" fill="none" opacity=".8" stroke="#3d3260" stroke-linecap="round" stroke-miterlimit="10" stroke-width="3.435"/><circle cx="472.5" cy="346.5" r="4.5" fill="#efce70" stroke-width="0"/></svg>