<?xml version="1.0" encoding="UTF-8"?><svg id="Layer_1" xmlns="http://www.w3.org/2000/svg" xmlns:xlink="http://www.w3.org/1999/xlink" viewBox="0 0 1080 1080"><defs><clipPath id="clippath"><rect width="1080" height="1080" fill="none" stroke-width="0"/></clipPath><clipPath id="clippath-1"><path d="m635,872c-86,28-200,23-258-5s25-179,25-179c0,0,32,34.96,104,31.48s116-23.48,116-23.48c12.335,23.057,21.377,43.874,28,61,17.252,44.614,27.769,72.909,15.07,93.911-7.48,12.37-20.202,17.876-30.07,21.089Z" fill="none" stroke-width="0"/></clipPath></defs><g clip-path="url(#clippath)"><rect width="1080" height="1080" fill="#2c655c" stroke-width="0"/><path d="m610,986c13.333,31.333,26.667,62.667,40,94h74c-10.541-38.494-21.083-76.988-31.624-115.482-5.887,5.509-15.763,13.297-29.845,18.525-23.285,8.643-43.88,5.017-52.531,2.958Z" fill="#ffc34b" stroke-width="0"/><path d="m626.59,1080h-77.59l-28.33-68.93c21.7-10.52,43.41-21.04,65.12-31.56,13.6,33.5,27.2,66.99,40.8,100.49Z" fill="#ffc34b" stroke-width="0"/><path d="m692.38,964.52c-5.39,5.01-12.86,10.75-22.66,15.35-25.48,11.98-49.79,8.26-59.72,6.13-13.85-27.34-27.66-54.7-41.43-82.08-2.91-5.78-5.81-11.55-8.71-17.33-8.02-15.97-16.03-31.94-24.03-47.93l15.57-2.02,4.46-.58,102.09-13.27,24.26,99.88,10.17,41.85Z" fill="#ba6a43" stroke-width="0"/><path d="m585.79,979.51c-25.91,44.07-65.12,31.56-65.12,31.56l-44.31-74.61-3.21-5.41-39.55-66.59,114.88-38.64s1.08,3.91,2.92,10.82c3.57,13.36,10.03,37.96,17.17,67.28,5.67,23.3,11.78,49.59,17.22,75.59Z" fill="#ba6a43" stroke-width="0"/><path d="m685,932c-8.928,6.349-26.809,17.252-52,21-30.043,4.47-53.725-3.73-64-8-4.38-36.313-8.76-72.627-13.14-108.94l102.09-13.27c9.017,36.403,18.033,72.807,27.05,109.21Z" fill="#5c1314" opacity=".52" stroke-width="0"/><path d="m348.737,164.79c0,2.557-.079,5.101-.234,7.621v337.876H103.99V172.41c-.154-2.52-.234-5.063-.234-7.621,0-67.65,54.84-122.49,122.49-122.49s122.49,54.84,122.49,122.49Z" fill="#fcfc59" opacity=".15" stroke-width="0"/><line x1="226.247" y1="42.066" x2="226.247" y2="510.053" fill="none" stroke="#2c655c" stroke-miterlimit="10" stroke-width="3"/><line x1="103.835" y1="392.705" x2="348.581" y2="392.705" fill="none" stroke="#2c655c" stroke-miterlimit="10" stroke-width="3"/><line x1="103.99" y1="162.452" x2="348.503" y2="162.452" fill="none" stroke="#2c655c" stroke-miterlimit="10" stroke-width="3"/><line x1="226.202" y1="162.449" x2="143.34" y2="72.455" fill="none" stroke="#2c655c" stroke-miterlimit="10" stroke-width="3"/><line x1="309.322" y1="72.517" x2="226.459" y2="162.511" fill="none" stroke="#2c655c" stroke-miterlimit="10" stroke-width="3"/><line x1="103.672" y1="276.116" x2="348.419" y2="276.116" fill="none" stroke="#2c655c" stroke-miterlimit="10" stroke-width="3"/><path d="m662.796,164.79c0,2.557-.079,5.101-.234,7.621v337.876h-244.513V172.41c-.154-2.52-.234-5.063-.234-7.621,0-67.65,54.84-122.49,122.49-122.49s122.49,54.84,122.49,122.49Z" fill="#fcfc59" opacity=".15" stroke-width="0"/><line x1="540.306" y1="42.066" x2="540.306" y2="510.053" fill="none" stroke="#2c655c" stroke-miterlimit="10" stroke-width="3"/><line x1="417.893" y1="392.705" x2="662.64" y2="392.705" fill="none" stroke="#2c655c" stroke-miterlimit="10" stroke-width="3"/><line x1="418.049" y1="162.452" x2="662.562" y2="162.452" fill="none" stroke="#2c655c" stroke-miterlimit="10" stroke-width="3"/><line x1="540.261" y1="162.449" x2="457.399" y2="72.455" fill="none" stroke="#2c655c" stroke-miterlimit="10" stroke-width="3"/><line x1="540.518" y1="162.511" x2="623.381" y2="72.517" fill="none" stroke="#2c655c" stroke-miterlimit="10" stroke-width="3"/><line x1="417.731" y1="276.116" x2="662.478" y2="276.116" fill="none" stroke="#2c655c" stroke-miterlimit="10" stroke-width="3"/><path d="m976.854,164.79c0,2.557-.079,5.101-.234,7.621v337.876h-244.513V172.41c-.154-2.52-.234-5.063-.234-7.621,0-67.65,54.84-122.49,122.49-122.49s122.49,54.84,122.49,122.49Z" fill="#fcfc59" opacity=".15" stroke-width="0"/><line x1="854.364" y1="42.066" x2="854.364" y2="510.053" fill="none" stroke="#2c655c" stroke-miterlimit="10" stroke-width="3"/><line x1="731.952" y1="392.705" x2="976.699" y2="392.705" fill="none" stroke="#2c655c" stroke-miterlimit="10" stroke-width="3"/><line x1="732.108" y1="162.452" x2="976.621" y2="162.452" fill="none" stroke="#2c655c" stroke-miterlimit="10" stroke-width="3"/><line x1="854.32" y1="162.449" x2="771.458" y2="72.455" fill="none" stroke="#2c655c" stroke-miterlimit="10" stroke-width="3"/><line x1="854.577" y1="162.511" x2="937.44" y2="72.517" fill="none" stroke="#2c655c" stroke-miterlimit="10" stroke-width="3"/><line x1="731.79" y1="276.116" x2="976.537" y2="276.116" fill="none" stroke="#2c655c" stroke-miterlimit="10" stroke-width="3"/><rect y="676" width="1080" height="37" fill="#004151" stroke-width="0"/><path d="m601.5,452.09c-34,7.41-42,5.41-42,5.41-1.07-2.48-2.9-5.81-6-9-6.69-6.88-14.84-8.53-18-9-5.95,2.04-11.77.05-14-4-1.25-2.29-1.58-5.62,0-8,2.38-3.59,8.93-4.74,15-1,9,1,16-1,24-16,15-4,20,0,26,0,0,0,2.86-.13,15-4,0,0,1.23,7.91,1.85,17.51.09,1.3.17,2.64.22,3.99.39,8.78.12,18.23-2.07,24.09Z" fill="#d08051" stroke-width="0"/><line x1="535.499" y1="434.123" x2="527.5" y2="431.5" fill="none" stroke="#a05d40" stroke-linecap="round" stroke-miterlimit="10" stroke-width="2"/><path d="m568.455,416.573c-1.092,1.805-.893,4.196.555,5.73.335.355.73.662,1.197.884,2.492,1.187,4.348-1.306,9.293-1.686,4.447-.342,6.254,1.42,8,0,1.532-1.246,2.018-4.128,1-6-2.618-4.817-16.281-4.964-20,1-.015.024-.03.048-.045.073Z" fill="#5c1314" stroke-width="0"/><path d="m657.091,872v.16c0,12.06-74.09,30.84-147,30.34-69.41-.48-141-18.44-141-30.33v-.17c.74-13.21,91.14-18.52,144-18.5,52.38.02,143.26,5.3,144,18.5Z" fill="#e7bbcf" stroke-width="0"/><path d="m657.09,872.16v30.2c.4,7.2-26,16.86-62.93,23.36-4.96.88-10.12,1.7-15.43,2.44-4.76.67-9.66,1.29-14.64,1.83-17.28,1.9-35.67,3-54,2.87-13.79-.09-27.69-.89-41.09-2.19-2.32-.22-4.62-.46-6.9-.71-2.33-.25-4.64-.52-6.93-.81-8.02-1-15.78-2.17-23.13-3.47-2.29-.41-4.54-.82-6.75-1.25h-.02c-33.16-6.41-56.56-15.26-56.18-22.07v-30.19c0,8.5,36.63,20.12,82.89,26.21,18.41,2.43,38.34,3.98,58.11,4.12,17.73.12,35.52-.9,52.31-2.68,52.25-5.56,94.69-18.53,94.69-27.66Z" fill="#004151" stroke-width="0"/><path d="m462.1,929.96l-9.14,26.04-9.83,28-33.71,96.04h-33.1l55.72-154.36c7.35,1.3,15.11,2.47,23.13,3.47,2.29.29,4.6.56,6.93.81Z" fill="#004151" stroke-width="0"/><path d="m649.86,1080.04h-33.1l-33.71-96.04-9.83-28-4.03-11.49-.45-1.27-4.65-13.25c4.98-.54,9.88-1.16,14.64-1.83,5.31-.74,10.47-1.56,15.43-2.44l4.8,13.29,50.9,141.03Z" fill="#004151" stroke-width="0"/><polygon points="583.05 984 443.13 984 452.96 956 573.22 956 583.05 984" fill="#004151" stroke-width="0"/><path d="m432.04,925.68c-1.68,5.107-3.36,10.213-5.04,15.32,10,1.333,20,2.667,30,4,1.7-5.013,3.4-10.027,5.1-15.04l-30.06-4.28Z" fill="#01323a" stroke-width="0"/><path d="m599,939c-.01,0-.03,0-.04.01-8.43,1.17-16.86,2.35-25.29,3.54-1.64.23-3.29.46-4.93.69l-4.65-13.25,14.59-2.07,15.48-2.2c1.61,4.43,3.23,8.85,4.84,13.28Z" fill="#01323a" stroke-width="0"/><polygon points="452.96 956 443.13 984 462.1 956 452.96 956" fill="#01323a" stroke-width="0"/><polygon points="573.22 956 583.05 984 566.118 956 573.22 956" fill="#01323a" stroke-width="0"/><path d="m306.091,872v.16c0,12.06-74.09,30.84-147,30.34-69.41-.48-141-18.44-141-30.33v-.17c.74-13.21,91.14-18.52,144-18.5,52.38.02,143.26,5.3,144,18.5Z" fill="#e7bbcf" stroke-width="0"/><path d="m306.09,872.16v30.2c.4,7.2-26,16.86-62.93,23.36-9.42,1.67-19.54,3.12-30.07,4.27-17.28,1.9-35.67,3-54,2.87-16.18-.11-32.5-1.18-47.99-2.9-2.33-.25-4.64-.52-6.93-.81-8.02-1-15.78-2.17-23.13-3.47-2.29-.41-4.54-.82-6.75-1.25h-.02c-33.16-6.41-56.56-15.26-56.18-22.07v-30.19c0,11.89,71.59,29.85,141,30.33,72.91.5,147-18.28,147-30.34Z" fill="#004151" stroke-width="0"/><path d="m111.1,929.96l-9.14,26.04-9.83,28-33.71,96.04H25.32l55.72-154.36c7.35,1.3,15.11,2.47,23.13,3.47,2.29.29,4.6.56,6.93.81Z" fill="#004151" stroke-width="0"/><path d="m298.86,1080.04h-33.1l-33.71-96.04-9.83-28-9.13-26.01c10.53-1.15,20.65-2.6,30.07-4.27l55.7,154.32Z" fill="#004151" stroke-width="0"/><polygon points="232.05 984 92.13 984 101.96 956 222.22 956 232.05 984" fill="#004151" stroke-width="0"/><path d="m81.04,925.68c-1.68,5.107-3.36,10.213-5.04,15.32,10,1.333,20,2.667,30,4,1.7-5.013,3.4-10.027,5.1-15.04l-30.06-4.28Z" fill="#01323a" stroke-width="0"/><path d="m213.09,929.99l4.65,13.247c10.087-1.412,20.173-2.825,30.26-4.237-1.613-4.427-3.227-8.853-4.84-13.28l-30.07,4.27Z" fill="#01323a" stroke-width="0"/><polygon points="101.96 956 92.13 984 111.1 956 101.96 956" fill="#01323a" stroke-width="0"/><polygon points="222.22 956 232.05 984 215.118 956 222.22 956" fill="#01323a" stroke-width="0"/><path d="m1048.091,872v.16c0,12.06-74.09,30.84-147,30.34-69.41-.48-141-18.44-141-30.33v-.17c.74-13.21,91.14-18.52,144-18.5,52.38.02,143.26,5.3,144,18.5Z" fill="#e7bbcf" stroke-width="0"/><path d="m1048.09,872.16v30.2c.4,7.2-26,16.86-62.93,23.36-9.42,1.67-19.54,3.12-30.07,4.27-17.28,1.9-35.67,3-54,2.87-16.18-.11-32.5-1.18-47.99-2.9-2.33-.25-4.64-.52-6.93-.81-8.02-1-15.78-2.17-23.13-3.47-2.29-.41-4.54-.82-6.75-1.25h-.02c-33.16-6.41-56.56-15.26-56.18-22.07v-30.19c0,11.89,71.59,29.85,141,30.33,72.91.5,147-18.28,147-30.34Z" fill="#004151" stroke-width="0"/><path d="m853.1,929.96l-9.14,26.04-9.83,28-33.71,96.04h-33.1l55.72-154.36c7.35,1.3,15.11,2.47,23.13,3.47,2.29.29,4.6.56,6.93.81Z" fill="#004151" stroke-width="0"/><path d="m1040.86,1080.04h-33.1l-33.71-96.04-9.83-28-9.13-26.01c10.53-1.15,20.65-2.6,30.07-4.27l55.7,154.32Z" fill="#004151" stroke-width="0"/><polygon points="974.05 984 834.13 984 843.96 956 964.22 956 974.05 984" fill="#004151" stroke-width="0"/><path d="m823.04,925.68c-1.68,5.107-3.36,10.213-5.04,15.32,10,1.333,20,2.667,30,4,1.7-5.013,3.4-10.027,5.1-15.04l-30.06-4.28Z" fill="#01323a" stroke-width="0"/><path d="m955.09,929.99l4.65,13.247c10.087-1.412,20.173-2.825,30.26-4.237-1.613-4.427-3.227-8.853-4.84-13.28l-30.07,4.27Z" fill="#01323a" stroke-width="0"/><polygon points="843.96 956 834.13 984 853.1 956 843.96 956" fill="#01323a" stroke-width="0"/><polygon points="964.22 956 974.05 984 957.118 956 964.22 956" fill="#01323a" stroke-width="0"/><path d="m732,549c-6.97,31.63-13.95,63.26-20.92,94.89-4.14,18.76-20.76,32.11-39.96,32.11h-52.12l3,20s-44,20-116,23.48-104-31.48-104-31.48l7.28-12h-50.11c-2.6-1.5-5.6-3.72-8.17-7-21.93-27.99,26.34-89.34,53-137,47-84,88.2-56.4,88.2-56.4l8.29,1.72c.61,9.34,2.51,17.68,2.51,17.68,0,0,30.77,21.3,78.99,5.74,6.07-1.96,12.41-4.5,19.01-7.74.73-1.06,1.55-2.31,2.41-3.74,7.24.61,13.58,1.49,17.59,2.74,16,5,44,55,44,55l6,.18,61,1.82Z" fill="#7666c5" stroke-width="0"/><rect x="558.5" y="434.5" width="17" height="8" rx="4" ry="4" transform="translate(-43.315 62.618) rotate(-6.089)" fill="#ff7689" stroke-width="0"/><rect x="580.5" y="428.5" width="3" height="4" rx="1.5" ry="1.5" stroke-width="0"/><path d="m591.5,431.5c.448.604,1.209,1.802,1.5,3.5.362,2.112-.211,3.792-.5,4.5" fill="none" stroke="#210708" stroke-linecap="round" stroke-miterlimit="10" stroke-width="2"/><path d="m599.5,433.5c-.321.407-1.295,1.531-3,2-1.366.375-2.513.141-3.032,0" fill="none" stroke="#210708" stroke-linecap="round" stroke-miterlimit="10" stroke-width="2"/><path d="m610,476c-2.11,5.38-4.5,9.84-6.59,13.26-.86,1.43-1.68,2.68-2.41,3.74-3.39,1.66-6.71,3.14-9.96,4.45-.71.29-1.41.57-2.11.83-2.35.91-4.66,1.72-6.94,2.46-48.22,15.56-78.99-5.74-78.99-5.74,0,0-1.9-8.34-2.51-17.68-.63-9.5.09-20.04,5.53-23.86,3.19-2.24,6.25-.28,17.98,1.54,4.72.73,19.09,2.77,34,2,9.02-.47,9.49-1.51,33-4,4.18-.44,7.65-.78,10-1,.67-2.33,1.33-4.67,2-7,1.32-.18,2.48-.24,3.5-.21,3.74.09,5.58,1.35,6.5,2.21,6.13,5.75.13,21.02-3,29Z" fill="#9e7fff" stroke-width="0"/><g opacity=".21"><line x1="609.112" y1="455.163" x2="596.484" y2="490.93" fill="none" stroke="#e7bbcf" stroke-linecap="round" stroke-miterlimit="10"/><line x1="599.5" y1="457.161" x2="589.036" y2="492.943" fill="none" stroke="#e7bbcf" stroke-linecap="round" stroke-miterlimit="10"/><line x1="590.5" y1="458.5" x2="582" y2="496" fill="none" stroke="#e7bbcf" stroke-linecap="round" stroke-miterlimit="10"/><line x1="581.5" y1="460.5" x2="575.5" y2="497.5" fill="none" stroke="#e7bbcf" stroke-linecap="round" stroke-miterlimit="10"/><line x1="573.5" y1="460.5" x2="567.759" y2="498.83" fill="none" stroke="#e7bbcf" stroke-linecap="round" stroke-miterlimit="10"/><line x1="564.5" y1="461.5" x2="560.5" y2="500.5" fill="none" stroke="#e7bbcf" stroke-linecap="round" stroke-miterlimit="10"/><line x1="554.896" y1="461.5" x2="552.606" y2="502.084" fill="none" stroke="#e7bbcf" stroke-linecap="round" stroke-miterlimit="10"/><line x1="544.601" y1="461.5" x2="544.601" y2="502.084" fill="none" stroke="#e7bbcf" stroke-linecap="round" stroke-miterlimit="10"/><line x1="535.499" y1="461.5" x2="535.499" y2="500.5" fill="none" stroke="#e7bbcf" stroke-linecap="round" stroke-miterlimit="10"/><line x1="526.322" y1="460.5" x2="527.5" y2="498.83" fill="none" stroke="#e7bbcf" stroke-linecap="round" stroke-miterlimit="10"/><line x1="518.53" y1="460.5" x2="520.435" y2="496" fill="none" stroke="#e7bbcf" stroke-linecap="round" stroke-miterlimit="10"/><line x1="509.303" y1="458.5" x2="512.265" y2="494.204" fill="none" stroke="#e7bbcf" stroke-linecap="round" stroke-miterlimit="10"/></g><path d="m603,418c-.5-3.83-1-7.67-1.5-11.5-12.14,3.87-15,4-15,4-6,0-11-4-26,0-8,15-15,17-24,16-6.07-3.74-12.62-2.59-15,1-1.58,2.38-1.25,5.71,0,8,2.23,4.05,8.05,6.04,14,4,3.16.47,11.31,2.12,18,9,3.1,3.19,4.93,6.52,6,9,.37.87,3.58,9.63.5,16.5-5.16,11.5-24.17,9.08-25,15-1.07,7.61,30.15,13.09,31.76,29.9.11,1.11.31,3.47-.76,6.1-3.7,9.12-17.13,7.78-35,18-4.3,2.46-13.02,7.45-12.18,11.63.86,4.33,12.12,8.55,12.31,8.62.11.04.2.08.26.1-1.53-.43-17.98-5.18-19.89-11.85-2-7,32-26,32-34s-20-16-21-23,15-18,20-24-23.97-12.75-23.97-12.75c0,0-2.03,5.75-3.03,17.75s-4,23-13,24-16-17-37-22-49,37-49,37c0,0,0-14,6-29s28-26,39-31,24-26,28.87-31c4.86-4.99,21.13-35,21.13-35-8.15-7.29-10.59-18.27-6.5-26.5,4.93-9.93,16.9-10.93,18-11,8.35-.56,16.71,3.77,22.38,11.32,1.61,2.14,3,4.55,4.12,7.18,0,0,.01,0,.02-.01,3-.67,33.91-7.09,50.48,10.51,2.53,2.69,8.13,8.64,9,18,.95,10.23-4.37,17.84-6,20Z" fill="#5c1314" stroke-width="0"/><path d="m601,452s8.109-.901,8.077-1.848c-.002-.061-.035-.108-.077-.152-.936-.99-6.32-1.001-7-1-.333,1-.667,2-1,3Z" opacity=".55" stroke-width="0"/><path d="m600.5,414.5s-1,6,1,6,2.954,0,2.477-3-1.477-6-3.477-3Z" fill="#5c1314" stroke-width="0"/><path d="m603.57,428c-.28.01-.5-.21-.51-.48l-.12-3c-.01-.25.17-.47.41-.51.09,1.3.17,2.64.22,3.99Z" stroke-width="0"/><path d="m506,444s1.06,10.5,12.53,13.75" fill="none" stroke="#210708" stroke-linecap="round" stroke-miterlimit="10" stroke-width="2"/><path d="m665.07,850.91c-5.19,8.58-12.9,13.86-20.43,17.36-3.32,1.55-6.61,2.75-9.64,3.73-84.19,27.41-195.22,23.2-254.27-3.27-1.27-.56-2.51-1.14-3.73-1.73-58-28,25-179,25-179,0,0,32,34.96,104,31.48s116-23.48,116-23.48c12.33,23.06,21.38,43.87,28,61,17.25,44.61,27.77,72.91,15.07,93.91Z" fill="#ff7689" stroke-width="0"/><g clip-path="url(#clippath-1)"><rect x="392.247" y="562" width="4.809" height="453.912" fill="#ffc34b" opacity=".67" stroke-width="0"/><rect x="431.19" y="562" width="4.809" height="453.912" fill="#ffc34b" opacity=".67" stroke-width="0"/><rect x="470.133" y="562" width="4.809" height="453.912" fill="#ffc34b" opacity=".67" stroke-width="0"/><rect x="509.076" y="562" width="4.809" height="453.912" fill="#ffc34b" opacity=".67" stroke-width="0"/><rect x="548.019" y="562" width="4.809" height="453.912" fill="#ffc34b" opacity=".67" stroke-width="0"/><rect x="586.963" y="562" width="4.809" height="453.912" fill="#ffc34b" opacity=".67" stroke-width="0"/><rect x="625.906" y="562" width="4.809" height="453.912" fill="#ffc34b" opacity=".67" stroke-width="0"/><polygon points="669.661 595.92 669.292 595.92 664.851 595.92 630.714 595.92 625.904 595.92 591.775 595.92 586.965 595.92 552.828 595.92 548.018 595.92 513.889 595.92 509.079 595.92 474.942 595.92 470.132 595.92 436.003 595.92 431.193 595.92 397.056 595.92 392.246 595.92 359.519 595.92 355.087 595.92 355.087 591.11 359.519 591.11 392.246 591.11 397.056 591.11 431.193 591.11 436.003 591.11 470.132 591.11 474.942 591.11 509.079 591.11 513.889 591.11 548.018 591.11 552.828 591.11 586.965 591.11 591.775 591.11 625.904 591.11 630.714 591.11 664.851 591.11 669.292 591.11 669.661 591.11 669.661 595.92" fill="#ffc34b" opacity=".67" stroke-width="0"/><polygon points="669.661 634.867 669.292 634.867 664.851 634.867 630.714 634.867 625.904 634.867 591.775 634.867 586.965 634.867 552.828 634.867 548.018 634.867 513.889 634.867 509.079 634.867 474.942 634.867 470.132 634.867 436.003 634.867 431.193 634.867 397.056 634.867 392.246 634.867 359.519 634.867 355.087 634.867 354.71 634.867 354.71 630.057 355.087 630.057 359.519 630.057 392.246 630.057 397.056 630.057 431.193 630.057 436.003 630.057 470.132 630.057 474.942 630.057 509.079 630.057 513.889 630.057 548.018 630.057 552.828 630.057 586.965 630.057 591.775 630.057 625.904 630.057 630.714 630.057 664.851 630.057 669.292 630.057 669.661 630.057 669.661 634.867" fill="#ffc34b" opacity=".67" stroke-width="0"/><polygon points="669.661 669.004 669.292 669.004 664.851 669.004 630.714 669.004 625.904 669.004 591.775 669.004 586.965 669.004 552.828 669.004 548.018 669.004 513.889 669.004 509.079 669.004 474.942 669.004 470.132 669.004 436.003 669.004 431.193 669.004 397.056 669.004 392.246 669.004 359.519 669.004 355.087 669.004 354.71 669.004 354.71 673.814 355.087 673.814 359.519 673.814 392.246 673.814 397.056 673.814 431.193 673.814 436.003 673.814 470.132 673.814 474.942 673.814 509.079 673.814 513.889 673.814 548.018 673.814 552.828 673.814 586.965 673.814 591.775 673.814 625.904 673.814 630.714 673.814 664.851 673.814 669.292 673.814 669.661 673.814 669.661 669.004" fill="#ffc34b" opacity=".67" stroke-width="0"/><polygon points="669.661 707.943 669.292 707.943 664.851 707.943 630.714 707.943 625.904 707.943 591.775 707.943 586.965 707.943 552.828 707.943 548.018 707.943 513.889 707.943 509.079 707.943 474.942 707.943 470.132 707.943 436.003 707.943 431.193 707.943 397.056 707.943 392.246 707.943 359.519 707.943 355.087 707.943 354.71 707.943 354.71 712.753 355.087 712.753 359.519 712.753 392.246 712.753 397.056 712.753 431.193 712.753 436.003 712.753 470.132 712.753 474.942 712.753 509.079 712.753 513.889 712.753 548.018 712.753 552.828 712.753 586.965 712.753 591.775 712.753 625.904 712.753 630.714 712.753 664.851 712.753 669.292 712.753 669.661 712.753 669.661 707.943" fill="#ffc34b" opacity=".67" stroke-width="0"/><polygon points="669.661 751.7 669.292 751.7 664.851 751.7 630.714 751.7 625.904 751.7 591.775 751.7 586.965 751.7 552.828 751.7 548.018 751.7 513.889 751.7 509.079 751.7 474.942 751.7 470.132 751.7 436.003 751.7 431.193 751.7 397.056 751.7 392.246 751.7 359.519 751.7 355.087 751.7 354.71 751.7 354.71 746.89 355.087 746.89 359.519 746.89 392.246 746.89 397.056 746.89 431.193 746.89 436.003 746.89 470.132 746.89 474.942 746.89 509.079 746.89 513.889 746.89 548.018 746.89 552.828 746.89 586.965 746.89 591.775 746.89 625.904 746.89 630.714 746.89 664.851 746.89 669.292 746.89 669.661 746.89 669.661 751.7" fill="#ffc34b" opacity=".67" stroke-width="0"/><polygon points="669.661 785.829 669.292 785.829 664.851 785.829 630.714 785.829 625.904 785.829 591.775 785.829 586.965 785.829 552.828 785.829 548.018 785.829 513.889 785.829 509.079 785.829 474.942 785.829 470.132 785.829 436.003 785.829 431.193 785.829 397.056 785.829 392.246 785.829 359.519 785.829 355.087 785.829 354.71 785.829 354.71 790.639 355.087 790.639 359.519 790.639 392.246 790.639 397.056 790.639 431.193 790.639 436.003 790.639 470.132 790.639 474.942 790.639 509.079 790.639 513.889 790.639 548.018 790.639 552.828 790.639 586.965 790.639 591.775 790.639 625.904 790.639 630.714 790.639 664.851 790.639 669.292 790.639 669.661 790.639 669.661 785.829" fill="#ffc34b" opacity=".67" stroke-width="0"/><polygon points="669.661 829.586 669.292 829.586 664.851 829.586 630.714 829.586 625.904 829.586 591.775 829.586 586.965 829.586 552.828 829.586 548.018 829.586 513.889 829.586 509.079 829.586 474.942 829.586 470.132 829.586 436.003 829.586 431.193 829.586 397.056 829.586 392.246 829.586 359.519 829.586 355.087 829.586 354.71 829.586 354.71 824.776 355.087 824.776 359.519 824.776 392.246 824.776 397.056 824.776 431.193 824.776 436.003 824.776 470.132 824.776 474.942 824.776 509.079 824.776 513.889 824.776 548.018 824.776 552.828 824.776 586.965 824.776 591.775 824.776 625.904 824.776 630.714 824.776 664.851 824.776 669.292 824.776 669.661 824.776 669.661 829.586" fill="#ffc34b" opacity=".67" stroke-width="0"/><polygon points="669.661 868.525 669.292 868.525 664.851 868.525 630.714 868.525 625.904 868.525 591.775 868.525 586.965 868.525 552.828 868.525 548.018 868.525 513.889 868.525 509.079 868.525 474.942 868.525 470.132 868.525 436.003 868.525 431.193 868.525 397.056 868.525 392.246 868.525 359.519 868.525 355.087 868.525 354.71 868.525 354.71 863.715 355.087 863.715 359.519 863.715 392.246 863.715 397.056 863.715 431.193 863.715 436.003 863.715 470.132 863.715 474.942 863.715 509.079 863.715 513.889 863.715 548.018 863.715 552.828 863.715 586.965 863.715 591.775 863.715 625.904 863.715 630.714 863.715 664.851 863.715 669.292 863.715 669.661 863.715 669.661 868.525" fill="#ffc34b" opacity=".67" stroke-width="0"/><polygon points="669.661 902.662 669.292 902.662 664.851 902.662 630.714 902.662 625.904 902.662 591.775 902.662 586.965 902.662 552.828 902.662 548.018 902.662 513.889 902.662 509.079 902.662 474.942 902.662 470.132 902.662 436.003 902.662 431.193 902.662 397.056 902.662 392.246 902.662 359.519 902.662 355.087 902.662 354.71 902.662 354.71 907.472 355.087 907.472 359.519 907.472 392.246 907.472 397.056 907.472 431.193 907.472 436.003 907.472 470.132 907.472 474.942 907.472 509.079 907.472 513.889 907.472 548.018 907.472 552.828 907.472 586.965 907.472 591.775 907.472 625.904 907.472 630.714 907.472 664.851 907.472 669.292 907.472 669.661 907.472 669.661 902.662" fill="#ffc34b" opacity=".67" stroke-width="0"/><polygon points="669.661 946.411 669.292 946.411 664.851 946.411 630.714 946.411 625.904 946.411 591.775 946.411 586.965 946.411 552.828 946.411 548.018 946.411 513.889 946.411 509.079 946.411 474.942 946.411 470.132 946.411 436.003 946.411 431.193 946.411 397.056 946.411 392.246 946.411 359.519 946.411 355.087 946.411 354.71 946.411 354.71 941.601 355.087 941.601 359.519 941.601 392.246 941.601 397.056 941.601 431.193 941.601 436.003 941.601 470.132 941.601 474.942 941.601 509.079 941.601 513.889 941.601 548.018 941.601 552.828 941.601 586.965 941.601 591.775 941.601 625.904 941.601 630.714 941.601 664.851 941.601 669.292 941.601 669.661 941.601 669.661 946.411" fill="#ffc34b" opacity=".67" stroke-width="0"/><polygon points="669.661 985.358 669.292 985.358 664.851 985.358 630.714 985.358 625.904 985.358 591.775 985.358 586.965 985.358 552.828 985.358 548.018 985.358 513.889 985.358 509.079 985.358 474.942 985.358 470.132 985.358 436.003 985.358 431.193 985.358 397.056 985.358 392.246 985.358 359.519 985.358 355.087 985.358 354.71 985.358 354.71 980.548 355.087 980.548 359.519 980.548 392.246 980.548 397.056 980.548 431.193 980.548 436.003 980.548 470.132 980.548 474.942 980.548 509.079 980.548 513.889 980.548 548.018 980.548 552.828 980.548 586.965 980.548 591.775 980.548 625.904 980.548 630.714 980.548 664.851 980.548 669.292 980.548 669.661 980.548 669.661 985.358" fill="#ffc34b" opacity=".67" stroke-width="0"/></g><path d="m409.28,676c.007-19.114.782-39.864,2.72-62,1.92-21.931,4.727-42.323,8-61" fill="none" stroke="#210708" stroke-linecap="round" stroke-miterlimit="10" stroke-width="2"/><path d="m622,696c-2.011-10.817-3.569-23.237-4-37-.767-24.516,2.281-45.618,6-62" fill="none" stroke="#210708" stroke-linecap="round" stroke-miterlimit="10" stroke-width="2"/><path d="m687,611c-1.705-9.239-4.226-19.712-8-31-4.277-12.791-9.226-23.823-14-33" fill="none" stroke="#210708" stroke-linecap="round" stroke-miterlimit="10" stroke-width="2"/><path d="m143,597s-23.439,43-16.72,79h125.72s-10.739-53-25.369-79h-83.631Z" fill="#ff7689" stroke-width="0"/><polygon points="143 597 197 652 226.631 597 143 597" fill="#ffc34b" stroke-width="0"/><rect x="189" y="639" width="12" height="16" rx="2.621" ry="2.621" fill="#fbefcf" stroke-width="0"/><path d="m189,528c-3.14,5.57-5.64,10.77-7.63,15.45-1.86,4.34-3.27,8.24-4.37,11.55-6.44,19.47-9.38,42-9.38,42h-15.93s7.05-48,14.68-56c2.83-2.97,6.68-5.53,10.4-7.57,6.3-3.45,12.23-5.43,12.23-5.43Z" fill="#e7bbcf" stroke-width="0"/><path d="m215.72,597h-19.36s-4.63-44.1-14.99-53.55c1.99-4.68,4.49-9.88,7.63-15.45.654-.113,1.735-.231,3,0,3.428.626,10.237,4.18,19,44,1.364,6.198,3.094,14.721,4.72,25Z" fill="#7666c5" stroke-width="0"/><path d="m729,511l-9.05,37.64-48.95-1.46c11.67-14.39,23.33-28.79,35-43.18-.15-2.07-.3-4.14-.45-6.21-.43-5.81-.85-11.62-1.28-17.43,0-1.46.41-2.86,1.14-4.06.73-1.21,1.79-2.22,3.09-2.89,3.95-2.06,8.71-.37,10.6,3.46.06.12.12.25.18.38.08.19.15.38.22.58.05.12.09.25.13.38l.04.15,1.74,6.08,7.59,26.56Z" fill="#d08051" stroke-width="0"/><path d="m732,471.26l-10.59,13.18-1.74-6.08-.04-.15c-.04-.13-.08-.26-.13-.38l7.55-10.79c1.65,1.41,3.3,2.81,4.95,4.22Z" fill="#e7bbcf" stroke-width="0"/><path d="m727.05,467.04l-7.55,10.79c-.11-.33-.25-.66-.4-.96,2.64-3.29,5.26-6.58,7.9-9.87.02.01.03.03.05.04Z" fill="#f8dbc6" stroke-width="0"/><path d="m706,504c-11.667,14.393-23.333,28.787-35,43.18,11.667-17.06,23.333-34.12,35-51.18v8Z" fill="#e7bbcf" stroke-width="0"/><path d="m729,464.25l-1.95,2.79-7.55,10.79c-.11-.33-.25-.66-.4-.96-1.89-3.83-6.65-5.52-10.6-3.46-1.3.67-2.36,1.68-3.09,2.89-.73,1.2-1.14,2.6-1.14,4.06.43,5.81.85,11.62,1.28,17.43l-34.55,49.39-6-.18s-28-50-44-55c-4.01-1.25-10.35-2.13-17.59-2.74,2.09-3.42,4.48-7.88,6.59-13.26,3.13-7.98,9.13-23.25,3-29-.92-.86-2.76-2.12-6.5-2.21l9.15-14.29s24.35-4.5,52.35,12.5c36,1,61,21.25,61,21.25Z" fill="#fbefcf" stroke-width="0"/><line x1="665" y1="450.5" x2="635.539" y2="498.83" fill="none" stroke="#fff" stroke-miterlimit="10" stroke-width="3"/><path d="m696,520c.481-2.539,1.82-7.56,6-12,1.72-1.827,3.499-3.109,5-4-.333-5-.667-10-1-15" fill="none" stroke="#210708" stroke-linecap="round" stroke-miterlimit="10" stroke-width="2"/><line x1="362.5" y1="872" x2="362.5" y2="871" fill="none" stroke="#3e664e" stroke-miterlimit="10" stroke-width="3"/><path d="m646,870c.69,7.95-65.08,25.32-135,25-67.68-.31-131.69-17.15-131-25,.04-.44.29-.86.73-1.27,59.05,26.47,170.08,30.68,254.27,3.27,3.03-.98,6.32-2.18,9.64-3.73.84.53,1.31,1.11,1.36,1.73Z" fill="#5e54a8" stroke-width="0"/><path d="m934.65,670h-40.02c-1.104-1.924-2.258-4.387-3.139-7.412-2.822-9.688-.944-18.58,0-22.176,4.214-3.938,8.177-6.148,10.986-7.412,2.656-1.195,7.223-3.189,13.34-3,4.289.133,7.474,1.281,9.416,2,3.21,1.188,8.103,3.533,13.34,8.412.806,2.644,3.452,12.273,0,22.176-1.124,3.225-2.611,5.665-3.924,7.412Z" fill="#ffc34b" stroke-width="0"/><path d="m895.515,670h-8.031c-1.107-.241-2.493-.696-3.874-1.611-5.576-3.699-8.284-13.084-4.611-20.389,2.935-5.837,9.465-9.392,16.515-9,3.017,0,5.485,2.468,5.485,5.485v20.031c0,3.017-2.468,5.485-5.485,5.485Z" fill="#ffc34b" stroke-width="0"/><path d="m894,639c-1.269,2.626-3.846,8.872-3,17,.701,6.731,3.42,11.59,5,14" fill="none" stroke="#c19444" stroke-linecap="round" stroke-miterlimit="10" stroke-width="2"/><path d="m935.485,670h8.031c1.107-.241,2.493-.696,3.874-1.611,5.576-3.699,8.284-13.084,4.611-20.389-2.935-5.837-9.465-9.392-16.515-9-3.017,0-5.485,2.468-5.485,5.485v20.031c0,3.017,2.468,5.485,5.485,5.485Z" fill="#ffc34b" stroke-width="0"/><path d="m937.102,639.082c1.269,2.626,3.846,8.872,3,17-.701,6.731-3.42,11.59-5,14" fill="none" stroke="#c19444" stroke-linecap="round" stroke-miterlimit="10" stroke-width="2"/><path d="m877.688,651.764c-5.92-.188-8.985,1.542-10.688,3.236-4.836,4.811-4.915,15.526-4.806,15h27.806l-12.312-18.236Z" fill="#ffc34b" stroke-width="0"/><path d="m953.363,651.764c5.92-.188,8.985,1.542,10.688,3.236,4.836,4.811,4.915,15.526,4.806,15h-27.806l12.312-18.236Z" fill="#ffc34b" stroke-width="0"/><path d="m877,652c-.559,1.453-1.447,4.353-1,8,.589,4.805,3.135,7.96,4.167,9.112" fill="none" stroke="#c19444" stroke-linecap="round" stroke-miterlimit="10" stroke-width="2"/><path d="m954,652c.626,1.531,1.925,5.307,1,10-.666,3.382-2.201,5.786-3.165,7.069" fill="none" stroke="#c19444" stroke-linecap="round" stroke-miterlimit="10" stroke-width="2"/><rect x="829" y="670" width="174" height="6" rx="3" ry="3" fill="#fbefcf" stroke-width="0"/><path d="m569,945c-12.839,2.68-28.738,4.891-47,5-14.764.088-27.904-1.216-39-3-3.283-5.317-6.567-10.633-9.85-15.95,12.11,1.08,24.57,1.73,36.94,1.81,18.33.13,36.72-.97,54-2.87,1.637,5.003,3.273,10.007,4.91,15.01Z" fill="#5c1314" opacity=".52" stroke-width="0"/><path d="m738.553,630h51.893c1.409,0,2.553,1.144,2.553,2.553v33.315c0,5.592-4.54,10.131-10.131,10.131h-36.738c-5.592,0-10.131-4.54-10.131-10.131v-33.315c0-1.409,1.144-2.553,2.553-2.553Z" fill="#97a758" stroke-width="0"/><path d="m792,641.5h6.439c5.247,0,9.5,4.253,9.5,9.5s-4.253,9.5-9.5,9.5h-6.439" fill="none" stroke="#97a758" stroke-miterlimit="10" stroke-width="5"/><circle cx="536" cy="443" r="5" fill="#ffc34b" stroke-width="0"/><path d="m549.5,369.5s-20.5,2.5-38,19c3.858-4.027,9.291-8.933,16.5-13.5,7.36-4.663,14.259-7.506,19.624-9.274.625,1.258,1.251,2.516,1.876,3.774Z" fill="#3d0c0e" stroke-width="0"/><path d="m1080,676c-12.038-.987-32.884-1.062-56,8-10.048,3.939-53.427,20.946-66.882,64.273-11.109,35.772,2.084,76.918,32.882,105.227-30.966-37.482-78.918-48.499-112-30.5-33.345,18.142-41.609,59.338-39,87,4.29,45.48,39.724,70.416,45,74-40.522-19.044-87.407-14.233-120.163,12.463-37.618,30.659-39.638,76.358-39.837,83.537h356v-404Z" fill="#97a758" stroke-width="0"/><path d="m330.57,483.86c-20.54,35.28-105.45,28.86-161.35-.52-15.32-8.05-28.31-17.75-39.29-28.07-30.99-29.06-45.97-62.94-51.93-78.27,10.98-10,37.33-31.27,77.39-38.79,4.18-.79,10.79-1.84,19.1-2.38l.13-.01c20.21-1.3,50.43.48,80.34,16.69,53.32,28.89,95.03,97.99,75.61,131.35Z" fill="#e3de3d" stroke-width="0"/><path d="m399.26,206.04h-.01c-16.12,25.1-37.22,49.23-60.25,67.52-99.29,78.85-229.13,44.82-248.44,39.43,2.33-12.18,6.44-30.3,14.01-51.21,13.53-37.37,38.09-83.64,83.2-120.92,78.31-64.73,204.12-90.39,234.92-48.61,17.59,23.88,4.54,70.28-23.43,113.79Z" fill="#97a758" stroke-width="0"/><path d="m104.57,311.01h-.01c-.42.13-21.21,6.71-45.59,25.9-10.37,8.16-22.39,19.45-33.97,34.52-5.49,7.14-10.88,15.14-15.94,24.06-3.17,5.57-6.21,11.51-9.06,17.82v-31.97c16.21-26.39,34.92-44.67,50.28-56.68,26.63-20.8,48.98-27.72,49.92-28l2.18,7.17,2.19,7.18Z" fill="#97a758" stroke-width="0"/><path d="m97.29,370.86l-4.58,14.28c-14.68-4.72-30.44-6-45.59-3.72-15.84,2.38-28.62,8.19-38.06,14.07-3.39,2.11-6.35,4.23-8.87,6.2l-.19-.24v-17.97c6.77-4.33,15.14-8.69,25-12.05,6.06-2.07,12.69-3.77,19.88-4.85,17.43-2.62,35.55-1.14,52.41,4.28Z" fill="#e3de3d" stroke-width="0"/><path d="m814,0c-8.984,12.266-93.97,130.01-60.778,168.579,3.954,4.594,9.171,8.584,18.235,10.25,82.542,15.171,183.508-73.483,183.508-73.483-2.822,4.538-21.977,36.507-8.965,72.654,2.137,5.936,10.785,29.961,28,36,26.9,9.436,72.554-25.801,106-93V0h-266Z" fill="#045159" stroke-width="0"/></g></svg>