<?xml version="1.0" encoding="UTF-8"?><svg id="Layer_1" xmlns="http://www.w3.org/2000/svg" viewBox="0 0 2160 2160"><line x1="769.816" y1="1224.747" x2="620.426" y2="1181.214" fill="none" stroke="#fff" stroke-miterlimit="10" stroke-width=".583"/><path d="m1412.278,594.196s8.595-11.964,16.994-12.288-16.994,12.288-16.994,12.288Z" fill="#dd750e" stroke-width="0"/><path d="m1462.19,580.602s-9.18,6.145-15.031,7.045" fill="none" stroke="#151516" stroke-miterlimit="10" stroke-width=".849"/><rect x=".099" y=".49" width="2159.02" height="2159.021" fill="#eadfd8" stroke-width="0"/><path d="m1514.559,658.676h-876.226c-187.412,0-349.264,115-418.476,277.917-23.074,54.309-35.851,113.939-35.851,176.409,0,249.878,204.445,454.327,454.327,454.327h876.226c187.407,0,349.264-115.004,418.476-277.922,23.073-54.304,35.851-113.935,35.851-176.405,0-249.882-204.449-454.327-454.327-454.327Zm115.924,502.148c-3.165,7.447-7.097,14.653-11.681,21.425-.005.004-.009.013-.013.017-4.62,6.825-9.937,13.264-15.806,19.129l-.031.031c-5.869,5.869-12.308,11.19-19.146,15.819-6.772,4.585-13.969,8.512-21.386,11.664-15.109,6.417-31.213,9.674-47.861,9.674h-876.226c-16.639,0-32.73-3.248-47.822-9.656-7.447-3.165-14.653-7.097-21.425-11.681-.005-.005-.013-.009-.018-.013-6.825-4.62-13.264-9.937-19.129-15.806l-.031-.031c-5.869-5.869-11.191-12.308-15.819-19.146-4.585-6.772-8.512-13.969-11.664-21.386-6.417-15.109-9.674-31.213-9.674-47.861s3.248-32.73,9.656-47.822c3.165-7.447,7.097-14.653,11.681-21.425.004-.004.009-.013.013-.017,4.62-6.825,9.937-13.264,15.806-19.129.009-.009.022-.022.031-.031,5.869-5.869,12.308-11.191,19.146-15.819,6.772-4.585,13.969-8.512,21.386-11.664,15.109-6.417,31.213-9.674,47.861-9.674h876.226c16.639,0,32.73,3.248,47.821,9.656,7.447,3.165,14.653,7.096,21.426,11.681.004.005.013.009.017.013,6.825,4.62,13.264,9.937,19.129,15.806.009.009.022.022.031.031,5.869,5.869,11.19,12.308,15.819,19.146,4.585,6.772,8.512,13.969,11.664,21.386,6.417,15.109,9.674,31.213,9.674,47.861s-3.248,32.73-9.656,47.822Z" fill="#632c93" stroke-width="0"/><path d="m1514.559,627.201h-876.226c-187.412,0-349.264,115-418.476,277.917-23.074,54.309-35.851,113.939-35.851,176.409,0,249.878,204.445,454.327,454.327,454.327h876.226c187.407,0,349.264-115.004,418.476-277.922,23.073-54.304,35.851-113.935,35.851-176.405,0-249.882-204.449-454.327-454.327-454.327Zm115.924,502.149c-3.165,7.447-7.097,14.653-11.681,21.425-.004.004-.009.013-.013.018-4.62,6.825-9.937,13.264-15.806,19.129l-.031.031c-5.869,5.869-12.308,11.191-19.146,15.819-6.772,4.585-13.969,8.512-21.386,11.664-15.109,6.417-31.213,9.674-47.861,9.674h-876.226c-16.639,0-32.73-3.248-47.822-9.656-7.447-3.165-14.653-7.097-21.425-11.681-.004-.004-.013-.009-.018-.013-6.825-4.62-13.264-9.937-19.129-15.806l-.031-.031c-5.869-5.869-11.191-12.308-15.819-19.146-4.585-6.772-8.512-13.969-11.664-21.386-6.417-15.109-9.674-31.213-9.674-47.861s3.248-32.73,9.656-47.822c3.165-7.447,7.097-14.653,11.681-21.426.004-.004.009-.013.013-.018,4.62-6.825,9.937-13.264,15.806-19.129l.031-.031c5.869-5.869,12.308-11.191,19.146-15.819,6.772-4.585,13.969-8.512,21.386-11.664,15.109-6.417,31.213-9.674,47.861-9.674h876.226c16.639,0,32.73,3.248,47.821,9.656,7.447,3.165,14.653,7.097,21.425,11.681.004.004.013.009.018.013,6.825,4.62,13.264,9.937,19.129,15.806.009.009.022.022.031.031,5.869,5.869,11.191,12.308,15.819,19.146,4.585,6.772,8.512,13.97,11.664,21.386,6.417,15.109,9.674,31.213,9.674,47.861s-3.248,32.73-9.656,47.822Z" fill="#9a6fc9" stroke-width="0"/><path d="m1832.18,947.969c-8.67-20.4-19.4-40.107-31.901-58.569-12.405-18.322-26.65-35.566-42.338-51.254-15.688-15.688-32.932-29.933-51.254-42.338-18.462-12.501-38.17-23.231-58.569-31.901-42.364-17.998-87.302-27.124-133.558-27.124h-876.226c-46.257,0-91.194,9.126-133.559,27.124-20.4,8.67-40.107,19.4-58.569,31.901-18.322,12.405-35.566,26.65-51.254,42.338-15.688,15.688-29.933,32.932-42.338,51.254-12.501,18.462-23.231,38.17-31.902,58.569-17.998,42.364-27.124,87.302-27.124,133.559s9.126,91.194,27.124,133.559c8.67,20.4,19.4,40.107,31.902,58.569,12.405,18.322,26.65,35.566,42.338,51.254s32.932,29.933,51.254,42.338c18.462,12.501,38.17,23.231,58.569,31.902,42.364,17.998,87.302,27.124,133.559,27.124h876.226c46.257,0,91.194-9.126,133.558-27.124,20.4-8.67,40.107-19.4,58.569-31.902,18.322-12.405,35.566-26.65,51.254-42.338,15.688-15.688,29.933-32.932,42.338-51.254,12.501-18.462,23.231-38.17,31.901-58.569,17.998-42.364,27.124-87.302,27.124-133.559s-9.126-91.194-27.124-133.559Zm-201.697,181.38c-3.165,7.447-7.097,14.653-11.681,21.425-.004.004-.009.013-.013.018-4.62,6.825-9.937,13.264-15.806,19.129l-.031.031c-5.869,5.869-12.308,11.191-19.146,15.819-6.772,4.585-13.969,8.512-21.386,11.664-15.109,6.417-31.213,9.674-47.861,9.674h-876.226c-16.639,0-32.73-3.248-47.822-9.656-7.447-3.165-14.653-7.097-21.425-11.681-.004-.004-.013-.009-.018-.013-6.825-4.62-13.264-9.937-19.129-15.806l-.031-.031c-5.869-5.869-11.191-12.308-15.819-19.146-4.585-6.772-8.512-13.969-11.664-21.386-6.417-15.109-9.674-31.213-9.674-47.861s3.248-32.73,9.656-47.822c3.165-7.447,7.097-14.653,11.681-21.426.004-.004.009-.013.013-.018,4.62-6.825,9.937-13.264,15.806-19.129l.031-.031c5.869-5.869,12.308-11.191,19.146-15.819,6.772-4.585,13.969-8.512,21.386-11.664,15.109-6.417,31.213-9.674,47.861-9.674h876.226c16.639,0,32.73,3.248,47.821,9.656,7.447,3.165,14.653,7.097,21.425,11.681.004.004.013.009.018.013,6.825,4.62,13.264,9.937,19.129,15.806.009.009.022.022.031.031,5.869,5.869,11.191,12.308,15.819,19.146,4.585,6.772,8.512,13.97,11.664,21.386,6.417,15.109,9.674,31.213,9.674,47.861s-3.248,32.73-9.656,47.822Z" fill="#9a6fc9" stroke="#e79df4" stroke-miterlimit="10" stroke-width="1.628"/><path d="m1731.321,990.816c-5.913-13.913-13.242-27.365-21.78-39.975-8.517-12.58-18.3-24.424-29.087-35.207-10.783-10.787-22.627-20.571-35.202-29.083-12.615-8.543-26.067-15.872-39.997-21.794-28.724-12.203-59.24-18.392-90.694-18.392h-876.226c-31.454,0-61.971,6.189-90.712,18.401-13.913,5.913-27.365,13.242-39.976,21.781-12.58,8.517-24.424,18.3-35.206,29.087-10.787,10.783-20.571,22.627-29.083,35.202-8.543,12.615-15.872,26.067-21.794,39.997-12.203,28.724-18.392,59.24-18.392,90.694s6.189,61.971,18.401,90.712c5.913,13.913,13.242,27.365,21.78,39.976,8.517,12.58,18.3,24.424,29.087,35.206,10.783,10.787,22.626,20.571,35.202,29.083,12.615,8.543,26.067,15.872,39.997,21.794,28.724,12.203,59.24,18.392,90.694,18.392h876.226c31.454,0,61.971-6.189,90.712-18.401,13.912-5.913,27.365-13.242,39.976-21.78,12.58-8.517,24.424-18.3,35.206-29.087,10.787-10.783,20.571-22.626,29.083-35.202,8.543-12.615,15.872-26.067,21.794-39.997,12.203-28.724,18.392-59.24,18.392-90.694s-6.189-61.971-18.401-90.712Zm-100.837,138.534c-3.165,7.447-7.097,14.653-11.681,21.425-.004.004-.009.013-.013.018-4.62,6.825-9.937,13.264-15.806,19.129l-.031.031c-5.869,5.869-12.308,11.191-19.146,15.819-6.772,4.585-13.969,8.512-21.386,11.664-15.109,6.417-31.213,9.674-47.861,9.674h-876.226c-16.639,0-32.73-3.248-47.822-9.656-7.447-3.165-14.653-7.097-21.425-11.681-.004-.004-.013-.009-.018-.013-6.825-4.62-13.264-9.937-19.129-15.806l-.031-.031c-5.869-5.869-11.191-12.308-15.819-19.146-4.585-6.772-8.512-13.969-11.664-21.386-6.417-15.109-9.674-31.213-9.674-47.861s3.248-32.73,9.656-47.822c3.165-7.447,7.097-14.653,11.681-21.426.004-.004.009-.013.013-.018,4.62-6.825,9.937-13.264,15.806-19.129l.031-.031c5.869-5.869,12.308-11.191,19.146-15.819,6.772-4.585,13.969-8.512,21.386-11.664,15.109-6.417,31.213-9.674,47.861-9.674h876.226c16.639,0,32.73,3.248,47.821,9.656,7.447,3.165,14.653,7.097,21.425,11.681.004.004.013.009.018.013,6.825,4.62,13.264,9.937,19.129,15.806.009.009.022.022.031.031,5.869,5.869,11.191,12.308,15.819,19.146,4.585,6.772,8.512,13.97,11.664,21.386,6.417,15.109,9.674,31.213,9.674,47.861s-3.248,32.73-9.656,47.822Z" fill="#9a6fc9" stroke="#e79df4" stroke-miterlimit="10" stroke-width="1.628"/><path d="m1625.579,1350.998h360.776s33.415-28.341,12.378-54.28c-21.037-25.939-67.215,4.261-67.215,4.261,0,0,59.366-83.624,25.333-111.365-34.033-27.741-128.851,91.122-128.851,91.122,0,0,32.864-89.838,5.984-89.674-26.88.165-101.753,108.555-101.753,108.555,0,0,15.017-69.661-25.461-69.456s-81.191,120.837-81.191,120.837Z" fill="#fff" stroke-width="0"/><path d="m104.666,896.241h269.899s34.731-67.771,10.853-79.167c-23.877-11.396-57.248,39.583-57.248,39.583,0,0,18.176-91.68-38.804-87.881-56.98,3.799-107.126,87.014-107.126,87.014,0,0,6.732-34.917-14.974-38.716-21.707-3.799-62.6,79.167-62.6,79.167Z" fill="#fff" stroke-width="0"/><line x1="1034.319" y1="1204.832" x2="695.328" y2="1424.084" fill="none" stroke="#fff" stroke-linecap="round" stroke-linejoin="round" stroke-width="5.427"/><polyline points="695.328 1424.084 695.328 1138.964 1034.319 919.712 1034.319 1204.832" fill="none" stroke="#fff" stroke-linecap="round" stroke-linejoin="round" stroke-width="5.427"/><line x1="587.037" y1="1424.084" x2="803.093" y2="1424.084" fill="none" stroke="#fff" stroke-linecap="round" stroke-miterlimit="10" stroke-width="5.427"/><line x1="756.892" y1="1315.55" x2="972.949" y2="1315.55" fill="none" stroke="#fff" stroke-linecap="round" stroke-miterlimit="10" stroke-width="5.427"/><line x1="864.823" y1="1314.458" x2="864.823" y2="1029.422" fill="none" stroke="#fff" stroke-linecap="round" stroke-linejoin="round" stroke-width="5.427"/><line x1="926.028" y1="1206.825" x2="1142.084" y2="1206.825" fill="none" stroke="#fff" stroke-linecap="round" stroke-miterlimit="10" stroke-width="5.427"/><path d="m1483.934,670.849c-12.259-7.172-24.518-14.344-36.777-21.516-7.89,13.527-15.779,27.055-23.669,40.582,10.573,5.602,21.145,11.204,31.718,16.806,9.576-11.957,19.152-23.914,28.728-35.872Z" fill="#efa91d" stroke-width="0"/><ellipse cx="1458.065" cy="800.285" rx="73.874" ry="93.558" transform="translate(-200.76 679.008) rotate(-24.58)" fill="#3d1e1c" stroke-width="0"/><path d="m1608.348,764.796c-17.534,5.861-35.062,11.722-52.595,17.588-3.072-4.645-6.132-9.025-9.182-13.154-10.11-13.74-19.992-24.751-29.212-33.613-2.355-2.268-4.672-4.396-6.935-6.393-.619-.548-1.232-1.08-1.84-1.606-3.972-3.424-7.776-6.447-11.38-9.122-.44-.331-.879-.657-1.313-.971-1.232-.901-2.442-1.764-3.62-2.583-6.203-4.32-16.72-11.098-26.092-21.924-1.031-1.188-2.051-2.431-3.05-3.723-3.853-4.993-7.397-10.756-10.202-17.409-3.772-8.943-5.177-17.018-5.769-22.553.689-1.036,1.541-2.274,2.561-3.636,1.074-1.438,2.333-3.028,3.782-4.705.027-.033.054-.071.087-.103,0,0,1.525-1.84,4.086-4.428,3.918-3.962,10.267-9.681,17.284-13.241l.163-.081c22.559-11.168,70.71,21.191,98.88,58.619,2.078,2.762,4.396,6.013,6.827,9.763,2.469,3.804,5.058,8.124,7.635,12.964,6.876,12.915,13.692,29.559,18.006,50.105.694,3.299,1.324,6.702,1.878,10.208Z" fill="#fc331f" stroke-width="0"/><path d="m1466.722,649.664c-2.822.537-5.731-1.091-8.107-3.093h-.006c-2.653-2.236-4.64-4.922-5.107-5.579.027-.033.054-.071.087-.103,0,0,0,0,0,0,2.584-3.113,3.835-7.123,3.459-11.15l-.984-10.55c-.065.076-.098.119-.098.119-.011.646-.054,1.286-.114,1.921,0,0-.005.06-.016.163-.011.06-.016.125-.022.19-.727,6.083-3.886,11.624-8.634,15.357v.005l-.081.206c-.033-.022-.07-.038-.103-.06-.445-.266-.895-.526-1.341-.792l-1.742-1.026c-.722-.423-1.438-.847-2.16-1.27,1.167-1.53,2.334-3.061,3.5-4.591,1.259-1.655,2.523-3.305,3.783-4.96.011-.016.027-.038.038-.054,1.693-2.22,3.386-4.434,5.074-6.653.515-.673,1.025-1.346,1.541-2.019.016-.022.027-.038.049-.06v-.005c.027-.033.049-.065.076-.098l.098-.13c.022.011.049.016.07.027.722.288,1.438.581,2.16.868,5.66,2.268,11.32,4.537,16.98,6.811,3.044,14.609-2.442,25.386-8.401,26.526Z" fill="#f9a2c9" stroke-width="0"/><path d="m1463.629,599.961c-.125.977-.342,1.856-.597,2.621-.744,2.23-1.797,3.517-1.797,3.517,0,0,.885,2.062-.174,5.025-.049.136-.103.271-.157.412-.608,1.492-1.731,3.294-2.762,4.792-.939,1.378-1.796,2.491-2.078,2.854v.005c-.065.076-.098.119-.098.119l-1.275-1.096-.543-.467-.293-.25-4.26-3.663-4.124-3.544-7.814-6.707.293-1.199,1.644-6.783,11.716-1.031,10.066-.885s2.746,2.464,2.252,6.279Z" fill="#822519" stroke-width="0"/><path d="m1461.062,611.123c-1.4,1.764-3.261,3.223-5.079,4.336-.054.038-.114.07-.168.103-.027.016-.054.033-.081.049v.005l.005.043v.005c.114.754.185,1.503.212,2.252v.022c.022.456.027.912.016,1.368-.011.646-.054,1.286-.114,1.921,0,0-.005.06-.016.163-.011.06-.016.125-.022.19-.727,6.083-3.886,11.624-8.634,15.357v.005c-.06.049-.125.098-.184.147-.483.369-.982.727-1.498,1.058-1.281.836-2.653,1.547-4.108,2.111-.011,0-.016.005-.027.011-.315.125-.635.239-.961.353h-.006c-.526.179-1.064.337-1.612.478-.488.13-.977.239-1.471.331-11.944,2.257-23.574-5.307-26.488-16.964-.109-.429-.206-.857-.288-1.297l-1.992-10.555-.63-3.327-.336-1.791c-2.344-12.389,5.877-24.436,18.266-26.775,10.837-2.051,21.425,3.994,25.462,13.843.412.998.754,2.04,1.025,3.12,0,.005.006.016.006.022-1.208.383-2.417.767-3.625,1.15.724,1.085,1.447,2.171,2.171,3.256.543-.181,1.085-.362,1.628-.543.318-.441.84-1.065,1.628-1.628.444-.317,2.627-1.877,5.155-1.183.266.073,1.198.354,2.091,1.152.878.784,1.366,1.767,1.642,2.669.136.434.217.852.271,1.221.407,2.795-.603,5.264-2.241,7.321Z" fill="#f9a2c9" stroke-width="0"/><rect x="1427.122" y="611.634" width="2.548" height="3.397" rx="1.274" ry="1.274" transform="translate(2872.552 1188.578) rotate(178.481)" fill="#151516" stroke-width="0"/><rect x="1411.392" y="613.163" width="2.327" height="3.103" rx="1.164" ry="1.164" transform="translate(2840.912 1191.762) rotate(178.481)" fill="#151516" stroke-width="0"/><path d="m1419.252,614.965c-.083,2.101-.165,4.202-.248,6.303" fill="none" stroke="#151516" stroke-linecap="round" stroke-miterlimit="10" stroke-width="1.085"/><path d="m1452.475,612.634s1.091-4.561,6.748-9.375" fill="none" stroke="#f47d9f" stroke-linecap="round" stroke-miterlimit="10" stroke-width="1.085"/><line x1="1460.42" y1="606.352" x2="1455.82" y2="606.709" fill="none" stroke="#f47d9f" stroke-linecap="round" stroke-miterlimit="10" stroke-width="1.085"/><path d="m1462.191,580.603s1.335,8.042-.814,13.078c-3.147,1.753-7.467,3.544-12.471,5.269-1.444.505-2.947,1.004-4.499,1.492-7.646,2.42-16.41,4.678-24.881,6.528h-.011c-6.838,1.498-13.491,2.724-19.216,3.555-5.226.76-9.681,1.188-12.807,1.183l7.944-9.866s.049-13.431,11.228-23.997c11.185-10.566,47.771-15.396,53.583-14.039,5.817,1.362,1.943,16.796,1.943,16.796Z" fill="#afcca9" stroke-width="0"/><path d="m1440.398,640.623c9.692-2.865,10.062-22.185,8.507-41.67-1.443.504-2.946,1-4.496,1.49.073.473,5.067,33.756-4.011,40.18Z" fill="#ab4727" stroke-width="0"/><path d="m1448.819,626.35l7.148-7.046c.15-.322.436-1.049.347-1.994-.077-.811-.393-1.4-.58-1.695-2.141,2.14-4.282,4.28-6.423,6.42l-.492,4.316Z" fill="#ab4727" stroke-width="0"/><path d="m1412.278,594.196s8.595-11.964,16.994-12.288-16.994,12.288-16.994,12.288Z" fill="#50247f" stroke-width="0"/><path d="m1513.289,718.636c-22.997-.202-45.993-.404-68.99-.605-8.13,16.805-16.26,33.61-24.391,50.414,26.464.629,52.928,1.259,79.392,1.888,4.663-17.232,9.326-34.465,13.988-51.697Z" fill="#4b4b85" stroke-width="0"/><path d="m1401.635,595.418s5.42-13.408,10.932-15.134-10.932,15.134-10.932,15.134Z" fill="#50247f" stroke-width="0"/><path d="m1223.9,808.926c-.081-.179-.163-.358-.25-.532-1.623-3.511-3.419-6.87-5.362-10.077-20.605-34.047-57.686-50.463-87.229-36.95-32.468,14.853-43.538,60.22-24.729,101.343,18.804,41.118,60.372,62.412,92.84,47.56,32.468-14.853,43.538-60.22,24.729-101.343Zm-29.049,91.895c-14.527,6.648-31.138,5.003-46.094-3.006-14.234-7.624-26.965-21.012-34.97-38.519-1.443-3.158-2.686-6.349-3.733-9.545-5.66-17.289-5.551-34.812-.483-49.296,4.645-13.268,13.453-23.986,25.815-29.641,2.404-1.102,4.868-1.975,7.375-2.627,14.039-3.674,29.347-.467,42.92,8.08,9.833,6.192,18.749,15.189,25.619,26.401,1.829,2.985,3.511,6.127,5.025,9.415.043.087.081.168.119.255.993,2.165,1.888,4.347,2.692,6.539,5.4,14.717,6.572,29.749,4.01,43.055-3.365,17.474-13.171,31.974-28.295,38.888Z" fill="#603c99" stroke-width="0"/><circle cx="1168.075" cy="832.478" r="7.055" fill="#fff" stroke-width="0"/><path d="m1323.172,757.929c1.499,1.591,3.823,3.694,7.093,5.333,4.285,2.152,8.524,2.58,11.87,2.572,2.132-.005,3.9-.186,5.085-.211,1.193-.025,3.349-.39,6.233-1.013,5.644-1.222,14.069-3.445,23.478-6.073,27.236-7.607,62.697-18.615,62.697-18.615l15.578-33.201-31.718-16.806-15.996,32.348c-13.453,5-26.906,9.996-40.359,14.996-14.36,5.337-28.716,10.674-43.076,16.007-.297,1.556-.589,3.108-.885,4.664Z" fill="#ea86b8" stroke-width="0"/><line x1="1321.069" y1="756.17" x2="1345.019" y2="750.556" fill="none" stroke="#151516" stroke-miterlimit="10" stroke-width="6.682"/><path d="m1323.172,757.929c1.499,1.591,3.823,3.694,7.093,5.333,4.285,2.152,8.524,2.58,11.87,2.572l11.317-1.225,25.028-2.711-1.549-3.362-9.797-21.278c-14.36,5.337-28.716,10.674-43.076,16.007-.297,1.556-.589,3.108-.885,4.664Z" fill="#e5defa" stroke-width="0"/><path d="m1360.222,744.203c-5.18,1.117-11.106,2.802-17.452,5.385-3.594,1.463-6.862,3.027-9.802,4.595.036.011,4.103,1.281,4.139,1.292.015.005,2.674.834,2.689.839,2.503-.056,10.981-.562,16.99-7.042,1.58-1.704,2.672-3.479,3.436-5.069Z" fill="#fff" stroke-width="0"/><path d="m1256.973,763.534h12.314v7.521c0,3.398-2.759,6.157-6.157,6.157h0c-3.398,0-6.157-2.759-6.157-6.157v-7.521h0Z" transform="translate(1474.172 2234.762) rotate(-129.58)" fill="#3d1e1c" stroke-width="0"/><path d="m1263.069,771.015l9.386,3.28,48.614-18.126c13.162-.025,26.323-.049,39.485-.074" fill="none" stroke="#3d1e1c" stroke-miterlimit="10" stroke-width="6.682"/><line x1="1142.762" y1="768.188" x2="1194.85" y2="900.824" fill="none" stroke="#fff" stroke-miterlimit="10" stroke-width="1.085"/><line x1="1110.055" y1="849.75" x2="1219.133" y2="818.878" fill="none" stroke="#fff" stroke-miterlimit="10" stroke-width="1.085"/><line x1="1148.757" y1="897.813" x2="1185.679" y2="776.27" fill="none" stroke="#fff" stroke-miterlimit="10" stroke-width="1.085"/><line x1="1223.143" y1="861.931" x2="1109.571" y2="800.457" fill="none" stroke="#fff" stroke-miterlimit="10" stroke-width="1.085"/><polyline points="1502.042 745.301 1476.767 772.027 1417.804 771.57 1418.048 734.459" fill="none" stroke="#7c7cd4" stroke-miterlimit="10" stroke-width="4.246"/><path d="m1166.486,830.568l57.365-35.713,30.109-24.89,7.846,9.491-.72.595,168.492,2.966,9.418-11.283,12.762.099-8.176,11.431,68.285,1.202-.374,21.228-275.568-4.843-4.228,3.495-62.325,31.364c-1.49.75-3.305.117-4.005-1.397-.625-1.352-.145-2.958,1.119-3.745Z" fill="#fffce3" stroke-width="0"/><path d="m1512.703,672.314c-1.954,5.492-3.945,11.011-5.98,16.546-.884,2.426-1.785,4.846-2.681,7.255-7.695,20.638-15.661,40.716-23.845,60.236-.065.157-.13.309-.196.467-2.404,5.736-8.107,9.394-14.326,9.215-2.442-.071-4.889-.141-7.331-.212-25.153-.733-50.306-1.465-75.458-2.203-2.089-.06-4.168-.119-6.252-.179-4.7,3.43-11.45,7.104-20.025,8.335-5.671.819-12.047,1.737-17.392-2.258-4.282-3.202-5.752-7.961-6.29-10.24,6.127-5.047,21.17-10.029,27.296-15.075,4.634-1.65,9.274-3.299,13.914-4.955,10.967-2.062,22.798-3.885,35.42-5.28,13.887-1.53,26.965-2.344,39.088-2.67,5.324-15.444,10.653-30.883,15.976-46.328,4.048-11.738,8.097-23.481,12.145-35.219,6.073-9.893,16.98-14.484,25.256-11.885,10.848,3.413,18.288,19.531,10.68,34.449Z" fill="#f9a2c9" stroke-width="0"/><path d="m1428.135,620.371s.424,4.908-5.474,5.352" fill="none" stroke="#151516" stroke-linecap="round" stroke-miterlimit="10" stroke-width="1.085"/><line x1="1236.141" y1="800.845" x2="1261.012" y2="780.04" fill="none" stroke="#2c2c51" stroke-linecap="round" stroke-miterlimit="10" stroke-width="1.085"/><path d="m1464.623,684.972l39.418,11.146c.898-2.409,1.795-4.831,2.685-7.257,2.034-5.534,4.026-11.052,5.975-16.544,7.61-14.918.172-31.04-10.676-34.448-8.277-2.599-19.183,1.992-25.256,11.881-4.048,11.74-8.097,23.483-12.145,35.223Z" fill="#efa91d" stroke-width="0"/><ellipse cx="1589.324" cy="801.856" rx="90.445" ry="114.544" transform="translate(-189.52 733.748) rotate(-24.58)" fill="#cbbded" stroke-width="0"/><ellipse cx="1589.324" cy="801.856" rx="80.646" ry="102.135" transform="translate(-189.52 733.748) rotate(-24.58)" fill="#b194ff" stroke-width="0"/><ellipse cx="1589.324" cy="801.856" rx="45.213" ry="57.261" transform="translate(-189.52 733.748) rotate(-24.58)" fill="#cbbded" opacity=".24" stroke-width="0"/><ellipse cx="1589.324" cy="801.856" rx="6.73" ry="8.523" transform="translate(-189.52 733.748) rotate(-24.58)" fill="#3d1e1c" stroke-width="0"/><path d="m1651.902,724.025s3.15,16.71,11.858,15.817c-9.549,4.81-7.127,22.33-7.127,22.33,0,0-2.564-13.527-11.631-18.313,0,0,11.893-1.559,6.899-19.834Z" fill="#fff" stroke-width="0"/><path d="m1332.929,759.279c.534,2.28,2.009,7.039,6.29,10.24,5.341,3.99,11.717,3.076,17.393,2.258,8.57-1.233,15.325-4.909,20.022-8.338,2.084.063,4.165.121,6.249.18l-8.737-24.37h-.009c-2.095.547-4.33,1.216-6.674,2.038-2.642.926-5.058,1.919-7.241,2.916-6.124,5.048-21.169,10.027-27.293,15.076Z" fill="#fff" stroke-width="0"/><path d="m1335.243,765.079s14.681-3.068,22.975-6.852" fill="none" stroke="#3d1e1c" stroke-linecap="round" stroke-miterlimit="10" stroke-width="1.085"/><path d="m1341.651,770.981s12.916.165,21.412-4.982" fill="none" stroke="#3d1e1c" stroke-linecap="round" stroke-miterlimit="10" stroke-width="1.085"/><path d="m1456.429,635.656c-.79,2.13-1.832,3.868-2.839,5.232,0,0,0,0,0,0-.033.033-.06.071-.087.103-.038-.054-.065-.092-.081-.12-2.111-1.243-4.217-2.48-6.322-3.723l.081-.206v-.005c4.748-3.733,7.907-9.274,8.634-15.357.006-.065.011-.13.022-.19.011-.103.016-.163.016-.163.06-.635.103-1.275.114-1.921,0,0,.033-.043.098-.119.938,2.494,3.06,9.206.365,16.469Z" fill="#b72525" stroke-width="0"/><path d="m1983.859,1813.074s43.587.043,43.65,49.272" fill="none" stroke="#eac45b" stroke-linecap="round" stroke-miterlimit="10" stroke-width="11.657"/><path d="m240.566,1644.055s-8.213,35.838,17.728,44.751" fill="none" stroke="#db513e" stroke-linecap="round" stroke-miterlimit="10" stroke-width="11.657"/><path d="m710.533,382.999s11.145-16.083,24.551-7.923c13.405,8.16,7.577,24.48,25.645,23.897" fill="none" stroke="#afcca9" stroke-linecap="round" stroke-miterlimit="10" stroke-width="11.657"/><path d="m1538.986,336.659s2.462,18.548-21.792,20.931" fill="none" stroke="#eac45b" stroke-linecap="round" stroke-miterlimit="10" stroke-width="11.657"/><path d="m1932.229,88.651s-6.562,18.308,14.372,25.557" fill="none" stroke="#afcca9" stroke-linecap="round" stroke-miterlimit="10" stroke-width="11.657"/><path d="m1929.818,382.681s33.068,2.133,33.101,32.576" fill="none" stroke="#619ee3" stroke-linecap="round" stroke-miterlimit="10" stroke-width="11.657"/><path d="m108.766,584.022s-13.988-28.56,8.743-23.897c22.731,4.663,30.891-2.914,26.811-16.32" fill="none" stroke="#db513e" stroke-linecap="round" stroke-miterlimit="10" stroke-width="11.657"/><path d="m339,163.668s13.293-36.972,28.485-18.997" fill="none" stroke="#619ee3" stroke-linecap="round" stroke-miterlimit="10" stroke-width="11.657"/><path d="m1725.906,1733.201s-1.959,28.544,23.583,31.161" fill="none" stroke="#db513e" stroke-linecap="round" stroke-miterlimit="10" stroke-width="11.657"/><line x1="140.578" y1="2042.135" x2="155.505" y2="2019.513" fill="none" stroke="#eac45b" stroke-linecap="round" stroke-miterlimit="10" stroke-width="11.657"/><path d="m638.773,1869.826s-8.8-33.695,6.383-32.002c15.183,1.694,22.76,23.259,22.76,23.259" fill="none" stroke="#afcca9" stroke-linecap="round" stroke-miterlimit="10" stroke-width="11.657"/><path d="m1103.87,1664.728s26.035,3.497,27.88-16.903" fill="none" stroke="#619ee3" stroke-linecap="round" stroke-miterlimit="10" stroke-width="11.657"/><path d="m1381.746,2019.231s.002-24.252,12.824-18.829c12.821,5.423,26.227,18.246,32.055,13.583,5.828-4.663,5.653-22.148,5.653-22.148" fill="none" stroke="#afcca9" stroke-linecap="round" stroke-miterlimit="10" stroke-width="11.657"/><path d="m1462.19,580.602c-2.497,1.664-5.567,3.421-9.213,4.961-2.051.866-4.005,1.546-5.817,2.084" fill="none" stroke="#3d1e1c" stroke-linecap="round" stroke-miterlimit="10" stroke-width="1.085"/><path d="m895.782,857.959c-14.603,9.305-45.572,12.06-69.735,10.328l-13.435,6.99-9.095,7.523c-.907.75-2.068,1.122-3.242,1.038h0c-2.691-.193-4.632-2.662-4.182-5.323l.486-2.878-6.045,6.261c-.711.736-1.711,1.119-2.731,1.046h0c-1.913-.137-3.348-1.807-3.196-3.72l.265-3.314-5.823,2.86c-.702.345-1.515.388-2.25.12h0c-1.491-.544-2.262-2.194-1.713-3.683,1.87-5.069,6.512-15.937,13.588-21.286,9.415-7.117,41.889-17.589,41.889-17.589l-72.806-24.699,32.804-38.282s86.8,31.273,108.664,60.111c.402.53.776,1.052,1.123,1.566,6.819,10.067,3.832,17.583-4.566,22.931Z" fill="#892f2b" stroke-width="0"/><path d="m806.072,719.927s-6.918-12.183-17.992-12.977c-11.074-.794-25.944,11.497-33.813-2.424-7.869-13.921-15.224-20.014-27.683-17.011-12.459,3.003-3.485,17.56-3.485,17.56,0,0-7.752-.556-7.714,6.682.038,7.238,12.693,9.258,10.754,13.015-1.939,3.757-15.207,9.484-13.026,18.267s43.011,34.034,43.011,34.034l52.768-26.611-2.82-30.534Z" fill="#4c1804" stroke-width="0"/><path d="m830.097,757.129c-.895,12.48-11.474,22.335-24.135,22.168-3.186-.045-6.221-.713-8.991-1.902-8.355-3.56-14.278-11.765-14.553-21.285-4.55-1.74-9.735-5.184-9.892-10.76-.047-1.679.318-4.43,3.205-5.892,1.923-.975,4.4-1.048,6.88.07l.013-1.04c.006-.467.027-.927.06-1.387.895-12.486,11.475-22.341,24.14-22.167,13.128.173,23.728,11.062,23.555,24.195l-.072,5.427-.151,11.187c-.006.467-.028.927-.061,1.387Z" fill="#933c35" stroke-width="0"/><path d="m787.159,750.851s-2.372-5.735-8.383-7.28" fill="none" stroke="#151516" stroke-linecap="round" stroke-miterlimit="10" stroke-width="1.085"/><line x1="779.165" y1="746.939" x2="782.7" y2="745.416" fill="none" stroke="#151516" stroke-linecap="round" stroke-miterlimit="10" stroke-width="1.085"/><rect x="808.928" y="748.064" width="2.776" height="3.886" rx="1.388" ry="1.388" transform="translate(55.706 -56.024) rotate(4.101)" fill="#151516" stroke-width="0"/><rect x="826.133" y="748.741" width="2.776" height="3.886" rx="1.388" ry="1.388" transform="translate(55.798 -57.253) rotate(4.101)" fill="#151516" stroke-width="0"/><path d="m820.354,749.891s-.211,6.663,1.805,9.591" fill="none" stroke="#151516" stroke-linecap="round" stroke-miterlimit="10" stroke-width="1.085"/><path d="m810.65,756.987l9.056,5.658s-2.651,5.932-6.962,3.953c-4.311-1.979-2.094-9.611-2.094-9.611Z" fill="#151516" stroke-width="0"/><path d="m654.572,799.226l61.647,48.387s18.606-19.258,35.51-25.838,38.832-48.424,38.832-48.424c-6.678-4.888-14.66-10.096-23.97-15.07-9.742-5.204-18.901-9.064-26.97-11.951-10.613,1.018-32.462,4.594-54.308,20.038-15.977,11.295-25.551,24.412-30.74,32.859Z" fill="#f9a2c9" stroke-width="0"/><path d="m794.589,771.419l-4.029,1.932-7.562,3.632-25.741,12.352c-6.545-.469-10.429-7.543-7.299-13.318l7.102-13.121,25.57-10.978,11.959,19.502Z" fill="#933c35" stroke-width="0"/><path d="m790.56,773.351l-7.562,3.632c-5.621-7.922-.58-20.873-.58-20.873.2,6.838,3.309,12.999,8.142,17.241Z" fill="#771915" stroke-width="0"/><path d="m830.308,744.555c-.056-1.77-.368-4.245-1.578-6.864-.783-1.694-1.577-2.657-4.547-6.448-.999-1.275-2.592-3.314-4.586-5.894-5.301,4.072-36.986,14.178-36.986,14.178l.013-1.04c.006-.467.027-.927.06-1.387.895-12.486,11.475-22.341,24.14-22.167,13.128.173,23.728,11.062,23.555,24.195l-.072,5.427Z" fill="#4c1804" stroke-width="0"/><line x1="859.437" y1="829.497" x2="830.563" y2="836.331" fill="none" stroke="#151516" stroke-linecap="round" stroke-miterlimit="10" stroke-width="1.085"/><path d="m737.229,745l-109.195-24.857c-5.448-1.24-11.11-1.189-16.534.15l-100.976,24.927c-1.659.462-23.492,6.888-27.561,24.665-.603,2.635-1.001,6.329-.155,10.905-.133.703-.263,1.996.316,3.362.909,2.147,3.185,3.577,5.853,3.759.02.009.04.018.059.027,3.689,1.649,7.944,1.428,11.443-.593,4.143-2.393,8.286-4.786,12.428-7.18,1.041.938,3.993,3.333,8.107,3.364,5.414.041,10.62-4.027,12.738-10.218,24.84-5.487,49.68-10.974,74.52-16.461,6.305-1.393,12.856-1.214,19.076.521l74.374,20.747c24.233,4.134,42.946-4.133,46.199-15.61.119-.419.259-.989.361-1.704,1.05-7.311-3.852-14.165-11.054-15.804Z" fill="#933c35" stroke-width="0"/><path d="m679.807,813.23s19.314-21.941,38.57-26.683l37.269,32.12-39.428,28.946-36.412-34.383Z" fill="#fff" stroke-width="0"/><path d="m716.219,847.613l-4.156,11.39-.044-.009c-1.742-.381-57.632-12.552-66.001-18.083,1.31-18.272,8.554-41.684,8.554-41.684l61.647,48.387Z" fill="#933c35" stroke-width="0"/><path d="m986.278,985.863l-43.561,48.291-14.765-8.004-120.238-65.182-93.143-12.738,31.134,69.277c2.4,5.34,3.062,11.313,1.789,17.027-.015.066-.029.131-.045.197-1.805,7.863-6.874,17.784-20.455,23.472-.19.081-.373.157-.562.227-24.822,10.014-52.865-4.057-52.865-4.057l-152.485-73.248-4.132-1.983-11.871-.851c-2.962-.212-3.617-4.272-.876-5.406l61.26-25.328,18.413,6.88,64.517,24.11s-7.239-13.219-14.792-30.062c-8.806-19.626-18.032-44.175-16.707-58.461,2.459-26.538,29.122-49.114,29.122-49.114,8.369,5.531,64.259,17.702,66.001,18.083l.044.009,1.243,18.6,105.579,23.72,11.688,2.624c6.085,1.366,11.926,3.666,17.31,6.818l1.383.812,117.903,69.033,9.059,5.302,8.5-2.507c1.462-.435,2.576,1.331,1.549,2.46Z" fill="#933c35" stroke-width="0"/><path d="m651.848,930.376l19.043,7.248-37.288,10.862c-8.806-19.626-18.032-44.175-16.707-58.461,2.459-26.538,29.122-49.114,29.122-49.114,8.369,5.531,64.259,17.702,66.001,18.083l.044.009,1.243,18.6s-21.416,6.607-33.051,13.626c-8.981,5.417-20.339,16.034-28.408,39.148Z" fill="#afcca9" stroke-width="0"/><path d="m670.891,937.624s24.933,8.149,43.68,10.606" fill="none" stroke="#151516" stroke-miterlimit="10" stroke-width=".849"/><path d="m651.848,930.376s-25.928-7.691-34.078-27.621" fill="none" stroke="#151516" stroke-linecap="round" stroke-miterlimit="10" stroke-width="1.085"/><path d="m796.579,875.636s4.948-14.672,15.666-16.686" fill="none" stroke="#151516" stroke-linecap="round" stroke-miterlimit="10" stroke-width="1.085"/><path d="m784.872,875.91s8.488-17.478,16.429-19.553" fill="none" stroke="#151516" stroke-linecap="round" stroke-miterlimit="10" stroke-width="1.085"/><path d="m986.278,985.863l-43.561,48.291-14.765-8.004,39.218-45.541,9.059,5.302,8.5-2.507c1.462-.435,2.576,1.331,1.549,2.46Z" fill="#efa91d" stroke-width="0"/><path d="m583.878,954.438l-62.794,26.687-4.132-1.983-11.871-.851c-2.962-.212-3.617-4.272-.876-5.406l61.26-25.328,18.413,6.88Z" fill="#efa91d" stroke-width="0"/><path d="m849.267,911.576c-2.665,6.042-8.913,10.052-15.879,9.553-8.87-.636-15.542-8.338-14.906-17.208.064-.891.198-1.756.403-2.598l11.688,2.624c6.085,1.366,11.926,3.666,17.31,6.818l1.383.812Z" fill="#4c021b" opacity=".14" stroke-width="0"/><path d="m747.45,1034.731c-1.805,7.863-6.874,17.784-20.455,23.472-.19.081-.373.157-.562.227-2.381-3.037-3.683-6.931-3.385-11.084.636-8.87,8.338-15.542,17.208-14.906,2.636.189,5.082,1.004,7.193,2.291Z" fill="#4c021b" opacity=".14" stroke-width="0"/><path d="m895.782,857.959c-3.172-2.648-5.066-6.736-4.748-11.171.403-5.62,4.241-10.176,9.314-11.76,6.819,10.067,3.832,17.583-4.566,22.931Z" fill="#4c021b" opacity=".14" stroke-width="0"/><path d="m605.676,721.728c.959,5.957,5.912,10.692,12.191,11.142,7.159.513,13.407-4.738,14.193-11.811" fill="#4c021b" opacity=".14" stroke-width="0"/><path d="m488.976,787.911s13.244-20.011,25.183-24.352" fill="none" stroke="#151516" stroke-linecap="round" stroke-miterlimit="10" stroke-width="1.085"/><path d="m482.808,780.79s4.76-15.603,17.242-22.115" fill="none" stroke="#151516" stroke-linecap="round" stroke-miterlimit="10" stroke-width="1.085"/><path d="m512.907,780.165s10.926-2.565,14.501-4.43" fill="none" stroke="#151516" stroke-linecap="round" stroke-miterlimit="10" stroke-width="1.085"/><path d="m782.625,738.488s-.29-18.903,20.012-23.235" fill="none" stroke="#151516" stroke-linecap="round" stroke-miterlimit="10" stroke-width="1.085"/><polygon points="688.085 942.368 724.904 971.221 714.676 948.338 688.085 942.368" fill="#151516" stroke-width="0"/><path d="m791.581,716.181c-.048.191-.185.841.153,1.522.491.991,1.558,1.185,1.673,1.204,3.06-1.306,6.12-2.612,9.181-3.918.067-.25.128-.647,0-1.085-.232-.795-.989-1.39-1.94-1.569-1.129.07-2.755.301-4.572,1.026-2.11.842-3.599,2.001-4.495,2.819Z" fill="#afcca9" stroke-width="0"/><path d="m1480.197,756.352c-.065.157-.13.309-.196.467-2.404,5.736-8.107,9.394-14.326,9.215-2.442-.071-4.889-.141-7.331-.212-.141-.733-.212-1.487-.212-2.263,0-6.745,5.465-12.21,12.21-12.21,4.048,0,7.635,1.97,9.855,5.003Z" fill="#f2451c" opacity=".19" stroke-width="0"/><line x1="1608.348" y1="678.027" x2="1654.382" y2="678.027" fill="none" stroke="#fff" stroke-linecap="round" stroke-miterlimit="10" stroke-width="5.427"/><line x1="1634.251" y1="691.579" x2="1654.382" y2="691.579" fill="none" stroke="#fff" stroke-linecap="round" stroke-miterlimit="10" stroke-width="5.427"/><path d="m1419.526,606.972s-4.814,4.564-8.162,4.737c-3.348.174-4.976-.912-4.976-.912,0,0-1.085,2.713-2.713,2.171s-3.375-2.442-3.375-2.442c5.725-.83,12.378-2.057,19.216-3.555h.011Z" fill="#822519" stroke-width="0"/><circle cx="798.328" cy="755.961" r="7.326" fill="#931931" opacity=".51" stroke-width="0"/><circle cx="1438.406" cy="621.108" r="6.512" fill="#f96e90" opacity=".51" stroke-width="0"/><path d="m2053.107,954.414s13.293-36.972,28.485-18.997" fill="none" stroke="#db513e" stroke-linecap="round" stroke-miterlimit="10" stroke-width="11.657"/><path d="m1154.759,168.398s-8.8-33.695,6.383-32.002c15.183,1.694,22.76,23.259,22.76,23.259" fill="none" stroke="#db513e" stroke-linecap="round" stroke-miterlimit="10" stroke-width="11.657"/></svg>