<?xml version="1.0" encoding="UTF-8"?><svg id="Layer_1" xmlns="http://www.w3.org/2000/svg" viewBox="0 0 1080 1080"><rect x="0" y="0" width="1080" height="1080" fill="#fff2e2" stroke-width="0"/><path d="m654.723,699.285c-6.59,14.34-54.12,33.84-104.83,50.32h-.01c-29.49,1.06-57.27-1.68-81.84-6.1-60.11-10.8-101.07-31.65-101.07-31.65-7.84-26.01-24.05-44.91-41.68-58.46,1.68-.68,5.3.27,11.5,3.46,33.35,17.16,113.13,30.31,182.65,34.55,15.57.95,30.63,1.45,44.53,1.45,36.99,0,57.16-8.53,68.12-17.29,2.27-1.81,4.14-3.63,5.68-5.38,8.33,5.33,26.28,8.8,16.95,29.1Z" fill="#3e53ad" stroke-width="0"/><path d="m895.513,606.235c-3.47,5.67-6.28,9.91-8.04,12.12-7.31,9.14-56.53,24.58-93.91,35.25-3.66-6.03-8.46-11.66-14.59-16.75-47-39-76-38-103-33-5.26.98-10.1,3.54-14.48,7.11-3.22,2.61-6.19,5.77-8.89,9.24,9.9-13.88,24.35-26.24,45.37-33.35,71-24,103.48-26.39,105.24-36.69,3.15-.67,5.55-1.14,6.76-1.31,7-1,25-17,31-22s8.5-43.5,38.5-57.5c8.65-4.04,17.63-5.66,26.23-5.64,21.21.04,40.07,10.1,45.77,18.64,6.82,10.23-35.82,91.02-55.96,123.88Z" fill="#6675cb" stroke-width="0"/><path d="m766.973,783.855c-28,37-252,80-297,83s-121-21-121-21c-20-26,36-55,94-67,12.02-2.49,27.63-6.26,44.96-10.91,19.41-5.2,40.95-11.51,61.95-18.34h.01c50.71-16.48,98.24-35.98,104.83-50.32,9.33-20.3-8.62-23.77-16.95-29.1-2.16-1.37-3.67-2.88-3.89-4.83-.01-.11-.02-.23-.03-.36l18.73-44.77c0-.01.01-.01.02-.02,2.7-3.47,5.67-6.63,8.89-9.24,4.38-3.57,9.22-6.13,14.48-7.11,22.37-4.14,46.12-5.54,80.35,16.3,7.08,4.51,14.6,10.02,22.65,16.7,6.13,5.09,10.93,10.72,14.59,16.75,24.37,40.19-2.24,98.08-26.59,130.25Z" fill="#6675cb" stroke-width="0"/><path d="m366.973,711.855s-4.39,2.5-11.92,6.2c-.3.15-.61.3-.92.44v.01c-5.54,2.7-12.66,5.98-20.9,9.38l-.94.38c-9.97,4.08-21.53,8.29-33.91,11.83-.32.09-.64.18-.96.27-10.09,2.85-20.72,5.24-31.46,6.73-.34.05-.68.1-1.02.14-10.14,1.36-20.37,1.91-30.35,1.28-.34-.02-.69-.04-1.03-.07-8.46-.6-16.73-2.05-24.59-4.59-5.4-1.74-10.64-3.56-15.7-5.45-.32-.11-.63-.23-.94-.35-17.25-6.48-32.39-13.72-44.43-21.33-.28-.17-.56-.35-.84-.53-17.64-11.3-28.41-23.38-29.08-34.93-.03-.36-.04-.73-.04-1.09-.02-5.09,1.96-10.07,6.21-14.82,22.82-25.5,22.82-2.5,76.82-8.5s56-35,56-35c0,0,36.47,7.04,68.32,31.54,13.98,10.74,27.06,24.85,35.79,43.2.15.3.29.61.43.92,2.1,4.52,3.94,9.3,5.46,14.34Z" fill="#6675cb" stroke-width="0"/><path d="m803.213,550.165c-.22,1.28-.7,3.54-1.74,6.19-3.92,9.96-12.22,15.97-23.11,20.18-23.02,8.92-57.61,9.86-87.03,23.39h-.02c-8.52,3.92-16.6,8.9-23.84,15.43-10.41,9.39-23.04,25.57-29.7,54.83-1.28,1.31-3.21,3.23-5.68,5.38-10.84,9.45-23.77,16.37-41.64,20.53-16.29,3.8-36.68,5.32-63.33,4.37-4.21-.14-8.58-.35-13.11-.62-2.46-.14-4.98-.31-7.54-.49-23.75-1.7-52.94-3.8-84.05-9.32v-.01c-25.82-4.58-52.98-11.52-79.45-22.56-8.59-3.58-17.12-7.6-25.5-12.11-10.89-5.86-60.47-33.48-60.5-33.5l-14.52-10.95.16-.15,18.36-16.9,51-72c6.64-27.57,28.12-99.45,93.5-141.5,91.39-58.77,232.89-36.32,335.5,66.5,15.08,31.05,30.17,62.1,45.25,93.15l.5.3,2.92,1.75,13.57,8.11Z" fill="#5161bb" stroke-width="0"/><path d="m331.852,504.894c-8.006.19-13.903,14.273-14.696,13.785-.519-.319,3.459-5.432,4.079-11.798.908-9.332-5.755-20.538-12.55-21.372-7.286-.894-17.41,9.824-20.362,27.911-2.018-14.7-18.786-36.132-33.295-27.688-14.509,8.444,15.755,38.979,15.755,38.979,0,0-14.68.737-17.762,3.464-3.082,2.727-6.044,13.042,9.747,12.257-1.569,1.691-2.635,3.586-2.844,5.703-.976,9.917,16.988,23.568,30.946,21.084,9.798-1.743,8.982-9.898,24.371-17.171,10.437-4.933,13.882-2.633,20.319-8.089,1.028-.871,12.116-10.563,9.551-22.74-1.465-6.953-7.328-14.466-13.26-14.325Z" fill="#eca5b5" stroke-width="0"/><path d="m344.805,409.721s17.243-49.303-2.185-61.738c-19.428-12.435-16.796,27.306-16.796,27.306,0,0-14.63-16.558-25.256-11.887-10.626,4.671,15.101,28.397,15.101,28.397,9.712,5.974,19.424,11.948,29.136,17.922Z" fill="#5161bb" stroke-width="0"/><path d="m412.973,350.855v73c0,19.25-15.75,35-35,35s-35-15.75-35-35v-73c0-19.25,15.75-35,35-35,9.62,0,18.38,3.94,24.72,10.28,6.34,6.34,10.28,15.1,10.28,24.72Z" fill="#f39b75" stroke-width="0"/><path d="m466.973,306.855v105c0,19.25-15.75,35-35,35s-35-15.75-35-35v-105c0-17.89,13.6-32.76,30.98-34.77,1.32-.15,2.66-.23,4.02-.23,9.62,0,18.38,3.94,24.72,10.28,6.34,6.34,10.28,15.1,10.28,24.72Z" fill="#f18381" stroke-width="0"/><line x1="427.967" y1="491.636" x2="431.973" y2="337.239" fill="none" stroke="#000" stroke-miterlimit="10"/><line x1="418.443" y1="359.355" x2="430.808" y2="382.125" fill="none" stroke="#000" stroke-miterlimit="10"/><line x1="449.219" y1="399.147" x2="429.97" y2="423.638" fill="none" stroke="#000" stroke-miterlimit="10"/><path d="m396.973,321.505v87.84c-.17.01-.33.01-.5.01-21.86,0-41.27-9.3-53.5-23.68v-34.82c0-19.25,15.75-35,35-35,6.99,0,13.52,2.08,19,5.65Z" fill="#f5bc60" stroke-width="0"/><line x1="377.973" y1="364.355" x2="377.973" y2="473.981" fill="none" stroke="#000" stroke-miterlimit="10"/><line x1="366.973" y1="407.311" x2="377.973" y2="426.36" fill="none" stroke="#000" stroke-miterlimit="10"/><line x1="390.55" y1="396.426" x2="377.973" y2="404.59" fill="none" stroke="#000" stroke-miterlimit="10"/><rect x="714.973" y="355.855" width="67" height="153" rx="33.5" ry="33.5" fill="#eca5b5" stroke-width="0"/><path d="m502.973,336.547s-6.813-56.933,5.593-50.813c12.407,6.121,10.407,29.641,10.407,29.641,0,0,11-16.652,20.5-10.586,9.5,6.066-12.5,42.066-12.5,42.066l-24-10.308Z" fill="#eca5b5" stroke-width="0"/><line x1="743.473" y1="423.638" x2="743.473" y2="531.996" fill="none" stroke="#000" stroke-miterlimit="10"/><path d="m521.473,360.355c0,5.92-1.43,11.51-3.97,16.44-5.97,11.61-18.07,19.56-32.03,19.56-18.64,0-33.97-14.17-35.81-32.32v-.01c-.13-1.21-.19-2.43-.19-3.67,0-13.12,7.02-24.6,17.5-30.89,4.01-2.4,8.52-4.05,13.34-4.74,1.68-.24,3.41-.37,5.16-.37,19.88,0,36,16.12,36,36Z" fill="#f39b75" stroke-width="0"/><ellipse cx="550.473" cy="358.355" rx="46.5" ry="42.5" fill="#f9e0ac" stroke-width="0"/><line x1="550.473" y1="346.499" x2="550.473" y2="426.36" fill="none" stroke="#000" stroke-miterlimit="10"/><path d="m575.473,419.855c0,23.47-20.82,42.5-46.5,42.5s-46.5-19.03-46.5-42.5,20.82-42.5,46.5-42.5c2.14,0,4.24.13,6.3.39,22.39,2.77,39.72,20.11,40.18,41.22.02.3.02.59.02.89Z" fill="#f18381" stroke-width="0"/><path d="m669.973,329.855s-13.4-39.486-32.2-39.243c-18.8.243,0,41.638,0,41.638-13.894-13.071-28.906-16.036-35.001-10.586-5.012,4.482-3.522,14.235-3.299,15.691,1.775,11.611,11.45,17.579,13,18.5-8.027-6.558-17.811-6.205-22-1.5-3.658,4.109-2.965,11.444,0,16,0,0,2.616,4.021,22,10.5h0c-3.9-1.268-11.669-3.117-17.452.747-10.002,6.681-7.586,26.118-2.548,36.753,8.246,17.408,31.025,27.087,57.61,25.878l34.775-32.84-14.885-81.538Z" fill="#5161bb" stroke-width="0"/><path d="m709.558,346.499c5.659-8.681,11.793-14.062,15.915-17.144,0,0,9.09-6.797,17.5-6.5.312.011.7.042,1.065.306,4.786,3.463-13.308,35.195-13.308,35.194,0,0,12.243-2.5,20.243,4.5s-41.415,29.383-41.415,29.383v-45.738Z" fill="#f9e0ac" stroke-width="0"/><path d="m717.973,340.855v80c0,20.9-17.1,38-38,38s-38-17.1-38-38v-80c0-19.36,14.67-35.46,33.45-37.72,1.49-.19,3.01-.28,4.55-.28,10.45,0,19.95,4.28,26.84,11.16,6.88,6.89,11.16,16.39,11.16,26.84Z" fill="#f39b75" stroke-width="0"/><line x1="678.973" y1="353.627" x2="678.973" y2="442.584" fill="none" stroke="#000" stroke-miterlimit="10"/><path d="m735.243,459.845c.32,13.84-24.31,26.24-24.31,26.24l-19.01,2.28-71.04,8.5-6.41.77v-88.98s23.7-31.45,55.68-16.06c20.23,9.73,21.77,28.52,20.17,41.01,4.25-10.29,12.36-16.75,20.45-16.98,7.32-.21,16.83,4.63,18.45,12.68,1.67,8.31-5.33,18.67-17.62,21.27,2.51-.44,23.34-3.73,23.64,9.27Z" fill="#fff2e2" stroke-width="0"/><path d="m755.473,543.315c-61.33.35-122.67.69-184,1.04-4.61-18-.77-28.7,2-34,6.54-12.52,15.3-10.61,46.5-29.82,1.13-.69,2.3-1.42,3.5-2.18,15-9.49,20.24-14.42,30.5-14.64,11.79-.26,20.87,5.9,26.88,10.27,3.99,2.9,8.02,6,12.01,9.24,26.8,21.66,52.58,49.16,62.61,60.09Z" fill="#7680de" stroke-width="0"/><path d="m781.435,532.697c.065-3.748-5.927-7.456-10.962-8.342-7.613-1.339-12.979,3.782-13.498,4.295,1.663-1.205,14.559-10.84,13.498-24.295-.042-.532-.971-10.88-6.657-12.719-7.216-2.333-16.682,10.786-17.343,11.719-4.139,5.848-7.45,14.397-7.5,14.5,0,0-7.087-35.047-23.043-33.524-15.957,1.524-3.175,29.524-3.175,29.524,0,0-23.052-13-37.417,0-.736.666-2.129,2.115-2.868,4.388-3.041,9.352,9.465,20.714,11.003,22.112,20.344,18.483,56.144,9.316,73,5,7.7-1.972,24.854-6.364,24.962-12.658Z" fill="#f5bc60" stroke-width="0"/><path d="m352.284,428.935c-7.448-27.909-24.937-48.317-45.311-51.081-2.711-.368-20.907-2.835-31,9-.654.767-7.762,9.369-6.086,20.456,3.553,23.501,43.755,39.544,43.755,39.544-1.101-.5-14.726-6.474-23.289,0-10.08,7.621-7.697,28.373,3.62,38,9.103,7.745,21.177,5.899,23.5,5.5-1.666,1.406-9.882,8.596-9,17,1.073,10.229,15.438,20.49,35,18,8.709-15.846,17.417-31.692,26.126-47.538l-17.315-48.882Z" fill="#5161bb" stroke-width="0"/><path d="m619.973,423.355v64c0,3.32-.62,6.51-1.75,9.44-3.82,9.95-13.49,17.06-24.75,17.06-14.58,0-26.5-11.92-26.5-26.5v-64c0-.28,0-.57.02-.85.19-6.08,2.46-11.67,6.11-16.06,4.87-5.85,12.2-9.59,20.37-9.59,1.84,0,3.63.19,5.37.55,5.15,1.07,9.76,3.64,13.35,7.23,4.8,4.8,7.78,11.43,7.78,18.72Z" fill="#f5bc60" stroke-width="0"/><line x1="593.473" y1="466.498" x2="593.473" y2="536.569" fill="none" stroke="#000" stroke-miterlimit="10"/><path d="m537.763,476.915c-1.85,5.38-5.05,10.46-8.14,13.89-4.68,5.19-10.09,7.72-13.4,8.94-31.9.38-63.8.75-95.7,1.13-25.79-25.36-38.22-48.46-31.65-57.73,6.03-8.49,26.94-3.83,35.75-1.49-2.33-26.02,5.05-45.68,14.97-52.59,1.88-1.31,3.86-2.16,5.88-2.51,9.73-1.68,24.59,7.64,26.06,17.12,0,0,.13.81-.29,12.66.26-.31.51-.62.76-.92,2.59-3.04,5.22-5.52,7.75-7.41,5.18-3.88,9.87-5.23,12.64-3.58,4.14,2.47,3.16,11.23,2.97,12.66-.93,7.19-5.32,12.16-8.47,14.9,1.31-.94,2.64-1.8,3.96-2.59.24-.14.47-.28.71-.41,11.4-6.62,22.67-7.77,29.5-2.85.38.27,6.15,4.81,6.21,10.75.09,9.44-13.74,16.33-17.81,18.15,10.44-4.27,21.39-2.6,26.63,3.66,4.16,4.97,3.88,11.81,1.67,18.22Z" fill="#7680de" stroke-width="0"/><path d="m421.271,526.886s67.701-13.031,58.701-24.031-43.735-11.219-43.735-11.219c13.441-7.917,19.162-20.021,15.883-27.731-1.696-3.988-6.074-7.443-10.648-7.55-7.26-.169-15.256,8.091-16.5,21.028-3.507-24.916-16.212-42.456-30.5-44.028-6.126-.674-14.728,1.348-18.693,7.6-5.186,8.176-1.715,22.44,10.803,33.027,0,0-31.61-15.126-46.61-7.126s-4.152,25.986,4.424,30.993c-34.424,4.007-40.349,25.07-11.886,29.039,28.462,3.969,88.761,0,88.761,0Z" fill="#f6ece1" stroke-width="0"/><path d="m463.248,515.998c-9.757-13.912-12.904-28.59-6.88-36.761,2.701-3.663,6.56-5.091,14.105-7.882,5.713-2.113,16.396-6.065,28.59-2.452,1.759.521,6.065,2.015,10.503,5.078,11.407,7.874,25.578,35.16,11.992,42.017-13.586,6.856-58.311,0-58.311,0Z" fill="#5161bb" stroke-width="0"/><path d="m365.583,594.555c24.046,9.122,43.47,9.333,55.39,8.3,9.502-.824,30.652-2.7,33.57-12.85,1.853-6.445-4.272-12.847-4.57-13.15-6.049-6.148-16.948-7.114-26.5-1.5,6.63-.365,12.01-4.482,13.18-9.56,1.526-6.622-4.567-12.873-5.049-13.345-.277-.27-.496-.471-.631-.595-6.91-6.34-18.58-6.85-30-2,1.86-1.7,7.01-6.86,8.16-15.06.47-3.353,1.615-9.761-2.16-12.94-4.533-3.817-12.513.011-13.5.5-8.659,4.288-10.686,14.314-11,16-7.604-12.266-18.298-20.822-27-19-12.583,2.635-17.625,26.26-14,43,4.193,19.364,20.021,29.697,24.11,32.2Z" fill="#f18381" stroke-width="0"/><path d="m344.42,578.999h0c-12.739-2.184-21.375-14.393-19.192-27.132l12.165-70.965c2.184-12.739,14.393-21.375,27.133-19.192h0c12.739,2.184,21.375,14.393,19.192,27.132l-12.165,70.965c-2.184,12.739-14.393,21.375-27.133,19.192Z" fill="#f9e0ac" stroke-width="0"/><path d="m342.973,606.855s3.12-69.219,11.56-93.109" fill="none" stroke="#000" stroke-miterlimit="10"/><line x1="341.192" y1="518.905" x2="348.753" y2="539.422" fill="none" stroke="#000" stroke-miterlimit="10"/><line x1="361.453" y1="539.422" x2="347.115" y2="554.16" fill="none" stroke="#000" stroke-miterlimit="10"/><path d="m720.473,556.355c-1.846,6.281-17.735,6.744-26.5,7-9.809.286-19.376.565-21.5-4-2.883-6.197,7.812-21.607,21.5-23,14.527-1.478,28.489,13.233,26.5,20Z" fill="#5161bb" stroke-width="0"/><path d="m717.973,340.855v43.32c-4.1,1.42-8.47,2.18-13,2.18-24.02,0-43.5-21.49-43.5-48,0-13.92,5.37-26.46,13.95-35.22,1.49-.19,3.01-.28,4.55-.28,10.45,0,19.95,4.28,26.84,11.16,6.88,6.89,11.16,16.39,11.16,26.84Z" fill="#ffd8c7" opacity=".4" stroke-width="0"/><ellipse cx="466.973" cy="520.355" rx="17.5" ry="12" fill="#7680de" stroke-width="0"/><path d="m553.473,504.355c-6.703-11.246-5.34-23.099,1-28,3.36-2.597,8.152-3.27,12-2,8.018,2.645,13.495,14.232,10.884,28.306,1.112-.398,13.295-4.574,21.116,1.694,8.413,6.741,9.686,23.889-2.114,37.215,10.613-5.939,21.366-6.383,27.114-1.215,5.6,5.036,5.324,14.389,4,19-7.285,25.369-80.145,25.073-91.993,24.94-11.949-1.246-39.79-5.95-56.007-27.94-3.291-4.462-12.321-16.708-8-25,4.092-7.852,19.348-10.609,37.603-4.885-11.761-18.917-4.685-40.031,6.397-45.115,10.785-4.948,30.624,2.871,38,23Z" fill="#eca5b5" stroke-width="0"/><path d="m547.094,524.355c-2.371.905-4.259,2.052-5.757,3.209-12.017,9.292-10.172,28.062-9.865,30.791-.415-.728-6.85-11.588-19-12-8.158-.276-18.367,4.176-20,12-1.673,8.014,5.825,18.739,19,21-5.639-3.394-12.371-3.408-17,0-4.845,3.567-7.35,10.853-4.873,14.86,1.949,3.153,6.545,3.771,8.647,3.75,7.756-.079,85.287-.533,85.287-.533,0,0,16.906-17.568,7.535-21.894-9.372-4.325-13.697,2.117-13.697,2.117,0,0,6.302-19.317-3.698-19.368-9.999-.051-11.499,2.873-11.499,2.873,0,0-2.826-36.084-15.081-36.805Z" fill="#7680de" stroke-width="0"/><path d="m678.973,536.355c0,12.35-5.39,23.43-13.95,31.03-7.32,6.52-16.98,10.47-27.55,10.47-22.92,0-41.5-18.58-41.5-41.5,0-13.6,6.54-25.66,16.64-33.23,6.93-5.2,15.54-8.27,24.86-8.27,2.66,0,5.26.25,7.78.73,18.54,3.51,32.71,19.35,33.67,38.67.03.7.05,1.4.05,2.1Z" fill="#f9e0ac" stroke-width="0"/><path d="m634.973,592.855c-2.658-5.626-7.979-18.885-6-36,1.529-13.228,6.742-22.9,10-28" fill="none" stroke="#000" stroke-miterlimit="10"/><path d="m507.473,610.355s47.851-32.625,86.426-21.812c38.574,10.812,6.574,36.812,6.574,36.812l-93-15Z" fill="#5161bb" stroke-width="0"/><path d="m427.967,621.855s-19.159-34.517-40.826-35.509-35.668,3.009-35.668,3.009l76.494,32.5Z" fill="#5161bb" stroke-width="0"/><path d="m281.473,592.355c-27.202-2.818-45.721-12.771-46.5-23.5-.393-5.413,3.662-11.958,9-15,6.434-3.667,13.557-1.576,21.663.803,4.986,1.463,12.647,4.402,20.837,10.697-7.472-5.547-10.952-11.931-9.225-15.319,1.828-3.588,9.256-3.349,13.225-2.681,5.159.868,10.861,3.537,24,18,4.497,4.95,10.498,11.979,17,21-16.667,2-33.333,4-50,6Z" fill="#f5bc60" stroke-width="0"/><path d="m895.513,606.235c-1.13.09-2.23-.04-3.29-.38-1.321-.423-12.627-6.656-16.274-10.985-11.146-13.229-.476-53.515-.476-53.515,5.158-19.474,14.069-46.519,30.23-77.64,21.21.04,40.07,10.1,45.77,18.64,6.82,10.23-35.82,91.02-55.96,123.88Z" fill="#97a4ec" stroke-width="0"/><path d="m800.093,715.725c4.26-18.07,4.63-36.45-1.86-52.73-.14-.35-.28-.69-.42-1.04-1.2-2.85-2.61-5.64-4.25-8.35-3.66-6.03-8.46-11.66-14.59-16.75-2.31-1.92-4.58-3.74-6.8-5.47-.4-.31-.8-.62-1.2-.92-5.09-3.91-9.97-7.33-14.65-10.31-4.71-1.88-8.61-2.92-11.01-2.81-.42.01-.8.07-1.12.16-.5.13-.87.35-1.12.67-1.34,1.7.76,5.8,5.4,14.02,18,31.84,0,58.16-38.91,80.86-21.13,12.32-128.2,35.91-221.63,54.89-17.33,4.65-32.94,8.42-44.96,10.91-57.7,11.94-113.43,40.7-94.29,66.6.09.13.19.27.29.4,0,0,.21.07.63.19,6.5,2.02,62.29,18.96,104.58,20.88.4.03.8.05,1.19.06,5.11.2,10.02.18,14.6-.13,9.02-.6,25.24-2.81,45.63-6.25l1-.17c14.99-2.55,32.18-5.76,50.39-9.47.32-.07.65-.13.98-.21,12.65-2.58,25.79-5.41,39.01-8.45.33-.07.66-.15.99-.22,20.96-4.82,42.13-10.13,61.93-15.74h.01c.14-.04.26-.08.39-.12,26.68-7.57,50.86-15.68,68.71-23.87.01,0,.01-.01.01-.01.1-.04.18-.09.28-.13h.01c13.34-6.15,23.1-12.33,27.66-18.36,4.21-5.56,8.48-11.89,12.55-18.76.19-.32.38-.64.57-.97,8.3-14.18,15.67-30.6,19.75-47.34v-.01l.25-1.05Z" fill="#97a4ec" stroke-width="0"/><circle cx="879.973" cy="111.855" r="32.5" fill="#f39b75" stroke-width="0"/><rect x="904.473" y="482.355" width="6" height="10" rx="3" ry="3" fill="#0e414f" stroke-width="0"/><line x1="631.687" y1="544.355" x2="625.43" y2="534.988" fill="none" stroke="#000" stroke-miterlimit="10"/><line x1="628.662" y1="568.244" x2="638.973" y2="560.855" fill="none" stroke="#000" stroke-miterlimit="10"/><path d="m466.973,306.855v22.61c-10.48,6.29-17.5,17.77-17.5,30.89,0,1.24.06,2.46.19,3.67-17.55-2.36-31.19-17.5-31.19-35.67v-32c0-9.33,3.6-17.86,9.48-24.27,1.32-.15,2.66-.23,4.02-.23,9.62,0,18.38,3.94,24.72,10.28,6.34,6.34,10.28,15.1,10.28,24.72Z" fill="#ffd8c7" opacity=".4" stroke-width="0"/><path d="m573.103,406.444c-3.65,4.39-5.92,9.98-6.11,16.06-2.25.56-4.6.85-7.02.85-16.29,0-29.5-13.21-29.5-29.5,0-5.94,1.76-11.48,4.8-16.11,17.76,2.2,32.34,13.56,37.83,28.7Z" fill="#ffd8c7" opacity=".4" stroke-width="0"/><path d="m470.473,420.355c-2.249,9.921-6.68,17.915-11.14,23.98,1.133-4.714,3.825-18.628-2.86-33.98-5.002-11.488-12.85-18.26-16.88-21.29,1.88-1.31,3.86-2.16,5.88-2.51,9.73-1.68,24.59,7.64,26.06,17.12,0,0,.13.81-.29,12.66-.206,1.312-.46,2.653-.77,4.02Z" fill="#fff" opacity=".19" stroke-width="0"/><circle cx="532.473" cy="339.355" r="2" fill="#f5bc60" stroke-width="0"/><circle cx="542.473" cy="333.355" r="2" fill="#f5bc60" stroke-width="0"/><circle cx="530.473" cy="325.355" r="1" fill="#f5bc60" stroke-width="0"/><circle cx="523.973" cy="333.855" r="1.5" fill="#f5bc60" stroke-width="0"/><circle cx="529.473" cy="351.355" r="3" fill="#f5bc60" stroke-width="0"/><line x1="550.473" y1="370.481" x2="561.83" y2="359.355" fill="none" stroke="#000" stroke-miterlimit="10"/><line x1="593.473" y1="484.283" x2="582.052" y2="467.438" fill="none" stroke="#000" stroke-miterlimit="10"/><circle cx="518.973" cy="498.855" r="2.5" fill="#f18381" stroke-width="0"/><circle cx="539.973" cy="506.855" r="2.5" fill="#f18381" stroke-width="0"/><circle cx="522.973" cy="525.855" r="2.5" fill="#f18381" stroke-width="0"/><circle cx="566.973" cy="508.855" r="2.5" fill="#f18381" stroke-width="0"/><circle cx="488.973" cy="539.855" r="2.5" fill="#f18381" stroke-width="0"/><circle cx="579.973" cy="534.855" r="2.5" fill="#f18381" stroke-width="0"/><path d="m619.973,423.355v52.95c-.5.03-1,.05-1.5.05-12.65,0-23-10.35-23-23v-44c0-4.37,1.24-8.46,3.37-11.95,5.15,1.07,9.76,3.64,13.35,7.23,4.8,4.8,7.78,11.43,7.78,18.72Z" fill="#f9e0ac" opacity=".55" stroke-width="0"/><path d="m692.863,483.225c-3.99-3.24-8.02-6.34-12.01-9.24-6.01-4.37-15.09-10.53-26.88-10.27-10.26.22-15.5,5.15-30.5,14.64-1.2.76-2.37,1.49-3.5,2.18v-50.11c.4-1.14,5.81-15.68,20.5-19.07,2.22-.51,12.71-2.63,21,3.99,8.35,6.67,11.14,19.53,6.3,31.51,0,0,11.86-7.7,20.27-5.61.26.07.51.14.76.23,1.59.52,3.03,1.43,4.21,2.86,4.58,5.54,2.29,24.83-.15,38.89Z" fill="#f6ece1" stroke-width="0"/><path d="m521.473,360.355c0,5.92-1.43,11.51-3.97,16.44-5.13,3.51-11.34,5.56-18.03,5.56-17.67,0-32-14.33-32-32,0-10.49,5.05-19.8,12.84-25.63,1.68-.24,3.41-.37,5.16-.37,19.88,0,36,16.12,36,36Z" fill="#f5bc60" stroke-width="0"/><path d="m486.873,431.995c.441-.958,4.308-9.724-.4-17.64-2.082-3.5-4.997-5.417-6.72-6.35,5.18-3.88,9.87-5.23,12.64-3.58,4.334,2.582,3.354,9.84,2.97,12.66-1.072,7.862-6.245,12.953-8.49,14.91Z" fill="#fff" opacity=".19" stroke-width="0"/><g opacity=".18"><path d="m317.473,655.355c-10.89-5.86-60.47-33.48-60.5-33.5l-14.52-10.95.16-.15c16.44-1.58,51.41-4.91,55.28-4.9,5.08,0,19.58,49.5,19.58,49.5Z" fill="#97a4ec" stroke-width="0"/><path d="m410.973,647.855l11.45,42.17c-25.82-4.58-52.98-11.52-79.45-22.56-8.59-3.58-17.12-7.6-25.5-12.11,0,0,27.5-21.5,46.5-21.5s47,14,47,14Z" fill="#97a4ec" stroke-width="0"/><path d="m507.473,655.875l19.65,44.59c-4.21-.14-8.58-.35-13.11-.62-2.46-.14-4.98-.31-7.54-.49-23.75-1.7-52.94-3.8-84.05-9.32v-.01c.28-.83,12.71-38.3,27.05-38.74,14.5-.43,58,4.59,58,4.59Z" fill="#97a4ec" stroke-width="0"/><path d="m599.973,645.855c8,3,37.8,24.33,37.8,24.33-1.28,1.31-3.21,3.23-5.68,5.38-10.84,9.45-23.77,16.37-41.64,20.53-16.29,3.8-36.68,5.32-63.33,4.37.08-.82,4.98-49.61,19.85-49.61,15,0,45-8,53-5Z" fill="#97a4ec" stroke-width="0"/><path d="m660.053,584.315c7.8.53,30.55,15.15,31.26,15.61-8.52,3.92-16.6,8.9-23.84,15.43-10.41,9.39-23.04,25.57-29.7,54.83,0,0-21.8-50.57-17.8-56.45,4-5.88,32.16-29.96,40.08-29.42Z" fill="#97a4ec" stroke-width="0"/><path d="m748.473,551.475c3.5,1.38,29.89,25.06,29.89,25.06-23.02,8.92-57.61,9.86-87.03,23.39.06-.83,3.05-39.18,13.78-39.62,10.86-.45,39.86-10.21,43.36-8.83Z" fill="#97a4ec" stroke-width="0"/><path d="m803.213,550.165c-.22,1.28-.7,3.54-1.74,6.19-3.92,9.96-12.22,15.97-23.11,20.18l8.36-36.23,2.92,1.75,13.57,8.11Z" fill="#97a4ec" stroke-width="0"/></g><path d="m455.373,866.985c-.39-.01-.79-.03-1.19-.06l-21.51-34.6c-2.95-.37-32.38-4-42.97-4.42-.13-.01-.26-.01-.4-.01-10.56,0-36.35,16.05-39.7,18.15-.22.14-.34.22-.36.23-.23.15-.54.08-.69-.15-.15-.22-.08-.52.13-.67.01-.01.01-.02.02-.02,1.21-.78,29.74-18.95,41.04-18.53,10.97.44,41.98,4.29,43.25,4.44.02.01.04.01.04.01l.24.03.52.84,21.52,34.63c.02.04.04.08.06.13Z" fill="#5161bb" stroke-width="0"/><path d="m516.603,860.435c-.01-.05-.02-.09-.04-.13-.46-1.02-7.85-17.3-15.94-28.01-.23-.3-.45-.6-.68-.89-3.82-4.88-7.76-8.4-11.17-8.4h-.16c-10.31.34-53.13,7.9-55.62,8.34-.06.01-.1.02-.11.02-.27.05-.45.31-.4.58s.31.45.58.4c.03-.01.28-.05.73-.12,5.85-1.04,45.09-7.9,54.85-8.22h.14c3.22,0,7.05,3.6,10.81,8.54.04.06.09.13.13.19,7.8,10.34,15.19,26.37,15.88,27.87l1-.17Z" fill="#5161bb" stroke-width="0"/><path d="m567.973,850.755c-.33.08-.66.14-.98.21-.02-.04-.02-.08-.02-.12.01-.21.55-16.8-3.21-27.1-.02-.05-.04-.1-.06-.14v-.02c-.97-2.61-2.22-4.8-3.83-6.2-7.64-6.64-48.42-.49-52.06.08l-7.19,14.83-.13.27c-.12.25-.42.35-.67.23-.04-.02-.07-.04-.1-.06q-.01-.01-.02-.02c-.03-.05-.07-.12-.11-.17,0,0-.01,0-.01-.01-.06-.13-.05-.28.01-.41l.35-.72,7.19-14.85.26-.04c1.83-.29,44.83-7.11,53.14.12,1.58,1.38,2.83,3.43,3.82,5.86.14.35.28.72.41,1.09,3.63,10.07,3.27,25.4,3.21,27.17Z" fill="#5161bb" stroke-width="0"/><path d="m607.973,810.464v31.62c-.33.07-.66.15-.99.22-.01-.03-.01-.07-.01-.11v-31.73c0-1.12-.49-2.18-1.35-2.89-.86-.72-1.98-1.02-3.08-.82-6.79,1.23-18.81,3.4-22.99,4.09-5.31.89-13.51,11.1-14.79,12.74-.11.13-.16.21-.17.22-.17.22-.48.26-.7.09-.05-.04-.09-.08-.13-.14-.03-.05-.05-.11-.06-.18-.02-.13.01-.27.09-.38.05-.06.24-.31.56-.7,2.11-2.65,9.69-11.74,15.04-12.63,4.17-.7,16.18-2.86,22.97-4.09,1.39-.25,2.81.12,3.9,1.03.88.74,1.46,1.75,1.64,2.87.05.26.07.52.07.79Z" fill="#5161bb" stroke-width="0"/><path d="m669.973,826.355c-.054,0-.109-.009-.163-.027-.261-.09-.4-.374-.31-.636,2.997-8.714,9.131-29.582,1.382-35.14-1.05-.753-2.064-1.024-3.004-1.206-19.521-3.78-55.98,18.959-60.073,21.562l-.333-.381-.255-.43c4.177-2.659,40.933-25.584,60.85-21.734,1.001.193,2.188.508,3.397,1.376,3.432,2.462,7.864,10.447-1.02,36.278-.071.207-.265.337-.473.337Z" fill="#5161bb" stroke-width="0"/><path d="m738.973,802.355c-.119,0-.239-.042-.334-.128l-29.321-26.34c-8.607,1.441-16.891,4.104-24.624,7.916-4.318,2.129-8.5,4.638-12.43,7.458-.226.16-.537.109-.698-.114-.161-.225-.11-.537.115-.698,3.974-2.853,8.203-5.39,12.57-7.542,7.892-3.891,16.351-6.597,25.14-8.045l.237-.039,29.678,26.66c.206.185.223.501.038.706-.099.11-.235.166-.372.166Z" fill="#5161bb" stroke-width="0"/><path d="m780.093,764.125c-.19.33-.38.65-.57.97l-20.5-30.75-.49-.73-.77-1.15c-.15.29-.25.75-.29,1.36-.45,7.1-15.88,20.69-47.18,41.59l-.54.36c-.09.05-.18.08-.28.08-.16,0-.32-.08-.42-.22-.15-.23-.09-.54.14-.7.02-.02.05-.03.07-.05,30.91-20.59,46.79-34.42,47.21-41.06.03-.55.12-2.06,1.15-2.58l.4-.2,1.05,1.57.63.95,20.39,30.56Z" fill="#5161bb" stroke-width="0"/><path d="m800.093,715.725c-10.22-10.15-17.89-16.06-23.17-17.86-.34-.12-.68-.22-1-.3-1.92-.49-3.48-.36-4.7.36-2.21,1.3-2.7,4.18-3.45,8.55-.74,4.26-1.74,10.11-4.76,17.7-1.15,2.87-2.47,5.71-3.94,8.44-.17.34-.36.67-.54,1-.13.24-.04.54.2.68.07.04.16.06.24.06.02,0,.03,0,.05-.01.16-.01.31-.1.39-.25.1-.18.19-.35.29-.53,1.58-2.91,3-5.95,4.23-9.03,3.06-7.68,4.08-13.58,4.82-17.89.73-4.24,1.17-6.79,2.97-7.86,4.14-2.44,13.51,3.57,27.88,17.87.07.07.15.11.24.12v.01l.25-1.06Z" fill="#5161bb" stroke-width="0"/><path d="m797.813,661.955c-2.16-.53-13.27-3.02-18.84.38-.17.1-.33.21-.49.33-.28.19-.53.41-.77.64-.89.86-1.48,1.93-1.76,3.18-1.93,8.78-.26,28.51-.03,31.08.01.13.02.21.02.25.03.26.24.45.5.45h.05c.22-.02.4-.19.43-.4.02-.04.02-.09.02-.14-.02-.22-2-21.98-.01-31.03.26-1.17.81-2.12,1.7-2.89h.01c.01-.01.02-.01.02-.02.25-.21.53-.41.83-.6,5.7-3.47,18.29-.2,18.42-.17.11.03.22.02.32-.02l-.42-1.04Z" fill="#5161bb" stroke-width="0"/><path d="m778.364,663.887c-.161,0-.318-.077-.415-.221-3.828-5.682-7.658-11.241-11.385-16.523l-.545-.772c-4.131-5.849-6.017-8.519-5.014-11.191,1.555-4.143,8.88-4.754,11.957-4.824h.011c.271,0,.494.217.5.488.006.276-.212.505-.489.512-2.242.051-9.665.504-11.043,4.176-.817,2.177.973,4.711,4.895,10.263l.546.773c3.73,5.288,7.565,10.854,11.396,16.541.154.229.094.54-.135.694-.085.058-.183.085-.279.085Z" fill="#5161bb" stroke-width="0"/><path d="m761.473,635.855c-.133,0-.267-.053-.365-.158l-16.797-17.954c-.188-.202-.178-.519.023-.707.202-.187.519-.178.707.023l16.797,17.954c.188.202.178.519-.023.707-.097.09-.219.135-.342.135Z" fill="#5161bb" stroke-width="0"/><path d="m154.913,706.335c-.15.28-.32.55-.5.82l-.14.21-6.37,9.36c-.28-.17-.56-.35-.84-.53l6.52-9.6c1.5-2.2,1.9-4.91,1.12-7.45-.79-2.54-2.66-4.55-5.13-5.52l-31.59-12.36c-.03-.36-.04-.73-.04-1.09l31.99,12.52c2.76,1.08,4.85,3.32,5.72,6.15.78,2.52.51,5.2-.74,7.49Z" fill="#4053a3" stroke-width="0"/><path d="m199.773,714.475c0,.33-.01.67-.03,1.01-.41,8.78-6.04,21.93-6.47,22.92-.32-.11-.63-.23-.94-.35,0-.01.01-.01.01-.02.08-.17,6.24-14.48,6.43-23.13v-.04c.04-1.61-.14-3.03-.6-4.11-.41-.98-1.03-1.61-1.88-1.93-7.46-2.8-38.9-1.59-42.02-1.46-.15.01-.23.01-.25.01-.26,0-.51-.21-.52-.48-.01-.28.2-.51.48-.52.11,0,.43-.02.93-.04,5.66-.22,34.37-1.21,41.74,1.55,1.1.42,1.92,1.25,2.44,2.47.48,1.12.68,2.53.68,4.12Z" fill="#4053a3" stroke-width="0"/><path d="m234.593,748.515c-.34-.02-.69-.04-1.03-.07-1.19-6.92-3.23-16.43-5.24-22.3-.03-.05-.05-.11-.06-.17-1.02-2.93-2.03-4.91-2.91-5.13-3.59-.9-22.13-4.65-25.61-5.36-.35-.07-.55-.11-.57-.11-.23-.04-.39-.24-.4-.47v-.04c0-.03,0-.05.01-.08.06-.27.32-.44.59-.39.02,0,.16.03.4.08,3.02.61,22.16,4.47,25.82,5.39,1.19.3,2.39,2.45,3.49,5.48.12.31.24.63.35.96,2.52,7.37,4.58,18.82,5.16,22.21Z" fill="#4053a3" stroke-width="0"/><path d="m265.963,747.095c-.34.05-.68.1-1.02.14-.01-.06-.01-.13.01-.19.03-.14,2.92-11.8,2.62-18.93-.01-.02-.01-.04-.01-.06-.07-1.85-.37-3.39-.99-4.34-.33-.5-.73-.78-1.22-.87-5.36-.89-31.57,2.83-35.92,3.46-.37.05-.59.09-.61.09-.21.03-.41-.08-.5-.25-.03-.05-.05-.11-.06-.17-.04-.28.14-.53.42-.57.06-.01.2-.03.4-.06,3.77-.55,30.76-4.43,36.43-3.48.77.13,1.41.57,1.89,1.31.4.61.69,1.43.87,2.39.16.79.24,1.67.28,2.63.27,6.91-2.19,17.28-2.59,18.9Z" fill="#4053a3" stroke-width="0"/><path d="m298.383,740.095c-.32.09-.64.18-.96.27-.02-.02-.03-.05-.03-.08-.66-6.26-3.57-22.66-8.99-23.43-5.81-.84-12.66-.28-15.24-.07-.34.03-.61.05-.78.06-.59.88-2.37,6.33-3.83,11.34v.01q-.01.01-.01.02c-.08.26-.36.41-.62.34-.2-.06-.34-.23-.35-.43-.01-.02-.01-.04-.01-.07s.01-.08.02-.12c.24-.85.48-1.63.69-2.36.01-.01,0-.01,0-.01,2.91-9.71,3.51-9.71,3.92-9.71.11,0,.42-.03.89-.06,2.61-.22,9.54-.78,15.46.06,1.85.26,3.38,1.89,4.65,4.19.16.29.31.59.47.89,3.29,6.75,4.58,17.9,4.72,19.16Z" fill="#4053a3" stroke-width="0"/><path d="m333.233,727.885c-.01-.03-.03-.07-.05-.1-.33-.46-6.25-8.86-12.67-12.85-.35-.22-.7-.42-1.05-.61-1.68-.91-3.37-1.47-4.99-1.47-7.33,0-18.88,5.92-21.28,7.19-.24.12-.38.2-.43.23-.24.13-.33.44-.2.68s.43.33.68.2c.01-.01.16-.09.42-.22v-.01c2.31-1.22,13.81-7.07,20.81-7.07,1.49,0,3.08.55,4.67,1.43.03.02.06.03.09.06,6.19,3.47,12.37,11.95,13.06,12.92l.94-.38Z" fill="#4053a3" stroke-width="0"/><path d="m355.053,718.055c-.3.15-.61.3-.92.44-.03-.05-.05-.11-.05-.17-.02-.1-.66-7.77-3.34-11.48-.03-.04-.06-.08-.1-.12-.01-.02-.02-.03-.03-.05-.84-1.1-1.87-1.82-3.14-1.82-5.16,0-22.86,8.15-26.96,10.08-.53.24-.84.39-.86.4-.14.07-.29.07-.42.01q-.01,0-.01-.01c-.03-.02-.05-.03-.08-.05-.01,0-.02,0-.02-.01-.06-.04-.11-.1-.14-.17-.12-.25-.01-.55.24-.67.04-.02.12-.06.24-.11,2.52-1.2,22.24-10.47,28.01-10.47,1.49,0,2.69.74,3.67,1.9.2.25.41.52.6.81,2.5,3.76,3.2,10.24,3.31,11.49Z" fill="#4053a3" stroke-width="0"/><path d="m351.08,706.988c-.134,0-.269-.054-.367-.16-.188-.203-.175-.52.028-.707l10.213-9.446c.202-.188.518-.176.707.027.188.203.175.52-.028.707l-10.213,9.446c-.096.089-.218.133-.339.133Z" fill="#4053a3" stroke-width="0"/><path d="m803.213,550.165c-.22,1.28-.7,3.54-1.74,6.19-14.62,37.13-89.92,19.25-134,59-10.41,9.39-23.04,25.57-29.7,54.83-1.28,1.31-3.21,3.23-5.68,5.38-10.84,9.45-23.77,16.37-41.64,20.53-18.86,4.4-43.23,5.74-76.44,3.75-2.46-.14-4.98-.31-7.54-.49-43.47-3.12-105.14-7.55-163.5-31.89-8.59-3.58-17.12-7.6-25.5-12.11-10.89-5.86-60.47-33.48-60.5-33.5l-14.52-10.95" fill="none" stroke="#35489b" stroke-miterlimit="10"/><path d="m537.763,476.915c-5.49,1.21-10.64.9-10.64.9,0,0,2.35-15.46-1.65-14.11-4,1.35-22,4.65-21.5-6.19.48-10.37-21.18.33-23.05,1.27,2.12-1.3,30.4-18.7,26.55-25.55-3.92-6.99-19.96-1.46-20.58-1.25l4.67-3c11.4-6.62,22.67-7.77,29.5-2.85.38.27,6.15,4.81,6.21,10.75.09,9.44-13.74,16.33-17.81,18.15,10.44-4.27,21.39-2.6,26.63,3.66,4.16,4.97,3.88,11.81,1.67,18.22Z" fill="#fff" opacity=".19" stroke-width="0"/><path d="m678.973,536.355c0,12.35-5.39,23.43-13.95,31.03-29.67-3.95-52.55-29.35-52.55-60.1,0-1.4.05-2.79.14-4.16,6.93-5.2,15.54-8.27,24.86-8.27,2.66,0,5.26.25,7.78.73,18.54,3.51,32.71,19.35,33.67,38.67.03.7.05,1.4.05,2.1Z" fill="#f6ece1" opacity=".66" stroke-width="0"/><rect x=".473" y="608.375" width="1080" height="474.65" fill="#f4c9c2" opacity=".49" stroke-width="0"/><line x1="1005.711" y1="608.375" x2="176.638" y2="608.375" fill="none" stroke="#fff" stroke-miterlimit="10"/><path d="m1006.493,665.485c-7.1-6.17-15.78-10.31-24.75-13.1-21.98-6.84-46.34-5.72-67.61,3.09-13.77,5.72-27.55,14.76-42.28,12.38-5.5-.89-10.6-3.34-15.61-5.77-.03-.02-.07-.03-.1-.05,4.47-2.17,8.85-4.52,13.13-7,12.2-7.08,24.05-15.4,37.76-18.75,21.16-5.18,45.05,1.92,64.29-8.29-2.84-5.92-5.69-11.84-8.53-17.76-.69-1.44-1.43-2.94-2.73-3.86-1.56-1.11-3.6-1.18-5.51-1.2-9.92-.09-19.85.16-29.76.77,7.09.79,13.98,3.32,19.89,7.32-13.26,6.68-27.93,10.56-42.76,11.3-8.51.43-17.18-.15-25.43,1.99-6.28,1.63-12.04,4.77-17.9,7.55-23.57,11.21-49.72,16.95-75.81,16.64-5.76-.07-11.69-.47-16.86-3-6.09-2.97-10.55-8.62-16.6-11.69-.64-.32-1.29-.62-1.95-.87-1.84-1.69-3.8-3.09-5.67-4.07-9-4.73-19.54-5.23-29.69-5.63-14.43-.57-28.85-1.14-43.27-1.71,15.3-9.4,36.54-.34,52.49-8.58,2.47-1.27,5.01-3.51,4.64-6.27-.02-.19-.06-.37-.12-.55h-53.56c-.14.04-.28.08-.42.11-6.76,1.64-14.27,2.21-19.39,6.91-2.42,2.23-4.13,5.59-3.36,8.79,1.35,5.6,8.56,6.99,14.31,7.19,3.19.1,6.38.19,9.57.24-12.93.97-30.23,2.6-42.25,4.49-3.95-2.66-8.14-4.92-12.65-6.53-10.87-3.86-22.71-3.57-34.24-3.23-33.05.96-66.11,1.92-99.17,2.88-5.81.18-12.03.6-17.96,1.72-14-2.93-30.28,2.73-41.81-5.71,16.7-1.48,34.11-3.2,48.29-12.13,1.86-1.17,3.78-2.84,4.74-4.73h-43.58c-4.44,1.41-8.66,3.48-13.04,5.09-5.88,2.16-12.06,3.51-18.31,3.85-3.01.16-6.1.1-8.94,1.13-2.83,1.03-5.41,3.48-5.5,6.49-.09,2.86,2,5.3,4.23,7.1,8.68,7.01,20.57,8.54,31.73,8.24,7.66-.2,15.3-1.17,22.96-1.24-2.06,1.73-3.85,3.77-5.26,6.16-6.04,1.5-12.06,3.05-18.19,4.05-36.38,5.96-74.44-7.51-110.13,1.72-9.9,2.56-18.6,4.54-28.75,5.18-2.88.18-4.42.08-5.07,1.08-10.47-6.3-26.08-10.74-44.35-15.11-6.31-3.42-12.53-6.81-18.65-9.74-1.55-.74-3.37-2.03-2.95-3.69.24-.92,1.11-1.51,1.92-2,5.73-3.42,12.03-5.88,18.55-7.26,4.07-.87,8.27-1.32,12.09-2.97,3.56-1.54,6.83-4.38,7.79-8.08h-32.82c-5.76,6.54-14.78,10.01-21.5,15.86-1.15,1-2.26,2.11-2.88,3.5-.86,1.93-.64,4.05.14,6.04-20.91-3.61-47.58-5.79-79.4.08-33.27,6.14-58.64,18.57-74.65,28.08,1.82,11.59,30.18,14.42,64.73,13.93,30.32-.43,50.45,9.92,66.24,22.07-1.42-.46-3.1-.83-5.05-1.1-18.55-2.53-41.82,3.82-59.38,9.28-6.5,2.02-13.37,4.74-16.97,10.51-1.84,2.93-2.67,6.45-4.85,9.14-6.2,7.69-18.27,4.39-28.08,5.53-10.96,1.27-20.4,9.09-25.78,18.72-5.38,9.63-7.17,20.87-7.53,31.89-.45,13.51,1.29,27.63,8.59,39.01,7.31,11.38,21.22,19.27,34.42,16.32,13.04-2.93,21.81-14.9,33.26-21.8,22.79-13.74,51.78-5.72,77.56.86,40.67,10.37,82.51,16.15,124.47,17.2,8.98.23,18.25.18,26.54-3.27,8.29-3.45,15.44-11.14,15.57-20.12.04-2.97-.95-5.9-2.59-8.4,32.67.03,65.32.07,97.98.1,24.08.03,48.66.13,71.49,7.79,14.09,4.73,27.12,12.23,41.14,17.19,25.42,9,53.84,9.14,79.43.67,2.74,6.28,8.14,13.12,10.85,14.54,11.04,5.79,24.45,2.03,36.33-1.78,25.69-8.25,52.32-16.37,79.17-13.69,37.29,3.73,71.53,28.03,108.9,25.2,12.23-.92,24.04-4.76,36.15-6.67,20.07-3.18,40.54-1.05,60.86-1.25,11.51-.12,24.52-1.77,31.37-11.02,6.9-9.31,4.2-23.41-3.89-31.7-8.1-8.29-20.2-11.54-31.78-11.72-9.51-.16-19.29,1.48-28.37-1.35-11.46-3.56-19.8-13.73-24.69-24.7-1.27-2.85-2.4-5.85-4.1-8.44,14.38-2.86,28.51-6.94,42.2-12.19,3.04-1.17,6.25-2.54,8.08-5.23,4.99-7.33-3.55-17.15-1.62-25.8,1.65-7.39,9.95-10.85,17.15-13.17,9.53-3.07,19.06-6.14,28.6-9.21,5.55-1.79,11.95-4.43,13.29-10.11,1.23-5.17-2.49-10.19-6.49-13.68Zm-326.16-34.39c2.33-.15,2.01-.78,26.21.24-11.2.4-22.42.49-33.63.28,2.69-.2,5.19-.38,7.42-.52Zm-205.35,12.32c3.24-3.68,8.62-4.34,13.5-4.75,31.94-2.74,64.13-5.47,95.99-1.84,7.1.8,15.77,3.43,16.87,10.49.83,5.32-3.67,10.28-8.79,11.93-5.12,1.65-10.67.84-15.99.09-21.03-2.93-42.24-4.57-63.47-4.9-4.84-.07-51.9,4.64-38.11-11.02Zm-57.09,27.06c8.07,1.78,16.13,4,24.36,4.6,5.31,2.31,21.5-2.82,27.99-2.17,25.32,2.52,48.94,13.62,74.28,16.18,19.61,1.98,39.25-1.31,58.91-3.38,1.88,5.91,6.62,11.18,12.21,14.17,8.52,4.55,18.54,5.07,28.19,5.48,16.86.74,33.73,1.47,50.6,2.2,10.03.43,22.15,2.24,26.02,11.51.59,1.43.93,3.04.5,4.52-.8,2.72-3.8,4.05-6.5,4.91-28.48,9.07-59.23,2.95-88.8-1.4-33.86-4.99-68.02-7.56-102.2-8.85-17.33-.65-34.67-.97-52.01-1.12-2.54-.03-8.22-.85-13.39-1.08-.57-1.99-1.41-3.91-2.58-5.69-11.77-17.87-45.23-3.57-56.59-21.82-3.41-5.47-2.93-13.84-5.89-22.17,8.36.92,16.68,2.29,24.9,4.11Zm-269.7.29c-3.09-3-6.06-6.36-10.02-8.06-3.59-1.54-7.62-1.57-11.52-1.57-9.32,0-18.64-.01-27.96-.01-4.06,0-18.54,2.65-20.66-1.2,4-4.33,11.46-2.66,16.67-2.4,25.69,1.28,32.07-10.58,46.39-13.79,27.74-6.22,28.42,10.17,67.38,7.62,12.43-.81,21.29.79,39,4,3.39.61,8.1,1.55,11.55,5.39,6.52,7.27,3.57,19.46,2.73,22.99-1.37,5.79-4.61,10.94-7.95,15.87-2.15,3.16-4.45,6.37-7.72,8.35-4.34,2.63-9.7,2.72-14.77,2.73-7.48.01-15.06.02-22.28-1.91-9.9-2.63-18.46-8.69-27.09-14.21-11.62-7.44-23.86-14.19-33.75-23.8Zm176.29,151.58c-3.79,1.99-8.33,1.63-12.59,1.21-27.08-2.63-54.29-5.29-80.65-12.03-35.74-9.13-69.75-25.71-106.44-29.54-7.62-.8-15.74-.94-22.46,2.75-6.75,3.71-10.97,10.64-16.32,16.19-9.5,9.85-23.26,15.45-36.94,15.04-2.77-.08-5.65-.43-7.98-1.93-4.3-2.76-5.48-8.41-6.28-13.45-1.5-9.4-3-18.99-1.47-28.38,1.53-9.39,6.64-18.72,15.21-22.86,9.51-4.59,20.77-1.96,31.25-3.23,10.47-1.26,22.05-10.75,17.97-20.49,23.14-1.16,46.16-4.65,68.6-10.4,9.43-2.41,15.24-7.78,14.17-12.18,19.81,16.79,33.17,34.6,54.39,31.43,4.3-.64,8.56-1.78,12.69-3.33,10.39,20.61,23.24,30.49,30.84,35.21,10.86,6.74,25.62,8.3,47.3,6.55-5.56,6.4-9.51,13.73-10.83,21.09-.28,1.59-.47,3.27.24,4.69,1.32,2.64,4.88,3,7.83,3,2.59,0,5.17.01,7.76.01,1.3,8.25.65,17-6.29,20.65Zm-45.23-86.77c-1.38-2.15-6.58-9.02-14.74-13.29,19.26-13.25,32.39-34.05,28.96-48.93-.01-.04-.02-.07-.03-.11,8.8.34,17.48-1.9,26.11-3.65,19.43-3.93,39.36-5.4,59.15-4.39-.38,1.83-.6,3.73-.63,5.53-.21,10.69,6.06,19.38,8.83,23.22,1.12,1.55,2.09,2.36,3.24,4.05,15.62,22.89,50.5,16.42,51.33,23.35,1.69,14.14-143.28,43.77-162.22,14.22Zm349.59,23.52c-1.28,6.69.65,13.58.31,20.39-1.19,23.84-29.57,37.71-53.31,35.27-23.75-2.45-44.97-15.41-67.8-22.41-54.37-16.68-113.45,1.35-169.76-6.68-1.59-4.86-.61-9.89,1.95-14.26,15.98-1.97,35.12-5.15,58.24-9.05,33.45-5.64,50.07-10.01,57-24,1.14-2.32,2.14-5.14,2.78-8.19,11.11,2.88,22.69,3.84,34.16,4.78,20.07,1.64,40.25,3.28,60.31,1.49,11.34-1.01,22.62-3.12,34.01-2.97,9.21.13,18.34,1.73,27.4,3.38,5,.92,10.21,1.94,14.25,5.02,2.7,2.06,4.66,4.88,6.66,7.66-3.09,2.11-5.48,5.82-6.2,9.57Zm278.3,29.46c5.58,6.88,15,9.44,23.84,9.65,8.85.2,17.66-1.53,26.51-1.41,8.85.12,18.28,2.47,24.06,9.17,5.78,6.71,5.89,18.56-1.52,23.4-2.98,1.96-6.63,2.54-10.17,3-15.11,1.99-30.39,2.71-45.62,2.15-19.38-.71-40.11-3.2-56.98,6.36-2.54,1.44-5.02,3.16-7.89,3.67-3.98.7-7.94-1.06-11.64-2.7-46.9-20.86-100.66-30.16-150.04-16.11-8.65,2.46-17.2,5.63-26.16,6.48-6.45.6-13.53-.08-19.34-3.17-1.69-.9-3.91-3.47-6.16-6.08.01-.01.02-.02.03-.02-3.25-21.63-4.41-43.57-3.47-65.42,7.92,5.14,18.78,4.04,28.34,2.35,25.64-4.54,50.95-10.95,75.66-19.17,2.49-.83,5.06-1.73,7-3.5,3.47-3.17,3.82-7.68,2.47-12.2,9.22.04,18.56-1.39,27.83-1.43,13.02-.05,27.54,3.73,34.18,14.92,2.48,4.19,3.67,9.12,6.7,12.93,5.62,7.06,15.75,8.25,24.77,8.43,15.35.29,30.73-.79,45.89-3.21,5.36,9.46,4.58,23.1,11.71,31.91Zm35.48-98.84c-7.52,1.43-16.71,3.28-19.03,10.57-1.86,5.82,1.91,11.73,4.77,17.12,2.86,5.39,4.55,12.97-.14,16.87-1.9,1.57-4.43,2.11-6.85,2.6-13.58,2.72-27.15,5.44-40.73,8.16-4.01.81-8.15,1.61-12.17.8-4.81-.98-8.83-4.16-12.77-7.11-22.19-16.61-47.86-28.56-74.86-34.86-8.92-2.08-18.6-3.48-26.99.21-3.33,1.47-6.12,3.66-8,6.27-14.84-13.49-34.61-21.49-54.67-22.03-14.58-.39-29.49,2.96-43.57-.82-2.7-.73-5.38-1.71-8.04-2.8,7.79.3,16.17-.25,20.02-6.63,5.09-8.42-2.56-18.62-9.65-25.44-2.66-2.56-5.34-5.14-8.11-7.61,1.51.08,2.98.13,4.36.17,1.57.04,7.38,1.71,15.45-.51,14.94-4.11,30.51-5.97,46.01-5.45,5.28.17,10.67.65,15.47,2.86,6.43,2.96,11.07,8.67,16.26,13.49,17.01,15.8,41.21,22.47,64.38,21.14,14.35-.82,28.35-4.47,41.69-9.9,3.38,3.09,6.94,5.96,10.81,8.43,8.69,5.53,19.22,8.87,29.35,6.99,14.82-2.76,25.53-15.68,39.38-21.63,18.58-7.99,42.34-1.2,53.89,15.4-11.17,6.63-23.5,11.3-36.26,13.71Z" fill="#fff" opacity=".35" stroke-width="0"/></svg>