<?xml version="1.0" encoding="UTF-8"?><svg id="Layer_1" xmlns="http://www.w3.org/2000/svg" viewBox="0 0 1080 1080"><rect x=".17" y="0" width="1078.378" height="454.912" fill="#f6ece1" stroke-width="0"/><rect x="770.605" width="309.395" height="427.198" fill="#f5bc60" stroke-width="0"/><polygon points="582.925 301.646 582.925 711.499 .18 711.499 .18 301.646 26.794 301.646 26.794 328.693 53.378 328.693 53.378 301.646 79.992 301.646 79.992 328.693 106.606 328.693 106.606 301.646 133.221 301.646 133.221 328.693 159.804 328.693 159.804 301.646 186.418 301.646 186.418 328.693 213.032 328.693 213.032 301.646 239.616 301.646 239.616 328.693 266.23 328.693 266.23 301.646 292.844 301.646 292.844 328.693 319.458 328.693 319.458 301.646 346.042 301.646 346.042 328.693 372.656 328.693 372.656 301.646 582.925 301.646" fill="#7680de" stroke-width="0"/><g opacity=".28"><line x1="0" y1="678.6" x2="372.476" y2="678.6" fill="none" stroke="#fff2e2" stroke-miterlimit="10" stroke-width="3.005"/><line x1="0" y1="639.933" x2="372.476" y2="639.933" fill="none" stroke="#fff2e2" stroke-miterlimit="10" stroke-width="3.005"/><line x1="0" y1="601.266" x2="372.476" y2="601.266" fill="none" stroke="#fff2e2" stroke-miterlimit="10" stroke-width="3.005"/><line x1="0" y1="562.599" x2="372.476" y2="562.599" fill="none" stroke="#fff2e2" stroke-miterlimit="10" stroke-width="3.005"/><line x1="0" y1="523.932" x2="372.476" y2="523.932" fill="none" stroke="#fff2e2" stroke-miterlimit="10" stroke-width="3.005"/><line x1="0" y1="485.264" x2="372.476" y2="485.264" fill="none" stroke="#fff2e2" stroke-miterlimit="10" stroke-width="3.005"/><line x1="0" y1="446.597" x2="372.476" y2="446.597" fill="none" stroke="#fff2e2" stroke-miterlimit="10" stroke-width="3.005"/><line x1="0" y1="407.93" x2="372.476" y2="407.93" fill="none" stroke="#fff2e2" stroke-miterlimit="10" stroke-width="3.005"/><line x1="0" y1="369.263" x2="372.476" y2="369.263" fill="none" stroke="#fff2e2" stroke-miterlimit="10" stroke-width="3.005"/><line x1="52.417" y1="679.545" x2="52.417" y2="714.36" fill="none" stroke="#fff2e2" stroke-miterlimit="10" stroke-width="3.005"/><line x1="108.346" y1="679.545" x2="108.346" y2="714.36" fill="none" stroke="#fff2e2" stroke-miterlimit="10" stroke-width="3.005"/><line x1="164.275" y1="679.545" x2="164.275" y2="714.36" fill="none" stroke="#fff2e2" stroke-miterlimit="10" stroke-width="3.005"/><line x1="220.204" y1="679.545" x2="220.204" y2="714.36" fill="none" stroke="#fff2e2" stroke-miterlimit="10" stroke-width="3.005"/><line x1="276.133" y1="679.545" x2="276.133" y2="714.36" fill="none" stroke="#fff2e2" stroke-miterlimit="10" stroke-width="3.005"/><line x1="332.061" y1="679.545" x2="332.061" y2="714.36" fill="none" stroke="#fff2e2" stroke-miterlimit="10" stroke-width="3.005"/><line x1="52.417" y1="602.169" x2="52.417" y2="639.229" fill="none" stroke="#fff2e2" stroke-miterlimit="10" stroke-width="3.005"/><line x1="108.346" y1="602.169" x2="108.346" y2="639.229" fill="none" stroke="#fff2e2" stroke-miterlimit="10" stroke-width="3.005"/><line x1="164.275" y1="602.169" x2="164.275" y2="639.229" fill="none" stroke="#fff2e2" stroke-miterlimit="10" stroke-width="3.005"/><line x1="220.204" y1="602.169" x2="220.204" y2="639.229" fill="none" stroke="#fff2e2" stroke-miterlimit="10" stroke-width="3.005"/><line x1="276.133" y1="602.169" x2="276.133" y2="639.229" fill="none" stroke="#fff2e2" stroke-miterlimit="10" stroke-width="3.005"/><line x1="332.061" y1="602.169" x2="332.061" y2="639.229" fill="none" stroke="#fff2e2" stroke-miterlimit="10" stroke-width="3.005"/><line x1="52.417" y1="524.033" x2="52.417" y2="561.093" fill="none" stroke="#fff2e2" stroke-miterlimit="10" stroke-width="3.005"/><line x1="108.346" y1="524.033" x2="108.346" y2="561.093" fill="none" stroke="#fff2e2" stroke-miterlimit="10" stroke-width="3.005"/><line x1="164.275" y1="524.033" x2="164.275" y2="561.093" fill="none" stroke="#fff2e2" stroke-miterlimit="10" stroke-width="3.005"/><line x1="220.204" y1="524.033" x2="220.204" y2="561.093" fill="none" stroke="#fff2e2" stroke-miterlimit="10" stroke-width="3.005"/><line x1="276.133" y1="524.033" x2="276.133" y2="561.093" fill="none" stroke="#fff2e2" stroke-miterlimit="10" stroke-width="3.005"/><line x1="332.061" y1="524.033" x2="332.061" y2="561.093" fill="none" stroke="#fff2e2" stroke-miterlimit="10" stroke-width="3.005"/><line x1="52.417" y1="445.897" x2="52.417" y2="485.962" fill="none" stroke="#fff2e2" stroke-miterlimit="10" stroke-width="3.124"/><line x1="108.346" y1="445.897" x2="108.346" y2="485.962" fill="none" stroke="#fff2e2" stroke-miterlimit="10" stroke-width="3.124"/><line x1="164.275" y1="445.897" x2="164.275" y2="485.962" fill="none" stroke="#fff2e2" stroke-miterlimit="10" stroke-width="3.124"/><line x1="220.204" y1="445.897" x2="220.204" y2="485.962" fill="none" stroke="#fff2e2" stroke-miterlimit="10" stroke-width="3.124"/><line x1="276.133" y1="445.897" x2="276.133" y2="485.962" fill="none" stroke="#fff2e2" stroke-miterlimit="10" stroke-width="3.124"/><line x1="332.061" y1="445.897" x2="332.061" y2="485.962" fill="none" stroke="#fff2e2" stroke-miterlimit="10" stroke-width="3.124"/><line x1="52.417" y1="367.761" x2="52.417" y2="407.826" fill="none" stroke="#fff2e2" stroke-miterlimit="10" stroke-width="3.124"/><line x1="108.346" y1="367.761" x2="108.346" y2="407.826" fill="none" stroke="#fff2e2" stroke-miterlimit="10" stroke-width="3.124"/><line x1="164.275" y1="367.761" x2="164.275" y2="407.826" fill="none" stroke="#fff2e2" stroke-miterlimit="10" stroke-width="3.124"/><line x1="220.204" y1="367.761" x2="220.204" y2="407.826" fill="none" stroke="#fff2e2" stroke-miterlimit="10" stroke-width="3.124"/><line x1="276.133" y1="367.761" x2="276.133" y2="407.826" fill="none" stroke="#fff2e2" stroke-miterlimit="10" stroke-width="3.124"/><line x1="332.061" y1="367.761" x2="332.061" y2="407.826" fill="none" stroke="#fff2e2" stroke-miterlimit="10" stroke-width="3.124"/><line x1="27.028" y1="640.57" x2="27.028" y2="680.305" fill="none" stroke="#fff2e2" stroke-miterlimit="10" stroke-width="3.005"/><line x1="82.957" y1="640.57" x2="82.957" y2="680.305" fill="none" stroke="#fff2e2" stroke-miterlimit="10" stroke-width="3.005"/><line x1="138.886" y1="640.57" x2="138.886" y2="680.305" fill="none" stroke="#fff2e2" stroke-miterlimit="10" stroke-width="3.005"/><line x1="194.815" y1="640.57" x2="194.815" y2="680.305" fill="none" stroke="#fff2e2" stroke-miterlimit="10" stroke-width="3.005"/><line x1="250.744" y1="640.57" x2="250.744" y2="680.305" fill="none" stroke="#fff2e2" stroke-miterlimit="10" stroke-width="3.005"/><line x1="306.672" y1="640.57" x2="306.672" y2="680.305" fill="none" stroke="#fff2e2" stroke-miterlimit="10" stroke-width="3.005"/><line x1="27.028" y1="562.434" x2="27.028" y2="602.169" fill="none" stroke="#fff2e2" stroke-miterlimit="10" stroke-width="3.005"/><line x1="82.957" y1="562.434" x2="82.957" y2="602.169" fill="none" stroke="#fff2e2" stroke-miterlimit="10" stroke-width="3.005"/><line x1="138.886" y1="562.434" x2="138.886" y2="602.169" fill="none" stroke="#fff2e2" stroke-miterlimit="10" stroke-width="3.005"/><line x1="194.815" y1="562.434" x2="194.815" y2="602.169" fill="none" stroke="#fff2e2" stroke-miterlimit="10" stroke-width="3.005"/><line x1="250.744" y1="562.434" x2="250.744" y2="602.169" fill="none" stroke="#fff2e2" stroke-miterlimit="10" stroke-width="3.005"/><line x1="306.672" y1="562.434" x2="306.672" y2="602.169" fill="none" stroke="#fff2e2" stroke-miterlimit="10" stroke-width="3.005"/><line x1="27.028" y1="484.298" x2="27.028" y2="524.033" fill="none" stroke="#fff2e2" stroke-miterlimit="10" stroke-width="3.005"/><line x1="82.957" y1="484.298" x2="82.957" y2="524.033" fill="none" stroke="#fff2e2" stroke-miterlimit="10" stroke-width="3.005"/><line x1="138.886" y1="484.298" x2="138.886" y2="524.033" fill="none" stroke="#fff2e2" stroke-miterlimit="10" stroke-width="3.005"/><line x1="194.815" y1="484.298" x2="194.815" y2="524.033" fill="none" stroke="#fff2e2" stroke-miterlimit="10" stroke-width="3.005"/><line x1="250.744" y1="484.298" x2="250.744" y2="524.033" fill="none" stroke="#fff2e2" stroke-miterlimit="10" stroke-width="3.005"/><line x1="306.672" y1="484.298" x2="306.672" y2="524.033" fill="none" stroke="#fff2e2" stroke-miterlimit="10" stroke-width="3.005"/><line x1="27.028" y1="409.167" x2="27.028" y2="445.897" fill="none" stroke="#fff2e2" stroke-miterlimit="10" stroke-width="3.124"/><line x1="82.957" y1="409.167" x2="82.957" y2="445.897" fill="none" stroke="#fff2e2" stroke-miterlimit="10" stroke-width="3.124"/><line x1="138.886" y1="409.167" x2="138.886" y2="445.897" fill="none" stroke="#fff2e2" stroke-miterlimit="10" stroke-width="3.124"/><line x1="194.815" y1="409.167" x2="194.815" y2="445.897" fill="none" stroke="#fff2e2" stroke-miterlimit="10" stroke-width="3.124"/><line x1="250.744" y1="409.167" x2="250.744" y2="445.897" fill="none" stroke="#fff2e2" stroke-miterlimit="10" stroke-width="3.124"/><line x1="306.672" y1="409.167" x2="306.672" y2="445.897" fill="none" stroke="#fff2e2" stroke-miterlimit="10" stroke-width="3.124"/><line x1="27.028" y1="331.031" x2="27.028" y2="367.761" fill="none" stroke="#fff2e2" stroke-miterlimit="10" stroke-width="3.124"/><line x1="82.957" y1="331.031" x2="82.957" y2="367.761" fill="none" stroke="#fff2e2" stroke-miterlimit="10" stroke-width="3.124"/><line x1="138.886" y1="331.031" x2="138.886" y2="367.761" fill="none" stroke="#fff2e2" stroke-miterlimit="10" stroke-width="3.124"/><line x1="194.815" y1="331.031" x2="194.815" y2="367.761" fill="none" stroke="#fff2e2" stroke-miterlimit="10" stroke-width="3.124"/><line x1="250.744" y1="331.031" x2="250.744" y2="367.761" fill="none" stroke="#fff2e2" stroke-miterlimit="10" stroke-width="3.124"/><line x1="306.672" y1="331.031" x2="306.672" y2="367.761" fill="none" stroke="#fff2e2" stroke-miterlimit="10" stroke-width="3.124"/><line x1=".17" y1="330.195" x2="372.646" y2="330.195" fill="none" stroke="#fff2e2" stroke-miterlimit="10" stroke-width="3.005"/><line x1="362.7" y1="331.698" x2="362.7" y2="369.263" fill="none" stroke="#fff2e2" stroke-miterlimit="10" stroke-width="3.005"/><line x1="362.7" y1="409.083" x2="362.7" y2="446.648" fill="none" stroke="#fff2e2" stroke-miterlimit="10" stroke-width="3.005"/><line x1="362.7" y1="486.467" x2="362.7" y2="524.033" fill="none" stroke="#fff2e2" stroke-miterlimit="10" stroke-width="3.547"/><line x1="362.7" y1="562.349" x2="362.7" y2="599.915" fill="none" stroke="#fff2e2" stroke-miterlimit="10" stroke-width="3.547"/></g><rect x="647.447" y="411.364" width="432.553" height="298.993" fill="#f4c9c2" stroke-width="0"/><path d="m1078.548,410.371h-432.553c6.154-2.041,48.585-17.242,69.517-76.551,10.299-36.453,7.724-80.197,7.724-98.423h278.07c0,18.227-2.575,61.97,7.724,98.423,20.932,59.309,63.363,74.51,69.517,76.551Z" fill="#f4c9c2" stroke-width="0"/><polygon points="1001.31 235.399 723.24 235.399 725.37 233.898 862.27 137.604 999.18 233.898 1001.31 235.399" fill="#f4c9c2" stroke-width="0"/><path d="m.17,211.391h314.49c12.192,0,22.942-8.193,26.012-19.998,4.505-17.324,1.614-34.26-8.165-45.02-18.006-19.812-52.345-10.955-55.985-10.016-7.821,2.017-12.029,4.661-42.054,21.037,0,0,4.798-67.012-39.655-69.569-44.453-2.557-74.491,42.522-74.491,42.522-1.248-4.69-11.681-41.339-49.324-57.848-34.566-15.159-65.83-1.827-70.83.405v138.486Z" fill="#f5bc60" stroke-width="0"/><polygon points="198.074 325.687 229.628 72.905 261.182 325.687 198.074 325.687" fill="#f18381" stroke-width="0"/><line x1="229.631" y1="46.957" x2="229.631" y2="81.819" fill="none" stroke="#eca5b5" stroke-linecap="round" stroke-miterlimit="10" stroke-width="3.005"/><line x1="216.565" y1="61.227" x2="243.363" y2="61.227" fill="#dc665e" stroke="#eca5b5" stroke-linecap="round" stroke-miterlimit="10" stroke-width="3.005"/><rect x="578.871" y="262.578" width="106.752" height="198.345" rx="53.376" ry="53.376" fill="#97a4ec" stroke-width="0"/><rect x="175.288" y="324.007" width="108.679" height="44.992" rx="22.491" ry="22.491" fill="#f18381" stroke-width="0"/><polygon points="306.453 404.617 152.803 404.617 199.648 368.999 259.609 368.999 306.453 404.617" fill="#f18381" stroke-width="0"/><rect x="139.472" y="519.014" width="180.312" height="197.317" fill="#f6ece1" stroke-width="0"/><rect x="456.764" y="710.357" width="623.236" height="165.288" fill="#7680de" stroke-width="0"/><path d="m197.766,627.401h0c4.681,0,8.482,3.8,8.482,8.482v50.917h-16.963v-50.917c0-4.681,3.8-8.482,8.482-8.482Z" fill="#f18381" stroke-width="0"/><path d="m229.628,627.401h0c4.681,0,8.482,3.8,8.482,8.482v50.917h-16.963v-50.917c0-4.681,3.8-8.482,8.482-8.482Z" fill="#f18381" stroke-width="0"/><path d="m261.491,627.401h0c4.681,0,8.482,3.8,8.482,8.482v50.917h-16.963v-50.917c0-4.681,3.8-8.482,8.482-8.482Z" fill="#f18381" stroke-width="0"/><rect x="164.76" y="404.617" width="129.737" height="114.397" fill="#f4c9c2" stroke-width="0"/><rect x="372.646" y="193.457" width="210.269" height="516.899" fill="#f4c9c2" stroke-width="0"/><path d="m319.766,617.799c-1.204-9.181,2.609-18.102,9.846-22.972,8.68-5.84,18.165-3.081,19.518-2.663,13.447,4.158,16.509,18.802,16.624,19.404,2.488,12.992-6.286,22.378-7.153,23.274,14.734-18.528,37.446-21.422,48.715-12.186,9.788,8.022,10.801,25.08,5.541,36.036-2.671,5.564-6.57,8.745-30.478,24.948,0,0,33.249-13.86,44.332-2.772,11.083,11.088,11.23,30.492,11.23,30.492l-118.176.048v-93.611Z" fill="#5161bb" stroke-width="0"/><polygon points="566.404 942.511 111.232 942.511 110.692 941.399 30.368 774.278 .18 711.499 456.463 711.499 507.408 818.545 566.404 942.511" fill="#f5bc60" stroke="#f5bc60" stroke-miterlimit="10" stroke-width="2"/><polygon points="0 711.509 0 942.503 111.046 942.503 0 711.509" fill="#f18381" stroke-width="0"/><rect x=".17" y="941.399" width="565.112" height="138.601" fill="#f6ece1" stroke-width="0"/><path d="m238.976,1019.895h0c12.434,0,22.529,10.095,22.529,22.529v37.576h-45.058v-37.576c0-12.434,10.095-22.529,22.529-22.529Z" fill="#f18381" opacity=".8" stroke-width="0"/><path d="m317.075,1019.895h0c12.434,0,22.529,10.095,22.529,22.529v37.576h-45.058v-37.576c0-12.434,10.095-22.529,22.529-22.529Z" fill="#f18381" opacity=".8" stroke-width="0"/><path d="m395.175,1019.895h0c12.434,0,22.529,10.095,22.529,22.529v37.576h-45.058v-37.576c0-12.434,10.095-22.529,22.529-22.529Z" fill="#f18381" stroke-width="0"/><path d="m473.275,1019.895h0c12.434,0,22.529,10.095,22.529,22.529v37.576h-45.058v-37.576c0-12.434,10.095-22.529,22.529-22.529Z" fill="#f18381" stroke-width="0"/><rect x="0" y="941.459" width="110.671" height="138.541" fill="#f4c9c2" stroke-width="0"/><rect x="456.754" y="518.022" width="432.553" height="192.335" fill="#f6ece1" stroke-width="0"/><polygon points="456.754 518.022 889.306 518.022 836.089 404.617 495.804 404.617 456.754 518.022" fill="#f18381" stroke-width="0"/><rect x="950.835" y="340.714" width="129.165" height="285.497" rx="64.582" ry="64.582" fill="#6675cb" stroke-width="0"/><rect x="817.562" y="301.646" width="146.84" height="324.565" rx="73.42" ry="73.42" fill="#97a4ec" stroke-width="0"/><path d="m891.818,572.327v138.03h-3.004v-137.489l.3.391c.3.361.751.571,1.202.571.3,0,.631-.09.901-.331.391-.3.601-.751.601-1.172Z" fill="#414cab" stroke-width="0"/><path d="m891.818,418.579v153.748c0,.42-.21.871-.601,1.172-.27.241-.601.331-.901.331-.451,0-.901-.211-1.202-.571l-.3-.391v-154.289c0-.841.661-1.503,1.502-1.503.811,0,1.502.661,1.502,1.503Z" fill="#414cab" stroke-width="0"/><path d="m891.818,572.327c0,.42-.21.871-.601,1.172-.27.241-.601.331-.901.331-.451,0-.901-.211-1.202-.571l-.3-.391-32.742-41.893c-.511-.661-.391-1.593.27-2.104.661-.541,1.592-.421,2.103.24l30.369,38.858,2.673,3.426c.21.27.331.601.331.932Z" fill="#414cab" stroke-width="0"/><path d="m890.306,495.885c-.358,0-.717-.126-1.005-.384-.616-.555-.667-1.506-.111-2.122l29.729-33.063c.554-.619,1.505-.666,2.121-.114.616.555.667,1.506.111,2.122l-29.729,33.063c-.296.332-.705.499-1.116.499Z" fill="#414cab" stroke-width="0"/><path d="m1016.478,461.313v249.043h-3.004v-249.043c0-.811.661-1.503,1.502-1.503.811,0,1.502.691,1.502,1.503Z" fill="#414cab" stroke-width="0"/><path d="m1014.967,570.796c-.433,0-.861-.185-1.159-.546l-22.529-27.229c-.528-.637-.44-1.585.199-2.113.638-.531,1.584-.446,2.115.2l22.529,27.229c.528.637.44,1.585-.199,2.113-.28.232-.619.346-.956.346Z" fill="#414cab" stroke-width="0"/><path d="m1014.965,500.648c-.402,0-.802-.161-1.099-.478-.566-.608-.532-1.558.075-2.125l34.544-32.212c.606-.561,1.555-.531,2.122.076.566.608.532,1.558-.075,2.125l-34.544,32.212c-.289.267-.657.402-1.024.402Z" fill="#414cab" stroke-width="0"/><polygon points="1080 818.545 1080 1080 565.429 1080 565.429 942.511 566.544 942.511 507.398 818.545 1080 818.545" fill="#f4c9c2" stroke-width="0"/><path d="m1080,818.545v232.364h-13.923c-.723-18.602-16.062-33.418-34.867-33.418s-34.175,14.816-34.898,33.418h-166.14c-.724-18.602-16.093-33.418-34.898-33.418s-34.175,14.816-34.898,33.418h-87.907c-22.15,0-40.292-18.092-40.292-40.21v-151.944c0-.691.031-1.382.06-2.074.03-.631.06-1.262.151-1.893.03-.451.09-.872.151-1.292.03-.331.06-.631.121-.932.09-.511.181-1.022.271-1.533.09-.511.211-.992.332-1.503.121-.481.241-.962.392-1.473.12-.481.271-.962.422-1.443.301-.962.633-1.893,1.025-2.825.361-.902.753-1.833,1.205-2.705.391-.811.814-1.593,1.265-2.344.06-.15.151-.27.241-.391.452-.811.965-1.593,1.507-2.374,3.646-5.259,8.529-9.617,14.194-12.652.723-.391,1.416-.751,2.17-1.082,1.446-.691,2.953-1.292,4.52-1.773,1.537-.511,3.134-.902,4.762-1.202.814-.15,1.627-.3,2.441-.391.693-.09,1.386-.18,2.109-.21.181-.03.391-.03.603-.03.753-.06,1.567-.09,2.351-.09h407.53Z" fill="#f5bc60" stroke-width="0"/><ellipse cx="794.747" cy="1053.86" rx="26.128" ry="26.14" fill="#97a4ec" stroke-width="0"/><ellipse cx="1029.902" cy="1053.86" rx="26.128" ry="26.14" fill="#97a4ec" stroke-width="0"/><polyline points="638.486 855.106 601.274 855.106 595.195 893.99" fill="none" stroke="#f18381" stroke-linecap="round" stroke-linejoin="round" stroke-width="10.201"/><path d="m1080,818.545v127.812h-447.812v-87.603c0-.481,0-.962.03-1.443,0-.21.03-.42.03-.631.03-.631.06-1.262.151-1.893.03-.451.09-.872.151-1.292.03-.331.06-.631.12-.931.09-.511.181-1.022.271-1.533.09-.511.211-.992.332-1.503.12-.481.241-.962.391-1.473.121-.481.271-.962.422-1.443.301-.962.633-1.893,1.024-2.825.362-.901.753-1.833,1.206-2.704.391-.811.814-1.593,1.265-2.344.06-.15.151-.27.241-.391.452-.811.964-1.592,1.507-2.374,3.646-5.259,8.528-9.617,14.194-12.652.723-.391,1.416-.751,2.17-1.082,1.446-.661,2.953-1.262,4.52-1.773,1.537-.481,3.134-.902,4.762-1.202.813-.15,1.627-.3,2.441-.391.693-.09,1.386-.18,2.11-.21.181-.03.391-.03.603-.03.753-.06,1.567-.09,2.351-.09h407.521Z" fill="#f6ece1" stroke-width="0"/><path d="m1080,858.755c0,.811-.661,1.442-1.442,1.442h-446.371v-1.442c0-.481,0-.962.03-1.443h446.341c.781,0,1.442.631,1.442,1.443Z" fill="#fff" stroke-width="0"/><path d="m770.064,858.755v87.603h-2.884v-87.603c0-.721.481-1.292,1.141-1.443.09-.03.21-.03.3-.03s.21,0,.3.03c.661.15,1.141.722,1.141,1.443Z" fill="#fff" stroke-width="0"/><path d="m883.279,858.755v87.603h-2.884v-87.603c0-.721.48-1.292,1.141-1.443.09-.03.21-.03.301-.03s.21,0,.3.03c.661.15,1.141.722,1.141,1.443Z" fill="#fff" stroke-width="0"/><path d="m997.665,858.755v87.603h-2.914v-87.603c0-.721.511-1.292,1.172-1.443.09-.03.21-.03.3-.03s.21,0,.3.03c.661.15,1.141.722,1.141,1.443Z" fill="#fff" stroke-width="0"/><path d="m1080,818.545v17.43h-440.703c3.647-5.259,8.529-9.617,14.195-12.652.723-.391,1.416-.751,2.17-1.082,1.447-.661,2.953-1.262,4.521-1.773,1.537-.481,3.134-.902,4.762-1.202.814-.15,1.628-.3,2.441-.391.693-.09,1.386-.18,2.109-.21.181-.03.391-.03.603-.03.753-.06,1.567-.09,2.351-.09h407.551Z" fill="#f5bc60" stroke-width="0"/><path d="m565.612,942.058s29.732-6.569,39.58,22.99c9.848,29.559,4.026,51.671,4.026,51.671,0,0,34.789-57.328,64.624-36.436,29.835,20.893,10.138,76.726,10.138,76.726,0,0,28.99-24.173,42.399-8.802,13.409,15.371,14.01,31.792,14.01,31.792h-174.164l-.613-137.942Z" fill="#6675cb" stroke-width="0"/><rect x="531.85" y="557.09" width="51.065" height="69.12" fill="#f5bc60" stroke-width="0"/><rect x="597.934" y="557.09" width="51.065" height="69.12" fill="#f5bc60" stroke-width="0"/><rect x="664.019" y="557.09" width="51.065" height="69.12" fill="#f4c9c2" stroke-width="0"/><path d="m558.884,762.876c0,1.143,1.187,1.9,2.224,1.418.12-.056.24-.114.36-.173l11.895-6.01c3.695-1.893,8.11-1.893,11.805,0l11.895,6.01c3.725,1.893,8.11,1.893,11.835,0l11.865-6.01c3.725-1.893,8.11-1.893,11.835,0l11.865,6.01c3.725,1.893,8.11,1.893,11.835,0l11.895-6.01c3.695-1.893,8.11-1.893,11.805,0l11.895,6.01c3.725,1.893,8.11,1.893,11.835,0l11.895-6.01c3.725-1.893,8.11-1.893,11.805,0l11.895,6.01c3.725,1.893,8.11,1.893,11.835,0l11.895-6.01c3.695-1.893,8.11-1.893,11.805,0l11.895,6.01c3.725,1.893,8.11,1.893,11.835,0l11.895-6.01c3.725-1.893,8.11-1.893,11.835,0l11.895,6.01c3.695,1.893,8.08,1.893,11.805,0l11.895-6.01c3.725-1.893,8.11-1.893,11.835,0l11.865,6.01c3.725,1.893,8.11,1.893,11.835,0l11.895-6.01c3.725-1.893,8.11-1.893,11.835,0l11.895,6.01c3.695,1.893,8.08,1.893,11.805,0l11.925-6.01c3.695-1.893,8.08-1.893,11.805,0l11.895,6.01c3.725,1.893,8.11,1.893,11.835,0l11.925-6.01c3.695-1.893,8.08-1.893,11.805,0l15.798,7.999c.747.378,1.659.077,2.033-.673h0c.372-.744.072-1.65-.67-2.025l-17.16-8.668c-3.725-1.893-8.11-1.893-11.805,0l-11.925,6.01c-3.725,1.893-8.11,1.893-11.835,0l-11.895-6.01c-3.725-1.893-8.11-1.893-11.805,0l-11.925,6.01c-3.725,1.893-8.11,1.893-11.805,0l-11.895-6.01c-3.725-1.893-8.11-1.893-11.835,0l-11.895,6.01c-3.725,1.893-8.11,1.893-11.835,0l-11.865-6.01c-3.725-1.893-8.11-1.893-11.835,0l-11.895,6.01c-3.725,1.893-8.11,1.893-11.805,0l-11.895-6.01c-3.725-1.893-8.11-1.893-11.835,0l-11.895,6.01c-3.725,1.893-8.11,1.893-11.835,0l-11.895-6.01c-3.695-1.893-8.11-1.893-11.805,0l-11.895,6.01c-3.725,1.893-8.11,1.893-11.835,0l-11.895-6.01c-3.695-1.893-8.08-1.893-11.805,0l-11.895,6.01c-3.725,1.893-8.11,1.893-11.835,0l-11.895-6.01c-3.695-1.893-8.11-1.893-11.805,0l-11.895,6.01c-3.725,1.893-8.11,1.893-11.835,0l-11.865-6.01c-3.725-1.893-8.11-1.893-11.835,0l-11.865,6.01c-3.725,1.893-8.11,1.893-11.835,0l-11.895-6.01c-3.695-1.893-8.11-1.893-11.805,0l-11.895,6.01c-.5.25-1.011.469-1.527.649-.63.22-1.057.805-1.057,1.473h0Z" fill="#414cab" stroke-width="0"/><polygon points="372.646 193.457 477.781 25.165 582.915 193.457 372.646 193.457" fill="#5161bb" stroke-width="0"/><rect x="408.692" y="226.515" width="27.035" height="27.047" fill="#f18381" stroke-width="0"/><rect x="531.85" y="331.698" width="27.035" height="27.047" fill="#97a4ec" stroke-width="0"/><polygon points="1001.31 235.399 1001.31 236.9 723.24 236.9 723.24 235.399 725.37 233.898 999.18 233.898 1001.31 235.399" fill="#fff" stroke-width="0"/><path d="m139.472,519.014c9.638,11.69,19.276,23.38,28.913,35.071,9.012-12.021,18.023-24.042,27.035-36.063,11.014,13.023,22.028,26.045,33.042,39.068,11.014-12.021,22.028-24.042,33.042-36.063,10.013,12.021,20.026,24.042,30.038,36.063,9.414-12.692,18.828-25.384,28.242-38.076" fill="#fff" stroke-width="0"/><ellipse cx="659.342" cy="104.803" rx="37.548" ry="37.565" fill="#f39b75" stroke-width="0"/><rect x="838.241" y="43.196" width="42.054" height="66.115" fill="#f18381" stroke-width="0"/><rect x="894.563" y="43.196" width="42.054" height="66.115" fill="#f18381" stroke-width="0"/><rect x="1030.487" y="151.384" width="33.042" height="48.084" fill="#f6ece1" stroke-width="0"/><path d="m107.958,554.587v155.911H0v-196.331c11.325-12.983,27.935-21.187,46.379-21.187,16.942,0,32.321,6.912,43.496,18.092,11.174,11.179,18.083,26.566,18.083,43.516Z" fill="#97a4ec" stroke-width="0"/><path d="m803.527,620.2h0c24.039,0,43.556,19.517,43.556,43.556v46.601h-87.111v-46.601c0-24.039,19.517-43.556,43.556-43.556Z" fill="#f18381" stroke-width="0"/><path d="m229.794,441.389h0c10.776,0,19.525,8.749,19.525,19.525v28.559h-39.05v-28.559c0-10.776,8.749-19.525,19.525-19.525Z" fill="none" stroke="#f18381" stroke-miterlimit="10" stroke-width="3.005"/></svg>