<?xml version="1.0" encoding="UTF-8"?><svg xmlns="http://www.w3.org/2000/svg" xmlns:xlink="http://www.w3.org/1999/xlink" viewBox="0 0 1080 1080"><defs><linearGradient id="linear-gradient" x1="416.902" y1="700.241" x2="526.627" y2="700.241" gradientUnits="userSpaceOnUse"><stop offset="0" stop-color="#1e282d" stop-opacity="0"/><stop offset="1" stop-color="#1e282d"/></linearGradient><linearGradient id="linear-gradient-2" x1="600.375" y1="720.641" x2="724.011" y2="720.641" xlink:href="#linear-gradient"/><clipPath id="clippath"><path d="m821.877,490.564c-4.872-6.88-13.848-10.238-23.044-8.908,8.801-9.822,8.585-11.198,8.585-11.198-.435-2.766-6.138-5.399-24.878-6.543-2.754-.168-5.351,1.306-6.644,3.743-2.471,4.654-4.578,8.945-6.365,12.778-3.282,7.179-5.545,12.764-6.999,16.534-.972,2.518-1.553,4.151-2.097,6.286-1.222,4.798-1.732,10.088-1.732,10.088h0s.002,0,.003,0c.008,2.094.328,3.821.818,5.461,1.213,4.061,3.28,7.036,4.744,8.836h48.798c6.02-4.767,9.453-10.154,11.018-15.621.847-2.96,3.798-12.973-2.207-21.454Z" fill="none" stroke-width="0"/></clipPath></defs><g isolation="isolate"><g id="Layer_1"><rect width="1080" height="1080" fill="#fffef8" stroke-width="0"/><g opacity=".57"><path d="m510.704,861.228c-1.581.647-5.021,1.843-9.619,1.772-4.158-.064-7.274-1.133-8.835-1.772v-62.473h18.454v62.473Z" fill="#8c411b" stroke-width="0"/><path d="m584.471,861.228c-1.581.647-5.021,1.843-9.619,1.772-4.158-.064-7.274-1.133-8.835-1.772v-62.473h18.454v62.473Z" fill="#8c411b" stroke-width="0"/></g><ellipse cx="574.53" cy="899.386" rx="142.237" ry="27.52" fill="#ebdfd4" stroke-width="0"/><path d="m540,135.311h0c138.111,0,250.24,112.129,250.24,250.24v411.915h-500.481v-411.915c0-138.111,112.129-250.24,250.24-250.24Z" fill="#ebdfd4" stroke-width="0"/><path d="m271.776,289.682c-.582,1.636-1.559,2.865-2.926,3.684-1.367.82-3.045,1.299-5.034,1.435-1.989.138-4.229-.045-6.72-.549-2.491-.502-5.169-1.264-8.033-2.283-2.523-.898-4.753-1.865-6.69-2.9-1.936-1.036-3.504-2.217-4.702-3.547-1.198-1.329-1.951-2.827-2.261-4.493-.309-1.667-.082-3.573.683-5.721.17-.477.395-.868.676-1.172.281-.303.555-.56.823-.773.268-.211.514-.392.74-.543.227-.15.37-.31.431-.481.072-.205.083-.451.032-.738-.051-.286-.098-.64-.141-1.059s-.048-.891-.014-1.417c.034-.526.178-1.147.432-1.863.631-1.773,1.525-3.203,2.68-4.29,1.156-1.087,2.476-1.856,3.962-2.307,1.485-.451,3.084-.62,4.793-.512,1.709.11,3.416.467,5.121,1.074,4.127,1.469,7.013,3.314,8.662,5.533,1.65,2.221,1.903,4.933.763,8.137-.292.818-.627,1.468-1.01,1.946-.381.48-.755.855-1.121,1.128-.366.274-.686.497-.958.668-.272.172-.439.343-.5.513-.097.273.042.476.417.61.376.133.865.241,1.47.322.604.081,1.257.169,1.952.262.696.095,1.301.232,1.812.414,2.046.729,3.531,1.844,4.456,3.345.926,1.502.994,3.36.205,5.577Zm-17.857-13.618c.207-.58.124-1.128-.25-1.645-.372-.516-.78-.854-1.224-1.012-.205-.073-.493-.127-.864-.163s-.738-.033-1.099.011-.692.139-.993.281c-.3.143-.505.368-.614.674-.11.307-.076.617.101.93s.409.606.695.881.604.513.955.715c.351.202.628.339.833.412.444.158.919.145,1.426-.04.507-.184.852-.532,1.034-1.044Z" fill="#e2a223" stroke-width="0"/><path d="m282.89,260.104c-.672,1.363-1.843,2.31-3.516,2.837-1.672.528-3.544.746-5.616.653-2.073-.093-4.203-.437-6.392-1.03s-4.142-1.315-5.864-2.162c-1.72-.847-3.484-1.938-5.289-3.271-1.804-1.332-3.351-2.82-4.64-4.464-1.288-1.642-2.168-3.377-2.641-5.204-.472-1.826-.253-3.665.659-5.516.224-.454.493-.816.807-1.085.315-.27.617-.493.907-.673.291-.179.557-.331.799-.454s.403-.265.482-.428c.096-.194.135-.437.118-.729-.018-.291-.024-.647-.019-1.068.006-.421.059-.898.162-1.433.102-.534.313-1.127.633-1.776.656-1.331,1.474-2.603,2.454-3.815s2.107-2.19,3.382-2.934c1.274-.744,2.7-1.161,4.278-1.252,1.578-.089,3.292.321,5.143,1.232,1.85.912,3.237,1.887,4.157,2.926.922,1.039,1.56,2.1,1.913,3.181.355,1.082.528,2.167.517,3.251-.009,1.084-.011,2.153-.004,3.205.292.064.684-.057,1.175-.36.492-.302,1.044-.686,1.656-1.15s1.278-.954,1.994-1.469c.718-.514,1.492-.939,2.323-1.277.831-.337,1.697-.535,2.594-.598.899-.061,1.803.132,2.711.579.715.352,1.353.839,1.915,1.458.562.62.96,1.349,1.19,2.19.232.84.294,1.779.187,2.815s-.465,2.172-1.073,3.406c-.56,1.137-1.303,1.971-2.231,2.502-.928.532-1.925.898-2.992,1.098-1.067.201-2.171.272-3.313.214-1.142-.057-2.174-.133-3.097-.224s-1.717-.139-2.38-.143c-.664-.004-1.076.156-1.236.481-.224.455-.133.762.273.921.406.16.932.258,1.58.294.648.037,1.336.073,2.064.109.729.037,1.321.166,1.775.391,1.948.96,3.104,2.134,3.468,3.524.365,1.39.027,3.14-1.013,5.251Zm-16.85-16.289c.239-.487.192-1.004-.143-1.553-.335-.548-.713-.926-1.135-1.135-.195-.095-.446-.179-.755-.25-.308-.071-.619-.094-.935-.067-.315.026-.602.096-.861.211-.258.115-.452.302-.58.562s-.142.535-.043.825.247.566.442.824c.196.258.432.495.709.711.277.218.512.374.707.469.422.209.904.275,1.446.198.542-.075.924-.341,1.149-.796Z" fill="#e2a223" stroke-width="0"/><path d="m297.295,199.168c2.574,1.686,4.639,3.569,6.197,5.649,1.558,2.081,2.604,4.248,3.14,6.503.535,2.255.559,4.563.072,6.926-.489,2.364-1.466,4.665-2.933,6.906-1.487,2.271-3.193,4.031-5.114,5.281-1.923,1.25-3.99,1.995-6.201,2.234-2.211.239-4.552-.018-7.023-.771-2.471-.752-5.008-1.982-7.612-3.687-2.725-1.785-4.858-3.679-6.4-5.685-1.543-2.005-2.538-4.085-2.988-6.239-.449-2.154-.387-4.363.187-6.627.573-2.263,1.614-4.545,3.122-6.846,1.387-2.119,3.008-3.816,4.86-5.091s3.878-2.089,6.078-2.444c2.201-.353,4.536-.219,7.005.403,2.47.623,5.006,1.787,7.61,3.491Zm-5.383,17.632c.555-.847.577-1.806.067-2.877-.511-1.069-1.417-2.031-2.719-2.884-.636-.416-1.294-.749-1.973-1-.68-.25-1.332-.395-1.954-.436-.623-.04-1.172.022-1.647.186-.475.165-.853.459-1.13.883s-.391.912-.342,1.463c.05.552.22,1.118.511,1.697.292.58.693,1.157,1.204,1.729.512.573,1.101,1.078,1.767,1.514,1.272.833,2.491,1.2,3.66,1.1,1.168-.1,2.021-.558,2.556-1.376Z" fill="#e2a223" stroke-width="0"/><path d="m312.235,167.474c1.383,1.168,2.138,2.293,2.268,3.373.129,1.082-.425,2.354-1.663,3.819-.63.747-1.279,1.193-1.948,1.34-.668.146-1.335.234-2,.264-.666.031-1.337.139-2.015.323-.678.186-1.355.68-2.033,1.481-.63.747-.926,1.517-.885,2.309.042.793.268,1.576.68,2.35.412.775.941,1.495,1.588,2.159.647.665,1.247,1.231,1.8,1.698s1.2.907,1.94,1.319c.741.414,1.504.702,2.289.867.784.165,1.549.172,2.294.019s1.409-.574,1.993-1.266c.14-.165.282-.389.425-.672.143-.281.241-.566.294-.853.053-.286.055-.569.005-.848-.049-.277-.184-.511-.405-.697-.249-.21-.582-.279-1-.205-.417.073-.895.429-1.431,1.064-.748.885-1.459,1.363-2.134,1.431-.674.071-1.399-.222-2.173-.876-1.3-1.098-1.689-2.375-1.17-3.831.519-1.456,1.807-3.401,3.862-5.834.887-1.051,1.735-1.803,2.545-2.257s1.615-.649,2.417-.588c.801.062,1.614.333,2.438.816.824.483,1.72,1.134,2.687,1.951,3.816,3.223,5.845,6.513,6.089,9.87s-1.269,6.97-4.538,10.841c-1.892,2.239-3.832,3.905-5.82,4.997-1.989,1.092-4.022,1.649-6.101,1.669-2.079.021-4.199-.456-6.361-1.43s-4.363-2.406-6.603-4.298c-2.017-1.705-3.786-3.649-5.306-5.833-1.519-2.183-2.597-4.456-3.231-6.816-.636-2.361-.753-4.746-.353-7.156.401-2.409,1.513-4.692,3.334-6.849,1.074-1.272,2.34-2.418,3.794-3.44,1.455-1.021,3.005-1.761,4.648-2.221,1.644-.459,3.305-.56,4.983-.304,1.678.257,3.278,1.028,4.798,2.312Z" fill="#e2a223" stroke-width="0"/><path d="m341.411,177.095c-1.109,1.039-2.539,1.512-4.29,1.416s-3.58-.551-5.486-1.37c-1.907-.816-3.779-1.889-5.618-3.216s-3.413-2.691-4.726-4.091c-1.311-1.4-2.578-3.041-3.796-4.924-1.219-1.882-2.142-3.821-2.768-5.813s-.839-3.926-.637-5.802c.201-1.875,1.055-3.519,2.561-4.929.369-.346.748-.59,1.137-.731.389-.141.75-.244,1.086-.311.335-.065.637-.113.907-.143.27-.029.471-.106.604-.23.158-.148.28-.362.366-.642.087-.277.207-.613.36-1.006.154-.392.372-.82.657-1.285.284-.464.689-.944,1.218-1.439,1.083-1.014,2.297-1.916,3.641-2.705,1.345-.788,2.744-1.306,4.198-1.553,1.454-.247,2.936-.134,4.445.337,1.508.472,2.968,1.46,4.378,2.965s2.364,2.907,2.859,4.203c.496,1.297.718,2.514.669,3.652s-.27,2.213-.662,3.223c-.391,1.012-.77,2.011-1.135,2.997.251.163.66.189,1.226.079.567-.11,1.219-.274,1.955-.493s1.531-.443,2.384-.672c.853-.228,1.727-.353,2.624-.376.897-.022,1.776.096,2.639.354.862.259,1.64.758,2.333,1.497.544.581.97,1.262,1.278,2.039.308.778.422,1.601.342,2.469-.079.869-.351,1.769-.817,2.7-.466.933-1.2,1.869-2.204,2.809-.924.867-1.914,1.385-2.97,1.555-1.055.171-2.117.162-3.186-.027-1.07-.188-2.128-.511-3.176-.968-1.048-.456-1.988-.891-2.82-1.302s-1.557-.735-2.176-.974c-.62-.237-1.062-.232-1.326.015-.369.346-.392.665-.069.958.323.292.781.57,1.375.832.593.262,1.224.539,1.894.83.669.291,1.177.62,1.522.991,1.485,1.584,2.153,3.091,2.004,4.521-.148,1.429-1.082,2.948-2.798,4.556Zm-10.027-21.182c.397-.371.534-.872.414-1.504-.121-.631-.341-1.118-.664-1.462-.148-.158-.354-.325-.617-.5-.263-.174-.548-.306-.852-.392-.305-.087-.597-.122-.88-.106-.282.017-.529.125-.74.322-.211.199-.322.451-.331.758-.011.307.031.616.124.925.092.311.229.616.412.916.182.301.347.53.496.688.322.344.749.575,1.284.695.534.121.984.007,1.355-.34Z" fill="#e2a223" stroke-width="0"/><path d="m353.467,154.176c-1.212-1.623-1.827-3.413-1.841-5.367s.444-3.73,1.373-5.328c.239-.405.43-.74.572-1.004.141-.263.158-.467.049-.613-.086-.116-.256-.147-.51-.094-.254.055-.565.107-.934.156-.775.172-1.604.227-2.487.163-.884-.063-1.75-.239-2.6-.531-.85-.291-1.652-.698-2.403-1.221-.753-.522-1.399-1.146-1.94-1.871-.91-1.218-1.479-2.6-1.708-4.146-.229-1.545-.102-3.143.383-4.793.484-1.65,1.316-3.287,2.495-4.914s2.726-3.155,4.64-4.584c1.363-1.019,2.799-1.832,4.309-2.441s2.972-.967,4.383-1.073c1.412-.106,2.716.038,3.914.43,1.197.394,2.175,1.097,2.934,2.112.824,1.103,1.181,2.111,1.074,3.026-.106.916-.481,1.76-1.123,2.533-.642.774-1.41,1.484-2.305,2.13-.896.647-1.735,1.262-2.517,1.846-.783.585-1.379,1.133-1.789,1.642-.41.51-.42,1.026-.03,1.547.325.436.747.606,1.264.513s1.06-.318,1.629-.676c.569-.357,1.135-.779,1.697-1.267.561-.488,1.06-.894,1.495-1.219.609-.454,1.192-.732,1.75-.832.558-.1,1.072-.077,1.542.068.47.146.9.389,1.291.73s.748.729,1.073,1.164.594.901.806,1.397c.213.497.304,1.027.274,1.591-.03.565-.224,1.15-.584,1.758-.359.607-.945,1.215-1.757,1.821-.406.303-.831.611-1.278.92-.445.311-.826.618-1.142.921-.315.304-.522.617-.62.938-.098.323-.028.642.209.961.304.406.705.626,1.204.659s.995-.133,1.488-.502c.319-.239.671-.569,1.055-.991.384-.423.867-.851,1.446-1.285,1.595-1.191,3.193-1.742,4.797-1.652,1.603.09,2.914.816,3.932,2.179,1.322,1.769,1.416,3.832.287,6.19-1.13,2.358-3.319,4.75-6.566,7.176-.551.412-1.255.938-2.109,1.576-.855.64-1.82,1.269-2.892,1.89-1.073.62-2.21,1.154-3.412,1.6-1.204.446-2.43.664-3.682.65-1.253-.013-2.49-.308-3.712-.886-1.223-.578-2.364-1.577-3.426-2.998Z" fill="#e2a223" stroke-width="0"/><path d="m378.386,134.766c-.383-.656-.653-1.368-.809-2.137-.156-.768-.194-1.531-.113-2.292.08-.759.306-1.468.676-2.124.371-.657.9-1.186,1.587-1.588,1.313-.767,2.433-1.181,3.362-1.241.929-.061,1.807-.028,2.634.095.827.125,1.643.194,2.446.205.804.012,1.737-.292,2.799-.913.531-.311.915-.712,1.15-1.207.235-.493.143-1.099-.277-1.819-.146-.25-.408-.411-.786-.484-.378-.072-.781-.099-1.21-.079s-.852.068-1.268.143c-.417.077-.728.154-.934.232-1.545.442-3.134.931-4.771,1.468-1.635.537-3.24.856-4.815.96-1.576.103-3.078-.171-4.507-.824-1.43-.652-2.711-1.948-3.843-3.885-.914-1.562-1.446-3.137-1.598-4.726-.153-1.587.1-3.181.758-4.781.657-1.6,1.75-3.171,3.28-4.716,1.529-1.543,3.528-3.037,5.997-4.48,1.561-.913,3.206-1.632,4.932-2.159s3.383-.793,4.972-.8c1.589-.006,3.043.276,4.362.846,1.319.572,2.362,1.513,3.129,2.825.311.532.538,1.154.681,1.865.144.713.171,1.441.082,2.184-.089.745-.312,1.44-.666,2.088-.355.648-.861,1.163-1.517,1.546-.781.457-1.478.644-2.092.563-.614-.081-1.235-.211-1.863-.39-.628-.177-1.304-.275-2.027-.293-.723-.017-1.584.266-2.584.851-.406.238-.705.569-.896.995-.192.426-.123.921.206,1.483.147.251.408.413.786.484.377.072.777.091,1.196.056.42-.035.821-.103,1.204-.201s.687-.171.91-.217c1.594-.429,3.183-.812,4.767-1.151,1.583-.338,3.103-.462,4.562-.371,1.457.091,2.821.489,4.092,1.192,1.271.704,2.39,1.884,3.358,3.54,1.114,1.907,1.618,3.845,1.512,5.814s-.633,3.849-1.578,5.638-2.184,3.436-3.716,4.939c-1.533,1.503-3.173,2.767-4.923,3.789-1.907,1.114-3.793,1.975-5.659,2.584-1.866.61-3.611.906-5.234.89-1.623-.015-3.103-.376-4.438-1.084-1.336-.707-2.441-1.811-3.319-3.312Z" fill="#e2a223" stroke-width="0"/><path d="m408.667,117.225c-.302-.697-.484-1.436-.547-2.218-.063-.781-.009-1.544.163-2.289.171-.744.479-1.42.926-2.028.446-.607,1.035-1.069,1.765-1.386,1.395-.604,2.557-.88,3.487-.83.929.052,1.797.189,2.603.411.807.223,1.608.389,2.404.497.796.11,1.759-.081,2.889-.571.565-.244.993-.597,1.287-1.059.292-.462.274-1.074-.057-1.839-.115-.266-.356-.457-.722-.575-.367-.117-.763-.192-1.191-.224-.428-.031-.854-.034-1.277-.009-.422.026-.74.065-.954.118-1.586.254-3.223.549-4.912.885-1.688.337-3.32.462-4.895.376-1.576-.087-3.035-.54-4.376-1.359s-2.457-2.259-3.349-4.318c-.719-1.66-1.06-3.287-1.021-4.883.039-1.593.481-3.146,1.325-4.656s2.119-2.939,3.823-4.289c1.703-1.348,3.867-2.592,6.49-3.728,1.66-.719,3.379-1.236,5.155-1.553,1.776-.315,3.453-.381,5.032-.198,1.578.185,2.988.639,4.229,1.363,1.241.725,2.163,1.784,2.768,3.179.245.565.396,1.21.453,1.933.057.725-.004,1.451-.181,2.179-.178.727-.482,1.392-.912,1.992-.43.601-.993,1.052-1.691,1.354-.831.361-1.545.463-2.145.308-.599-.155-1.2-.358-1.802-.61-.603-.251-1.262-.43-1.977-.535-.717-.103-1.606.074-2.668.535-.432.187-.769.481-1.009.881-.241.399-.232.899.027,1.497.115.266.355.458.722.574.366.118.76.184,1.181.199s.827-.004,1.219-.055c.392-.051.702-.087.93-.107,1.633-.234,3.257-.424,4.87-.572,1.614-.146,3.137-.087,4.574.178,1.437.266,2.743.824,3.921,1.674,1.176.851,2.147,2.157,2.909,3.917.878,2.026,1.146,4.01.804,5.952-.342,1.944-1.09,3.747-2.243,5.409-1.153,1.664-2.58,3.15-4.281,4.458-1.702,1.309-3.481,2.366-5.342,3.171-2.026.878-4.002,1.507-5.927,1.887-1.926.382-3.694.467-5.303.255-1.61-.209-3.035-.746-4.277-1.608-1.241-.862-2.207-2.091-2.897-3.686Z" fill="#e2a223" stroke-width="0"/><path d="m485.122,82.069c.73,2.989.954,5.775.672,8.358s-.997,4.882-2.144,6.895c-1.149,2.013-2.707,3.717-4.676,5.11-1.97,1.393-4.256,2.409-6.857,3.044-2.637.644-5.085.767-7.343.368-2.259-.399-4.277-1.265-6.056-2.601-1.779-1.335-3.314-3.121-4.605-5.358-1.292-2.236-2.306-4.866-3.045-7.89-.773-3.165-1.039-6.006-.797-8.524.242-2.517.934-4.717,2.077-6.599,1.142-1.88,2.696-3.452,4.66-4.715,1.964-1.262,4.282-2.219,6.955-2.872,2.46-.601,4.803-.735,7.027-.403,2.223.332,4.26,1.12,6.11,2.364,1.849,1.244,3.464,2.935,4.844,5.076,1.38,2.142,2.44,4.724,3.178,7.747Zm-15.969,9.21c.983-.24,1.655-.926,2.012-2.057.358-1.129.352-2.451-.018-3.963-.18-.739-.433-1.431-.759-2.078-.326-.647-.702-1.197-1.13-1.652s-.871-.784-1.331-.989c-.46-.203-.937-.247-1.428-.126-.493.121-.908.399-1.249.837-.34.437-.602.967-.786,1.589-.183.623-.284,1.317-.3,2.085-.018.768.068,1.539.257,2.312.361,1.477,1.002,2.578,1.925,3.302.922.725,1.857.971,2.807.74Z" fill="#e2a223" stroke-width="0"/><path d="m513.255,59.021c.719-.083,1.447-.012,2.183.212s1.428.619,2.077,1.181c.648.563,1.208,1.309,1.68,2.238.471.929.786,2.077.945,3.443.216,1.871.364,3.939.444,6.207.08,2.268.008,4.562-.216,6.883s-.61,4.58-1.157,6.774c-.548,2.195-1.348,4.182-2.399,5.961-1.051,1.781-2.373,3.263-3.967,4.449-1.594,1.186-3.523,1.91-5.788,2.172-2.554.295-4.822-.026-6.807-.962-1.985-.936-3.719-2.229-5.203-3.88-1.484-1.65-2.751-3.535-3.797-5.654s-1.898-4.208-2.555-6.263-1.159-3.955-1.507-5.701c-.347-1.744-.573-3.066-.677-3.966-.224-1.941-.177-3.577.143-4.908.319-1.33.777-2.421,1.371-3.274.593-.852,1.257-1.484,1.994-1.897.735-.413,1.408-.655,2.02-.725,1.042-.12,1.999-.122,2.868-.004.869.118,1.681.589,2.432,1.413.502.562.983,1.499,1.446,2.812.46,1.312.914,2.782,1.356,4.406.443,1.626.891,3.295,1.344,5.009.453,1.716.917,3.283,1.391,4.704s.962,2.576,1.467,3.465c.503.89,1.043,1.301,1.618,1.234.431-.049.74-.531.926-1.446.186-.914.299-2.065.338-3.455.039-1.389.045-2.92.015-4.592-.029-1.672-.046-3.31-.049-4.913-.004-1.603.031-3.046.101-4.33.071-1.283.25-2.251.539-2.904.541-1.301,1.248-2.203,2.119-2.705.871-.501,1.971-.829,3.302-.983Z" fill="#e2a223" stroke-width="0"/><path d="m523.875,87.526c-.01-2.026.56-3.83,1.712-5.41,1.15-1.58,2.574-2.735,4.272-3.467.434-.183.786-.338,1.057-.467s.406-.282.405-.464c0-.144-.119-.27-.354-.378-.236-.107-.517-.25-.844-.43-.725-.323-1.424-.771-2.096-1.348-.673-.575-1.264-1.234-1.774-1.973-.511-.739-.912-1.543-1.205-2.411-.294-.867-.443-1.753-.447-2.658-.007-1.52.357-2.969,1.093-4.348.735-1.378,1.788-2.587,3.159-3.625,1.37-1.038,3.012-1.86,4.929-2.466,1.915-.606,4.067-.915,6.456-.926,1.701-.009,3.34.193,4.917.601,1.576.409,2.964.991,4.161,1.745,1.198.755,2.161,1.645,2.89,2.674.728,1.028,1.096,2.175,1.102,3.442.006,1.376-.306,2.4-.936,3.072s-1.433,1.128-2.41,1.369c-.976.24-2.016.353-3.12.34-1.105-.013-2.145-.018-3.122-.012-.977.004-1.782.089-2.414.255-.634.166-.948.574-.945,1.226.003.543.239.931.711,1.164.471.234,1.042.376,1.712.427s1.376.048,2.118-.01c.74-.058,1.384-.088,1.926-.091.76-.004,1.393.121,1.902.371.507.252.907.575,1.198.972.292.398.493.848.604,1.355.11.506.167,1.03.17,1.574.003.543-.058,1.077-.182,1.602-.125.526-.368,1.006-.726,1.442-.361.436-.865.792-1.515,1.066-.65.275-1.483.414-2.495.419-.507.003-1.031-.004-1.575-.019-.543-.015-1.031.004-1.465.061-.435.057-.786.186-1.057.385-.271.201-.406.499-.403.898.002.507.194.922.575,1.246.382.323.88.484,1.495.482.399-.002.877-.058,1.439-.17.56-.111,1.202-.169,1.926-.172,1.99-.009,3.603.499,4.839,1.525s1.857,2.389,1.865,4.09c.011,2.207-1.141,3.923-3.451,5.146-2.311,1.223-5.494,1.844-9.547,1.864-.687.004-1.566.007-2.632.012-1.068.005-2.218-.063-3.449-.201-1.232-.139-2.464-.387-3.695-.742-1.233-.356-2.348-.912-3.346-1.667-.999-.756-1.819-1.728-2.457-2.92-.639-1.191-.962-2.673-.97-4.447Z" fill="#e2a223" stroke-width="0"/><path d="m562.848,96.949c-1.512-.159-2.805-.932-3.876-2.32-1.074-1.387-1.924-3.07-2.551-5.046-.629-1.978-1.042-4.096-1.24-6.355-.198-2.259-.196-4.342.005-6.25s.615-3.938,1.244-6.092c.627-2.153,1.49-4.119,2.588-5.896,1.097-1.776,2.421-3.201,3.973-4.276,1.551-1.073,3.352-1.501,5.403-1.285.504.053.937.18,1.297.383.361.201.675.408.945.619.269.21.503.407.702.593.199.185.388.286.568.306.216.022.458-.025.725-.142.266-.117.599-.246.996-.386.397-.14.863-.254,1.401-.343s1.166-.095,1.886-.019c1.476.156,2.951.485,4.427.986,1.476.502,2.783,1.222,3.921,2.161s2.022,2.133,2.652,3.583c.629,1.45.836,3.2.619,5.251-.216,2.052-.654,3.689-1.31,4.911-.657,1.223-1.432,2.188-2.326,2.893-.893.707-1.85,1.243-2.872,1.607-1.021.366-2.024.733-3.01,1.102.042.296.289.622.742.979.454.358,1.005.743,1.652,1.158.647.414,1.336.869,2.067,1.364.73.496,1.396,1.075,2,1.74.603.664,1.089,1.408,1.457,2.229.368.822.499,1.736.392,2.744-.083.793-.32,1.559-.707,2.3-.388.742-.936,1.367-1.644,1.873-.709.508-1.568.891-2.578,1.148-1.01.257-2.199.314-3.566.169-1.261-.133-2.3-.543-3.118-1.23-.82-.687-1.507-1.497-2.064-2.429s-1.005-1.944-1.344-3.035c-.34-1.091-.626-2.086-.859-2.984-.232-.899-.461-1.659-.687-2.284-.225-.624-.519-.955-.877-.993-.505-.053-.761.138-.771.573-.011.436.08.964.27,1.584.188.621.391,1.279.61,1.976.217.696.3,1.296.247,1.8-.228,2.16-.931,3.65-2.11,4.472-1.179.823-2.938,1.109-5.277.862Zm9.471-21.437c.54.057,1.009-.166,1.409-.67.399-.504.623-.99.672-1.457.023-.216.014-.481-.026-.794s-.125-.614-.259-.901-.299-.531-.496-.734-.44-.32-.727-.35c-.289-.031-.551.05-.791.244-.239.194-.445.426-.619.699-.175.273-.315.576-.423.91-.109.335-.174.61-.197.825-.049.468.055.944.314,1.425.258.483.639.75,1.143.803Z" fill="#e2a223" stroke-width="0"/><path d="m608.032,104.927c-1.676-.456-2.975-1.335-3.897-2.635-.922-1.301-1.528-2.937-1.816-4.91-.289-1.972-.278-4.219.033-6.742.31-2.522.865-5.251,1.663-8.184.702-2.585,1.496-4.882,2.38-6.892.884-2.009,1.942-3.663,3.177-4.959,1.234-1.296,2.669-2.162,4.307-2.599,1.638-.436,3.557-.355,5.758.243.489.133.895.328,1.219.585.323.257.601.511.833.761.232.251.431.483.598.697.167.215.338.345.513.392.209.057.455.049.738-.024.282-.073.631-.147,1.045-.223.414-.074.884-.116,1.411-.123.527-.006,1.158.09,1.891.289,1.816.494,3.31,1.276,4.483,2.344,1.172,1.069,2.039,2.327,2.602,3.774.563,1.446.855,3.027.877,4.739.022,1.713-.204,3.443-.679,5.189-1.149,4.226-2.768,7.247-4.855,9.061-2.088,1.814-4.772,2.274-8.055,1.382-.839-.228-1.511-.513-2.017-.858-.507-.343-.91-.687-1.211-1.032-.3-.344-.547-.645-.739-.904-.193-.258-.376-.412-.55-.459-.28-.077-.472.078-.576.462s-.174.881-.209,1.491c-.034.609-.072,1.265-.112,1.966-.042.702-.133,1.315-.275,1.838-.57,2.096-1.568,3.663-2.994,4.7-1.427,1.038-3.275,1.248-5.545.631Zm12.213-18.847c.594.162,1.134.037,1.621-.375.486-.412.792-.844.915-1.299.057-.209.088-.5.097-.874.007-.372-.025-.738-.096-1.095s-.191-.68-.355-.968c-.166-.289-.406-.476-.72-.561-.314-.086-.62-.028-.919.172-.299.2-.573.454-.825.76-.252.307-.466.642-.64,1.007-.175.366-.29.653-.346.862-.124.454-.075.927.148,1.418.223.492.596.809,1.12.952Z" fill="#e2a223" stroke-width="0"/><path d="m632.468,102.175c.743-1.886,1.942-3.349,3.597-4.388,1.655-1.04,3.406-1.584,5.255-1.635.47-.009.854-.022,1.154-.041.299-.019.482-.111.548-.28.053-.134-.01-.296-.189-.483s-.387-.424-.623-.712c-.555-.569-1.036-1.245-1.447-2.03-.411-.784-.716-1.614-.915-2.49-.2-.876-.275-1.772-.225-2.685.049-.915.24-1.793.572-2.635.558-1.414,1.433-2.624,2.629-3.632,1.194-1.007,2.62-1.739,4.279-2.194,1.658-.456,3.488-.61,5.492-.461,2.004.148,4.117.66,6.339,1.536,1.583.624,3.03,1.419,4.342,2.383,1.312.965,2.384,2.02,3.216,3.164.832,1.145,1.396,2.33,1.691,3.556.295,1.225.21,2.427-.254,3.605-.505,1.28-1.175,2.115-2.009,2.505-.835.391-1.75.517-2.745.377s-2.003-.42-3.024-.842c-1.021-.421-1.985-.812-2.894-1.17-.909-.359-1.689-.579-2.337-.659-.649-.08-1.093.182-1.332.788-.2.505-.124.953.228,1.345.351.391.829.735,1.432,1.031.603.296,1.259.555,1.97.777.71.221,1.317.432,1.823.631.707.278,1.249.629,1.629,1.051.377.421.628.87.752,1.347.124.477.143.971.058,1.482-.085.512-.227,1.02-.426,1.524-.199.505-.454.979-.764,1.421-.311.442-.714.798-1.21,1.069s-1.097.414-1.802.428c-.706.013-1.53-.166-2.473-.537-.472-.186-.956-.386-1.454-.603-.498-.216-.96-.378-1.384-.487s-.799-.12-1.124-.035c-.326.087-.562.315-.708.685-.186.472-.162.928.072,1.371s.637.776,1.21,1.002c.37.146.836.271,1.399.376.561.104,1.179.289,1.852.555,1.852.73,3.161,1.801,3.928,3.211.766,1.411.838,2.908.214,4.491-.809,2.054-2.515,3.22-5.114,3.498-2.6.278-5.786-.325-9.556-1.812-.64-.252-1.457-.573-2.449-.965-.994-.392-2.036-.881-3.128-1.467-1.091-.586-2.144-1.273-3.155-2.061-1.013-.789-1.842-1.719-2.489-2.79-.648-1.073-1.047-2.28-1.197-3.624-.152-1.343.098-2.839.748-4.49Z" fill="#e2a223" stroke-width="0"/><path d="m665.189,125.37c-1.345-.71-2.259-1.907-2.739-3.593-.482-1.686-.648-3.564-.497-5.633.149-2.069.551-4.189,1.205-6.36.654-2.172,1.428-4.105,2.323-5.803.894-1.697,2.032-3.428,3.415-5.196,1.381-1.767,2.912-3.273,4.59-4.515s3.436-2.076,5.275-2.497c1.838-.421,3.671-.151,5.495.811.448.236.802.515,1.063.836.26.322.475.63.648.925.171.295.315.566.431.81.117.246.254.41.414.495.193.102.434.147.725.137s.648-.005,1.068.011c.421.018.897.085,1.429.201.531.117,1.118.344,1.758.681,1.312.692,2.561,1.545,3.745,2.558s2.131,2.167,2.84,3.461c.708,1.294,1.086,2.731,1.133,4.31.047,1.58-.41,3.282-1.372,5.106-.962,1.826-1.976,3.184-3.039,4.075-1.064.892-2.141,1.5-3.233,1.825-1.091.324-2.18.467-3.263.428-1.084-.04-2.153-.071-3.203-.094-.072.29.037.685.326,1.185s.657,1.062,1.105,1.687c.447.626.918,1.303,1.413,2.034.494.732.898,1.517,1.212,2.358.313.84.489,1.711.526,2.61s-.18,1.797-.653,2.693c-.371.705-.875,1.329-1.509,1.874-.635.545-1.376.922-2.222,1.129-.847.209-1.787.246-2.82.11-1.033-.135-2.158-.524-3.375-1.166-1.121-.591-1.934-1.357-2.44-2.299-.506-.942-.844-1.949-1.015-3.021s-.213-2.177-.123-3.317c.089-1.14.193-2.169.309-3.09.118-.92.186-1.712.209-2.375.022-.664-.127-1.08-.446-1.249-.449-.237-.758-.154-.929.247-.171.4-.283.924-.338,1.571-.055.646-.11,1.333-.165,2.061-.057.728-.203,1.316-.439,1.764-1.013,1.921-2.219,3.044-3.618,3.37s-3.14-.06-5.22-1.157Zm16.747-16.396c.48.254.998.22,1.556-.1.557-.32.945-.687,1.166-1.105.101-.192.191-.441.27-.747s.111-.617.094-.933c-.018-.315-.08-.604-.188-.866-.108-.261-.29-.459-.545-.595-.257-.135-.531-.157-.824-.066s-.573.231-.835.419c-.263.189-.507.419-.731.688-.225.271-.388.502-.489.695-.22.416-.3.896-.238,1.439.06.544.315.933.764,1.17Z" fill="#e2a223" stroke-width="0"/><path d="m692.761,142.542c-2.434-1.634-3.864-3.466-4.289-5.494-.426-2.029.148-4.216,1.722-6.559.948-1.413,1.925-2.544,2.932-3.394,1.006-.85,1.857-1.435,2.55-1.754.553-.239,1.095-.43,1.628-.574.532-.144,1.025-.261,1.477-.349.452-.089.828-.163,1.13-.223.301-.059.492-.148.573-.27.161-.239.186-.714.072-1.423-.114-.707-.194-1.546-.24-2.515-.048-.969.028-2.04.228-3.215.2-1.173.672-2.316,1.419-3.428.988-1.472,2.178-2.515,3.571-3.128,1.392-.612,2.866-.909,4.422-.89,1.556.02,3.141.322,4.756.904,1.614.582,3.127,1.347,4.54,2.295l1.984,1.332c2.884,1.937,4.689,3.792,5.418,5.566.727,1.774.445,3.623-.846,5.546-.867,1.293-1.772,2.234-2.711,2.822-.941.589-2.042.46-3.304-.387-.782-.524-1.566-1.158-2.351-1.904-.786-.745-1.689-1.462-2.711-2.146-.391-.262-.887-.335-1.49-.216-.603.118-1.015.343-1.237.673-.101.151-.204.353-.31.609s-.173.516-.198.782c-.027.267.007.54.103.822.094.281.277.513.547.694.3.201.669.416,1.105.644.436.227.983.562,1.645,1.006,1.712,1.15,2.737,2.22,3.077,3.209.338.99.073,2.131-.793,3.423-.747,1.112-1.512,1.796-2.296,2.055-.784.258-1.557.274-2.319.045-.763-.228-1.507-.596-2.233-1.106-.726-.509-1.415-.96-2.066-1.354-.651-.393-1.253-.634-1.804-.721-.553-.087-1.03.171-1.433.771-.162.24-.311.609-.448,1.105-.137.497-.294,1.056-.472,1.678-.178.622-.4,1.279-.669,1.97s-.624,1.369-1.067,2.029c-.586.872-1.275,1.51-2.069,1.914s-1.623.632-2.487.685c-.863.051-1.734-.064-2.611-.347-.877-.285-1.692-.679-2.443-1.182Z" fill="#e2a223" stroke-width="0"/><path d="m713.603,144.66c1.292-1.561,2.885-2.58,4.781-3.055,1.896-.475,3.73-.45,5.502.077.45.138.82.244,1.11.319.29.076.492.044.608-.096.092-.11.082-.284-.03-.517-.112-.234-.236-.524-.371-.871-.351-.713-.599-1.505-.746-2.378-.148-.873-.179-1.758-.096-2.652.081-.895.289-1.769.619-2.623.33-.854.784-1.629,1.361-2.327.969-1.171,2.177-2.05,3.626-2.637,1.447-.587,3.03-.84,4.748-.758,1.717.082,3.505.504,5.365,1.267,1.858.762,3.708,1.904,5.549,3.427,1.31,1.084,2.44,2.289,3.388,3.613.947,1.325,1.639,2.66,2.076,4.006.436,1.348.604,2.648.505,3.905-.101,1.257-.554,2.373-1.361,3.349-.877,1.06-1.773,1.645-2.687,1.758-.915.113-1.824-.052-2.727-.494-.903-.441-1.774-1.021-2.613-1.738-.84-.718-1.636-1.388-2.388-2.011s-1.426-1.074-2.017-1.351c-.592-.278-1.096-.167-1.511.336-.345.418-.413.868-.2,1.349.212.481.559.955,1.041,1.424.481.468,1.025.918,1.631,1.349s1.119.82,1.538,1.166c.586.484.992.986,1.222,1.504.228.519.327,1.023.297,1.515-.031.491-.165.967-.405,1.426-.239.46-.532.899-.878,1.317-.345.418-.735.789-1.166,1.112-.433.323-.927.537-1.482.642-.556.104-1.172.053-1.847-.153-.674-.206-1.403-.633-2.183-1.278-.391-.323-.789-.664-1.196-1.025-.407-.36-.795-.657-1.165-.892s-.722-.361-1.058-.382c-.337-.019-.631.125-.885.431-.323.391-.442.831-.357,1.325.086.493.365.935.839,1.328.307.254.71.517,1.212.791.501.274,1.03.642,1.589,1.103,1.533,1.269,2.446,2.693,2.737,4.272s-.106,3.025-1.19,4.335c-1.407,1.701-3.39,2.281-5.947,1.738-2.558-.543-5.399-2.105-8.523-4.689-.529-.438-1.206-.998-2.029-1.678s-1.662-1.469-2.517-2.365c-.856-.896-1.643-1.876-2.36-2.939s-1.218-2.205-1.5-3.425-.287-2.492-.014-3.816c.273-1.325.975-2.669,2.106-4.036Z" fill="#e2a223" stroke-width="0"/><path d="m771.194,175.847c-1.325,1.286-2.774,1.897-4.347,1.835-1.574-.062-2.99-.742-4.25-2.041-.454-.467-.862-.978-1.225-1.535-.363-.555-.636-1.122-.819-1.701-.184-.579-.233-1.136-.148-1.673s.335-1.006.751-1.409c.363-.353.599-.695.706-1.026.107-.33.131-.644.072-.939-.059-.296-.183-.579-.371-.85-.187-.272-.408-.538-.659-.797-.454-.467-1.286-.557-2.492-.268-1.208.289-2.59,1.189-4.149,2.702-1.455,1.412-2.267,2.64-2.436,3.687-.17,1.046.061,1.894.692,2.544,1.21,1.247,2.485,1.547,3.825.902.979-.446,1.964-.419,2.956.083.99.501,1.914,1.193,2.771,2.077,2.344,2.415,2.191,4.985-.461,7.71l-.233.227c-1.299,1.261-2.798,2.159-4.494,2.697-1.698.538-3.454.716-5.268.535-1.815-.181-3.618-.714-5.409-1.598-1.791-.885-3.443-2.106-4.955-3.664-1.765-1.819-3.008-3.776-3.732-5.873s-.941-4.269-.651-6.518c.289-2.247,1.079-4.527,2.368-6.837,1.288-2.309,3.063-4.561,5.322-6.754,2.234-2.168,4.511-3.861,6.834-5.08,2.321-1.219,4.584-1.953,6.79-2.202,2.205-.248,4.319-.005,6.344.729,2.023.733,3.868,1.958,5.531,3.672,1.513,1.559,2.677,3.304,3.492,5.235s1.279,3.865,1.392,5.799c.111,1.934-.14,3.805-.756,5.613-.616,1.809-1.613,3.381-2.988,4.716Z" fill="#e2a223" stroke-width="0"/><path d="m762.544,205.181c-1.028-1.31-1.593-2.603-1.697-3.879s.131-2.517.702-3.724c.572-1.207,1.416-2.387,2.536-3.541,1.119-1.154,2.362-2.267,3.729-3.338,1.026-.804,2.08-1.483,3.166-2.034,1.084-.552,2.132-1.064,3.143-1.534,1.011-.471,1.931-.939,2.761-1.406.829-.467,1.501-1.017,2.017-1.652-.267.072-.564-.087-.891-.475-.327-.388-.557-.667-.691-.838-.536-.684-1.003-1.411-1.399-2.18-.398-.771-.639-1.546-.724-2.33-.087-.784.019-1.545.315-2.282.294-.738.855-1.43,1.682-2.078.996-.781,1.991-1.228,2.985-1.34.992-.111,1.959-.008,2.901.313.94.32,1.823.801,2.648,1.441.824.642,1.553,1.335,2.184,2.082.793.895,1.56,1.813,2.297,2.753.737.94,1.474,1.879,2.211,2.82.782.997,1.654,2.153,2.616,3.468.962,1.315,1.73,2.69,2.305,4.126.573,1.436.795,2.849.666,4.238-.13,1.389-.892,2.631-2.287,3.725-.769.604-1.489.961-2.16,1.073-.671.112-1.313.041-1.926-.214-.614-.254-1.205-.642-1.773-1.161-.569-.52-1.121-1.122-1.658-1.805-.313-.399-.611-.809-.895-1.23-.285-.421-.569-.842-.853-1.264-.639.593-1.245,1.287-1.818,2.081-.573.795-1.184,1.629-1.83,2.505-.649.876-1.342,1.765-2.083,2.668-.74.902-1.581,1.723-2.521,2.46-1.196.938-2.471,1.879-3.822,2.824-1.352.945-2.712,1.644-4.081,2.098-1.37.452-2.715.542-4.035.266s-2.561-1.155-3.722-2.635Z" fill="#e2a223" stroke-width="0"/><path d="m777.257,225.715c-.688-1.064-1.338-2.184-1.949-3.362s-1.063-2.308-1.354-3.391c-.292-1.083-.353-2.078-.185-2.984.167-.907.662-1.625,1.482-2.156.334-.216.71-.352,1.128-.406s.829-.051,1.235.01c.405.061.763.163,1.072.308s.533.323.671.536c.216.334.641.458,1.275.371.633-.087,1.384-.325,2.253-.715.788-.381,1.81-.934,3.064-1.659s2.444-1.453,3.569-2.18c1.367-.885,2.659-1.753,3.876-2.605,1.216-.852,2.179-1.594,2.891-2.227.64-.543.917-.982.831-1.314s-.296-.757-.63-1.273c-.315-.487-.312-1.114.011-1.882.321-.769.953-1.458,1.895-2.068.942-.609,1.917-.885,2.926-.825,1.007.058,2.015.366,3.021.922s1.985,1.335,2.935,2.337,1.838,2.141,2.664,3.417c1.73,2.673,2.584,5.042,2.561,7.105-.024,2.062-.855,3.625-2.496,4.687-.973.629-1.819.854-2.539.672-.721-.18-1.337-.665-1.848-1.455-.138-.213-.468-.258-.992-.134-.524.123-1.157.361-1.9.712-.742.351-1.537.757-2.38,1.217-.845.46-1.665.926-2.458,1.397-.795.471-1.504.908-2.127,1.311s-1.071.694-1.344.87c-.153.098-.604.4-1.353.907-.75.506-1.529,1.086-2.335,1.737-.807.652-1.493,1.29-2.059,1.915s-.75,1.089-.554,1.393c.196.303.304.654.324,1.052.019.397-.033.797-.159,1.202-.126.406-.312.785-.558,1.137-.247.353-.536.638-.87.854-1.489.964-3.042.945-4.659-.056-1.618-1.001-3.263-2.793-4.934-5.376Z" fill="#e2a223" stroke-width="0"/><path d="m815.474,256.808c-2.736,1.409-5.392,2.277-7.969,2.608-2.578.33-4.98.172-7.205-.473-2.226-.646-4.247-1.763-6.062-3.352-1.816-1.59-3.337-3.574-4.563-5.955-1.242-2.413-1.934-4.765-2.075-7.053-.14-2.289.23-4.454,1.112-6.496.882-2.042,2.259-3.952,4.133-5.731,1.872-1.779,4.192-3.38,6.959-4.805,2.897-1.492,5.597-2.414,8.102-2.768,2.504-.353,4.804-.194,6.901.476,2.095.671,3.987,1.814,5.674,3.429,1.687,1.614,3.16,3.645,4.419,6.09,1.159,2.252,1.837,4.499,2.035,6.739.196,2.239-.094,4.404-.87,6.493-.777,2.09-2.044,4.055-3.802,5.897-1.759,1.842-4.022,3.475-6.789,4.901Zm-12.688-13.374c.464.9,1.287,1.393,2.47,1.476,1.182.083,2.465-.232,3.849-.944.676-.348,1.29-.756,1.843-1.224.553-.468,1-.963,1.342-1.485s.558-1.03.649-1.525c.09-.495.021-.968-.211-1.417-.232-.452-.6-.79-1.105-1.019-.505-.229-1.081-.36-1.728-.392-.649-.033-1.348.032-2.099.194-.751.163-1.48.427-2.188.791-1.351.696-2.272,1.576-2.76,2.643-.49,1.067-.51,2.034-.063,2.903Z" fill="#e2a223" stroke-width="0"/><path d="m807.547,292.09c-.345-.953-.288-2.023.169-3.208s1.125-2.398,2.004-3.639c.879-1.241,1.876-2.478,2.99-3.708s2.153-2.346,3.119-3.349c.965-1.004,1.762-1.859,2.391-2.567.629-.71.907-1.165.833-1.37-.185-.51-.515-.68-.991-.507-.477.172-.976.439-1.5.801-.524.362-1.064.76-1.619,1.191-.557.432-1.164.854-1.824,1.265-.659.411-1.347.746-2.062,1.005-.647.233-1.44.434-2.38.6-.941.167-1.864.221-2.769.164-.907-.058-1.744-.275-2.515-.65-.771-.376-1.31-.99-1.618-1.84-.566-1.567-.648-3.048-.248-4.442.399-1.395,1.12-2.705,2.16-3.927,1.039-1.222,2.297-2.35,3.77-3.383,1.474-1.033,2.996-1.958,4.567-2.776s3.11-1.538,4.618-2.159c1.507-.622,2.788-1.123,3.843-1.505,1.395-.504,2.988-.887,4.78-1.15,1.79-.262,3.541-.289,5.253-.08,1.711.209,3.275.73,4.693,1.565,1.417.835,2.44,2.121,3.067,3.856.467,1.294.449,2.628-.055,4.003s-1.24,2.719-2.209,4.031c-.968,1.311-2.04,2.527-3.215,3.644s-2.175,2.075-3.002,2.874c-.022.046-.128.151-.319.316s-.383.35-.578.556c-.196.205-.366.401-.509.588-.145.187-.204.314-.179.383.073.204.335.263.786.178.45-.086.743-.153.879-.202.544-.196,1.064-.462,1.56-.794.495-.333.978-.671,1.451-1.015.472-.344.956-.682,1.452-1.015.495-.332,1.015-.597,1.56-.794.85-.308,1.724-.498,2.622-.572.897-.074,1.743.005,2.539.237.795.232,1.518.634,2.168,1.208.649.573,1.147,1.336,1.492,2.289.368,1.021.425,2.031.17,3.027-.256.996-.716,1.962-1.378,2.894-.664.932-1.476,1.803-2.434,2.611-.959.808-1.954,1.543-2.985,2.204s-2.045,1.239-3.039,1.734c-.996.494-1.868.877-2.616,1.147-.885.32-2.046.729-3.481,1.229-1.436.499-3.004.979-4.704,1.44-1.701.459-3.431.835-5.192,1.126-1.763.29-3.42.389-4.973.296-1.554-.094-2.917-.429-4.087-1.006-1.171-.579-1.99-1.514-2.457-2.806Z" fill="#e2a223" stroke-width="0"/><rect x="234.949" y="402.962" width="604.979" height="7.187" fill="#edc7d9" stroke-width="0"/><rect x="234.949" y="526.933" width="604.979" height="7.187" fill="#edc7d9" stroke-width="0"/><ellipse cx="530.032" cy="509.586" rx="21.328" ry="5.608" fill="#f8cace" stroke-width="0"/><path d="m507.119,894.545l-11.364.46-60.982,2.434c-1.335.056-1.929-1.66-.841-2.446l10.781-7.83-12.419-33.935,65.638-10.68,11.959,38.59,2.042,6.585c1.021,3.309-1.357,6.686-4.813,6.821Z" fill="#f5b7c0" stroke-width="0"/><path d="m603.757,806.235l-43.286,25.929c-2.989,1.79-3.765,5.777-1.666,8.558l29.347,38.885c2.838,3.76,7.276,5.971,11.987,5.971h15.943c1.642,0,2.584-1.87,1.606-3.189l-7.083-9.562,40.144-25.031-46.992-41.561Z" fill="#f5b7c0" stroke-width="0"/><polygon points="541.693 489.917 541.693 519.791 518.101 519.791 518.101 496.199 541.693 489.917" fill="#f8cace" stroke-width="0"/><path d="m542.676,468.623s2.8-10.789,8.565-10.048c5.765.741,4.777,8.565,1.812,12.024-2.965,3.459-6.589,5.024-6.589,5.024l-3.788-7Z" fill="#f3a8c2" stroke-width="0"/><path d="m551.352,475.25c.045,2.977-.471,6.072-1.692,9.012-.733,1.792-1.728,3.538-3.013,5.158-3.212,4.099-8.243,7.474-15.554,9.238-4.262,1.032-8.153,1.122-11.627.624-.471-.063-.914-.136-1.366-.226-3.203-.615-6.053-1.71-8.487-3.013-6.94-3.701-10.641-8.976-10.641-8.976,0,0-3.583-20.522.679-30.249,4.262-9.718,14.514-8.523,27.842-8.523,7.546,0,11.935,2.316,15.21,6.171,2.443,2.895,4.289,6.641,6.352,10.957.054.109.1.217.154.326,1.013,2.126,1.719,4.569,2.009,7.148.036.344.063.679.091,1.023.027.443.045.887.045,1.33Z" fill="#f8cace" stroke-width="0"/><path d="m497.208,478.93c2.716.407,8.353.879,14.854-1.455,3.39-1.217,8.41-3.697,12.718-8.703,4.839-5.622,6.291-11.538,6.78-14.218-3.558.221-12.06,1.226-20.577,7.241-8.602,6.075-12.393,13.853-13.775,17.134Z" fill="#1e282d" stroke-width="0"/><path d="m549.052,465.427c-10.096-.078-19.161-7.617-19.161-7.617l12.811-3.343c2.446,2.894,4.285,6.641,6.349,10.96Z" fill="#1e282d" stroke-width="0"/><line x1="519.002" y1="488.564" x2="526.372" y2="486.146" fill="none" stroke="#1e282d" stroke-linecap="round" stroke-miterlimit="10" stroke-width="2.244"/><rect x="539.586" y="478.763" width="2.397" height="3.103" rx="1.199" ry="1.199" fill="#1e282d" stroke-width="0"/><path d="m530.016,485.691c.344.24.804.627,1.197,1.216.825,1.234.8,2.522.766,3.002" fill="none" stroke="#1e282d" stroke-linecap="round" stroke-miterlimit="10" stroke-width="2.244"/><path d="m531.812,487.207c.871-.101,2.39-.404,3.915-1.447.751-.514,1.308-1.074,1.707-1.549" fill="none" stroke="#1e282d" stroke-linecap="round" stroke-miterlimit="10" stroke-width="2.244"/><path d="m526.501,480.184s-2.403-1.305-10.775.563" fill="none" stroke="#1e282d" stroke-linecap="round" stroke-miterlimit="10" stroke-width="3.365"/><ellipse cx="555.969" cy="908.36" rx="62.82" ry="14.09" fill="#21252d" stroke-width="0"/><path d="m536.733,471.626s3.631-4.452,8.103-4.545" fill="none" stroke="#1e282d" stroke-linecap="round" stroke-miterlimit="10" stroke-width="3.365"/><circle cx="500.386" cy="449.146" r="14.434" fill="#1e282d" stroke-width="0"/><path d="m549.054,465.424c-4.398-3.221-8.442-4.407-11.211-4.886-9.266-1.602-18.422,2.298-25.136,8.261-2.733,2.416-5.058,5.167-6.831,8.035-.823,1.33-1.502,2.642-2.063,3.909-1.475,3.312-2.135,6.28-2.47,8.279-1.466.57-2.932,1.14-4.397,1.719-2.262-3.836-6.008-11.5-5.547-21.354.145-3.122.688-5.881,1.348-8.198,1.441-2.312,3.7-5.336,7.105-8.188,5.561-4.657,11.317-6.455,14.575-7.204,2.018-.163,3.945-.199,5.782-.136,6.958.253,12.487,1.982,15.789,3.628.742.371,1.375.742,1.882,1.086,4.397,2.986,7.583,7.229,7.583,7.229v.009c2.144,3.004,3.122,5.926,3.592,7.809Z" fill="#eb9900" stroke-width="0"/><path d="m676.435,653.478c-2.569,5.8-55.754,2.569-73.625-3.87-17.871-6.439-126.126-31.893-126.126-31.893-32.376,10.938-52.131,24.983-64.538,38.287-15.346,16.457-24.175,34.328-30.177,32.263-6.72-2.3-3.814-27.462-2.995-33.699.954-7.382,2.479-15.156,4.555-23.109,4.106-15.784,10.366-32.308,18.645-48.014,4.97-9.446,10.68-18.6,17.085-27.114,6.54-8.683,13.81-16.704,21.763-23.715,13.585-11.959,29.212-20.967,46.712-25.252,2.49-.606,5.014-1.122,7.583-1.537,9.221-1.481,17.141-1.38,22.784-.965-2.625,2.131-4.633,4.375-4.106,6.069,1.716,5.463,29.582,3.949,30.704-1.672.303-1.526-1.402-3.186-3.006-4.398,0,0,14.034-.808,33.385,5.732,11.701,3.96,25.342,10.601,39.006,21.73,7.348,5.991,14.707,13.282,21.763,22.145,1.952,2.446,3.803,4.869,5.575,7.258,5.351,7.202,9.928,14.135,13.843,20.765l.022.022c6.035,10.186,10.5,19.621,13.765,28.079,9.087,23.502,8.93,39.421,7.382,42.887Z" fill="#e96048" stroke-width="0"/><path d="m641.423,561.724c-10.347-1.162-26.186-2.074-45.117.555-24.752,3.439-29.394,9.405-47.124,10.299-24.878,1.253-32.985-9.624-60.921-16.194-15.332-3.606-38.376-6.322-69.003-.056,6.54-8.683,13.81-16.704,21.763-23.715,9.669-1.809,24.449-3.553,42-1.229,28.422,3.763,33.802,14.179,57.735,13.419,11.525-.366,11.811-2.83,43.067-8.114,12.776-2.16,23.312-3.538,30.261-4.368,7.101,5.994,14.647,13.229,21.763,22.145,1.952,2.446,3.803,4.869,5.575,7.258Z" fill="#e78098" stroke-width="0"/><path d="m559.706,904.922c-.456.361-1.913,1.421-4.06,1.467-2.326.05-3.917-1.123-4.351-1.467v-102.603h8.411v102.603Z" fill="#8c411b" stroke-width="0"/><path d="m551.294,802.319v46.001c.737,1.942,2.039,4.656,4.364,7.362,1.396,1.625,2.821,2.851,4.047,3.756v-57.119h-8.411Z" fill="#1e282d" stroke-width="0"/><path d="m722.068,790.758c-6.813,22.367-25.806,47.793-64.397,75.807-47.495-40.021-63.764-60.326-63.764-60.326,0,0,67.645-43.052,35.931-54.118-.832-.281-1.728-.552-2.696-.796-6.406-1.62-14.649-2.136-23.951-1.9-45.866,1.24-117.176,21.218-117.176,21.218l25.869,75.264-89.615,17.762s-26.837-49.087-30.448-84.919c-.642-6.424-.543-12.423.588-17.635,1.366-6.289,3.827-13.319,6.949-20.612.923-2.172,1.918-4.37,2.95-6.578,14.36-30.737,37.596-63.42,37.596-63.42l36.782-52.643s.977-7.863,1.728-16.45c.027-.353.063-.715.1-1.086.525-6.261.932-13.735.787-21.128-.081-4.262-.353-8.478-.878-12.451,33.461,2.787,109.15,0,109.15,0-.552,5.61-.869,12.84-.244,21.218.154,2.136.371,4.343.67,6.623.525,4.063,1.167,8.994,2.38,14.414,1.529,6.868,3.972,14.514,8.27,22.159,15.337,27.281,51.042,48.906,53.322,50.933.57.507,1.068.95,1.475,1.312.226.217.434.389.606.534.045.045.081.081.127.118.136.127.244.226.335.299.29.262.443.398.443.398.054.027.109.054.163.072.778.362,4.171,1.963,9.085,4.75,5.61,3.185,13.22,7.908,21.137,14.07,15.038,11.672,31.253,28.502,37.306,49.775.534,1.882.995,3.809,1.366,5.764,1.828,9.7,1.502,20.241-1.945,31.57Z" fill="#6e2711" stroke-width="0"/><path d="m526.627,686.257c-5.441,9.412-11.409,20.63-15.257,30.536-3.658.255-10.012.729-17.901,1.493-36.459,3.533-47.833,7.667-61.149,1.237-3.809-1.84-9.654-5.45-15.418-13.084,1.761.393,3.691.718,5.811.954,42.304,4.532,74.489-39.611,95.568-27.776.686.385,1.447.976,1.447.976,3.068,2.139,5.365,4.183,6.899,5.665Z" fill="url(#linear-gradient)" mix-blend-mode="soft-light" stroke-width="0"/><path d="m724.011,759.187c-3.321-7.741-10.141-20.765-23.468-32.219-9.771-8.38-24.736-21.225-36.953-16.973-15.638,5.452-19.228,36.358-33.755,42.124-.987.393-11.05,4.252-11.05,4.252l-15.593-6.944-2.816-1.256c2.277-4.678,3.612-10.242,3.343-16.816l2.232,4.083s23.513-18.734,39.679-42.988c2.266-3.399,4.386-6.877,6.338-10.354.572.505,1.066.954,1.481,1.313.224.213.426.393.606.538.045.045.079.079.123.112.123.112.236.213.337.303.292.258.438.393.438.393.056.034.112.056.168.079,2.176,1.144,5.317,2.782,9.087,4.745,5.609,3.186,13.215,7.909,21.135,14.068,16.379,12.71,34.137,31.534,38.669,55.541Z" fill="url(#linear-gradient-2)" mix-blend-mode="soft-light" stroke-width="0"/><path d="m677.242,763.857v13.455c0,10.587-23.815,19.816-59.149,24.702-6.786.95-14.007,1.728-21.562,2.316-11.41.905-23.58,1.393-36.23,1.393-64.578,0-116.932-12.713-116.932-28.412v-13.455h233.873Z" fill="#4f2515" stroke-width="0"/><ellipse cx="560.304" cy="763.848" rx="116.936" ry="28.409" fill="#f1e4d7" stroke-width="0"/><ellipse cx="625.346" cy="748.524" rx="5.115" ry="1.121" fill="#d69004" stroke-width="0"/><ellipse cx="638.226" cy="759.187" rx="15.141" ry="2.32" fill="#d69004" stroke-width="0"/><path d="m508.408,589.047h58.05v31.032c0,7.086-5.753,12.838-12.838,12.838h-32.374c-7.086,0-12.838-5.753-12.838-12.838v-31.032h0Z" fill="#181a34" mix-blend-mode="soft-light" stroke-width="0"/><ellipse cx="578.029" cy="768.878" rx="41.52" ry="2.974" mix-blend-mode="overlay" stroke-width="0"/><path d="m600.375,748.17c-.954,1.986-2.075,3.803-3.321,5.486-9.165,12.463-24.545,16.749-24.545,16.749h-31.108c-17.231,0-34.81-17.242-34.137-37.525.146-4.375,1.716-9.973,4.106-16.087,3.848-9.906,9.816-21.124,15.257-30.536,6.787-11.745,12.755-20.653,12.755-20.653l4.039-25.925c-.28.516-4.398,7.572-14.18-4.151-2.58-3.096-1.111-5.407,2.625-7.023,10.938-4.734,41.294-3.523,46.163,1.256,6.529,6.428-11.846,9.356-11.846,9.356,0,0,.628,9.693.998,17.915.135,3.018.236,5.833.258,7.898.034,3.253,5.059,7.931,11.386,14.943.236.247.46.494.684.752,6.394,7.157,13.978,16.67,19.105,29.47l.022.045c1.705,4.274,3.152,8.907,4.173,13.944.527,2.547.808,4.958.909,7.258v.011c.269,6.574-1.066,12.138-3.343,16.816Z" fill="#cf800f" stroke-width="0"/><path d="m579.309,679.35c-.145.19-.317.371-.479.525-1.792,1.701-4.615,1.891-6.596.299l-13.962-11.057,11.175,20.902c1.022,1.918.787,4.253-.606,5.918-2.19,2.606-6.216,2.525-8.288-.163l-15.391-19.997,10.713,24.657c1.303,2.986-.181,6.443-3.239,7.555-.968.362-1.991.434-2.95.253-1.384-.253-2.307-.959-2.687-1.285-4.488-5.465-11.193-12.912-20.368-20.703-.308-.262-.633-.534-.941-.805-2.823-2.353-4.66-3.891-5.963-4.859-.579-.434-1.041-.751-1.448-.977-3.827-2.153-8.026-2.452-12.586-1.538-.769.154-1.547.344-2.335.57-1.719.479-3.493,1.113-5.311,1.864-.57.235-1.14.489-1.719.742-19.354,8.641-44.002,29.317-73.617,26.141-2.117-.235-4.045-.561-5.809-.95-2.316-.516-4.352-1.158-6.108-1.855-4.045-1.593-6.723-3.466-8.415-4.823-6.334-5.067-9.808-11.835-11.727-17.889-.199-.633-.38-1.258-.552-1.864-1.982-7.257-1.792-13.093-1.792-13.093,11.03-12.776,26.584-27.272,47.802-38.772,4.633-2.515,9.175-4.687,13.591-6.587,6.117-1.665,15.238-3.71,26.24-4.416,10.722-.687,23.236-.118,36.537,3.267.724.181,1.439.371,2.162.57,1.936.534,3.882,1.131,5.845,1.792.787.262,1.565.543,2.353.823,0,0,.072.036.217.1.841.407,4.108,2.018,8.813,4.814,4.859,2.896,11.22,7.031,18.006,12.396,5.691,4.515,11.7,9.908,17.31,16.133,4.506,5.004,8.777,10.541,12.46,16.613,1.086,1.782.941,4.045-.335,5.7Z" fill="#f8cace" stroke-width="0"/><path d="m579.308,679.347c-1.728,2.188-4.902,2.569-7.079.83l-13.955-11.061,11.173,20.899c1.021,1.918.785,4.252-.606,5.923-2.188,2.603-6.215,2.524-8.29-.168l-15.391-19.991,10.713,24.658c1.301,2.984-.18,6.439-3.242,7.55-.965.359-1.986.438-2.95.258-1.38-.258-2.3-.965-2.681-1.29-4.644-5.654-11.656-13.417-21.315-21.505-2.816-2.356-4.656-3.893-5.957-4.857.561-3.074.527-6.697-1.761-9.076-4.644-4.813-3.792-10.668,8.077-10.668s6.888-5.329,3.792-11.353c-3.096-6.024,1.2-10.321,9.289-9.805,2.838.179,6.798.662,10.747,1.212,10.276,8.144,21.494,19.093,29.773,32.746,1.088,1.784.942,4.05-.337,5.699Z" fill="#eb9900" stroke-width="0"/><path d="m545.951,639.317c3.42,2.179,7.423,5,11.665,8.582,2.925,2.47,5.139,4.692,9.565,9.135,3.047,3.058,9.44,11.658,12.463,16.614,1.088,1.784.942,4.05-.337,5.699-.146.191-.314.37-.482.527-1.784,1.705-4.611,1.896-6.596.303l-13.955-11.061,11.173,20.899c1.021,1.918.785,4.252-.606,5.923-2.188,2.603-6.215,2.524-8.29-.168l-15.391-19.991,10.713,24.657c1.301,2.984-.18,6.439-3.242,7.55-.965.359-1.986.437-2.95.258-1.38-.258-2.3-.965-2.681-1.29-.932-1.113-2.339-2.778-4.078-4.774-.85-.976-7.537-8.618-16.015-16.739-1.49-1.428-3.803-3.605-7.233-5.905-1.35-.905-2.497-1.577-3.235-1.994" fill="none" stroke="#f8cace" stroke-linecap="round" stroke-linejoin="round" stroke-width="2.244"/><path d="m670.253,639.646s-6.248,21.113-18.286,42.45c-1.952,3.478-4.072,6.955-6.338,10.354-16.165,24.254-39.679,42.988-39.679,42.988l-2.232-4.083v-.011l-25.69-46.982,1.481-3.736,19.407-49.18,1.885-4.768c55.485-3.68,69.452,12.968,69.452,12.968Z" fill="#f8cace" stroke-width="0"/><path d="m541.693,494.067v7.404c-14.359,5.744-23.592-2.412-23.592-2.412,3.814.729,8.156.763,12.991-.404,4.285-1.032,7.785-2.625,10.601-4.588Z" fill="#1e282d" stroke-width="0"/><polygon points="458.617 856.467 502.243 856.467 499.717 848.32 458.617 856.467" fill="#1e282d" stroke-width="0"/><path d="m390.102,680.009c-2.614,2.704-5.34,4.667-7.023,3.489-4.072-2.838,5.228-16.58,5.228-16.58,0,0-.191,5.833,1.795,13.092Z" fill="#1e282d" stroke-width="0"/><path d="m670.253,639.649s6.701,4.906,5.169,8.582c-1.532,3.676-10.592,6.669-10.592,6.669l5.423-15.252Z" fill="#1e282d" stroke-width="0"/><path d="m478.512,600.326c-38.613-3.792-75.487,17.355-94.984,31.13,1.948-7.432,4.47-15.511,7.757-24.036,2.208-5.725,4.528-11.05,6.872-15.965,7.528-5.212,24.222-15.201,47.47-16.579,14.316-.849,26.049,1.867,33.67,4.327.146,7.393-.258,14.864-.785,21.124Z" fill="#e78098" stroke-width="0"/><path d="m549.658,484.263c-2.288-.572-3.971-2.636-3.971-5.093,0-2.905,2.356-5.261,5.273-5.261.112,0,.236,0,.348.011.224,3.377-.247,6.967-1.649,10.343Z" fill="#f3a1ac" stroke-width="0"/><path d="m669.053,610.587c-37.37-12.405-69.328-4.47-78.675-1.583-1.213-5.42-1.855-10.351-2.38-14.414-.299-2.28-.516-4.488-.67-6.623,23.58-11.491,67.935-5.474,67.935-5.474,0,0,.009.009.027.018,6.035,10.188,10.496,19.626,13.763,28.077Z" fill="#e78098" stroke-width="0"/><path d="m575.078,510.592c-8.616,5.261-23.255,12.194-40.453,12.194-27.653,0-46.892-15.425-46.892-15.425,2.49-.606,5.014-1.122,7.583-1.537,9.221-1.481,17.141-1.38,22.784-.965-2.625,2.131-4.633,4.375-4.106,6.069,1.716,5.463,29.582,3.949,30.704-1.672.303-1.526-1.402-3.186-3.006-4.398,0,0,14.034-.808,33.385,5.732Z" fill="#e78098" stroke-width="0"/><path d="m414.277,694.839c0,3.702-1.301,7.09-3.489,9.749-4.039-1.593-6.72-3.466-8.414-4.824-6.327-5.071-9.805-11.835-11.723-17.893,2.378-1.526,5.205-2.412,8.245-2.412,8.492,0,15.38,6.888,15.38,15.38Z" fill="#e987ae" opacity=".19" stroke-width="0"/><polygon points="616.563 829.83 636.841 856.467 642.099 853.189 616.563 829.83" fill="#1e282d" stroke-width="0"/><path d="m507.119,894.545l-11.364.46c-.022-.191-.022-.393-.022-.583,0-7.348,5.957-13.316,13.305-13.316.292,0,.572.011.853.034l2.042,6.585c1.021,3.309-1.357,6.686-4.813,6.821Z" fill="#e96048" opacity=".21" stroke-width="0"/><path d="m555.873,700.437c-4.434-9.96-8.867-19.92-13.301-29.879" fill="none" stroke="#f8cace" stroke-linecap="round" stroke-linejoin="round" stroke-width="2.244"/><path d="m564.516,680.792c-3.277-6.079-6.553-12.158-9.83-18.237" fill="none" stroke="#f8cace" stroke-linecap="round" stroke-linejoin="round" stroke-width="2.244"/><polygon points="583.756 694.836 577.515 683.584 587.941 683.944 583.756 694.836" fill="#8c411b" stroke-width="0"/><path d="m288.162,402.962c2.192-2.784,4.384-5.567,6.576-8.351-17.906,4.69-33.392-5.015-35.619-16.447-2.185-11.218,8.984-21.09,9.544-21.572l-8.82-3.883c7.86-6.246,15.719-12.493,23.579-18.739.303,4.135.606,8.27.909,12.405,1.939-1.23,13.802-8.558,22.449-4.219,9.924,4.979,14.623,24.827,3.333,45.89,3.434,4.972,6.868,9.944,10.302,14.916h-32.254Z" fill="#ec6e3f" stroke-width="0"/><path d="m451.027,397.427c-.831,1.279-2.382,3.287-5.4,5.537h-86.484c1.099-4.025,3.403-9.387,8.983-13.231,9.155-6.307,22.144-5.002,23.948-7.925,1.429-2.319-6.933-2.932-6.37-8.561.191-1.924,1.451-4.585,4.02-6.9,1.345-1.204,2.915-2.199,4.772-3.102.609-.291,1.209-.565,1.817-.812,2.957-1.213,5.873-1.877,8.62-2.303,6.932-1.083,12.896-.662,15.83-3.575.353-.346.78-.778.909-1.304.715-2.868-8.921-2.304-8.933-6.264,0-.465-.004-1.031.546-1.653,2.708-3.118,14.501-2.808,21.013-2.636,6.834.182,19.474.518,18.956,3.822-.155,1.022-1.513,1.994-2.046,2.367-4.143,2.947-10.004,1.224-13.795,3.591-.242.146-.47.309-.695.49-.616.508-1.071.878-1.138,1.319-.122.71.8,1.024,2.323,1.209,4.28.52,13.281-.029,17.064,4.11.306.335,3.271,3.703.802,7.251-1.55,2.228-4.637,3.669-5.737,4.187-4.843,2.274-8.436,1.783-9.006,2.71-.571.93,2.881,1.617,5.653,3.26,1.353.792,2.533,1.819,3.527,2.999,1.244,1.514,2.17,3.29,2.642,5.209.803,3.197.363,6.804-1.82,10.204Z" fill="#f4b4d2" stroke-width="0"/><path d="m395.124,393.737c-.952,1.949-3.639,3.536-5.997,3.536s-3.475-1.59-2.498-3.539c.971-1.938,3.646-3.499,5.98-3.498s3.461,1.564,2.515,3.501Z" fill="#e84f43" stroke-width="0"/><path d="m413.87,369.164c-.862,1.805-3.402,3.273-5.67,3.271s-3.385-1.476-2.499-3.281c.881-1.795,3.41-3.24,5.655-3.237,2.244.003,3.372,1.453,2.514,3.247Z" fill="#e84f43" stroke-width="0"/><path d="m441.134,373.062c-.788,1.825-3.276,3.31-5.552,3.308-2.277-.002-3.462-1.492-2.65-3.317.807-1.815,3.285-3.277,5.538-3.274,2.253.003,3.447,1.469,2.663,3.283Z" fill="#e84f43" stroke-width="0"/><path d="m427.623,390.253c-.849,1.926-3.439,3.494-5.779,3.494-2.341,0-3.526-1.571-2.651-3.498.869-1.915,3.448-3.458,5.764-3.457,2.315.001,3.511,1.546,2.666,3.461Z" fill="#e84f43" stroke-width="0"/><path d="m437.903,357.497c-.92,1.557-3.17,2.778-5.228,2.775-2.225-.004-3.376-1.423-2.579-3.153s3.224-3.12,5.427-3.116c.771.001,1.42.174,1.89.476-.242.146-.47.309-.695.49-.616.508-1.071.878-1.138,1.319-.122.71.8,1.024,2.323,1.209Z" fill="#e84f43" stroke-width="0"/><path d="m452.847,387.223c-1.109.877-2.595,1.45-4.001,1.449-2.311-.001-3.55-1.549-2.76-3.447.617-1.483,2.303-2.742,4.119-3.21,1.244,1.514,2.17,3.29,2.642,5.209Z" fill="#e84f43" stroke-width="0"/><path d="m404.662,360.921c-.879,1.763-3.408,3.186-5.652,3.183-1.527-.002-2.519-.678-2.696-1.67,2.957-1.213,5.873-1.877,8.62-2.303-.049.254-.135.518-.271.79Z" fill="#e84f43" stroke-width="0"/><path d="m694.036,368.168c-.037-1.531-.464-5.39-3.587-8.146-5.164-4.56-14.471-3.131-25.388,3.702-1.115-2.566-2.281-5.06-3.367-7.426-11.561,6.639-32.057,2.47-32.057,2.47l-1.577,11.207-1.051-11.908-6.657-3.679c-30.655,32.933-1.927,48.573-1.927,48.573h38.888c6.835-3.402,10.492-7.773,12.081-12.642,10.098-3.872,24.908-11.399,24.64-22.152Zm-23.948,11.497c-.317-2.259-.873-4.548-1.577-6.833,8.892-5.956,14.658-6.53,15.635-5.668.162.144.354.704.368,1.241.079,3.164-6.428,7.638-14.426,11.26Z" fill="#21252d" stroke-width="0"/><path d="m429.69,474.543c-.901-2.619-2.702-4.499-5.209-5.438-4.407-1.65-11.37-1.667-19.518,7.631-1.004,1.145-1.92,2.316-2.742,3.441-3.055-3.77-6.404-6.457-9.909-7.032-9.248-1.516-25.959,10.099-35.042,21.013l-6.724-6.992v4.305h-6.047v3.799l-8.863-3.799,14.989,22.912c-.378,7.433.201,12.809,11.084,12.809h52.863s4.435-3.885,3.143-12.066c-.103-.653-.275-1.47-.497-2.395,1.58-2.728,4.267-7.547,6.808-12.957,5.573-11.86,7.425-20.114,5.664-25.232Zm-15.946,27.259c-1.738-4.597-3.962-9.622-6.543-14.176,3.584-5.582,9.629-12.478,14.354-10.709.105.039.149.056.247.339,1.269,3.687-2.701,14.236-8.058,24.545Z" fill="#faf5e9" stroke-width="0"/><path d="m375.456,478.537s8.866,11.469,26.076.805" fill="none" stroke="#1d1d1b" stroke-linecap="round" stroke-miterlimit="10" stroke-width="1.742"/><circle cx="388.981" cy="471.123" r="4.734" fill="#ec6e3f" stroke-width="0"/><path d="m821.877,490.564c-4.872-6.88-13.848-10.238-23.044-8.908,8.801-9.822,8.585-11.198,8.585-11.198-.435-2.766-6.138-5.399-24.878-6.543-2.754-.168-5.351,1.306-6.644,3.743-2.471,4.654-4.578,8.945-6.365,12.778-3.848-2.825-9.313-4.131-9.313-4.131l-2.898,6.335v-7.245s-18.422-6.003-23.994,14.283c-5.571,20.285,25.377,23.666,25.377,23.666,0,0,.002,0,.003,0,.008,2.094.328,3.821.818,5.461,1.213,4.061,3.28,7.036,4.744,8.836h48.798c6.02-4.767,9.453-10.154,11.018-15.621.847-2.96,3.798-12.973-2.207-21.454Zm-70.56-1.923c5.298-.649,9.802,1.639,12.9,3.973-2.016,5.001-3.374,8.99-4.24,12.28-21.17-7.959-18.265-15.078-8.659-16.254Z" fill="#ee80b1" stroke-width="0"/><path d="m659.845,481.559s-17.474-16.091-29.413-20.179" fill="none" stroke="#1d1d1b" stroke-miterlimit="10" stroke-width="1.043"/><path d="m630.945,457.618s-8.882-10.773-12.82-5.301c-3.938,5.472,7.519,9.063,7.519,9.063,0,0-1.881,7.619,2.736,7.657,4.617.038,6.498-6.802,6.498-6.802,0,0,10.773,2.736,10.944-1.026.171-3.762-8.665-2.565-8.665-2.565,0,0,3.989-5.985,0-6.498s-6.212,5.472-6.212,5.472Z" fill="#faf5e9" stroke-width="0"/><path d="m645.285,527.249s-12.023-8.821-6.824-20.843c5.199-12.023,18.847-20.146,13.973-23.071-4.874-2.924-8.449-5.524-8.449-5.524l13.323-8.773c2.004,4.983,4.61,6.986,6.52,7.909,4.965,2.401,8.532-.893,17.819.47,4.619.678,7.91,2.107,9.13,2.669,12.673,5.849,21.121,16.991,13.323,47.164h-58.815Z" fill="#ec6e3f" stroke-width="0"/><path d="m569.225,362.514c-2.865-4.076-8.519-4.634-16.805-1.662-.496.178-.984.364-1.465.553.14-6.14.176-10.63.002-11.195-.613-1.991-20.221-7.197-36.141-3.05-13.323,8.742-7.351,55.78-7.351,55.78h42.113s.211-5.391.475-12.726c2.412-1.884,6.067-4.839,9.59-8.092,4.239-3.914,14.167-13.081,9.58-19.609Zm-18.787,16.652c.095-2.871.188-5.783.272-8.6,4.508-2.095,8.967-3.45,11.03-3.312-1.236,2.459-5.656,7.067-11.302,11.912Z" fill="#e74824" stroke-width="0"/><path d="m532.12,374.761c3.119-1.813,6.204-3.677,9.19-5.714-3.254,1.256-6.43,2.677-9.581,4.158l-7.724-7.067,6.441,8.649c-.294,1.615-.556,3.236-.829,4.853-.236,1.486-.451,2.975-.671,4.463-2.821-.399-6.269-.848-8.885-1.153-2.679,3.812-5.321,7.658-7.694,11.672,2.975-3.117,5.749-6.416,8.474-9.749,3.049.547,6.884,1.137,9.881,1.601.503-3.898,1.028-7.798,1.399-11.712Z" fill="#f092b8" stroke-width="0"/><ellipse cx="531.902" cy="351.589" rx="2.756" ry="15.993" transform="translate(161.964 870.897) rotate(-88)" fill="#21252d" stroke-width="0"/><path d="m295.081,508.546l19.014-18.518-8.928-11.905-13.062,10.086s3.142-12.401,3.307-14.704c.165-2.303-9.59-2.492-26.951-1.5-.479.346-.928.693-1.358,1.039-4.989-4.99-10.862-7.048-15.597-5.166-3.216,1.277-5.74,4.274-6.429,7.634-.782,3.814.696,8.047,4.394,12.581,2.464,3.021,5.907,6.205,10.231,9.464,1.233.929,2.238,1.661,3.08,2.251-1.046,3.613-6.33,5.455-10.028,9.565-4.464,4.96,2.315,17.561,2.315,17.561h46.531c5.526-12.532-6.518-18.388-6.518-18.388Zm-42.504-31.495c.197-.961,1.051-1.777,1.757-2.057,1.369-.545,4.451.414,7.651,3.756-1.956,3.347-2.172,6.57-1.727,9.489-5.54-4.927-8.077-9.256-7.681-11.189Z" fill="#21252d" stroke-width="0"/><g clip-path="url(#clippath)"><line x1="763.572" y1="455.48" x2="763.572" y2="537.944" fill="none" stroke="#ec6e3f" stroke-miterlimit="10" stroke-width="1.742"/><line x1="772.745" y1="455.48" x2="772.745" y2="537.944" fill="none" stroke="#ec6e3f" stroke-miterlimit="10" stroke-width="1.742"/><line x1="781.917" y1="455.48" x2="781.917" y2="537.944" fill="none" stroke="#ec6e3f" stroke-miterlimit="10" stroke-width="1.742"/><line x1="791.089" y1="455.48" x2="791.089" y2="537.944" fill="none" stroke="#ec6e3f" stroke-miterlimit="10" stroke-width="1.742"/><line x1="800.262" y1="455.48" x2="800.262" y2="537.944" fill="none" stroke="#ec6e3f" stroke-miterlimit="10" stroke-width="1.742"/><line x1="809.434" y1="455.48" x2="809.434" y2="537.944" fill="none" stroke="#ec6e3f" stroke-miterlimit="10" stroke-width="1.742"/><line x1="818.607" y1="455.48" x2="818.607" y2="537.944" fill="none" stroke="#ec6e3f" stroke-miterlimit="10" stroke-width="1.742"/><line x1="827.779" y1="455.48" x2="827.779" y2="537.944" fill="none" stroke="#ec6e3f" stroke-miterlimit="10" stroke-width="1.742"/><line x1="754.444" y1="528.815" x2="836.908" y2="528.815" fill="none" stroke="#ec6e3f" stroke-miterlimit="10" stroke-width="1.742"/><line x1="754.444" y1="519.643" x2="836.908" y2="519.643" fill="none" stroke="#ec6e3f" stroke-miterlimit="10" stroke-width="1.742"/><line x1="754.444" y1="510.47" x2="836.908" y2="510.47" fill="none" stroke="#ec6e3f" stroke-miterlimit="10" stroke-width="1.742"/><line x1="754.444" y1="501.298" x2="836.908" y2="501.298" fill="none" stroke="#ec6e3f" stroke-miterlimit="10" stroke-width="1.742"/><line x1="754.444" y1="492.126" x2="836.908" y2="492.126" fill="none" stroke="#ec6e3f" stroke-miterlimit="10" stroke-width="1.742"/><line x1="754.444" y1="482.953" x2="836.908" y2="482.953" fill="none" stroke="#ec6e3f" stroke-miterlimit="10" stroke-width="1.742"/><line x1="754.444" y1="473.781" x2="836.908" y2="473.781" fill="none" stroke="#ec6e3f" stroke-miterlimit="10" stroke-width="1.742"/><line x1="754.444" y1="464.609" x2="836.908" y2="464.609" fill="none" stroke="#ec6e3f" stroke-miterlimit="10" stroke-width="1.742"/></g><path d="m804.268,470.49c-.056,1.694-7.415,3.416-14.025,2.706-2.123-.228-3.886-.677-5.178-1.081-1.511,1.689-3.022,3.377-4.533,5.065.278-2.172.556-4.343.835-6.515-1.23-.624-2.857-1.594-2.719-2.447.272-1.678,7.237-2.107,12.508-1.661,5.381.455,13.169,2.176,13.111,3.932Z" fill="#21252d" stroke-width="0"/><path d="m786.455,381.154l-5.857-7.511c10.615-8.283,26.392-23.641,26.545-30.302.014-.623-.14-.801-.395-1.018-.573-.49-1.181-.784-2.306-.619-6.13.896-16.361,12.905-21.667,21.146l-8.012-5.152c.15-.232,3.721-5.767,8.748-11.575,7.324-8.461,13.718-12.989,19.547-13.844,3.691-.542,7.111.43,9.888,2.81,2.511,2.152,3.797,5.082,3.719,8.473-.147,6.358-5.285,14.458-15.706,24.764-7.176,7.098-14.209,12.598-14.505,12.829Z" fill="#f092b8" stroke-width="0"/><path d="m738.059,381.154c-4.99-3.891-29.896-23.985-30.211-37.592-.078-3.39,1.207-6.32,3.719-8.473,2.778-2.38,6.199-3.352,9.889-2.81,5.829.854,12.223,5.383,19.546,13.844,5.027,5.807,8.599,11.342,8.748,11.575l-8.012,5.152s0-.002,0-.002h0c-5.307-8.241-15.536-20.249-21.666-21.145-1.12-.164-1.733.129-2.307.619-.254.218-.408.396-.394,1.018.155,6.673,15.931,22.027,26.545,30.301l-5.857,7.512Z" fill="#f092b8" stroke-width="0"/><path d="m767.807,350.448v-38.344c6.016-.833,10.307-2.974,10.307-5.49,0-3.24-7.1-5.867-15.858-5.867s-15.857,2.627-15.857,5.867c0,2.517,4.291,4.657,10.307,5.49v38.344c-13.811,2.311-24.262,13.076-24.262,26.015,0,14.625,13.347,26.481,29.812,26.481s29.812-11.856,29.812-26.481c0-12.939-10.451-23.704-24.262-26.015Z" fill="#faf5e9" stroke-width="0"/><polygon points="745.559 376.142 743.452 367.711 752.033 371.927 759.11 369.97 754.894 378.675 757.755 389.994 750.377 379.664 744.355 387.735 745.559 376.142" fill="#21252d" stroke-width="0"/><polygon points="743.452 367.711 747.776 369.836 749.75 376.435 745.559 376.142 743.452 367.711" fill="#f092b8" stroke-width="0"/><polygon points="744.355 387.735 748.287 382.466 749.75 376.435 745.559 376.142 744.355 387.735" fill="#e84f43" stroke-width="0"/><polygon points="750.377 379.664 755.521 381.154 757.755 389.994 750.377 379.664" fill="#f092b8" stroke-width="0"/><path d="m511.893,493.429s-1.321,1.321-3.466,2.705c-.489.317-1.022.634-1.602.941-1.176.642-2.506,1.222-3.936,1.62-.579.154-1.176.289-1.792.38-.407.054-.814.1-1.231.118-6.587.326-9.229-3.954-7.003-7.492,2.226-3.547,10.623-2.561,10.623-2.561l8.406,4.289Z" fill="#f8cace" stroke-width="0"/><path d="m502.871,492.608s-3.205-.89-7.746.89" fill="none" stroke="#d85836" stroke-linecap="round" stroke-miterlimit="10" stroke-width="1.963"/><line x1="499.728" y1="492.423" x2="497.257" y2="495.546" fill="none" stroke="#d85836" stroke-linecap="round" stroke-miterlimit="10" stroke-width="1.963"/><path d="m520.076,496.805c0,.897-.224,1.739-.606,2.479-.471-.067-.92-.135-1.369-.224-3.208-.617-6.058-1.716-8.492-3.018.37-2.547,2.558-4.498,5.205-4.498,2.906,0,5.261,2.356,5.261,5.261Z" fill="#f3a1ac" stroke-width="0"/><path d="m675.207,853.914c-1.53,1.359-3.163,2.73-4.902,4.098-4.361,3.43-8.637,6.242-12.634,8.553-22.784-14.821-63.764-60.326-63.764-60.326l2.624-1.909c7.555-.588,14.776-1.366,21.562-2.316,19.038,17.3,38.076,34.6,57.114,51.9Z" fill="#181a34" mix-blend-mode="soft-light" stroke-width="0"/><path d="m412.18,844.925c1.444,3.568,3.27,7.475,5.591,11.568,1.484,2.617,3,5.009,4.494,7.18,29.874-5.923,59.748-11.846,89.622-17.77l-6.943-20.199c-30.921,6.407-61.842,12.814-92.763,19.221Z" fill="#181a34" mix-blend-mode="soft-light" stroke-width="0"/><path d="m509.386,498.785c0,2.289-1.864,4.153-4.153,4.153-2.19,0-3.981-1.71-4.135-3.864.615-.091,1.212-.226,1.792-.38.009.027.009.063.009.091,0,1.294,1.05,2.343,2.334,2.343,1.294,0,2.344-1.05,2.344-2.343,0-.67-.29-1.285-.751-1.71.579-.308,1.113-.624,1.602-.941.597.724.959,1.647.959,2.651Z" fill="#fff" stroke-width="0"/><path d="m508.427,496.134c-.489.317-1.022.634-1.602.941-.416-.389-.977-.624-1.593-.624-.498,0-.905-.407-.905-.905s.407-.905.905-.905c1.276,0,2.425.579,3.194,1.493Z" fill="#fff" stroke-width="0"/><path d="m557.216,471.468c0,2.289-1.864,4.153-4.153,4.153-.606,0-1.185-.136-1.71-.371,0-.443-.018-.887-.045-1.33-.027-.344-.054-.679-.091-1.023.425.552,1.095.914,1.846.914,1.294,0,2.343-1.05,2.343-2.344s-1.05-2.334-2.343-2.334c-.498,0-.905-.407-.905-.905,0-.507.407-.905.905-.905,2.289,0,4.153,1.855,4.153,4.144Z" fill="#f8f6e9" stroke-width="0"/><path d="m505.691,678.074c-2.543,5.022-4.443,7.257-6.198,7.257-.145,0-.289-.018-.434-.045-.688-.145-1.276-.633-1.755-1.457-.398-.679-.724-1.557-.977-2.579.579-.253,1.149-.507,1.719-.742.217,1.032.498,1.846.823,2.407.235.398.443.57.561.597.054.009,1.176.172,3.927-4.868.787-.226,1.565-.416,2.335-.57Z" fill="#fff" stroke-width="0"/><path d="m523.055,623.694c-.145-.063-.217-.1-.217-.1-.787-.281-1.565-.561-2.353-.823-1.022-1.611-2.117-2.506-3.212-2.642-.109-.009-.208-.018-.317-.018-.733,0-1.511.308-2.316.869-.724-.199-1.439-.389-2.162-.57,1.737-1.583,3.411-2.271,5.013-2.081,2.108.253,3.972,2.063,5.565,5.366Z" fill="#fff" stroke-width="0"/><path d="m512.478,620.409c.724.181,1.439.371,2.162.57-4.352,3.022-9.492,13.5-12.731,23.661-4.497,14.07-5.275,29.326-3.864,35.868-.57.235-1.14.489-1.719.742-2.009-8.026.154-25.571,3.855-37.162,1.891-5.927,4.533-12.143,7.067-16.622,1.801-3.176,3.547-5.538,5.23-7.058Z" fill="#fff" stroke-width="0"/><path d="m412.994,759.188c0,10.84-8.786,19.626-19.626,19.626-.525,0-1.041-.018-1.547-.063-.642-6.424-.543-12.423.588-17.635,1.366-6.289,3.827-13.319,6.949-20.612,7.908,2.525,13.636,9.935,13.636,18.685Z" fill="#e96048" opacity=".26" stroke-width="0"/><path d="m722.068,790.758c-7.908-2.479-13.645-9.854-13.645-18.585,0-8.94,6.017-16.468,14.224-18.748.534,1.882.995,3.809,1.366,5.764,1.828,9.7,1.502,20.241-1.945,31.57Z" fill="#e96048" opacity=".26" stroke-width="0"/><path d="m537.436,456.756c-3.176.299-7.42-5.167-7.42-5.167,0,0-.127,6.225-3.646,5.927-3.411-.29-2-5.429-1.918-5.737-.217.199-4.271,4.036-8.723,2.778-4.588-1.294,4.479-8.895,4.479-8.895,6.958.253,12.487,1.982,15.789,3.628,1.547,2.841,3.574,7.266,1.439,7.465Z" fill="#f2b720" stroke-width="0"/><path d="m512.707,468.799c-2.733,2.416-5.058,5.167-6.831,8.035-.823,1.33-1.502,2.642-2.063,3.909,0,0-11.329-5.909-7.338-6.832,3.99-.923,6.397-.298,6.397-.298,0,0-5.04-8.297-1.773-8.189,3.266.118,6.46,5.257,6.46,5.257,0,0-.063-7.465,2.054-7.103,1.249.217,2.38,2.995,3.095,5.221Z" fill="#f2b720" stroke-width="0"/><line x1="411.443" y1="591.753" x2="410.131" y2="597.924" fill="none" stroke="#e96048" stroke-linecap="round" stroke-miterlimit="10" stroke-width="1.81"/><line x1="416.408" y1="591.753" x2="415.131" y2="597.924" fill="none" stroke="#e96048" stroke-linecap="round" stroke-miterlimit="10" stroke-width="1.81"/><line x1="601.414" y1="547.646" x2="603.338" y2="551.472" fill="none" stroke="#e96048" stroke-linecap="round" stroke-miterlimit="10" stroke-width="1.81"/><line x1="604.327" y1="546.657" x2="606.361" y2="549.899" fill="none" stroke="#e96048" stroke-linecap="round" stroke-miterlimit="10" stroke-width="1.81"/><line x1="512.487" y1="549.054" x2="511.778" y2="553.931" fill="none" stroke="#e96048" stroke-linecap="round" stroke-miterlimit="10" stroke-width="1.81"/><line x1="650.588" y1="598.668" x2="653.585" y2="602.546" fill="none" stroke="#e96048" stroke-linecap="round" stroke-miterlimit="10" stroke-width="1.81"/><line x1="519.002" y1="505.764" x2="519.002" y2="510.154" fill="none" stroke="#e78098" stroke-linecap="round" stroke-miterlimit="10" stroke-width="1.963"/><line x1="540.824" y1="505.165" x2="540.824" y2="509.555" fill="none" stroke="#e78098" stroke-linecap="round" stroke-miterlimit="10" stroke-width="1.963"/><path d="m598.313,724.123s1.05,5.547-1.078,12.463c-.721,2.342-1.462,5.029-2.126,7.56-1.194,4.546,2.462,8.906,7.147,8.531h0c2.446-.196,4.59-1.69,5.637-3.909,2.654-5.625,7.28-16.675,6.899-24.645-.532-11.123-3.887-14.315-6.466-14.492-2.578-.177-8.076,2.98-8.076,2.98l-1.937,11.513Z" fill="#eb9900" stroke-width="0"/><path d="m598.313,724.123s1.05,5.547-1.078,12.463c-.721,2.342-1.462,5.029-2.126,7.56-1.194,4.546,2.462,8.906,7.147,8.531h0c2.446-.196,4.59-1.69,5.637-3.909,2.654-5.625,7.28-16.675,6.899-24.645-.532-11.123-3.887-14.315-6.466-14.492-2.578-.177-8.076,2.98-8.076,2.98l-1.937,11.513Z" fill="none" stroke="#f8cace" stroke-linecap="round" stroke-linejoin="round" stroke-width="2.244"/><path d="m607.746,705.788l-1.47,9.491c-.348,2.232-1.571,4.229-3.399,5.553l-17.354,12.519c-1.055.763-2.3,1.133-3.534,1.133-1.571,0-3.141-.606-4.308-1.795-2.266-2.311-2.322-5.979-.135-8.358l6.439-6.944,4.072-10.5.942-2.446,13.832-13.709c3.938,3.949,5.766,9.535,4.914,15.055Z" fill="#eb9900" stroke-width="0"/><path d="m607.746,705.788l-1.47,9.491c-.348,2.232-1.571,4.229-3.399,5.553l-17.354,12.519c-1.055.763-2.3,1.133-3.534,1.133-1.571,0-3.141-.606-4.308-1.795-2.266-2.311-2.322-5.979-.135-8.358l6.439-6.944,4.072-10.5.942-2.446,13.832-13.709c3.938,3.949,5.766,9.535,4.914,15.055Z" fill="none" stroke="#f8cace" stroke-linecap="round" stroke-linejoin="round" stroke-width="2.244"/><path d="m580.373,684.478s5.8-.369,5.431,2.214c-.254,1.775-6.783,10.262-10.841,15.396-1.837,2.323-1.762,5.618.175,7.858h0c2.094,2.422,5.692,2.844,8.283.963,8.441-6.129,25.448-19.214,24.893-24.77-.738-7.38-14.933-10.238-24.17-7.565-9.236,2.673-3.77,5.904-3.77,5.904Z" fill="#eb9900" stroke-width="0"/><path d="m580.373,684.478s5.8-.369,5.431,2.214c-.254,1.775-6.783,10.262-10.841,15.396-1.837,2.323-1.762,5.617.175,7.858,2.094,2.422,5.692,2.844,8.283.963,8.441-6.129,25.448-19.214,24.893-24.77-.712-7.12-14.882-10.895-24.17-7.565-2.685.963-4.71,2.41-6.121,3.651.406.715.813,1.43,1.219,2.146.377.036.755.072,1.132.107Z" fill="none" stroke="#f8cace" stroke-linecap="round" stroke-linejoin="round" stroke-width="2.244"/><path d="m568.434,639.917s-6.279,1.251-13.397.985" fill="none" stroke="#8c411b" stroke-linecap="round" stroke-linejoin="round" stroke-width="2.244"/><ellipse cx="553.554" cy="632.136" rx="12.153" ry="2.487" fill="#8c411b" stroke-width="0"/><g opacity=".51"><path d="m429.312,778.816c-8.267-2.302-22.287-9.647-16.096-20.123,5.325-7.767,16.198-11.158,24.937-13.12-4.246,2-8.468,3.942-12.476,6.175-3.735,2.222-7.847,4.681-10.146,8.358-5.106,8.457,7.766,14.941,13.781,18.71h0Z" fill="#f1e4d7" stroke-width="0"/><path d="m683.895,781.641c-9.201,5.087-19.828,7.499-30.311,7.506,9.798-3.707,19.962-5.972,30.311-7.506h0Z" fill="#f1e4d7" stroke-width="0"/><path d="m680.813,745.044c8.958,1.848,24.85,6.61,27.798,16.517,2.12,9.621-9.947,14.955-17.318,17.255,5.428-3.39,13.196-7.202,14.873-13.629,1.625-9.612-18.247-16.635-25.353-20.143h0Z" fill="#f1e4d7" stroke-width="0"/><path d="m515.625,742.196c-5.962-.744-13.225-2.857-16.663-8.249-1.643-2.635-.551-6,1.802-7.71,1.031-.794,2.138-1.397,3.319-1.812-.849.917-1.697,1.784-2.359,2.736-2.288,2.936-1.309,5.471,1.641,7.744,3.7,2.868,8.174,4.802,12.259,7.29h0Z" fill="#f1e4d7" stroke-width="0"/><path d="m412.227,778.818c-10.909-4.282-16.331-16.848-5.096-24.343-7.16,10.462-2.612,16.318,5.096,24.343h0Z" fill="#f1e4d7" stroke-width="0"/></g><path d="m474.088,511.615c2.556,6.828,12.801,36.365,11.546,68.057h15.461c.435-5.337.765-13.464-.238-23.243-2.314-22.546-10.716-44.143-12.94-49.557-.317-.772-1.119-1.222-1.942-1.083-1.751.296-3.738.755-5.877,1.468-1.946.649-3.666,1.39-5.148,2.13-.818.408-1.183,1.371-.863,2.227Z" fill="#ce3317" stroke-width="0"/><path d="m574.96,509.666c-2.873,4.793-17.431,31.34-12.693,70.006h14.868s-3.381-25.852,3.79-45.736l6.82-18.911c.209-.58-.01-1.224-.531-1.554-1.371-.872-3.039-1.789-4.999-2.603-2.162-.898-4.163-1.455-5.864-1.807-.549-.114-1.104.124-1.392.605Z" fill="#ce3317" stroke-width="0"/><ellipse cx="493.6" cy="573.562" rx="2.68" ry="2.723" fill="#d6d0c9" stroke-width="0"/><ellipse cx="569.189" cy="574.107" rx="2.298" ry="2.334" fill="#d6d0c9" stroke-width="0"/><path d="m497.841,454.83s1.603,6.063,3.955,5.577c2.352-.487-.324-5.939-.324-5.939,0,0,5.515,2.046,6.002.424.487-1.622-4.816-4.001-4.816-4.001-.83.573-1.704,1.225-2.602,1.966-.812.669-1.549,1.333-2.214,1.973Z" fill="#f2b720" stroke-width="0"/><ellipse cx="630.519" cy="459.97" rx="2.129" ry="1.41" fill="#e5ab00" stroke-width="0"/><text transform="translate(369.294 1015.624)" fill="#21252d" font-family="Best-Sugar, &apos;Best Sugar&apos;" font-size="18.757"><tspan x="0" y="0">darja draws</tspan></text><line x1="539.572" y1="994.347" x2="513.85" y2="1020.07" fill="none" stroke="#f2b720" stroke-linecap="round" stroke-miterlimit="10" stroke-width="3.619"/><line x1="539.572" y1="1020.07" x2="513.85" y2="994.347" fill="none" stroke="#f2b720" stroke-linecap="round" stroke-miterlimit="10" stroke-width="3.619"/><text transform="translate(554.334 1015.624)" fill="#21252d" font-family="Best-Sugar, &apos;Best Sugar&apos;" font-size="18.757"><tspan x="0" y="0">sipor ceramics</tspan></text></g></g></svg>