<?xml version="1.0" encoding="UTF-8"?><svg xmlns="http://www.w3.org/2000/svg" viewBox="0 0 2048 2048"><g isolation="isolate"><g id="Layer_1"><rect x="-.5" y="-.5" width="2048" height="2048" fill="#5c6d53" stroke-width="0"/><rect x="771.491" y="950.825" width="317.062" height="317.062" fill="#a94b46" stroke-width="0"/><rect x="1088.553" y="950.825" width="317.077" height="317.062" fill="#a94b46" stroke-width="0"/><rect x="454.429" y="1267.887" width="317.062" height="317.062" fill="#a94b46" stroke-width="0"/><rect x="771.491" y="1267.887" width="317.062" height="317.062" fill="#a94b46" stroke-width="0"/><rect x="1088.553" y="1267.887" width="317.077" height="317.062" fill="#a94b46" stroke-width="0"/><path d="m1357.3-.5h173.72l-719.18,890.07-26.56,32.89-.01.01-40.99,50.72-8.63,10.68-138.08,170.89-.01.01-15.25,18.88c-.01-.01-.01,0-.01,0l-38.95,48.2c.01.01-.01.01-.01.01l-15.85,19.63c-.01.01-.01.02-.021.02l-3.02,3.73-18.3,22.65-31.35,38.8-20.37-7.1-71.63-24.96,49.79-65.15,14.07-18.4,21.85-28.6,13.56-17.74,14.13-18.48,2.29-3,10.1-13.22,1.95-2.54v-.01l81.2-106.24L1357.3-.5Z" fill="#f9a435" stroke-width="0"/><path d="m1634.64,1447.49c-1.53,15.99-6.68,27.41-11.15,34.85-19.89,33.04-64.021,49.41-112.92,44.61,5.58,58.55-34.85,57.16-65.52,37.64-15.33,20.91-82.25,89.22-184.01,36.24-23.7,64.13-89.22,68.31-107.34,55.77-.87.91-4.47,4.59-10.23,8.74-10.74,7.77-29.01,17.22-51.11,13.56-16.8-2.79-28.21-11.89-33.46-16.73-27.88,19.52-52.97,1.4-52.97,1.4-5.7,5.89-27.38,26.91-62.73,30.66-36.8,3.92-63.22-13.56-69.7-18.12-4.35,12.56-10.64,20.2-16.73,25.09-33.16,26.62-104.57,6.75-177.04-50.18-1.49,2.05-15.67,20.76-40.43,20.91-21.93.14-35.53-14.4-37.64-16.73,0,0-8.36,30.67-51.58,30.67-4.18,0-20.62.84-32.47-11.26-9.06-9.27-10.45-20.86-10.74-24.98-9.5,7.86-22.08,10.14-32.07,5.57-13.64-6.24-20.93-24.65-13.95-41.81-.64.34-21.18,11.14-39.02,11.14-9.06,0-17.42-2.79-23.53-5.57-6.09-2.79-9.93-5.58-9.93-5.58,0,0-27.54,8.53-44.61,2.79-7.96-2.68-22.3-11.6-30.66-48.79-5.98-1.63-15.51-5.06-25.1-12.55-16.13-12.59-21.95-28.49-23.7-33.46-10.1-28.77,1.48-54.32,4.19-59.94-4.21-3.55-9.96-9.03-15.34-16.73-30.33-43.31-10.05-100.09-6.97-108.73,5.27-14.77,16.01-44.82,46.01-61.34,11.2-6.18,21.84-8.66,29.27-9.76,0,0,.75-17.7,10.11-35.31,8.61-16.24,24.57-32.38,54.02-34.39,13.2-.91,23.82,1.1,32.35,4.81.49.21.96.43,1.44.65.47.23.95.45,1.41.69,1.38.69,2.7,1.43,3.95,2.21.2.13.39.26.59.38.22.14.45.28.66.42,3.41,2.24,6.39,4.78,9,7.48.61.65,1.2,1.29,1.77,1.94,13.84,15.78,15.74,35.79,15.74,35.79,0,0,24.79-9.13,50.37,6.67.87.53,1.74,1.09,2.6,1.69,2.87-2.87,5.75-5.21,8.52-7.11,0,0,.01,0,.01-.01,2.69-1.83,5.29-3.26,7.69-4.37,8.36-3.84,14.45-3.84,14.45-3.84l8.06-6.39,58.62-46.36,19.65-15.56,40.53-32.06,844.78-75.28s36.39,22.07,79.13,47.85c51.53,31.09,112.28,67.59,129.59,77.36,31.67,17.86,64.51,85.29-28.89,154.99,66.92,43.21,4.19,108.73-52.97,100.37Z" fill="#fff" stroke-width="0"/><path d="m435.179,1363.874c-7.51,8.156-46.488,40.994-34.595,51.269,14.622,14.789,48.607,4.1,67.556-.237,1.228-.357,2.523.377,2.831,1.623.207.828-.073,1.665-.656,2.208-2.662,2.468-5.443,4.571-8.367,6.571-8.967,6.087-18.546,10.637-29.257,13.429-13.684,3.495-29.458,3.146-41.302-5.709-3.948-2.886-7.208-6.265-9.556-10.775-12.469-26.288,21.219-49.026,41.822-57.664,3.224-1.374,6.497-2.569,9.92-3.554,1.659-.49,2.89,1.681,1.604,2.839h0Z" fill="#fff0f0" stroke-width="0"/><path d="m650.913,1445.992c-2.72,9.598-5.884,19.449-7.302,29.133-.786,5.624-1.242,10.526-.262,15.4.196.911.579,2.002.928,2.472-.013-.016-.261-.189-.129-.075.257.199,1.434.463,2.018.513,15.128.506,33.152-11.373,45.968-19.396,1.716-1.167,3.982.809,3.069,2.663-2.344,5.063-5.433,9.724-9.023,14.003-7.578,8.916-16.884,16.124-28.377,19.984-11.982,4.105-26.784,2.476-32.018-10.924-7.141-19.589,5.859-44.532,21.42-56.354,1.782-1.38,4.389.453,3.71,2.58h0Z" fill="#fff0f0" stroke-width="0"/><path d="m1733.62,1178.44l-17.12,13.69s-29.23-4.67-74.82-10.84c-7.12-.97-14.65-1.97-22.53-3-61.85-8.06-145.31-17.65-226.5-22.93-10.98-.73-21.93-1.36-32.76-1.9-17.05-.85-33.85-1.47-50.17-1.8-31.58-.65-61.37-.22-87.71,1.69-76.33,5.53-183.07,33.09-280.43,62.26-7.37,2.2-14.68,4.42-21.93,6.63-113.82,34.84-210.09,69.77-221.8,70.51-3.57.23-6.5.34-9.05.13-13.39-1.09-16.49-11.11-48.11-61.47-37.63-59.94-149.16-111.52-149.16-111.52v-16.98s.02-.07.1-.16c.84-.91,8.62-3.89,79.36,35.26,78.07,43.22,125.66,121.29,125.66,121.29,0-.03.01-.06.01-.09,44.52-37.41,114.94-88.24,210.99-124.68,203.2-77.09,398.74-43.42,541.58-18.82,14.96,2.58,30.89,5.56,47.28,8.79,58,11.46,121.74,26.09,168.51,37.23,40.04,9.53,67.66,16.5,68.6,16.71Z" fill="#e9331b" stroke-width="0"/><path d="m696.651,1259.296c-1.854,14.108-4.698,25.079-7.848,33.582-12.644-1.032-16.115-10.009-43.02-53.322-1.603-2.579-3.304-5.297-5.088-8.141-9.145-14.568-22.667-28.647-37.876-41.598-3.652-3.123-7.416-6.175-11.236-9.159h-.014c-19.837-15.488-41.347-28.996-59.316-39.326-13.118-7.528-24.34-13.355-31.659-17.035-5.716-2.858-9.061-4.405-9.061-4.405v-16.979s.572-3.318,21.412,5.59c4.837,2.077,10.762,4.81,18.039,8.392,10.372,5.116,23.476,11.961,40.009,21.12,19.056,10.553,36.301,23.183,51.482,36.245,46.993,40.441,74.177,85.036,74.177,85.036Z" fill="#f65f23" stroke-width="0"/><path d="m1733.617,1178.442c-30.362-7.402-59.525-13.731-87.322-19.14-9.201-1.798-18.248-3.485-27.142-5.088-65.743-11.808-122.996-18.485-169.222-22.472-17.565-1.52-36.064-3.081-55.455-4.517-10.748-.795-21.761-1.548-33.039-2.217-66.314-4.001-141.62-5.478-223.784,1.966-8.295.753-16.645,1.589-25.079,2.537-13.564,1.52-27.309,3.276-41.236,5.325-7.793,1.143-15.655,2.384-23.559,3.708-35.924,6.05-72.922,14.01-110.798,24.354-7.193,1.966-14.414,4.015-21.677,6.162-13.02,3.834-26.138,7.946-39.354,12.379-77.494,25.957-138.567,55.789-179.287,77.773,0,.028-.014.056-.014.084,0,0-47.592-78.066-125.658-121.281-70.747-39.159-78.526-36.175-79.362-35.269,23.169-40.371,57.769-73.912,100.092-101.486l.014-.014c28.522-18.596,60.557-34.489,94.962-47.955,5.869-2.286,11.821-4.517,17.83-6.677,53.433-19.21,111.899-32.927,171.452-42.1,2.147-.335,4.28-.669,6.426-.99,4.321-.641,8.643-1.255,12.978-1.854,51.579-7.11,103.632-10.915,153.636-12.031h.126c25.26-.572,49.976-.446,73.842.279,5.911.167,11.78.39,17.579.641,4.879.209,9.73.446,14.526.711,22.639,1.227,45.306,3.638,67.862,7.04,44.93,6.747,89.372,17.398,132.043,30.418,21.44,6.538,42.434,13.675,62.815,21.231,125.714,46.533,228.329,108.498,269.801,140.658,68.308,52.973,46.003,87.824,46.003,87.824Z" fill="#ff7e47" stroke-width="0"/><path d="m645.783,1239.556s-10.664,3.011-19.795,19.74c-9.145,16.728,3.555,34.851-15.962,36.245-11.612.836-15.948-12.867-17.537-24.075-.084,6.845-1.547,12.825-3.889,17.286-2.356,4.461-5.59,7.402-9.242,8.183-2.593.557-6.454.237-9.061-2.091-3.485-3.109-2.649-7.974-2.927-18.819-.112-4.238-.404-10.204-1.255-17.425.028,4.963-.307,10.915-1.436,17.537-1.101,6.552-2.718,12.212-4.363,16.854-1.924,3.792-6.064,5.939-10.232,5.339-4.294-.613-7.709-4.029-8.364-8.364-2.049-10.372-3.569-25.581,0-43.215.585-2.9,1.338-6.496,2.481-10.567,2.635-9.354,7.36-21.175,17.035-32.648,10.832-12.839,23.085-19.572,30.334-22.876h.014c3.82,2.983,7.584,6.036,11.236,9.159,15.209,12.951,28.731,27.031,37.876,41.598,1.784,2.844,3.485,5.562,5.088,8.141Z" fill="#fcb6c0" stroke-width="0"/><path d="m591.568,1180.658c-7.249,3.304-19.503,10.037-30.334,22.876-9.675,11.473-14.4,23.294-17.035,32.648l-8.058,6.385s-6.092,0-14.456,3.848c23.671-18.429,35.422-45.961,29.791-70.761-3.652-16.073-13.62-26.765-19.516-32.063,0,0,.139-.837.293-2.258,17.969,10.33,39.479,23.838,59.316,39.326Z" fill="#211d1e" stroke-width="0"/><path d="m552.52,1194.63c-2.05,19.05-13.09,37.97-30.83,51.78-2.4,1.11-5,2.54-7.69,4.37,0,.01-.01.01-.01.01-3.71,1.81-7.42,3.61-11.12,5.42-25.58-15.8-50.37-6.67-50.37-6.67,0,0-2.06-21.69-17.51-37.73-2.61-2.7-5.59-5.24-9-7.48-.41-.28-.83-.55-1.25-.8-1.25-.78-2.57-1.52-3.95-2.21-.46-.24-.94-.46-1.41-.69-.48-.22-.95-.44-1.44-.65,13.12-18.1,6.68-43.84,6.68-43.84,0,0,43.21-23.7,44.61-39.04,9.76,6.97,30.67,9.76,30.67,9.76-1.39-7.51,1.48-14.88,6.98-19,.67-.51,1.38-.96,2.12-1.36,7.83-4.21,17.55-1.34,22,4,8.47,10.17.96,33.09.96,33.09.59.52,1.2,1.09,1.84,1.72,5.95,5.72,14.39,15.85,17.68,30.34,1.4,6.22,1.72,12.61,1.04,18.98Z" fill="#fcb6c0" stroke-width="0"/><path d="m499.9,1126.86c-14.466,23.032-28.315,29.973-38.9,31.64-13.796,2.173-36.381-2.356-36.38-2.36h0s6.44,25.74-6.68,43.84c-8.53-3.71-19.15-5.72-32.35-4.81-29.45,2.01-45.41,18.15-54.02,34.39-12.2-19.99-10.11-59.48,37.29-56.69,2.79-47.4,46-69.71,46-69.71,0,0-.75-1.54-1.69-4.14-3.79-6.07-5.98-13.25-5.98-20.95,0-21.94,17.79-39.73,39.73-39.73s39.73,17.79,39.73,39.73c0,3.83-.54,7.53-1.56,11.03,9.28,4.24,17.86,13.89,21.79,18.76-5.5,4.12-8.37,11.49-6.98,19Z" fill="#211d1e" stroke-width="0"/><path d="m473.185,1191.881c4.368.914,10.3,3.571,14.883,10.9" fill="none" stroke="#9d372e" stroke-linecap="round" stroke-miterlimit="10" stroke-width="4.182"/><path d="m492.093,1185.593s-2.395,7.441-9.463,10.873" fill="none" stroke="#9d372e" stroke-linecap="round" stroke-miterlimit="10" stroke-width="4.182"/><path d="m519.972,1120.787c-1.305,1.598-2.985,4.066-4.124,7.409-2.026,5.948-1.14,11.153-.572,13.531" fill="none" stroke="#ff7e47" stroke-linecap="round" stroke-miterlimit="10" stroke-width="4.182"/><path d="m523.726,1131.007c-2.501.095-5.001.189-7.502.284" fill="none" stroke="#ff7e47" stroke-linecap="round" stroke-miterlimit="10" stroke-width="4.182"/><path d="m1799.1-.5h175.02l-633.39,924.99-18.03,26.34-25.18,36.77-12.91,18.85-55.79,81.47-2.81,4.11-20.99,30.65-24.15,35.27-75.28,109.94-17.04,24.88-120.26,175.63s-27.88,32.06-62.73,13.94c-34.85-18.12-29.27-43.21-29.27-43.21,0,0,.05-.09.16-.25l37.59-58.64c.05-.1.11-.18.16-.28l71.84-112.07,50.74-79.15.01-.01,34.54-53.89,17.22-26.86,2.51-3.93h.01l8.65-13.51,1.771-2.75,15.35-23.94,72.46-113.02,9.61-14.99,7.07-11.04,16.97-26.49h.01l70.78-110.44L1799.1-.5Z" fill="#f9a435" stroke-width="0"/><path d="m936.982,1162.898c-7.193,1.966-14.414,4.015-21.677,6.162-24.043-37.314-59.694-84.372-110.812-130.719-42.24-38.298-83.557-65.699-117.796-85.05,2.954-1.129,5.908-2.257,8.863-3.386,29.298,12.093,63.676,29.534,99.175,54.979,74.103,53.115,118.036,115.983,142.247,158.014Z" fill="#ffbeba" opacity=".74" stroke-width="0"/><path d="m941.583,1215.606c-7.374,2.203-14.679,4.419-21.928,6.636,5.019-18.234-4.349-53.182-4.349-53.182,7.263-2.147,14.484-4.196,21.677-6.162,7.026,20.004,4.6,52.708,4.6,52.708Z" fill="#f6523c" stroke-width="0"/><path d="m1116.841,1063.852l-15.348,23.935c-49.363-125.379-222.92-182.423-225.513-183.274,3.231-.49,6.461-.979,9.692-1.469,39.633,9.782,107.155,32.567,169.748,89.293,27.018,24.485,46.927,49.684,61.421,71.514Z" fill="#ffbeba" opacity=".74" stroke-width="0"/><path d="m1205.975,924.797l-7.068,11.041c-41.5-25.594-80.157-39.186-107.243-46.658,27.03,4.07,68.545,13.174,114.311,35.618Z" fill="#ffbeba" opacity=".74" stroke-width="0"/><path d="m1394.476,1127.225c-10.748-.795-21.761-1.548-33.039-2.217-11.571-26.905-34.572-72.782-76.825-118.563l12.909-18.847c57.546,53.252,85.413,111.76,96.955,139.627Z" fill="#ffbeba" opacity=".74" stroke-width="0"/><path d="m1646.295,1159.302c-9.201-1.798-18.248-3.485-27.142-5.088-.878-1.77-75.543-152.814-264.016-225.429-.042-.014-.098-.042-.139-.056,21.44,6.538,42.434,13.675,62.815,21.231,44.093,21.984,93.623,53.67,140.853,99.534,39.242,38.085,67.499,76.825,87.629,109.808Z" fill="#ffbeba" opacity=".74" stroke-width="0"/><path d="m1394.476,1127.225l-1.826,28.132c-10.985-.725-21.928-1.352-32.76-1.896l1.548-28.452,33.039,2.217Z" fill="#f6523c" stroke-width="0"/><path d="m1646.295,1159.302l-4.614,21.984c-7.124-.962-14.651-1.966-22.528-2.997v-24.075l27.142,5.088Z" fill="#f6523c" stroke-width="0"/><path d="m1222.954,898.31l-106.114,165.542-15.348,23.935-30.153,47.049-157.136,245.127c36.398-58.424,91.853-151.769,133.576-241.419,59.163-127.094,90.752-246.744,1.366-248.905,25.26-.572,49.976-.446,73.842.279,5.911.167,11.78.39,17.579.641,4.879.209,9.73.446,14.526.711,22.639,1.227,45.306,3.638,67.862,7.04Z" fill="#0c0b2d" opacity=".81" stroke-width="0"/><path d="m811.84,889.57l-26.57,32.899c-27.797,6.817-54.855,14.846-80.743,24.145-6.008,2.161-11.961,4.391-17.83,6.677-34.405,13.466-66.44,29.358-94.962,47.955,1.129-1.227,73.87-79.474,220.104-111.676Z" fill="#5c6d53" stroke-width="0"/><path d="m552.522,1194.626c-3.485,1.687-7.388,2.635-11.501,2.635-14.623,0-26.487-11.863-26.487-26.487,0-12.114,8.155-22.346,19.266-25.469,5.953,5.729,14.386,15.85,17.676,30.348,1.408,6.217,1.729,12.602,1.046,18.973Z" fill="#e9331b" opacity=".19" stroke-width="0"/><path d="m494,1172.5c1.501.141,5.282.283,9-2,6.724-4.129,6.99-12.352,7-13" fill="none" stroke="#9d372e" stroke-linecap="round" stroke-miterlimit="10" stroke-width="4.182"/><path d="m444,1211.5c1.291.852,4.371,2.6,8,2,5.423-.897,9.991-6.694,10.298-14.267" fill="none" stroke="#9d372e" stroke-linecap="round" stroke-miterlimit="10" stroke-width="4.182"/><path d="m1510.447,1325.551s99.795,51.871,87.75,0c-12.045-51.871-48.496-60.283-87.75-59.582-39.254.701-30.842,38.553,0,59.582Z" fill="#fff" stroke-width="0"/><path d="m1634.64,1447.49c-1.53,15.99-6.68,27.41-11.15,34.85-19.89,33.04-64.021,49.41-112.92,44.61,5.58,58.55-34.85,57.16-65.52,37.64-15.33,20.91-82.25,89.22-184.01,36.24-23.7,64.13-89.22,68.31-107.34,55.77-.87.91-4.47,4.59-10.23,8.74-14.326,1.399-28.234-4.801-36.262-16.276-10.426-14.904-5.84-31.425-5.208-33.563,40.343,16.27,82.157,3.938,99-24,15.665-25.982,4.13-56.172,3-59-14.398-36.026-52.342-44.06-55.18-44.61,4.765.622,36.158,4.19,61.18-18.39,20.855-18.82,29.276-48.578,22-77,34.701-13.309,56.042-46.199,53-79-3.329-35.906-34.34-55.154-37.91-57.29,17.847,5.021,72.108,17.727,118.91-11.71,9.683-6.09,37.416-23.534,36-44-1.55-22.407-37.737-44.041-92.28-48.84,16.32.33,33.12.95,50.17,1.8,10.83.54,21.78,1.17,32.76,1.9,81.19,5.28,164.65,14.87,226.5,22.93,7.88,1.03,15.41,2.03,22.53,3,45.59,6.17,74.82,10.84,74.82,10.84,31.67,17.86,64.51,85.29-28.89,154.99,66.92,43.21,4.19,108.73-52.97,100.37Z" fill="#e9331b" mix-blend-mode="hard-light" opacity=".11" stroke-width="0"/><path d="m1546.328,1290.487s97.225,50.536,85.49,0-47.247-58.73-85.49-58.048c-38.243.683-30.048,37.56,0,58.048Z" fill="#fff" stroke-width="0"/><path d="m1366.061,1485.806c28.166,7.674,62.377-7.685,62.798-20.685.645-19.921-78.022-35.061-100.454-24.934-1.456.657-3.359,1.73-4.279,3.769-4.419,9.795,16.946,35.042,41.934,41.851Z" fill="#fff" stroke-width="0"/><ellipse cx="1369.453" cy="1436.631" rx="45.755" ry="17.756" fill="#fff" stroke-width="0"/></g></g></svg>